%TF.GenerationSoftware,KiCad,Pcbnew,(6.0.0)*%
%TF.CreationDate,2022-02-25T16:17:33+00:00*%
%TF.ProjectId,ISOpower,49534f70-6f77-4657-922e-6b696361645f,rev?*%
%TF.SameCoordinates,Original*%
%TF.FileFunction,Soldermask,Top*%
%TF.FilePolarity,Negative*%
%FSLAX46Y46*%
G04 Gerber Fmt 4.6, Leading zero omitted, Abs format (unit mm)*
G04 Created by KiCad (PCBNEW (6.0.0)) date 2022-02-25 16:17:33*
%MOMM*%
%LPD*%
G01*
G04 APERTURE LIST*
G04 Aperture macros list*
%AMRoundRect*
0 Rectangle with rounded corners*
0 $1 Rounding radius*
0 $2 $3 $4 $5 $6 $7 $8 $9 X,Y pos of 4 corners*
0 Add a 4 corners polygon primitive as box body*
4,1,4,$2,$3,$4,$5,$6,$7,$8,$9,$2,$3,0*
0 Add four circle primitives for the rounded corners*
1,1,$1+$1,$2,$3*
1,1,$1+$1,$4,$5*
1,1,$1+$1,$6,$7*
1,1,$1+$1,$8,$9*
0 Add four rect primitives between the rounded corners*
20,1,$1+$1,$2,$3,$4,$5,0*
20,1,$1+$1,$4,$5,$6,$7,0*
20,1,$1+$1,$6,$7,$8,$9,0*
20,1,$1+$1,$8,$9,$2,$3,0*%
%AMFreePoly0*
4,1,22,0.500000,-0.750000,0.000000,-0.750000,0.000000,-0.745033,-0.079941,-0.743568,-0.215256,-0.701293,-0.333266,-0.622738,-0.424486,-0.514219,-0.481581,-0.384460,-0.499164,-0.250000,-0.500000,-0.250000,-0.500000,0.250000,-0.499164,0.250000,-0.499963,0.256109,-0.478152,0.396186,-0.417904,0.524511,-0.324060,0.630769,-0.204165,0.706417,-0.067858,0.745374,0.000000,0.744959,0.000000,0.750000,
0.500000,0.750000,0.500000,-0.750000,0.500000,-0.750000,$1*%
%AMFreePoly1*
4,1,20,0.000000,0.744959,0.073905,0.744508,0.209726,0.703889,0.328688,0.626782,0.421226,0.519385,0.479903,0.390333,0.500000,0.250000,0.500000,-0.250000,0.499851,-0.262216,0.476331,-0.402017,0.414519,-0.529596,0.319384,-0.634700,0.198574,-0.708877,0.061801,-0.746166,0.000000,-0.745033,0.000000,-0.750000,-0.500000,-0.750000,-0.500000,0.750000,0.000000,0.750000,0.000000,0.744959,
0.000000,0.744959,$1*%
%AMFreePoly2*
4,1,22,0.550000,-0.750000,0.000000,-0.750000,0.000000,-0.745033,-0.079941,-0.743568,-0.215256,-0.701293,-0.333266,-0.622738,-0.424486,-0.514219,-0.481581,-0.384460,-0.499164,-0.250000,-0.500000,-0.250000,-0.500000,0.250000,-0.499164,0.250000,-0.499963,0.256109,-0.478152,0.396186,-0.417904,0.524511,-0.324060,0.630769,-0.204165,0.706417,-0.067858,0.745374,0.000000,0.744959,0.000000,0.750000,
0.550000,0.750000,0.550000,-0.750000,0.550000,-0.750000,$1*%
%AMFreePoly3*
4,1,20,0.000000,0.744959,0.073905,0.744508,0.209726,0.703889,0.328688,0.626782,0.421226,0.519385,0.479903,0.390333,0.500000,0.250000,0.500000,-0.250000,0.499851,-0.262216,0.476331,-0.402017,0.414519,-0.529596,0.319384,-0.634700,0.198574,-0.708877,0.061801,-0.746166,0.000000,-0.745033,0.000000,-0.750000,-0.550000,-0.750000,-0.550000,0.750000,0.000000,0.750000,0.000000,0.744959,
0.000000,0.744959,$1*%
G04 Aperture macros list end*
%ADD10FreePoly0,180.000000*%
%ADD11FreePoly1,180.000000*%
%ADD12FreePoly0,90.000000*%
%ADD13FreePoly1,90.000000*%
%ADD14FreePoly0,0.000000*%
%ADD15FreePoly1,0.000000*%
%ADD16C,3.716000*%
%ADD17R,3.716000X3.716000*%
%ADD18O,2.400000X1.200000*%
%ADD19R,1.800000X2.500000*%
%ADD20R,1.600000X1.500000*%
%ADD21C,1.600000*%
%ADD22C,3.000000*%
%ADD23C,1.500000*%
%ADD24R,1.000000X1.000000*%
%ADD25O,1.000000X1.000000*%
%ADD26RoundRect,0.250000X-1.500000X-0.550000X1.500000X-0.550000X1.500000X0.550000X-1.500000X0.550000X0*%
%ADD27R,4.600000X1.100000*%
%ADD28R,9.400000X10.800000*%
%ADD29C,1.400000*%
%ADD30R,3.500000X3.500000*%
%ADD31C,3.500000*%
%ADD32RoundRect,0.150000X0.150000X-0.587500X0.150000X0.587500X-0.150000X0.587500X-0.150000X-0.587500X0*%
%ADD33RoundRect,0.062500X-0.375000X-0.062500X0.375000X-0.062500X0.375000X0.062500X-0.375000X0.062500X0*%
%ADD34RoundRect,0.062500X-0.062500X-0.375000X0.062500X-0.375000X0.062500X0.375000X-0.062500X0.375000X0*%
%ADD35R,3.100000X3.100000*%
%ADD36C,3.200000*%
%ADD37RoundRect,0.250000X-0.350000X-0.450000X0.350000X-0.450000X0.350000X0.450000X-0.350000X0.450000X0*%
%ADD38R,2.000000X1.600000*%
%ADD39C,1.000000*%
%ADD40R,2.000000X0.500000*%
%ADD41R,1.700000X2.000000*%
%ADD42O,1.600000X1.600000*%
%ADD43RoundRect,0.150000X0.150000X-0.825000X0.150000X0.825000X-0.150000X0.825000X-0.150000X-0.825000X0*%
%ADD44RoundRect,0.250000X0.337500X0.475000X-0.337500X0.475000X-0.337500X-0.475000X0.337500X-0.475000X0*%
%ADD45R,3.960000X1.980000*%
%ADD46O,3.960000X1.980000*%
%ADD47R,0.900000X2.000000*%
%ADD48R,2.000000X0.900000*%
%ADD49R,5.000000X5.000000*%
%ADD50RoundRect,0.250000X-0.337500X-0.475000X0.337500X-0.475000X0.337500X0.475000X-0.337500X0.475000X0*%
%ADD51RoundRect,0.250000X-0.325000X-0.450000X0.325000X-0.450000X0.325000X0.450000X-0.325000X0.450000X0*%
%ADD52RoundRect,0.250000X0.550000X-1.500000X0.550000X1.500000X-0.550000X1.500000X-0.550000X-1.500000X0*%
%ADD53R,1.600000X0.300000*%
%ADD54C,1.900000*%
%ADD55C,1.800000*%
%ADD56C,2.500000*%
%ADD57RoundRect,0.250000X0.350000X0.450000X-0.350000X0.450000X-0.350000X-0.450000X0.350000X-0.450000X0*%
%ADD58RoundRect,0.150000X-0.825000X-0.150000X0.825000X-0.150000X0.825000X0.150000X-0.825000X0.150000X0*%
%ADD59RoundRect,0.250000X-0.450000X0.325000X-0.450000X-0.325000X0.450000X-0.325000X0.450000X0.325000X0*%
%ADD60RoundRect,0.250000X0.325000X0.450000X-0.325000X0.450000X-0.325000X-0.450000X0.325000X-0.450000X0*%
%ADD61R,1.600000X2.000000*%
%ADD62R,1.300000X1.600000*%
%ADD63RoundRect,0.250000X-0.275000X-0.350000X0.275000X-0.350000X0.275000X0.350000X-0.275000X0.350000X0*%
%ADD64RoundRect,0.250000X-0.550000X1.500000X-0.550000X-1.500000X0.550000X-1.500000X0.550000X1.500000X0*%
%ADD65O,2.000000X3.500000*%
%ADD66R,1.400000X1.400000*%
%ADD67R,1.200000X1.400000*%
%ADD68R,1.000000X1.400000*%
%ADD69RoundRect,0.250000X0.475000X-0.337500X0.475000X0.337500X-0.475000X0.337500X-0.475000X-0.337500X0*%
%ADD70FreePoly2,270.000000*%
%ADD71R,1.500000X1.000000*%
%ADD72FreePoly3,270.000000*%
%ADD73R,1.100000X4.600000*%
%ADD74R,10.800000X9.400000*%
%ADD75RoundRect,0.250000X-0.450000X0.350000X-0.450000X-0.350000X0.450000X-0.350000X0.450000X0.350000X0*%
%ADD76RoundRect,0.150000X0.825000X0.150000X-0.825000X0.150000X-0.825000X-0.150000X0.825000X-0.150000X0*%
%ADD77RoundRect,0.150000X0.587500X0.150000X-0.587500X0.150000X-0.587500X-0.150000X0.587500X-0.150000X0*%
%ADD78RoundRect,0.250000X-0.475000X0.337500X-0.475000X-0.337500X0.475000X-0.337500X0.475000X0.337500X0*%
%ADD79RoundRect,0.150000X-0.587500X-0.150000X0.587500X-0.150000X0.587500X0.150000X-0.587500X0.150000X0*%
%ADD80R,2.000000X1.500000*%
%ADD81R,2.000000X3.800000*%
%ADD82RoundRect,0.150000X-0.150000X0.587500X-0.150000X-0.587500X0.150000X-0.587500X0.150000X0.587500X0*%
%ADD83RoundRect,0.250000X1.500000X0.550000X-1.500000X0.550000X-1.500000X-0.550000X1.500000X-0.550000X0*%
%ADD84R,2.900000X5.400000*%
%ADD85RoundRect,0.250000X0.450000X-0.350000X0.450000X0.350000X-0.450000X0.350000X-0.450000X-0.350000X0*%
%ADD86R,1.700000X3.300000*%
G04 APERTURE END LIST*
D10*
%TO.C,JP6*%
X115289511Y-51581015D03*
D11*
X113989511Y-51581015D03*
%TD*%
D12*
%TO.C,JP3*%
X93159511Y-114184511D03*
D13*
X93159511Y-112884511D03*
%TD*%
D14*
%TO.C,JP4*%
X81714511Y-51618751D03*
D15*
X83014511Y-51618751D03*
%TD*%
D10*
%TO.C,JP7*%
X132419511Y-51661332D03*
D11*
X131119511Y-51661332D03*
%TD*%
D14*
%TO.C,JP5*%
X96954511Y-51628650D03*
D15*
X98254511Y-51628650D03*
%TD*%
D10*
%TO.C,JP2*%
X115924511Y-72729511D03*
D11*
X114624511Y-72729511D03*
%TD*%
D14*
%TO.C,JP8*%
X140024511Y-51652885D03*
D15*
X141324511Y-51652885D03*
%TD*%
D16*
%TO.C,J1*%
X167454511Y-54899511D03*
D17*
X167454511Y-62099511D03*
D18*
X173454511Y-65249511D03*
X173454511Y-51749511D03*
%TD*%
D19*
%TO.C,D3*%
X157184511Y-86699511D03*
X157184511Y-90699511D03*
%TD*%
D20*
%TO.C,J12*%
X135599511Y-134319511D03*
D21*
X138099511Y-134319511D03*
X140099511Y-134319511D03*
X142599511Y-134319511D03*
D22*
X145669511Y-137029511D03*
X132529511Y-137029511D03*
%TD*%
D23*
%TO.C,TP2*%
X166184511Y-43049511D03*
%TD*%
D24*
%TO.C,J2*%
X247742500Y-129225000D03*
D25*
X246472500Y-129225000D03*
X245202500Y-129225000D03*
X243932500Y-129225000D03*
X242662500Y-129225000D03*
%TD*%
D26*
%TO.C,C14*%
X84159511Y-73999511D03*
X89759511Y-73999511D03*
%TD*%
D27*
%TO.C,Q4*%
X73219511Y-55984511D03*
D28*
X82369511Y-58524511D03*
D27*
X73219511Y-61064511D03*
%TD*%
D29*
%TO.C,J15*%
X90284511Y-43129511D03*
X101284511Y-43129511D03*
D30*
X93284511Y-48129511D03*
D31*
X98284511Y-48129511D03*
%TD*%
D32*
%TO.C,Q13*%
X143374511Y-100517011D03*
X145274511Y-100517011D03*
X144324511Y-98642011D03*
%TD*%
D33*
%TO.C,U3*%
X145222011Y-118604511D03*
X145222011Y-119104511D03*
X145222011Y-119604511D03*
X145222011Y-120104511D03*
X145222011Y-120604511D03*
X145222011Y-121104511D03*
X145222011Y-121604511D03*
X145222011Y-122104511D03*
D34*
X145909511Y-122792011D03*
X146409511Y-122792011D03*
X146909511Y-122792011D03*
X147409511Y-122792011D03*
X147909511Y-122792011D03*
X148409511Y-122792011D03*
X148909511Y-122792011D03*
X149409511Y-122792011D03*
D33*
X150097011Y-122104511D03*
X150097011Y-121604511D03*
X150097011Y-121104511D03*
X150097011Y-120604511D03*
X150097011Y-120104511D03*
X150097011Y-119604511D03*
X150097011Y-119104511D03*
X150097011Y-118604511D03*
D34*
X149409511Y-117917011D03*
X148909511Y-117917011D03*
X148409511Y-117917011D03*
X147909511Y-117917011D03*
X147409511Y-117917011D03*
X146909511Y-117917011D03*
X146409511Y-117917011D03*
X145909511Y-117917011D03*
D35*
X147659511Y-120354511D03*
%TD*%
D27*
%TO.C,Q5*%
X90999511Y-55984511D03*
D28*
X100149511Y-58524511D03*
D27*
X90999511Y-61064511D03*
%TD*%
D36*
%TO.C,H10*%
X252812500Y-127087500D03*
%TD*%
D37*
%TO.C,R15*%
X133164511Y-103989511D03*
X135164511Y-103989511D03*
%TD*%
D38*
%TO.C,SW2*%
X234397500Y-120335000D03*
X228997500Y-120335000D03*
%TD*%
D39*
%TO.C,J20*%
X214552500Y-122302500D03*
X214552500Y-117902500D03*
D40*
X217252500Y-118502500D03*
X217252500Y-119302500D03*
X217252500Y-120102500D03*
X217252500Y-120902500D03*
X217252500Y-121702500D03*
D41*
X217152500Y-124552500D03*
X211702500Y-115652500D03*
X211702500Y-124552500D03*
X217152500Y-115652500D03*
%TD*%
D21*
%TO.C,R7*%
X101304511Y-76069511D03*
D42*
X108924511Y-76069511D03*
%TD*%
D43*
%TO.C,U19*%
X78619511Y-121089511D03*
X79889511Y-121089511D03*
X81159511Y-121089511D03*
X82429511Y-121089511D03*
X83699511Y-121089511D03*
X84969511Y-121089511D03*
X86239511Y-121089511D03*
X86239511Y-116139511D03*
X84969511Y-116139511D03*
X83699511Y-116139511D03*
X82429511Y-116139511D03*
X81159511Y-116139511D03*
X79889511Y-116139511D03*
X78619511Y-116139511D03*
%TD*%
D24*
%TO.C,J8*%
X106494511Y-126869511D03*
D25*
X107764511Y-126869511D03*
X106494511Y-128139511D03*
X107764511Y-128139511D03*
X106494511Y-129409511D03*
X107764511Y-129409511D03*
%TD*%
%TO.C,J25*%
X126814511Y-114169511D03*
D24*
X128084511Y-114169511D03*
%TD*%
D36*
%TO.C,H1*%
X62804511Y-134489511D03*
%TD*%
D44*
%TO.C,C12*%
X77174511Y-73364511D03*
X75099511Y-73364511D03*
%TD*%
D27*
%TO.C,U10*%
X162634511Y-83864511D03*
X162634511Y-85564511D03*
X162634511Y-87264511D03*
D28*
X171784511Y-87264511D03*
D27*
X162634511Y-88964511D03*
X162634511Y-90664511D03*
%TD*%
D45*
%TO.C,J21*%
X173804511Y-75989511D03*
D46*
X173804511Y-70989511D03*
%TD*%
D37*
%TO.C,R28*%
X133023088Y-118449511D03*
X135023088Y-118449511D03*
%TD*%
D32*
%TO.C,Q10*%
X138294511Y-108404511D03*
X140194511Y-108404511D03*
X139244511Y-106529511D03*
%TD*%
D47*
%TO.C,U1*%
X260262500Y-105252500D03*
X258992500Y-105252500D03*
X257722500Y-105252500D03*
X256452500Y-105252500D03*
X255182500Y-105252500D03*
X253912500Y-105252500D03*
X252642500Y-105252500D03*
X251372500Y-105252500D03*
X250102500Y-105252500D03*
X248832500Y-105252500D03*
X247562500Y-105252500D03*
X246292500Y-105252500D03*
X245022500Y-105252500D03*
X243752500Y-105252500D03*
D48*
X242752500Y-108037500D03*
X242752500Y-109307500D03*
X242752500Y-110577500D03*
X242752500Y-111847500D03*
X242752500Y-113117500D03*
X242752500Y-114387500D03*
X242752500Y-115657500D03*
X242752500Y-116927500D03*
X242752500Y-118197500D03*
X242752500Y-119467500D03*
D47*
X243752500Y-122252500D03*
X245022500Y-122252500D03*
X246292500Y-122252500D03*
X247562500Y-122252500D03*
X248832500Y-122252500D03*
X250102500Y-122252500D03*
X251372500Y-122252500D03*
X252642500Y-122252500D03*
X253912500Y-122252500D03*
X255182500Y-122252500D03*
X256452500Y-122252500D03*
X257722500Y-122252500D03*
X258992500Y-122252500D03*
X260262500Y-122252500D03*
D49*
X252762500Y-112752500D03*
%TD*%
D50*
%TO.C,C25*%
X163524290Y-107654511D03*
X165599290Y-107654511D03*
%TD*%
D51*
%TO.C,D9*%
X237817500Y-116525000D03*
X239867500Y-116525000D03*
%TD*%
D37*
%TO.C,R3a1*%
X109019511Y-67549511D03*
X111019511Y-67549511D03*
%TD*%
D27*
%TO.C,Q1*%
X156609511Y-77809511D03*
D28*
X147459511Y-75269511D03*
D27*
X156609511Y-72729511D03*
%TD*%
D52*
%TO.C,C10*%
X121624511Y-76069511D03*
X121624511Y-70669511D03*
%TD*%
D53*
%TO.C,U13*%
X230792500Y-126980000D03*
X230792500Y-127630000D03*
X230792500Y-128280000D03*
X230792500Y-128930000D03*
X234192500Y-128930000D03*
X234192500Y-128280000D03*
X234192500Y-127630000D03*
X234192500Y-126980000D03*
%TD*%
D44*
%TO.C,C18*%
X62104511Y-67649511D03*
X60029511Y-67649511D03*
%TD*%
%TO.C,C29*%
X219327500Y-112482500D03*
X217252500Y-112482500D03*
%TD*%
D54*
%TO.C,U5*%
X85624511Y-109089511D03*
X98424511Y-84989511D03*
D55*
X98424511Y-88789511D03*
D56*
X81824511Y-81189511D03*
D54*
X85624511Y-81189511D03*
X89424511Y-81189511D03*
X93224511Y-81189511D03*
D56*
X97024511Y-81189511D03*
D54*
X97024511Y-109089511D03*
X89424511Y-109089511D03*
X81824511Y-109089511D03*
%TD*%
D57*
%TO.C,R23*%
X150404511Y-111629511D03*
X148404511Y-111629511D03*
%TD*%
D37*
%TO.C,R1*%
X162644511Y-79344511D03*
X164644511Y-79344511D03*
%TD*%
D29*
%TO.C,J14*%
X75044511Y-43129511D03*
X86044511Y-43129511D03*
D30*
X78044511Y-48129511D03*
D31*
X83044511Y-48129511D03*
%TD*%
D29*
%TO.C,J18*%
X147004511Y-43129511D03*
X136004511Y-43129511D03*
D30*
X139004511Y-48129511D03*
D31*
X144004511Y-48129511D03*
%TD*%
D44*
%TO.C,C4*%
X145119511Y-114639511D03*
X143044511Y-114639511D03*
%TD*%
D37*
%TO.C,R24*%
X237842500Y-124145000D03*
X239842500Y-124145000D03*
%TD*%
D58*
%TO.C,U6*%
X111639511Y-117179511D03*
X111639511Y-118449511D03*
X111639511Y-119719511D03*
X111639511Y-120989511D03*
X116589511Y-120989511D03*
X116589511Y-119719511D03*
X116589511Y-118449511D03*
X116589511Y-117179511D03*
%TD*%
D37*
%TO.C,R1a1*%
X100764511Y-67549511D03*
X102764511Y-67549511D03*
%TD*%
D59*
%TO.C,D5*%
X76014511Y-118469511D03*
X76014511Y-120519511D03*
%TD*%
D60*
%TO.C,D2*%
X150454511Y-133054511D03*
X148404511Y-133054511D03*
%TD*%
D61*
%TO.C,SW1*%
X112844511Y-129409511D03*
X112844511Y-124009511D03*
%TD*%
D57*
%TO.C,R3b1*%
X100239511Y-123694511D03*
X98239511Y-123694511D03*
%TD*%
D38*
%TO.C,SW3*%
X235192500Y-103825000D03*
X229792500Y-103825000D03*
%TD*%
D24*
%TO.C,J24*%
X123004511Y-114169511D03*
%TD*%
D45*
%TO.C,J22*%
X62804511Y-55749511D03*
D46*
X62804511Y-60749511D03*
%TD*%
D23*
%TO.C,TP7*%
X175074511Y-106549511D03*
%TD*%
%TO.C,TP4*%
X152104511Y-48599511D03*
%TD*%
D36*
%TO.C,H3*%
X172024511Y-134489511D03*
%TD*%
D62*
%TO.C,Y1*%
X138134511Y-118619511D03*
X138134511Y-122419511D03*
X140434511Y-122419511D03*
X140434511Y-118619511D03*
%TD*%
D63*
%TO.C,L1*%
X148294511Y-114639511D03*
X150594511Y-114639511D03*
%TD*%
D24*
%TO.C,J7*%
X219147500Y-97877500D03*
D25*
X220417500Y-97877500D03*
X221687500Y-97877500D03*
X222957500Y-97877500D03*
X224227500Y-97877500D03*
%TD*%
D20*
%TO.C,J13*%
X156849506Y-134319511D03*
D21*
X159349506Y-134319511D03*
X161349506Y-134319511D03*
X163849506Y-134319511D03*
D22*
X153779506Y-137029511D03*
X166919506Y-137029511D03*
%TD*%
D37*
%TO.C,R1b1*%
X90254511Y-123694511D03*
X92254511Y-123694511D03*
%TD*%
D64*
%TO.C,C9*%
X72839511Y-124004511D03*
X72839511Y-129404511D03*
%TD*%
D37*
%TO.C,R8*%
X148834511Y-126704511D03*
X150834511Y-126704511D03*
%TD*%
D60*
%TO.C,D6*%
X69784511Y-45589511D03*
X67734511Y-45589511D03*
%TD*%
D23*
%TO.C,TP10*%
X86064511Y-132419511D03*
%TD*%
D26*
%TO.C,C20*%
X145754511Y-87969511D03*
X151154511Y-87969511D03*
%TD*%
D57*
%TO.C,R21*%
X155987697Y-111629511D03*
X153987697Y-111629511D03*
%TD*%
D59*
%TO.C,D7*%
X73474511Y-118469511D03*
X73474511Y-120519511D03*
%TD*%
D32*
%TO.C,Q14*%
X148454511Y-100492011D03*
X150354511Y-100492011D03*
X149404511Y-98617011D03*
%TD*%
D50*
%TO.C,C15*%
X117289511Y-113534511D03*
X119364511Y-113534511D03*
%TD*%
D37*
%TO.C,R19*%
X143324511Y-95119511D03*
X145324511Y-95119511D03*
%TD*%
D44*
%TO.C,C27*%
X233530000Y-124547500D03*
X231455000Y-124547500D03*
%TD*%
D58*
%TO.C,U14*%
X221062500Y-115657500D03*
X221062500Y-116927500D03*
X221062500Y-118197500D03*
X221062500Y-119467500D03*
X221062500Y-120737500D03*
X221062500Y-122007500D03*
X221062500Y-123277500D03*
X221062500Y-124547500D03*
X226012500Y-124547500D03*
X226012500Y-123277500D03*
X226012500Y-122007500D03*
X226012500Y-120737500D03*
X226012500Y-119467500D03*
X226012500Y-118197500D03*
X226012500Y-116927500D03*
X226012500Y-115657500D03*
%TD*%
D57*
%TO.C,R13*%
X145324511Y-107819511D03*
X143324511Y-107819511D03*
%TD*%
D54*
%TO.C,U4*%
X122524511Y-81119511D03*
X114924511Y-81119511D03*
X107324511Y-81119511D03*
D56*
X107324511Y-109019511D03*
D54*
X111124511Y-109019511D03*
X114924511Y-109019511D03*
X118724511Y-109019511D03*
D56*
X122524511Y-109019511D03*
D55*
X105924511Y-101419511D03*
D54*
X105924511Y-105219511D03*
X118724511Y-81119511D03*
%TD*%
D23*
%TO.C,TP3*%
X129977385Y-133226805D03*
%TD*%
D57*
%TO.C,R36*%
X155987697Y-104009511D03*
X153987697Y-104009511D03*
%TD*%
%TO.C,R2*%
X226872500Y-102555000D03*
X224872500Y-102555000D03*
%TD*%
D50*
%TO.C,C2*%
X221295000Y-105095000D03*
X223370000Y-105095000D03*
%TD*%
D36*
%TO.C,H5*%
X252812500Y-100417500D03*
%TD*%
D37*
%TO.C,R27*%
X133054511Y-114639511D03*
X135054511Y-114639511D03*
%TD*%
D24*
%TO.C,J3*%
X244557500Y-97877500D03*
D25*
X243287500Y-97877500D03*
X242017500Y-97877500D03*
X240747500Y-97877500D03*
%TD*%
D32*
%TO.C,Q12*%
X138564511Y-100517011D03*
X140464511Y-100517011D03*
X139514511Y-98642011D03*
%TD*%
D44*
%TO.C,C8*%
X134959511Y-121624511D03*
X132884511Y-121624511D03*
%TD*%
D21*
%TO.C,C19*%
X133799511Y-73529511D03*
X133799511Y-68529511D03*
%TD*%
D36*
%TO.C,H7*%
X131894511Y-98929511D03*
%TD*%
D50*
%TO.C,C3*%
X257892500Y-101285000D03*
X259967500Y-101285000D03*
%TD*%
D65*
%TO.C,M1*%
X59809511Y-111629511D03*
X75809511Y-111629511D03*
X59809511Y-79629511D03*
X75809511Y-79629511D03*
D66*
X67809511Y-70629511D03*
D29*
X65809511Y-70629511D03*
%TD*%
D23*
%TO.C,TP1*%
X152104511Y-43815000D03*
%TD*%
D20*
%TO.C,J10*%
X92834511Y-134319511D03*
D21*
X95334511Y-134319511D03*
X97334511Y-134319511D03*
X99834511Y-134319511D03*
D22*
X102904511Y-137029511D03*
X89764511Y-137029511D03*
%TD*%
D27*
%TO.C,Q6*%
X108664511Y-55984511D03*
D28*
X117814511Y-58524511D03*
D27*
X108664511Y-61064511D03*
%TD*%
D67*
%TO.C,D4*%
X144029511Y-127804511D03*
D68*
X145749511Y-127804511D03*
X145749511Y-125604511D03*
X143849511Y-125604511D03*
%TD*%
D24*
%TO.C,J6*%
X117924511Y-126954511D03*
D25*
X117924511Y-125684511D03*
X117924511Y-124414511D03*
%TD*%
D21*
%TO.C,R6*%
X111464511Y-113369511D03*
D42*
X103844511Y-113369511D03*
%TD*%
D37*
%TO.C,R31*%
X78714511Y-112899511D03*
X80714511Y-112899511D03*
%TD*%
D24*
%TO.C,J26*%
X175074511Y-129409511D03*
%TD*%
D50*
%TO.C,C1*%
X238037500Y-103825000D03*
X240112500Y-103825000D03*
%TD*%
D37*
%TO.C,R12*%
X143324511Y-104009511D03*
X145324511Y-104009511D03*
%TD*%
D69*
%TO.C,C26*%
X227412500Y-128992500D03*
X227412500Y-126917500D03*
%TD*%
D70*
%TO.C,JP1*%
X121099511Y-124409511D03*
D71*
X121099511Y-125709511D03*
D72*
X121099511Y-127009511D03*
%TD*%
D57*
%TO.C,R4a1*%
X110924511Y-70724511D03*
X108924511Y-70724511D03*
%TD*%
D44*
%TO.C,C24*%
X155914511Y-121624511D03*
X153839511Y-121624511D03*
%TD*%
D29*
%TO.C,J17*%
X120764511Y-43129511D03*
X131764511Y-43129511D03*
D30*
X123764511Y-48129511D03*
D31*
X128764511Y-48129511D03*
%TD*%
D57*
%TO.C,R17*%
X150404511Y-104009511D03*
X148404511Y-104009511D03*
%TD*%
D37*
%TO.C,R29*%
X237842500Y-121605000D03*
X239842500Y-121605000D03*
%TD*%
D50*
%TO.C,C23*%
X158919511Y-114639511D03*
X160994511Y-114639511D03*
%TD*%
D57*
%TO.C,R14*%
X130084511Y-104009511D03*
X128084511Y-104009511D03*
%TD*%
D73*
%TO.C,Q8*%
X145754511Y-64899511D03*
D74*
X148294511Y-55749511D03*
D73*
X150834511Y-64899511D03*
%TD*%
D36*
%TO.C,H8*%
X170629511Y-125599511D03*
%TD*%
D75*
%TO.C,R5*%
X125434511Y-126339511D03*
X125434511Y-128339511D03*
%TD*%
D58*
%TO.C,U8*%
X159154511Y-117814511D03*
X159154511Y-119084511D03*
X159154511Y-120354511D03*
X159154511Y-121624511D03*
X159154511Y-122894511D03*
X159154511Y-124164511D03*
X159154511Y-125434511D03*
X159154511Y-126704511D03*
X164104511Y-126704511D03*
X164104511Y-125434511D03*
X164104511Y-124164511D03*
X164104511Y-122894511D03*
X164104511Y-121624511D03*
X164104511Y-120354511D03*
X164104511Y-119084511D03*
X164104511Y-117814511D03*
%TD*%
D44*
%TO.C,C30*%
X86344511Y-112899511D03*
X84269511Y-112899511D03*
%TD*%
D37*
%TO.C,R22*%
X158968730Y-111609511D03*
X160968730Y-111609511D03*
%TD*%
D44*
%TO.C,C11*%
X107129511Y-119249511D03*
X105054511Y-119249511D03*
%TD*%
D23*
%TO.C,TP5*%
X128084511Y-137029511D03*
%TD*%
D29*
%TO.C,J16*%
X116524511Y-43129511D03*
X105524511Y-43129511D03*
D30*
X108524511Y-48129511D03*
D31*
X113524511Y-48129511D03*
%TD*%
D20*
%TO.C,J9*%
X71464511Y-134319511D03*
D21*
X73964511Y-134319511D03*
X75964511Y-134319511D03*
X78464511Y-134319511D03*
D22*
X68394511Y-137029511D03*
X81534511Y-137029511D03*
%TD*%
D37*
%TO.C,R4b1*%
X98239511Y-126869511D03*
X100239511Y-126869511D03*
%TD*%
%TO.C,R35*%
X163545544Y-104009511D03*
X165545544Y-104009511D03*
%TD*%
D23*
%TO.C,TP6*%
X107019511Y-133689511D03*
%TD*%
D50*
%TO.C,C7*%
X138134511Y-114639511D03*
X140209511Y-114639511D03*
%TD*%
D76*
%TO.C,U7*%
X76584511Y-70189511D03*
X76584511Y-68919511D03*
X76584511Y-67649511D03*
X76584511Y-66379511D03*
X71634511Y-66379511D03*
X71634511Y-67649511D03*
X71634511Y-68919511D03*
X71634511Y-70189511D03*
%TD*%
D57*
%TO.C,R34*%
X69759511Y-50669511D03*
X67759511Y-50669511D03*
%TD*%
D44*
%TO.C,C28*%
X224640000Y-112482500D03*
X222565000Y-112482500D03*
%TD*%
D37*
%TO.C,R38*%
X153987697Y-95094511D03*
X155987697Y-95094511D03*
%TD*%
D77*
%TO.C,U15*%
X96002011Y-128454511D03*
X96002011Y-126554511D03*
X94127011Y-127504511D03*
%TD*%
D78*
%TO.C,C6*%
X237572500Y-126917500D03*
X237572500Y-128992500D03*
%TD*%
D79*
%TO.C,Q20*%
X231555000Y-107955000D03*
X231555000Y-109855000D03*
X233430000Y-108905000D03*
%TD*%
D77*
%TO.C,U16*%
X102337011Y-71674511D03*
X102337011Y-69774511D03*
X100462011Y-70724511D03*
%TD*%
D80*
%TO.C,U2*%
X218472500Y-109935000D03*
X218472500Y-107635000D03*
D81*
X212172500Y-107635000D03*
D80*
X218472500Y-105335000D03*
%TD*%
D24*
%TO.C,J30*%
X126704511Y-133219511D03*
%TD*%
D50*
%TO.C,C22*%
X154009511Y-114639511D03*
X156084511Y-114639511D03*
%TD*%
D60*
%TO.C,D8*%
X69784511Y-48129511D03*
X67734511Y-48129511D03*
%TD*%
D78*
%TO.C,C17*%
X119719511Y-118914511D03*
X119719511Y-120989511D03*
%TD*%
D37*
%TO.C,R18*%
X138244511Y-95119511D03*
X140244511Y-95119511D03*
%TD*%
D24*
%TO.C,J29*%
X130004511Y-127747783D03*
D25*
X131274511Y-127747783D03*
X132544511Y-127747783D03*
X133814511Y-127747783D03*
X135084511Y-127747783D03*
X136354511Y-127747783D03*
X137624511Y-127747783D03*
X138894511Y-127747783D03*
X140164511Y-127747783D03*
X141434511Y-127747783D03*
%TD*%
D79*
%TO.C,U17*%
X89682011Y-126554511D03*
X89682011Y-128454511D03*
X91557011Y-127504511D03*
%TD*%
D32*
%TO.C,Q16*%
X159018730Y-108424511D03*
X160918730Y-108424511D03*
X159968730Y-106549511D03*
%TD*%
D57*
%TO.C,R16*%
X140244511Y-103989511D03*
X138244511Y-103989511D03*
%TD*%
D32*
%TO.C,Q17*%
X154037697Y-100492011D03*
X155937697Y-100492011D03*
X154987697Y-98617011D03*
%TD*%
D37*
%TO.C,R2b1*%
X94159511Y-123694511D03*
X96159511Y-123694511D03*
%TD*%
D24*
%TO.C,J5*%
X238207500Y-97877500D03*
D25*
X236937500Y-97877500D03*
X235667500Y-97877500D03*
X234397500Y-97877500D03*
X233127500Y-97877500D03*
X231857500Y-97877500D03*
X230587500Y-97877500D03*
X229317500Y-97877500D03*
X228047500Y-97877500D03*
X226777500Y-97877500D03*
%TD*%
D50*
%TO.C,C5*%
X221295000Y-107635000D03*
X223370000Y-107635000D03*
%TD*%
D32*
%TO.C,Q15*%
X154037697Y-108424511D03*
X155937697Y-108424511D03*
X154987697Y-106549511D03*
%TD*%
D82*
%TO.C,Q2*%
X116224511Y-74967011D03*
X114324511Y-74967011D03*
X115274511Y-76842011D03*
%TD*%
%TO.C,Q19*%
X230902500Y-113047500D03*
X229002500Y-113047500D03*
X229952500Y-114922500D03*
%TD*%
D57*
%TO.C,R9*%
X135164511Y-111609511D03*
X133164511Y-111609511D03*
%TD*%
%TO.C,R10*%
X140244511Y-111609511D03*
X138244511Y-111609511D03*
%TD*%
D22*
%TO.C,F1*%
X159324511Y-43309511D03*
X159324511Y-65909511D03*
%TD*%
D36*
%TO.C,H4*%
X62804511Y-45589511D03*
%TD*%
D37*
%TO.C,R11*%
X143324511Y-111629511D03*
X145324511Y-111629511D03*
%TD*%
D32*
%TO.C,Q18*%
X159018730Y-100492011D03*
X160918730Y-100492011D03*
X159968730Y-98617011D03*
%TD*%
%TO.C,Q9*%
X133214511Y-108404511D03*
X135114511Y-108404511D03*
X134164511Y-106529511D03*
%TD*%
D83*
%TO.C,C21*%
X84269511Y-127504511D03*
X78869511Y-127504511D03*
%TD*%
D57*
%TO.C,R32*%
X69759511Y-43049511D03*
X67759511Y-43049511D03*
%TD*%
D24*
%TO.C,J4*%
X238842500Y-113350000D03*
D25*
X238842500Y-112080000D03*
X238842500Y-110810000D03*
X238842500Y-109540000D03*
X238842500Y-108270000D03*
X238842500Y-107000000D03*
%TD*%
D37*
%TO.C,R4*%
X153914511Y-126704511D03*
X155914511Y-126704511D03*
%TD*%
D39*
%TO.C,J31*%
X171264511Y-117639511D03*
X171264511Y-113239511D03*
D40*
X168564511Y-117039511D03*
X168564511Y-116239511D03*
X168564511Y-115439511D03*
X168564511Y-114639511D03*
X168564511Y-113839511D03*
D41*
X168664511Y-119889511D03*
X168664511Y-110989511D03*
X174114511Y-119889511D03*
X174114511Y-110989511D03*
%TD*%
D36*
%TO.C,H6*%
X214077500Y-100417500D03*
%TD*%
D45*
%TO.C,J23*%
X62044511Y-121234511D03*
D46*
X62044511Y-126234511D03*
%TD*%
D32*
%TO.C,Q11*%
X148454511Y-108424511D03*
X150354511Y-108424511D03*
X149404511Y-106549511D03*
%TD*%
D37*
%TO.C,R39*%
X158968730Y-95094511D03*
X160968730Y-95094511D03*
%TD*%
D57*
%TO.C,R37*%
X160968730Y-103989511D03*
X158968730Y-103989511D03*
%TD*%
D23*
%TO.C,TP9*%
X95589511Y-70189511D03*
%TD*%
D27*
%TO.C,Q7*%
X137879511Y-61064511D03*
D28*
X128729511Y-58524511D03*
D27*
X137879511Y-55984511D03*
%TD*%
D83*
%TO.C,C13*%
X101414511Y-116709511D03*
X95814511Y-116709511D03*
%TD*%
D44*
%TO.C,C16*%
X62104511Y-72729511D03*
X60029511Y-72729511D03*
%TD*%
D75*
%TO.C,R25*%
X233762500Y-112985000D03*
X233762500Y-114985000D03*
%TD*%
D36*
%TO.C,H2*%
X172024511Y-45589511D03*
%TD*%
D75*
%TO.C,R33*%
X71120000Y-118380000D03*
X71120000Y-120380000D03*
%TD*%
D84*
%TO.C,L2*%
X139254511Y-85089511D03*
X129354511Y-85089511D03*
%TD*%
D85*
%TO.C,R26*%
X228682500Y-109905000D03*
X228682500Y-107905000D03*
%TD*%
D20*
%TO.C,J11*%
X114204511Y-134319511D03*
D21*
X116704511Y-134319511D03*
X118704511Y-134319511D03*
X121204511Y-134319511D03*
D22*
X111134511Y-137029511D03*
X124274511Y-137029511D03*
%TD*%
D37*
%TO.C,R30*%
X237842500Y-119065000D03*
X239842500Y-119065000D03*
%TD*%
D86*
%TO.C,D1*%
X163644511Y-69084511D03*
X163644511Y-74584511D03*
%TD*%
D37*
%TO.C,R3*%
X219062500Y-102555000D03*
X221062500Y-102555000D03*
%TD*%
D36*
%TO.C,H9*%
X170629511Y-98929511D03*
%TD*%
D23*
%TO.C,TP8*%
X175074511Y-102739511D03*
%TD*%
D79*
%TO.C,U18*%
X104907011Y-69774511D03*
X104907011Y-71674511D03*
X106782011Y-70724511D03*
%TD*%
D77*
%TO.C,Q3*%
X90589511Y-114484511D03*
X90589511Y-112584511D03*
X88714511Y-113534511D03*
%TD*%
D37*
%TO.C,R20*%
X148404511Y-95094511D03*
X150404511Y-95094511D03*
%TD*%
%TO.C,R2a1*%
X104844511Y-67549511D03*
X106844511Y-67549511D03*
%TD*%
D24*
%TO.C,J19*%
X212172500Y-129225000D03*
D25*
X213442500Y-129225000D03*
X214712500Y-129225000D03*
X215982500Y-129225000D03*
X217252500Y-129225000D03*
X218522500Y-129225000D03*
X219792500Y-129225000D03*
X221062500Y-129225000D03*
X222332500Y-129225000D03*
X223602500Y-129225000D03*
%TD*%
M02*
