%TF.GenerationSoftware,KiCad,Pcbnew,(6.0.0)*%
%TF.CreationDate,2022-02-25T16:17:33+00:00*%
%TF.ProjectId,ISOpower,49534f70-6f77-4657-922e-6b696361645f,rev?*%
%TF.SameCoordinates,Original*%
%TF.FileFunction,Copper,L1,Top*%
%TF.FilePolarity,Positive*%
%FSLAX46Y46*%
G04 Gerber Fmt 4.6, Leading zero omitted, Abs format (unit mm)*
G04 Created by KiCad (PCBNEW (6.0.0)) date 2022-02-25 16:17:33*
%MOMM*%
%LPD*%
G01*
G04 APERTURE LIST*
G04 Aperture macros list*
%AMRoundRect*
0 Rectangle with rounded corners*
0 $1 Rounding radius*
0 $2 $3 $4 $5 $6 $7 $8 $9 X,Y pos of 4 corners*
0 Add a 4 corners polygon primitive as box body*
4,1,4,$2,$3,$4,$5,$6,$7,$8,$9,$2,$3,0*
0 Add four circle primitives for the rounded corners*
1,1,$1+$1,$2,$3*
1,1,$1+$1,$4,$5*
1,1,$1+$1,$6,$7*
1,1,$1+$1,$8,$9*
0 Add four rect primitives between the rounded corners*
20,1,$1+$1,$2,$3,$4,$5,0*
20,1,$1+$1,$4,$5,$6,$7,0*
20,1,$1+$1,$6,$7,$8,$9,0*
20,1,$1+$1,$8,$9,$2,$3,0*%
%AMFreePoly0*
4,1,22,0.500000,-0.750000,0.000000,-0.750000,0.000000,-0.745033,-0.079941,-0.743568,-0.215256,-0.701293,-0.333266,-0.622738,-0.424486,-0.514219,-0.481581,-0.384460,-0.499164,-0.250000,-0.500000,-0.250000,-0.500000,0.250000,-0.499164,0.250000,-0.499963,0.256109,-0.478152,0.396186,-0.417904,0.524511,-0.324060,0.630769,-0.204165,0.706417,-0.067858,0.745374,0.000000,0.744959,0.000000,0.750000,
0.500000,0.750000,0.500000,-0.750000,0.500000,-0.750000,$1*%
%AMFreePoly1*
4,1,20,0.000000,0.744959,0.073905,0.744508,0.209726,0.703889,0.328688,0.626782,0.421226,0.519385,0.479903,0.390333,0.500000,0.250000,0.500000,-0.250000,0.499851,-0.262216,0.476331,-0.402017,0.414519,-0.529596,0.319384,-0.634700,0.198574,-0.708877,0.061801,-0.746166,0.000000,-0.745033,0.000000,-0.750000,-0.500000,-0.750000,-0.500000,0.750000,0.000000,0.750000,0.000000,0.744959,
0.000000,0.744959,$1*%
%AMFreePoly2*
4,1,22,0.550000,-0.750000,0.000000,-0.750000,0.000000,-0.745033,-0.079941,-0.743568,-0.215256,-0.701293,-0.333266,-0.622738,-0.424486,-0.514219,-0.481581,-0.384460,-0.499164,-0.250000,-0.500000,-0.250000,-0.500000,0.250000,-0.499164,0.250000,-0.499963,0.256109,-0.478152,0.396186,-0.417904,0.524511,-0.324060,0.630769,-0.204165,0.706417,-0.067858,0.745374,0.000000,0.744959,0.000000,0.750000,
0.550000,0.750000,0.550000,-0.750000,0.550000,-0.750000,$1*%
%AMFreePoly3*
4,1,20,0.000000,0.744959,0.073905,0.744508,0.209726,0.703889,0.328688,0.626782,0.421226,0.519385,0.479903,0.390333,0.500000,0.250000,0.500000,-0.250000,0.499851,-0.262216,0.476331,-0.402017,0.414519,-0.529596,0.319384,-0.634700,0.198574,-0.708877,0.061801,-0.746166,0.000000,-0.745033,0.000000,-0.750000,-0.550000,-0.750000,-0.550000,0.750000,0.000000,0.750000,0.000000,0.744959,
0.000000,0.744959,$1*%
G04 Aperture macros list end*
%TA.AperFunction,SMDPad,CuDef*%
%ADD10FreePoly0,180.000000*%
%TD*%
%TA.AperFunction,SMDPad,CuDef*%
%ADD11FreePoly1,180.000000*%
%TD*%
%TA.AperFunction,SMDPad,CuDef*%
%ADD12FreePoly0,90.000000*%
%TD*%
%TA.AperFunction,SMDPad,CuDef*%
%ADD13FreePoly1,90.000000*%
%TD*%
%TA.AperFunction,SMDPad,CuDef*%
%ADD14FreePoly0,0.000000*%
%TD*%
%TA.AperFunction,SMDPad,CuDef*%
%ADD15FreePoly1,0.000000*%
%TD*%
%TA.AperFunction,ComponentPad*%
%ADD16C,3.716000*%
%TD*%
%TA.AperFunction,ComponentPad*%
%ADD17R,3.716000X3.716000*%
%TD*%
%TA.AperFunction,ComponentPad*%
%ADD18O,2.400000X1.200000*%
%TD*%
%TA.AperFunction,SMDPad,CuDef*%
%ADD19C,0.500000*%
%TD*%
%TA.AperFunction,SMDPad,CuDef*%
%ADD20R,1.800000X2.500000*%
%TD*%
%TA.AperFunction,ComponentPad*%
%ADD21R,1.600000X1.500000*%
%TD*%
%TA.AperFunction,ComponentPad*%
%ADD22C,1.600000*%
%TD*%
%TA.AperFunction,ComponentPad*%
%ADD23C,3.000000*%
%TD*%
%TA.AperFunction,SMDPad,CuDef*%
%ADD24C,1.500000*%
%TD*%
%TA.AperFunction,ComponentPad*%
%ADD25R,1.000000X1.000000*%
%TD*%
%TA.AperFunction,ComponentPad*%
%ADD26O,1.000000X1.000000*%
%TD*%
%TA.AperFunction,SMDPad,CuDef*%
%ADD27RoundRect,0.250000X-1.500000X-0.550000X1.500000X-0.550000X1.500000X0.550000X-1.500000X0.550000X0*%
%TD*%
%TA.AperFunction,SMDPad,CuDef*%
%ADD28R,4.600000X1.100000*%
%TD*%
%TA.AperFunction,SMDPad,CuDef*%
%ADD29R,9.400000X10.800000*%
%TD*%
%TA.AperFunction,ComponentPad*%
%ADD30C,1.400000*%
%TD*%
%TA.AperFunction,ComponentPad*%
%ADD31R,3.500000X3.500000*%
%TD*%
%TA.AperFunction,ComponentPad*%
%ADD32C,3.500000*%
%TD*%
%TA.AperFunction,SMDPad,CuDef*%
%ADD33RoundRect,0.150000X0.150000X-0.587500X0.150000X0.587500X-0.150000X0.587500X-0.150000X-0.587500X0*%
%TD*%
%TA.AperFunction,SMDPad,CuDef*%
%ADD34RoundRect,0.062500X-0.375000X-0.062500X0.375000X-0.062500X0.375000X0.062500X-0.375000X0.062500X0*%
%TD*%
%TA.AperFunction,SMDPad,CuDef*%
%ADD35RoundRect,0.062500X-0.062500X-0.375000X0.062500X-0.375000X0.062500X0.375000X-0.062500X0.375000X0*%
%TD*%
%TA.AperFunction,SMDPad,CuDef*%
%ADD36R,3.100000X3.100000*%
%TD*%
%TA.AperFunction,SMDPad,CuDef*%
%ADD37RoundRect,0.250000X-0.350000X-0.450000X0.350000X-0.450000X0.350000X0.450000X-0.350000X0.450000X0*%
%TD*%
%TA.AperFunction,SMDPad,CuDef*%
%ADD38R,2.000000X1.600000*%
%TD*%
%TA.AperFunction,SMDPad,CuDef*%
%ADD39R,2.000000X0.500000*%
%TD*%
%TA.AperFunction,SMDPad,CuDef*%
%ADD40R,1.700000X2.000000*%
%TD*%
%TA.AperFunction,ComponentPad*%
%ADD41O,1.600000X1.600000*%
%TD*%
%TA.AperFunction,SMDPad,CuDef*%
%ADD42RoundRect,0.150000X0.150000X-0.825000X0.150000X0.825000X-0.150000X0.825000X-0.150000X-0.825000X0*%
%TD*%
%TA.AperFunction,SMDPad,CuDef*%
%ADD43RoundRect,0.250000X0.337500X0.475000X-0.337500X0.475000X-0.337500X-0.475000X0.337500X-0.475000X0*%
%TD*%
%TA.AperFunction,ComponentPad*%
%ADD44R,3.960000X1.980000*%
%TD*%
%TA.AperFunction,ComponentPad*%
%ADD45O,3.960000X1.980000*%
%TD*%
%TA.AperFunction,SMDPad,CuDef*%
%ADD46R,0.900000X2.000000*%
%TD*%
%TA.AperFunction,SMDPad,CuDef*%
%ADD47R,2.000000X0.900000*%
%TD*%
%TA.AperFunction,SMDPad,CuDef*%
%ADD48R,5.000000X5.000000*%
%TD*%
%TA.AperFunction,SMDPad,CuDef*%
%ADD49RoundRect,0.250000X-0.337500X-0.475000X0.337500X-0.475000X0.337500X0.475000X-0.337500X0.475000X0*%
%TD*%
%TA.AperFunction,SMDPad,CuDef*%
%ADD50RoundRect,0.250000X-0.325000X-0.450000X0.325000X-0.450000X0.325000X0.450000X-0.325000X0.450000X0*%
%TD*%
%TA.AperFunction,SMDPad,CuDef*%
%ADD51RoundRect,0.250000X0.550000X-1.500000X0.550000X1.500000X-0.550000X1.500000X-0.550000X-1.500000X0*%
%TD*%
%TA.AperFunction,SMDPad,CuDef*%
%ADD52R,1.600000X0.300000*%
%TD*%
%TA.AperFunction,ComponentPad*%
%ADD53C,1.900000*%
%TD*%
%TA.AperFunction,ComponentPad*%
%ADD54C,1.800000*%
%TD*%
%TA.AperFunction,ComponentPad*%
%ADD55C,2.500000*%
%TD*%
%TA.AperFunction,SMDPad,CuDef*%
%ADD56RoundRect,0.250000X0.350000X0.450000X-0.350000X0.450000X-0.350000X-0.450000X0.350000X-0.450000X0*%
%TD*%
%TA.AperFunction,SMDPad,CuDef*%
%ADD57RoundRect,0.150000X-0.825000X-0.150000X0.825000X-0.150000X0.825000X0.150000X-0.825000X0.150000X0*%
%TD*%
%TA.AperFunction,SMDPad,CuDef*%
%ADD58RoundRect,0.250000X-0.450000X0.325000X-0.450000X-0.325000X0.450000X-0.325000X0.450000X0.325000X0*%
%TD*%
%TA.AperFunction,SMDPad,CuDef*%
%ADD59RoundRect,0.250000X0.325000X0.450000X-0.325000X0.450000X-0.325000X-0.450000X0.325000X-0.450000X0*%
%TD*%
%TA.AperFunction,SMDPad,CuDef*%
%ADD60R,1.600000X2.000000*%
%TD*%
%TA.AperFunction,SMDPad,CuDef*%
%ADD61R,1.300000X1.600000*%
%TD*%
%TA.AperFunction,SMDPad,CuDef*%
%ADD62RoundRect,0.250000X-0.275000X-0.350000X0.275000X-0.350000X0.275000X0.350000X-0.275000X0.350000X0*%
%TD*%
%TA.AperFunction,SMDPad,CuDef*%
%ADD63RoundRect,0.250000X-0.550000X1.500000X-0.550000X-1.500000X0.550000X-1.500000X0.550000X1.500000X0*%
%TD*%
%TA.AperFunction,ComponentPad*%
%ADD64R,1.400000X1.400000*%
%TD*%
%TA.AperFunction,SMDPad,CuDef*%
%ADD65R,1.200000X1.400000*%
%TD*%
%TA.AperFunction,SMDPad,CuDef*%
%ADD66R,1.000000X1.400000*%
%TD*%
%TA.AperFunction,SMDPad,CuDef*%
%ADD67RoundRect,0.250000X0.475000X-0.337500X0.475000X0.337500X-0.475000X0.337500X-0.475000X-0.337500X0*%
%TD*%
%TA.AperFunction,SMDPad,CuDef*%
%ADD68FreePoly2,270.000000*%
%TD*%
%TA.AperFunction,SMDPad,CuDef*%
%ADD69R,1.500000X1.000000*%
%TD*%
%TA.AperFunction,SMDPad,CuDef*%
%ADD70FreePoly3,270.000000*%
%TD*%
%TA.AperFunction,SMDPad,CuDef*%
%ADD71R,1.100000X4.600000*%
%TD*%
%TA.AperFunction,SMDPad,CuDef*%
%ADD72R,10.800000X9.400000*%
%TD*%
%TA.AperFunction,SMDPad,CuDef*%
%ADD73RoundRect,0.250000X-0.450000X0.350000X-0.450000X-0.350000X0.450000X-0.350000X0.450000X0.350000X0*%
%TD*%
%TA.AperFunction,SMDPad,CuDef*%
%ADD74RoundRect,0.150000X0.825000X0.150000X-0.825000X0.150000X-0.825000X-0.150000X0.825000X-0.150000X0*%
%TD*%
%TA.AperFunction,SMDPad,CuDef*%
%ADD75RoundRect,0.150000X0.587500X0.150000X-0.587500X0.150000X-0.587500X-0.150000X0.587500X-0.150000X0*%
%TD*%
%TA.AperFunction,SMDPad,CuDef*%
%ADD76RoundRect,0.250000X-0.475000X0.337500X-0.475000X-0.337500X0.475000X-0.337500X0.475000X0.337500X0*%
%TD*%
%TA.AperFunction,SMDPad,CuDef*%
%ADD77RoundRect,0.150000X-0.587500X-0.150000X0.587500X-0.150000X0.587500X0.150000X-0.587500X0.150000X0*%
%TD*%
%TA.AperFunction,SMDPad,CuDef*%
%ADD78R,2.000000X1.500000*%
%TD*%
%TA.AperFunction,SMDPad,CuDef*%
%ADD79R,2.000000X3.800000*%
%TD*%
%TA.AperFunction,SMDPad,CuDef*%
%ADD80RoundRect,0.150000X-0.150000X0.587500X-0.150000X-0.587500X0.150000X-0.587500X0.150000X0.587500X0*%
%TD*%
%TA.AperFunction,SMDPad,CuDef*%
%ADD81RoundRect,0.250000X1.500000X0.550000X-1.500000X0.550000X-1.500000X-0.550000X1.500000X-0.550000X0*%
%TD*%
%TA.AperFunction,SMDPad,CuDef*%
%ADD82R,2.900000X5.400000*%
%TD*%
%TA.AperFunction,SMDPad,CuDef*%
%ADD83RoundRect,0.250000X0.450000X-0.350000X0.450000X0.350000X-0.450000X0.350000X-0.450000X-0.350000X0*%
%TD*%
%TA.AperFunction,SMDPad,CuDef*%
%ADD84R,1.700000X3.300000*%
%TD*%
%TA.AperFunction,ViaPad*%
%ADD85C,0.800000*%
%TD*%
%TA.AperFunction,Conductor*%
%ADD86C,0.200000*%
%TD*%
%TA.AperFunction,Conductor*%
%ADD87C,1.500000*%
%TD*%
%TA.AperFunction,Conductor*%
%ADD88C,2.500000*%
%TD*%
%TA.AperFunction,Conductor*%
%ADD89C,2.000000*%
%TD*%
G04 APERTURE END LIST*
%TO.C,N4*%
G36*
X143375000Y-120900000D02*
G01*
X142375000Y-120900000D01*
X142375000Y-120400000D01*
X143375000Y-120400000D01*
X143375000Y-120900000D01*
G37*
%TO.C,N3*%
G36*
X125974808Y-67969445D02*
G01*
X125474808Y-67969445D01*
X125474808Y-66969445D01*
X125974808Y-66969445D01*
X125974808Y-67969445D01*
G37*
%TO.C,N2*%
G36*
X86564511Y-66629511D02*
G01*
X85564511Y-66629511D01*
X85564511Y-66129511D01*
X86564511Y-66129511D01*
X86564511Y-66629511D01*
G37*
%TO.C,JP1*%
G36*
X121399511Y-125309511D02*
G01*
X120799511Y-125309511D01*
X120799511Y-124809511D01*
X121399511Y-124809511D01*
X121399511Y-125309511D01*
G37*
%TO.C,N1*%
G36*
X106884511Y-122509511D02*
G01*
X105884511Y-122509511D01*
X105884511Y-122009511D01*
X106884511Y-122009511D01*
X106884511Y-122509511D01*
G37*
%TD*%
D10*
%TO.P,JP6,1,A*%
%TO.N,12V_BUS*%
X115289511Y-51581015D03*
D11*
%TO.P,JP6,2,B*%
%TO.N,/Power Outputs/12V_OP_2*%
X113989511Y-51581015D03*
%TD*%
D12*
%TO.P,JP3,1,A*%
%TO.N,GND*%
X93159511Y-114184511D03*
D13*
%TO.P,JP3,2,B*%
%TO.N,Net-(JP3-Pad2)*%
X93159511Y-112884511D03*
%TD*%
D14*
%TO.P,JP4,1,A*%
%TO.N,12V_BUS*%
X81714511Y-51618751D03*
D15*
%TO.P,JP4,2,B*%
%TO.N,/Power Outputs/12V_OP_0*%
X83014511Y-51618751D03*
%TD*%
D10*
%TO.P,JP7,1,A*%
%TO.N,12V_BUS*%
X132419511Y-51661332D03*
D11*
%TO.P,JP7,2,B*%
%TO.N,/Power Outputs/12V_OP_3*%
X131119511Y-51661332D03*
%TD*%
D14*
%TO.P,JP5,1,A*%
%TO.N,12V_BUS*%
X96954511Y-51628650D03*
D15*
%TO.P,JP5,2,B*%
%TO.N,/Power Outputs/12V_OP_1*%
X98254511Y-51628650D03*
%TD*%
D10*
%TO.P,JP2,1,A*%
%TO.N,GND*%
X115924511Y-72729511D03*
D11*
%TO.P,JP2,2,B*%
%TO.N,Net-(JP2-Pad2)*%
X114624511Y-72729511D03*
%TD*%
D14*
%TO.P,JP8,1,A*%
%TO.N,12V_BUS*%
X140024511Y-51652885D03*
D15*
%TO.P,JP8,2,B*%
%TO.N,/Power Outputs/12V_OP_4*%
X141324511Y-51652885D03*
%TD*%
D16*
%TO.P,J1,1,V-*%
%TO.N,GND*%
X167454511Y-54899511D03*
D17*
%TO.P,J1,2,V+*%
%TO.N,/24V_0*%
X167454511Y-62099511D03*
D18*
%TO.P,J1,S1*%
%TO.N,N/C*%
X173454511Y-65249511D03*
%TO.P,J1,S2*%
X173454511Y-51749511D03*
%TD*%
D19*
%TO.P,N4,1,A*%
%TO.N,GND*%
X142375000Y-120650000D03*
%TO.P,N4,2,C*%
%TO.N,/AtMega328p/at_gnd*%
X143375000Y-120650000D03*
%TD*%
D20*
%TO.P,D3,1,K*%
%TO.N,Net-(D3-Pad1)*%
X157184511Y-86699511D03*
%TO.P,D3,2,A*%
%TO.N,GND*%
X157184511Y-90699511D03*
%TD*%
D21*
%TO.P,J12,1,VBUS*%
%TO.N,5V_BUS*%
X135599511Y-134319511D03*
D22*
%TO.P,J12,2,D-*%
%TO.N,unconnected-(J12-Pad2)*%
X138099511Y-134319511D03*
%TO.P,J12,3,D+*%
%TO.N,unconnected-(J12-Pad3)*%
X140099511Y-134319511D03*
%TO.P,J12,4,GND*%
%TO.N,GND*%
X142599511Y-134319511D03*
D23*
%TO.P,J12,5,Shield*%
X145669511Y-137029511D03*
X132529511Y-137029511D03*
%TD*%
D24*
%TO.P,TP2,1,1*%
%TO.N,24V_BUS*%
X166184511Y-43049511D03*
%TD*%
D25*
%TO.P,J2,1,Pin_1*%
%TO.N,23*%
X247742500Y-129225000D03*
D26*
%TO.P,J2,2,Pin_2*%
%TO.N,19*%
X246472500Y-129225000D03*
%TO.P,J2,3,Pin_3*%
%TO.N,18*%
X245202500Y-129225000D03*
%TO.P,J2,4,Pin_4*%
%TO.N,5*%
X243932500Y-129225000D03*
%TO.P,J2,5,Pin_5*%
%TO.N,4*%
X242662500Y-129225000D03*
%TD*%
D27*
%TO.P,C14,1*%
%TO.N,/Power Distribution/12V_I_SENSE_IP*%
X84159511Y-73999511D03*
%TO.P,C14,2*%
%TO.N,GND*%
X89759511Y-73999511D03*
%TD*%
D28*
%TO.P,Q4,1,G*%
%TO.N,/Power Outputs/5v to 12v logic conversion_v2/0_OUT*%
X73219511Y-55984511D03*
D29*
%TO.P,Q4,2,D*%
%TO.N,/Power Outputs/12V_OP_0*%
X82369511Y-58524511D03*
D28*
%TO.P,Q4,3,S*%
%TO.N,12V_BUS*%
X73219511Y-61064511D03*
%TD*%
D30*
%TO.P,J15,*%
%TO.N,*%
X90284511Y-43129511D03*
X101284511Y-43129511D03*
D31*
%TO.P,J15,1,V-*%
%TO.N,GND*%
X93284511Y-48129511D03*
D32*
%TO.P,J15,2,V+*%
%TO.N,/Power Outputs/12V_OP_1*%
X98284511Y-48129511D03*
%TD*%
D19*
%TO.P,N3,1,A*%
%TO.N,HV*%
X125724808Y-67969445D03*
%TO.P,N3,2,C*%
%TO.N,12V_BUS*%
X125724808Y-66969445D03*
%TD*%
D33*
%TO.P,Q13,1,B*%
%TO.N,Net-(Q13-Pad1)*%
X143374511Y-100517011D03*
%TO.P,Q13,2,E*%
%TO.N,GND*%
X145274511Y-100517011D03*
%TO.P,Q13,3,C*%
%TO.N,/Power Outputs/5v to 12v logic conversion_v2/1_OUT*%
X144324511Y-98642011D03*
%TD*%
D34*
%TO.P,U3,1,PD3*%
%TO.N,/BUS_B_DISABLE*%
X145222011Y-118604511D03*
%TO.P,U3,2,PD4*%
%TO.N,/AtMega328p/CH_C*%
X145222011Y-119104511D03*
%TO.P,U3,3,PE0*%
%TO.N,unconnected-(U3-Pad3)*%
X145222011Y-119604511D03*
%TO.P,U3,4,VCC*%
%TO.N,/AtMega328p/MCU_5V_BUS*%
X145222011Y-120104511D03*
%TO.P,U3,5,GND*%
%TO.N,/AtMega328p/at_gnd*%
X145222011Y-120604511D03*
%TO.P,U3,6,PE1*%
%TO.N,unconnected-(U3-Pad6)*%
X145222011Y-121104511D03*
%TO.P,U3,7,XTAL1/PB6*%
%TO.N,Net-(C7-Pad1)*%
X145222011Y-121604511D03*
%TO.P,U3,8,XTAL2/PB7*%
%TO.N,Net-(C8-Pad1)*%
X145222011Y-122104511D03*
D35*
%TO.P,U3,9,PD5*%
%TO.N,/5V_BUS_MONITOR*%
X145909511Y-122792011D03*
%TO.P,U3,10,PD6*%
%TO.N,/12V_BUS_MONITOR*%
X146409511Y-122792011D03*
%TO.P,U3,11,PD7*%
%TO.N,Net-(D2-Pad2)*%
X146909511Y-122792011D03*
%TO.P,U3,12,PB0*%
%TO.N,/AtMega328p/SSERIAL_TX*%
X147409511Y-122792011D03*
%TO.P,U3,13,PB1*%
%TO.N,/AtMega328p/SSERIAL_RX*%
X147909511Y-122792011D03*
%TO.P,U3,14,PB2*%
%TO.N,/AtMega328p/CH_F*%
X148409511Y-122792011D03*
%TO.P,U3,15,PB3*%
%TO.N,Net-(J8-Pad4)*%
X148909511Y-122792011D03*
%TO.P,U3,16,PB4*%
%TO.N,Net-(J8-Pad1)*%
X149409511Y-122792011D03*
D34*
%TO.P,U3,17,PB5*%
%TO.N,Net-(J8-Pad3)*%
X150097011Y-122104511D03*
%TO.P,U3,18,AVCC*%
%TO.N,/AtMega328p/MCU_5V_BUS*%
X150097011Y-121604511D03*
%TO.P,U3,19,PE2*%
%TO.N,/BUS_I_SENSE_B*%
X150097011Y-121104511D03*
%TO.P,U3,20,AREF*%
%TO.N,unconnected-(U3-Pad20)*%
X150097011Y-120604511D03*
%TO.P,U3,21,GND*%
%TO.N,/AtMega328p/at_gnd*%
X150097011Y-120104511D03*
%TO.P,U3,22,PE3*%
%TO.N,/BUS_I_SENSE_A*%
X150097011Y-119604511D03*
%TO.P,U3,23,PC0*%
%TO.N,/AtMega328p/CH_G*%
X150097011Y-119104511D03*
%TO.P,U3,24,PC1*%
%TO.N,/AtMega328p/CH_H*%
X150097011Y-118604511D03*
D35*
%TO.P,U3,25,PC2*%
%TO.N,/AtMega328p/CH_I*%
X149409511Y-117917011D03*
%TO.P,U3,26,PC3*%
%TO.N,/AtMega328p/CH_J*%
X148909511Y-117917011D03*
%TO.P,U3,27,PC4*%
%TO.N,/AtMega328p/ADC4*%
X148409511Y-117917011D03*
%TO.P,U3,28,PC5*%
%TO.N,/AtMega328p/ADC5*%
X147909511Y-117917011D03*
%TO.P,U3,29,~{RESET}/PC6*%
%TO.N,/AtMega328p/USB MCU CH340 Interface A/DTR_A*%
X147409511Y-117917011D03*
%TO.P,U3,30,PD0*%
%TO.N,/AtMega328p/USB MCU CH340 Interface A/RxD_A*%
X146909511Y-117917011D03*
%TO.P,U3,31,PD1*%
%TO.N,/AtMega328p/USB MCU CH340 Interface A/TxD_A*%
X146409511Y-117917011D03*
%TO.P,U3,32,PD2*%
%TO.N,/BUS_A_DISABLE*%
X145909511Y-117917011D03*
D36*
%TO.P,U3,33,GND*%
%TO.N,/AtMega328p/at_gnd*%
X147659511Y-120354511D03*
%TD*%
D28*
%TO.P,Q5,1,G*%
%TO.N,/Power Outputs/5v to 12v logic conversion_v2/1_OUT*%
X90999511Y-55984511D03*
D29*
%TO.P,Q5,2,D*%
%TO.N,/Power Outputs/12V_OP_1*%
X100149511Y-58524511D03*
D28*
%TO.P,Q5,3,S*%
%TO.N,12V_BUS*%
X90999511Y-61064511D03*
%TD*%
D37*
%TO.P,R15,1*%
%TO.N,Net-(Q9-Pad3)*%
X133164511Y-103989511D03*
%TO.P,R15,2*%
%TO.N,Net-(Q12-Pad1)*%
X135164511Y-103989511D03*
%TD*%
D38*
%TO.P,SW2,1,1*%
%TO.N,/ESP32_Daughterboard/USB ESP32 CH340 Interface /ESP_IO0*%
X234397500Y-120335000D03*
%TO.P,SW2,2,2*%
%TO.N,/ESP32_Daughterboard/GND*%
X228997500Y-120335000D03*
%TD*%
D39*
%TO.P,J20,1,VBUS*%
%TO.N,/ESP32_Daughterboard/USB_PBUS*%
X217252500Y-118502500D03*
%TO.P,J20,2,D-*%
%TO.N,Net-(J20-Pad2)*%
X217252500Y-119302500D03*
%TO.P,J20,3,D+*%
%TO.N,Net-(J20-Pad3)*%
X217252500Y-120102500D03*
%TO.P,J20,4,ID*%
%TO.N,unconnected-(J20-Pad4)*%
X217252500Y-120902500D03*
%TO.P,J20,5,GND*%
%TO.N,/ESP32_Daughterboard/GND*%
X217252500Y-121702500D03*
D40*
%TO.P,J20,6,Shield*%
X217152500Y-124552500D03*
X211702500Y-115652500D03*
X211702500Y-124552500D03*
X217152500Y-115652500D03*
%TD*%
D22*
%TO.P,R7,1*%
%TO.N,Net-(R7-Pad1)*%
X101304511Y-76069511D03*
D41*
%TO.P,R7,2*%
%TO.N,GND*%
X108924511Y-76069511D03*
%TD*%
D42*
%TO.P,U19,1*%
%TO.N,/5V_BUS_MONITOR*%
X78619511Y-121089511D03*
%TO.P,U19,2*%
X79889511Y-121089511D03*
%TO.P,U19,3*%
%TO.N,Net-(D5-Pad2)*%
X81159511Y-121089511D03*
%TO.P,U19,4*%
%TO.N,Net-(D7-Pad2)*%
X82429511Y-121089511D03*
%TO.P,U19,5*%
%TO.N,Net-(D5-Pad2)*%
X83699511Y-121089511D03*
%TO.P,U19,6*%
X84969511Y-121089511D03*
%TO.P,U19,7,GND*%
%TO.N,GND*%
X86239511Y-121089511D03*
%TO.P,U19,8*%
%TO.N,/12V_BUS_MONITOR*%
X86239511Y-116139511D03*
%TO.P,U19,9*%
X84969511Y-116139511D03*
%TO.P,U19,10*%
%TO.N,Net-(D6-Pad2)*%
X83699511Y-116139511D03*
%TO.P,U19,11*%
%TO.N,Net-(D8-Pad2)*%
X82429511Y-116139511D03*
%TO.P,U19,12*%
%TO.N,Net-(D6-Pad2)*%
X81159511Y-116139511D03*
%TO.P,U19,13*%
X79889511Y-116139511D03*
%TO.P,U19,14,VCC*%
%TO.N,MCU_5V*%
X78619511Y-116139511D03*
%TD*%
D25*
%TO.P,J8,1,MISO*%
%TO.N,Net-(J8-Pad1)*%
X106494511Y-126869511D03*
D26*
%TO.P,J8,2,VCC*%
%TO.N,/AtMega328p/MCU_5V_BUS*%
X107764511Y-126869511D03*
%TO.P,J8,3,SCK*%
%TO.N,Net-(J8-Pad3)*%
X106494511Y-128139511D03*
%TO.P,J8,4,MOSI*%
%TO.N,Net-(J8-Pad4)*%
X107764511Y-128139511D03*
%TO.P,J8,5,~{RST}*%
%TO.N,/AtMega328p/USB MCU CH340 Interface A/DTR_A*%
X106494511Y-129409511D03*
%TO.P,J8,6,GND*%
%TO.N,GND*%
X107764511Y-129409511D03*
%TD*%
%TO.P,J25,2,Pin_2*%
%TO.N,/AtMega328p/ADC4*%
X126814511Y-114169511D03*
D25*
%TO.P,J25,1,Pin_1*%
%TO.N,/AtMega328p/ADC5*%
X128084511Y-114169511D03*
%TD*%
D43*
%TO.P,C12,1*%
%TO.N,/Power Distribution/12V_I_SENSE_IP*%
X77174511Y-73364511D03*
%TO.P,C12,2*%
%TO.N,GND*%
X75099511Y-73364511D03*
%TD*%
D28*
%TO.P,U10,1,VIN*%
%TO.N,24V_BUS*%
X162634511Y-83864511D03*
%TO.P,U10,2,OUT*%
%TO.N,Net-(D3-Pad1)*%
X162634511Y-85564511D03*
%TO.P,U10,3,GND*%
%TO.N,GND*%
X162634511Y-87264511D03*
D29*
X171784511Y-87264511D03*
D28*
%TO.P,U10,4,FB*%
%TO.N,MCU_5V*%
X162634511Y-88964511D03*
%TO.P,U10,5,~{ON}/OFF*%
%TO.N,GND*%
X162634511Y-90664511D03*
%TD*%
D44*
%TO.P,J21,1,Pin_1*%
%TO.N,GND*%
X173804511Y-75989511D03*
D45*
%TO.P,J21,2,Pin_2*%
%TO.N,24V_BUS*%
X173804511Y-70989511D03*
%TD*%
D37*
%TO.P,R28,1*%
%TO.N,MCU_5V*%
X133023088Y-118449511D03*
%TO.P,R28,2*%
%TO.N,/12V_BUS_MONITOR*%
X135023088Y-118449511D03*
%TD*%
D33*
%TO.P,Q10,1,B*%
%TO.N,Net-(Q10-Pad1)*%
X138294511Y-108404511D03*
%TO.P,Q10,2,E*%
%TO.N,GND*%
X140194511Y-108404511D03*
%TO.P,Q10,3,C*%
%TO.N,Net-(Q10-Pad3)*%
X139244511Y-106529511D03*
%TD*%
D46*
%TO.P,U1,1,GND*%
%TO.N,/ESP32_Daughterboard/GND*%
X260262500Y-105252500D03*
%TO.P,U1,2,VDD*%
%TO.N,/ESP32_Daughterboard/3V3_BUS*%
X258992500Y-105252500D03*
%TO.P,U1,3,EN*%
%TO.N,/ESP32_Daughterboard/USB ESP32 CH340 Interface /ESP_EN*%
X257722500Y-105252500D03*
%TO.P,U1,4,SENSOR_VP*%
%TO.N,Net-(J3-Pad1)*%
X256452500Y-105252500D03*
%TO.P,U1,5,SENSOR_VN*%
%TO.N,Net-(J3-Pad2)*%
X255182500Y-105252500D03*
%TO.P,U1,6,IO34*%
%TO.N,Net-(J3-Pad3)*%
X253912500Y-105252500D03*
%TO.P,U1,7,IO35*%
%TO.N,Net-(J3-Pad4)*%
X252642500Y-105252500D03*
%TO.P,U1,8,GPIO32*%
%TO.N,Net-(J5-Pad1)*%
X251372500Y-105252500D03*
%TO.P,U1,9,GPIO33*%
%TO.N,Net-(J5-Pad2)*%
X250102500Y-105252500D03*
%TO.P,U1,10,GPIO25*%
%TO.N,Net-(J5-Pad3)*%
X248832500Y-105252500D03*
%TO.P,U1,11,GPIO26*%
%TO.N,Net-(J5-Pad4)*%
X247562500Y-105252500D03*
%TO.P,U1,12,GPIO27*%
%TO.N,Net-(J5-Pad5)*%
X246292500Y-105252500D03*
%TO.P,U1,13,GPIO14*%
%TO.N,Net-(J5-Pad6)*%
X245022500Y-105252500D03*
%TO.P,U1,14,GPIO12*%
%TO.N,Net-(J5-Pad7)*%
X243752500Y-105252500D03*
D47*
%TO.P,U1,15,GND*%
%TO.N,/ESP32_Daughterboard/GND*%
X242752500Y-108037500D03*
%TO.P,U1,16,GPIO13*%
%TO.N,Net-(J5-Pad8)*%
X242752500Y-109307500D03*
%TO.P,U1,17,SHD/SD2*%
%TO.N,Net-(J4-Pad6)*%
X242752500Y-110577500D03*
%TO.P,U1,18,SWP/SD3*%
%TO.N,Net-(J4-Pad5)*%
X242752500Y-111847500D03*
%TO.P,U1,19,SCS/CMD*%
%TO.N,Net-(J4-Pad4)*%
X242752500Y-113117500D03*
%TO.P,U1,20,SCK/CLK*%
%TO.N,Net-(J4-Pad3)*%
X242752500Y-114387500D03*
%TO.P,U1,21,SDO/SD0*%
%TO.N,Net-(J4-Pad2)*%
X242752500Y-115657500D03*
%TO.P,U1,22,SDI/SD1*%
%TO.N,Net-(J4-Pad1)*%
X242752500Y-116927500D03*
%TO.P,U1,23,GPIO15*%
%TO.N,Net-(J5-Pad9)*%
X242752500Y-118197500D03*
%TO.P,U1,24,GPIO2*%
%TO.N,Net-(D9-Pad2)*%
X242752500Y-119467500D03*
D46*
%TO.P,U1,25,IO0/GPIO0*%
%TO.N,/ESP32_Daughterboard/USB ESP32 CH340 Interface /ESP_IO0*%
X243752500Y-122252500D03*
%TO.P,U1,26,GPIO4*%
%TO.N,4*%
X245022500Y-122252500D03*
%TO.P,U1,27,UART2_RX/GPIO16*%
%TO.N,/ESP32_Daughterboard/Logic Level Conversion/1A*%
X246292500Y-122252500D03*
%TO.P,U1,28,UART2_TX/GPIO17*%
%TO.N,/ESP32_Daughterboard/Logic Level Conversion/0A*%
X247562500Y-122252500D03*
%TO.P,U1,29,GPIO5*%
%TO.N,5*%
X248832500Y-122252500D03*
%TO.P,U1,30,GPIO18*%
%TO.N,18*%
X250102500Y-122252500D03*
%TO.P,U1,31,GPIO19*%
%TO.N,19*%
X251372500Y-122252500D03*
%TO.P,U1,32,NC*%
%TO.N,unconnected-(U1-Pad32)*%
X252642500Y-122252500D03*
%TO.P,U1,33,GPIO21*%
%TO.N,SDA*%
X253912500Y-122252500D03*
%TO.P,U1,34,RXD0/GPIO3*%
%TO.N,/ESP32_Daughterboard/USB ESP32 CH340 Interface /TxD_B*%
X255182500Y-122252500D03*
%TO.P,U1,35,TXD0/GPIO1*%
%TO.N,/ESP32_Daughterboard/USB ESP32 CH340 Interface /RxD_B*%
X256452500Y-122252500D03*
%TO.P,U1,36,GPIO22*%
%TO.N,SCL*%
X257722500Y-122252500D03*
%TO.P,U1,37,GPIO23*%
%TO.N,23*%
X258992500Y-122252500D03*
%TO.P,U1,38,GND*%
%TO.N,/ESP32_Daughterboard/GND*%
X260262500Y-122252500D03*
D48*
%TO.P,U1,39,GND*%
X252762500Y-112752500D03*
%TD*%
D49*
%TO.P,C25,1*%
%TO.N,GND*%
X163524290Y-107654511D03*
%TO.P,C25,2*%
%TO.N,Net-(C25-Pad2)*%
X165599290Y-107654511D03*
%TD*%
D50*
%TO.P,D9,1,K*%
%TO.N,Net-(D9-Pad1)*%
X237817500Y-116525000D03*
%TO.P,D9,2,A*%
%TO.N,Net-(D9-Pad2)*%
X239867500Y-116525000D03*
%TD*%
D37*
%TO.P,R3a1,1*%
%TO.N,12V_BUS*%
X109019511Y-67549511D03*
%TO.P,R3a1,2*%
%TO.N,Net-(R3a1-Pad2)*%
X111019511Y-67549511D03*
%TD*%
D28*
%TO.P,Q1,1,G*%
%TO.N,Net-(D1-Pad2)*%
X156609511Y-77809511D03*
D29*
%TO.P,Q1,2,D*%
%TO.N,/24V_1*%
X147459511Y-75269511D03*
D28*
%TO.P,Q1,3,S*%
%TO.N,24V_BUS*%
X156609511Y-72729511D03*
%TD*%
D51*
%TO.P,C10,1*%
%TO.N,24V_BUS*%
X121624511Y-76069511D03*
%TO.P,C10,2*%
%TO.N,GND*%
X121624511Y-70669511D03*
%TD*%
D52*
%TO.P,U13,1,B2*%
%TO.N,/ESP32_Daughterboard/SSERIAL_TX*%
X230792500Y-126980000D03*
%TO.P,U13,2,GND*%
%TO.N,/ESP32_Daughterboard/GND*%
X230792500Y-127630000D03*
%TO.P,U13,3,VCCA*%
%TO.N,/ESP32_Daughterboard/3V3_BUS*%
X230792500Y-128280000D03*
%TO.P,U13,4,A2*%
%TO.N,/ESP32_Daughterboard/Logic Level Conversion/1A*%
X230792500Y-128930000D03*
%TO.P,U13,5,A1*%
%TO.N,/ESP32_Daughterboard/Logic Level Conversion/0A*%
X234192500Y-128930000D03*
%TO.P,U13,6,OE*%
%TO.N,Net-(C6-Pad1)*%
X234192500Y-128280000D03*
%TO.P,U13,7,VCCB*%
%TO.N,/ESP32_Daughterboard/MCU_5V_BUS*%
X234192500Y-127630000D03*
%TO.P,U13,8,B1*%
%TO.N,/ESP32_Daughterboard/SSERIAL_RX*%
X234192500Y-126980000D03*
%TD*%
D43*
%TO.P,C18,1*%
%TO.N,Net-(C18-Pad1)*%
X62104511Y-67649511D03*
%TO.P,C18,2*%
%TO.N,GND*%
X60029511Y-67649511D03*
%TD*%
%TO.P,C29,1*%
%TO.N,Net-(C29-Pad1)*%
X219327500Y-112482500D03*
%TO.P,C29,2*%
%TO.N,/ESP32_Daughterboard/GND*%
X217252500Y-112482500D03*
%TD*%
D53*
%TO.P,U5,34,SEQ*%
%TO.N,unconnected-(U5-Pad34)*%
X85624511Y-109089511D03*
%TO.P,U5,33,MS*%
%TO.N,unconnected-(U5-Pad33)*%
X98424511Y-84989511D03*
D54*
%TO.P,U5,32,Sync*%
%TO.N,unconnected-(U5-Pad32)*%
X98424511Y-88789511D03*
D55*
%TO.P,U5,8,Vout(+)*%
%TO.N,/Power Distribution/12V_I_SENSE_IP*%
X81824511Y-81189511D03*
D53*
%TO.P,U5,7,Sense(+)*%
X85624511Y-81189511D03*
%TO.P,U5,6,Trim*%
%TO.N,Net-(R7-Pad1)*%
X89424511Y-81189511D03*
%TO.P,U5,5,PWR_OK*%
%TO.N,unconnected-(U5-Pad5)*%
X93224511Y-81189511D03*
D55*
%TO.P,U5,4,Vout(-)*%
%TO.N,GND*%
X97024511Y-81189511D03*
D53*
%TO.P,U5,3,Vin(-)*%
X97024511Y-109089511D03*
%TO.P,U5,2,On/Off*%
%TO.N,Net-(JP3-Pad2)*%
X89424511Y-109089511D03*
%TO.P,U5,1,Vin(+)*%
%TO.N,24V_BUS*%
X81824511Y-109089511D03*
%TD*%
D56*
%TO.P,R23,1*%
%TO.N,Net-(Q15-Pad3)*%
X150404511Y-111629511D03*
%TO.P,R23,2*%
%TO.N,HV*%
X148404511Y-111629511D03*
%TD*%
D37*
%TO.P,R1,1*%
%TO.N,Net-(D1-Pad2)*%
X162644511Y-79344511D03*
%TO.P,R1,2*%
%TO.N,GND*%
X164644511Y-79344511D03*
%TD*%
D30*
%TO.P,J14,*%
%TO.N,*%
X75044511Y-43129511D03*
X86044511Y-43129511D03*
D31*
%TO.P,J14,1,V-*%
%TO.N,GND*%
X78044511Y-48129511D03*
D32*
%TO.P,J14,2,V+*%
%TO.N,/Power Outputs/12V_OP_0*%
X83044511Y-48129511D03*
%TD*%
D30*
%TO.P,J18,*%
%TO.N,*%
X147004511Y-43129511D03*
X136004511Y-43129511D03*
D31*
%TO.P,J18,1,V-*%
%TO.N,GND*%
X139004511Y-48129511D03*
D32*
%TO.P,J18,2,V+*%
%TO.N,/Power Outputs/12V_OP_4*%
X144004511Y-48129511D03*
%TD*%
D43*
%TO.P,C4,1*%
%TO.N,/AtMega328p/MCU_5V_BUS*%
X145119511Y-114639511D03*
%TO.P,C4,2*%
%TO.N,GND*%
X143044511Y-114639511D03*
%TD*%
D37*
%TO.P,R24,1*%
%TO.N,Net-(C6-Pad1)*%
X237842500Y-124145000D03*
%TO.P,R24,2*%
%TO.N,/ESP32_Daughterboard/GND*%
X239842500Y-124145000D03*
%TD*%
D57*
%TO.P,U6,1,IP+*%
%TO.N,/Power Distribution/5V_I_SENSE_IP*%
X111639511Y-117179511D03*
%TO.P,U6,2,IP+*%
X111639511Y-118449511D03*
%TO.P,U6,3,IP-*%
%TO.N,5V_BUS*%
X111639511Y-119719511D03*
%TO.P,U6,4,IP-*%
X111639511Y-120989511D03*
%TO.P,U6,5,GND*%
%TO.N,GND*%
X116589511Y-120989511D03*
%TO.P,U6,6,FILTER*%
%TO.N,Net-(C17-Pad1)*%
X116589511Y-119719511D03*
%TO.P,U6,7,VIOUT*%
%TO.N,/BUS_I_SENSE_B*%
X116589511Y-118449511D03*
%TO.P,U6,8,VCC*%
%TO.N,5V_BUS*%
X116589511Y-117179511D03*
%TD*%
D37*
%TO.P,R1a1,1*%
%TO.N,12V_BUS*%
X100764511Y-67549511D03*
%TO.P,R1a1,2*%
%TO.N,Net-(R1a1-Pad2)*%
X102764511Y-67549511D03*
%TD*%
D58*
%TO.P,D5,1,K*%
%TO.N,Net-(D5-Pad1)*%
X76014511Y-118469511D03*
%TO.P,D5,2,A*%
%TO.N,Net-(D5-Pad2)*%
X76014511Y-120519511D03*
%TD*%
D59*
%TO.P,D2,1,K*%
%TO.N,Net-(D2-Pad1)*%
X150454511Y-133054511D03*
%TO.P,D2,2,A*%
%TO.N,Net-(D2-Pad2)*%
X148404511Y-133054511D03*
%TD*%
D60*
%TO.P,SW1,1,1*%
%TO.N,/AtMega328p/USB MCU CH340 Interface A/DTR_A*%
X112844511Y-129409511D03*
%TO.P,SW1,2,2*%
%TO.N,GND*%
X112844511Y-124009511D03*
%TD*%
D56*
%TO.P,R3b1,1*%
%TO.N,5V_BUS*%
X100239511Y-123694511D03*
%TO.P,R3b1,2*%
%TO.N,Net-(R3b1-Pad2)*%
X98239511Y-123694511D03*
%TD*%
D38*
%TO.P,SW3,1,1*%
%TO.N,/ESP32_Daughterboard/USB ESP32 CH340 Interface /ESP_EN*%
X235192500Y-103825000D03*
%TO.P,SW3,2,2*%
%TO.N,/ESP32_Daughterboard/GND*%
X229792500Y-103825000D03*
%TD*%
D25*
%TO.P,J24,1,Pin_1*%
%TO.N,/AtMega328p/CH_C*%
X123004511Y-114169511D03*
%TD*%
D44*
%TO.P,J22,1,Pin_1*%
%TO.N,GND*%
X62804511Y-55749511D03*
D45*
%TO.P,J22,2,Pin_2*%
%TO.N,12V_BUS*%
X62804511Y-60749511D03*
%TD*%
D24*
%TO.P,TP7,1,1*%
%TO.N,Net-(D4-Pad2)*%
X175074511Y-106549511D03*
%TD*%
%TO.P,TP4,1,1*%
%TO.N,12V_BUS*%
X152104511Y-48599511D03*
%TD*%
D61*
%TO.P,Y1,1,1*%
%TO.N,Net-(C7-Pad1)*%
X138134511Y-118619511D03*
%TO.P,Y1,2,2*%
%TO.N,unconnected-(Y1-Pad2)*%
X138134511Y-122419511D03*
%TO.P,Y1,3,3*%
%TO.N,Net-(C8-Pad1)*%
X140434511Y-122419511D03*
%TO.P,Y1,4,4*%
%TO.N,unconnected-(Y1-Pad4)*%
X140434511Y-118619511D03*
%TD*%
D62*
%TO.P,L1,1,1*%
%TO.N,/AtMega328p/MCU_5V_BUS*%
X148294511Y-114639511D03*
%TO.P,L1,2,2*%
%TO.N,GND*%
X150594511Y-114639511D03*
%TD*%
D25*
%TO.P,J7,1,Pin_1*%
%TO.N,/ESP32_Daughterboard/GND*%
X219147500Y-97877500D03*
D26*
%TO.P,J7,2,Pin_2*%
%TO.N,/ESP32_Daughterboard/3V3_BUS*%
X220417500Y-97877500D03*
%TO.P,J7,3,Pin_3*%
%TO.N,/ESP32_Daughterboard/MCU_5V_BUS*%
X221687500Y-97877500D03*
%TO.P,J7,4,Pin_4*%
%TO.N,SCL*%
X222957500Y-97877500D03*
%TO.P,J7,5,Pin_5*%
%TO.N,SDA*%
X224227500Y-97877500D03*
%TD*%
D21*
%TO.P,J13,1,VBUS*%
%TO.N,5V_BUS*%
X156849506Y-134319511D03*
D22*
%TO.P,J13,2,D-*%
%TO.N,unconnected-(J13-Pad2)*%
X159349506Y-134319511D03*
%TO.P,J13,3,D+*%
%TO.N,unconnected-(J13-Pad3)*%
X161349506Y-134319511D03*
%TO.P,J13,4,GND*%
%TO.N,GND*%
X163849506Y-134319511D03*
D23*
%TO.P,J13,5,Shield*%
X153779506Y-137029511D03*
X166919506Y-137029511D03*
%TD*%
D37*
%TO.P,R1b1,1*%
%TO.N,5V_BUS*%
X90254511Y-123694511D03*
%TO.P,R1b1,2*%
%TO.N,Net-(R1b1-Pad2)*%
X92254511Y-123694511D03*
%TD*%
D63*
%TO.P,C9,1*%
%TO.N,24V_BUS*%
X72839511Y-124004511D03*
%TO.P,C9,2*%
%TO.N,GND*%
X72839511Y-129404511D03*
%TD*%
D37*
%TO.P,R8,1*%
%TO.N,Net-(C25-Pad2)*%
X148834511Y-126704511D03*
%TO.P,R8,2*%
%TO.N,GND*%
X150834511Y-126704511D03*
%TD*%
D59*
%TO.P,D6,1,K*%
%TO.N,Net-(D6-Pad1)*%
X69784511Y-45589511D03*
%TO.P,D6,2,A*%
%TO.N,Net-(D6-Pad2)*%
X67734511Y-45589511D03*
%TD*%
D24*
%TO.P,TP10,1,1*%
%TO.N,/5V_BUS_MONITOR*%
X86064511Y-132419511D03*
%TD*%
D27*
%TO.P,C20,1*%
%TO.N,MCU_5V*%
X145754511Y-87969511D03*
%TO.P,C20,2*%
%TO.N,GND*%
X151154511Y-87969511D03*
%TD*%
D56*
%TO.P,R21,1*%
%TO.N,/AtMega328p/CH_I*%
X155987697Y-111629511D03*
%TO.P,R21,2*%
%TO.N,Net-(Q15-Pad1)*%
X153987697Y-111629511D03*
%TD*%
D58*
%TO.P,D7,1,K*%
%TO.N,Net-(D7-Pad1)*%
X73474511Y-118469511D03*
%TO.P,D7,2,A*%
%TO.N,Net-(D7-Pad2)*%
X73474511Y-120519511D03*
%TD*%
D33*
%TO.P,Q14,1,B*%
%TO.N,Net-(Q14-Pad1)*%
X148454511Y-100492011D03*
%TO.P,Q14,2,E*%
%TO.N,GND*%
X150354511Y-100492011D03*
%TO.P,Q14,3,C*%
%TO.N,/Power Outputs/5v to 12v logic conversion_v2/2_OUT*%
X149404511Y-98617011D03*
%TD*%
D49*
%TO.P,C15,1*%
%TO.N,5V_BUS*%
X117289511Y-113534511D03*
%TO.P,C15,2*%
%TO.N,GND*%
X119364511Y-113534511D03*
%TD*%
D19*
%TO.P,N2,1,A*%
%TO.N,12V_BUS*%
X85564511Y-66379511D03*
%TO.P,N2,2,C*%
X86564511Y-66379511D03*
%TD*%
D37*
%TO.P,R19,1*%
%TO.N,/Power Outputs/5v to 12v logic conversion_v2/1_OUT*%
X143324511Y-95119511D03*
%TO.P,R19,2*%
%TO.N,HV*%
X145324511Y-95119511D03*
%TD*%
D43*
%TO.P,C27,1*%
%TO.N,/ESP32_Daughterboard/MCU_5V_BUS*%
X233530000Y-124547500D03*
%TO.P,C27,2*%
%TO.N,/ESP32_Daughterboard/GND*%
X231455000Y-124547500D03*
%TD*%
D57*
%TO.P,U14,1,GND*%
%TO.N,/ESP32_Daughterboard/GND*%
X221062500Y-115657500D03*
%TO.P,U14,2,TXD*%
%TO.N,/ESP32_Daughterboard/USB ESP32 CH340 Interface /TxD_B*%
X221062500Y-116927500D03*
%TO.P,U14,3,RXD*%
%TO.N,/ESP32_Daughterboard/USB ESP32 CH340 Interface /RxD_B*%
X221062500Y-118197500D03*
%TO.P,U14,4,V3*%
%TO.N,Net-(C29-Pad1)*%
X221062500Y-119467500D03*
%TO.P,U14,5,UD+*%
%TO.N,Net-(J20-Pad3)*%
X221062500Y-120737500D03*
%TO.P,U14,6,UD-*%
%TO.N,Net-(J20-Pad2)*%
X221062500Y-122007500D03*
%TO.P,U14,7,NC*%
%TO.N,unconnected-(U14-Pad7)*%
X221062500Y-123277500D03*
%TO.P,U14,8,NC*%
%TO.N,unconnected-(U14-Pad8)*%
X221062500Y-124547500D03*
%TO.P,U14,9,~{CTS}*%
%TO.N,unconnected-(U14-Pad9)*%
X226012500Y-124547500D03*
%TO.P,U14,10,~{DSR}*%
%TO.N,unconnected-(U14-Pad10)*%
X226012500Y-123277500D03*
%TO.P,U14,11,~{RI}*%
%TO.N,unconnected-(U14-Pad11)*%
X226012500Y-122007500D03*
%TO.P,U14,12,~{DCD}*%
%TO.N,unconnected-(U14-Pad12)*%
X226012500Y-120737500D03*
%TO.P,U14,13,~{DTR}*%
%TO.N,Net-(Q19-Pad2)*%
X226012500Y-119467500D03*
%TO.P,U14,14,~{RTS}*%
%TO.N,Net-(Q20-Pad2)*%
X226012500Y-118197500D03*
%TO.P,U14,15,R232*%
%TO.N,unconnected-(U14-Pad15)*%
X226012500Y-116927500D03*
%TO.P,U14,16,VCC*%
%TO.N,/ESP32_Daughterboard/MCU_5V_BUS*%
X226012500Y-115657500D03*
%TD*%
D56*
%TO.P,R13,1*%
%TO.N,Net-(Q11-Pad3)*%
X145324511Y-107819511D03*
%TO.P,R13,2*%
%TO.N,HV*%
X143324511Y-107819511D03*
%TD*%
D53*
%TO.P,U4,1,Vin(+)*%
%TO.N,24V_BUS*%
X122524511Y-81119511D03*
%TO.P,U4,2,On/Off*%
%TO.N,Net-(JP2-Pad2)*%
X114924511Y-81119511D03*
%TO.P,U4,3,Vin(-)*%
%TO.N,GND*%
X107324511Y-81119511D03*
D55*
%TO.P,U4,4,Vout(-)*%
X107324511Y-109019511D03*
D53*
%TO.P,U4,5,PWR_OK*%
%TO.N,unconnected-(U4-Pad5)*%
X111124511Y-109019511D03*
%TO.P,U4,6,Trim*%
%TO.N,Net-(R6-Pad1)*%
X114924511Y-109019511D03*
%TO.P,U4,7,Sense(+)*%
%TO.N,/Power Distribution/5V_I_SENSE_IP*%
X118724511Y-109019511D03*
D55*
%TO.P,U4,8,Vout(+)*%
X122524511Y-109019511D03*
D54*
%TO.P,U4,32,Sync*%
%TO.N,unconnected-(U4-Pad32)*%
X105924511Y-101419511D03*
D53*
%TO.P,U4,33,MS*%
%TO.N,unconnected-(U4-Pad33)*%
X105924511Y-105219511D03*
%TO.P,U4,34,SEQ*%
%TO.N,unconnected-(U4-Pad34)*%
X118724511Y-81119511D03*
%TD*%
D24*
%TO.P,TP3,1,1*%
%TO.N,/3V3_BUS*%
X129977385Y-133226805D03*
%TD*%
D56*
%TO.P,R36,1*%
%TO.N,Net-(Q15-Pad3)*%
X155987697Y-104009511D03*
%TO.P,R36,2*%
%TO.N,Net-(Q17-Pad1)*%
X153987697Y-104009511D03*
%TD*%
%TO.P,R2,1*%
%TO.N,/ESP32_Daughterboard/3V3_BUS*%
X226872500Y-102555000D03*
%TO.P,R2,2*%
%TO.N,SDA*%
X224872500Y-102555000D03*
%TD*%
D49*
%TO.P,C2,1*%
%TO.N,/ESP32_Daughterboard/MCU_5V_BUS*%
X221295000Y-105095000D03*
%TO.P,C2,2*%
%TO.N,/ESP32_Daughterboard/GND*%
X223370000Y-105095000D03*
%TD*%
D37*
%TO.P,R27,1*%
%TO.N,MCU_5V*%
X133054511Y-114639511D03*
%TO.P,R27,2*%
%TO.N,/5V_BUS_MONITOR*%
X135054511Y-114639511D03*
%TD*%
D25*
%TO.P,J3,1,Pin_1*%
%TO.N,Net-(J3-Pad1)*%
X244557500Y-97877500D03*
D26*
%TO.P,J3,2,Pin_2*%
%TO.N,Net-(J3-Pad2)*%
X243287500Y-97877500D03*
%TO.P,J3,3,Pin_3*%
%TO.N,Net-(J3-Pad3)*%
X242017500Y-97877500D03*
%TO.P,J3,4,Pin_4*%
%TO.N,Net-(J3-Pad4)*%
X240747500Y-97877500D03*
%TD*%
D33*
%TO.P,Q12,1,B*%
%TO.N,Net-(Q12-Pad1)*%
X138564511Y-100517011D03*
%TO.P,Q12,2,E*%
%TO.N,GND*%
X140464511Y-100517011D03*
%TO.P,Q12,3,C*%
%TO.N,/Power Outputs/5v to 12v logic conversion_v2/0_OUT*%
X139514511Y-98642011D03*
%TD*%
D43*
%TO.P,C8,1*%
%TO.N,Net-(C8-Pad1)*%
X134959511Y-121624511D03*
%TO.P,C8,2*%
%TO.N,GND*%
X132884511Y-121624511D03*
%TD*%
D22*
%TO.P,C19,1*%
%TO.N,24V_BUS*%
X133799511Y-73529511D03*
%TO.P,C19,2*%
%TO.N,GND*%
X133799511Y-68529511D03*
%TD*%
D49*
%TO.P,C3,1*%
%TO.N,/ESP32_Daughterboard/3V3_BUS*%
X257892500Y-101285000D03*
%TO.P,C3,2*%
%TO.N,/ESP32_Daughterboard/GND*%
X259967500Y-101285000D03*
%TD*%
D64*
%TO.P,M1,1,+*%
%TO.N,12V_BUS*%
X67809511Y-70629511D03*
D30*
%TO.P,M1,2,-*%
%TO.N,GND*%
X65809511Y-70629511D03*
%TD*%
D24*
%TO.P,TP1,1,1*%
%TO.N,GND*%
X152104511Y-43815000D03*
%TD*%
D21*
%TO.P,J10,1,VBUS*%
%TO.N,5V_BUS*%
X92834511Y-134319511D03*
D22*
%TO.P,J10,2,D-*%
%TO.N,unconnected-(J10-Pad2)*%
X95334511Y-134319511D03*
%TO.P,J10,3,D+*%
%TO.N,unconnected-(J10-Pad3)*%
X97334511Y-134319511D03*
%TO.P,J10,4,GND*%
%TO.N,GND*%
X99834511Y-134319511D03*
D23*
%TO.P,J10,5,Shield*%
X102904511Y-137029511D03*
X89764511Y-137029511D03*
%TD*%
D28*
%TO.P,Q6,1,G*%
%TO.N,/Power Outputs/5v to 12v logic conversion_v2/2_OUT*%
X108664511Y-55984511D03*
D29*
%TO.P,Q6,2,D*%
%TO.N,/Power Outputs/12V_OP_2*%
X117814511Y-58524511D03*
D28*
%TO.P,Q6,3,S*%
%TO.N,12V_BUS*%
X108664511Y-61064511D03*
%TD*%
D65*
%TO.P,D4,1,GND*%
%TO.N,Net-(C25-Pad2)*%
X144029511Y-127804511D03*
D66*
%TO.P,D4,2,I/O1*%
%TO.N,Net-(D4-Pad2)*%
X145749511Y-127804511D03*
%TO.P,D4,3,I/O2*%
%TO.N,Net-(D4-Pad3)*%
X145749511Y-125604511D03*
%TO.P,D4,4,VCC*%
%TO.N,/AtMega328p/MCU_5V_BUS*%
X143849511Y-125604511D03*
%TD*%
D25*
%TO.P,J6,1,Pin_1*%
%TO.N,/USB_PBUS*%
X117924511Y-126954511D03*
D26*
%TO.P,J6,2,Pin_2*%
%TO.N,/AtMega328p/MCU_5V_BUS*%
X117924511Y-125684511D03*
%TO.P,J6,3,Pin_3*%
%TO.N,MCU_5V*%
X117924511Y-124414511D03*
%TD*%
D22*
%TO.P,R6,1*%
%TO.N,Net-(R6-Pad1)*%
X111464511Y-113369511D03*
D41*
%TO.P,R6,2*%
%TO.N,GND*%
X103844511Y-113369511D03*
%TD*%
D37*
%TO.P,R31,1*%
%TO.N,Net-(D5-Pad1)*%
X78714511Y-112899511D03*
%TO.P,R31,2*%
%TO.N,GND*%
X80714511Y-112899511D03*
%TD*%
D25*
%TO.P,J26,1,Pin_1*%
%TO.N,/USB_PBUS*%
X175074511Y-129409511D03*
%TD*%
D49*
%TO.P,C1,1*%
%TO.N,/ESP32_Daughterboard/USB ESP32 CH340 Interface /ESP_EN*%
X238037500Y-103825000D03*
%TO.P,C1,2*%
%TO.N,/ESP32_Daughterboard/GND*%
X240112500Y-103825000D03*
%TD*%
D37*
%TO.P,R12,1*%
%TO.N,Net-(Q10-Pad3)*%
X143324511Y-104009511D03*
%TO.P,R12,2*%
%TO.N,HV*%
X145324511Y-104009511D03*
%TD*%
D67*
%TO.P,C26,1*%
%TO.N,/ESP32_Daughterboard/3V3_BUS*%
X227412500Y-128992500D03*
%TO.P,C26,2*%
%TO.N,/ESP32_Daughterboard/GND*%
X227412500Y-126917500D03*
%TD*%
D68*
%TO.P,JP1,1,A*%
%TO.N,MCU_5V*%
X121099511Y-124409511D03*
D69*
%TO.P,JP1,2,C*%
%TO.N,/AtMega328p/MCU_5V_BUS*%
X121099511Y-125709511D03*
D70*
%TO.P,JP1,3,B*%
%TO.N,/USB_PBUS*%
X121099511Y-127009511D03*
%TD*%
D56*
%TO.P,R4a1,1*%
%TO.N,Net-(R3a1-Pad2)*%
X110924511Y-70724511D03*
%TO.P,R4a1,2*%
%TO.N,GND*%
X108924511Y-70724511D03*
%TD*%
D43*
%TO.P,C24,1*%
%TO.N,Net-(C24-Pad1)*%
X155914511Y-121624511D03*
%TO.P,C24,2*%
%TO.N,GND*%
X153839511Y-121624511D03*
%TD*%
D30*
%TO.P,J17,*%
%TO.N,*%
X120764511Y-43129511D03*
X131764511Y-43129511D03*
D31*
%TO.P,J17,1,V-*%
%TO.N,GND*%
X123764511Y-48129511D03*
D32*
%TO.P,J17,2,V+*%
%TO.N,/Power Outputs/12V_OP_3*%
X128764511Y-48129511D03*
%TD*%
D56*
%TO.P,R17,1*%
%TO.N,Net-(Q11-Pad3)*%
X150404511Y-104009511D03*
%TO.P,R17,2*%
%TO.N,Net-(Q14-Pad1)*%
X148404511Y-104009511D03*
%TD*%
D19*
%TO.P,N1,1,A*%
%TO.N,5V_BUS*%
X105884511Y-122259511D03*
%TO.P,N1,2,C*%
X106884511Y-122259511D03*
%TD*%
D37*
%TO.P,R29,1*%
%TO.N,/ESP32_Daughterboard/3V3_BUS*%
X237842500Y-121605000D03*
%TO.P,R29,2*%
%TO.N,Net-(C6-Pad1)*%
X239842500Y-121605000D03*
%TD*%
D49*
%TO.P,C23,1*%
%TO.N,/AtMega328p/MCU_5V_BUS*%
X158919511Y-114639511D03*
%TO.P,C23,2*%
%TO.N,GND*%
X160994511Y-114639511D03*
%TD*%
D56*
%TO.P,R14,1*%
%TO.N,Net-(Q9-Pad3)*%
X130084511Y-104009511D03*
%TO.P,R14,2*%
%TO.N,HV*%
X128084511Y-104009511D03*
%TD*%
D71*
%TO.P,Q8,1,G*%
%TO.N,/Power Outputs/5v to 12v logic conversion_v2/4_OUT*%
X145754511Y-64899511D03*
D72*
%TO.P,Q8,2,D*%
%TO.N,/Power Outputs/12V_OP_4*%
X148294511Y-55749511D03*
D71*
%TO.P,Q8,3,S*%
%TO.N,12V_BUS*%
X150834511Y-64899511D03*
%TD*%
D73*
%TO.P,R5,1*%
%TO.N,/AtMega328p/MCU_5V_BUS*%
X125434511Y-126339511D03*
%TO.P,R5,2*%
%TO.N,/AtMega328p/USB MCU CH340 Interface A/DTR_A*%
X125434511Y-128339511D03*
%TD*%
D57*
%TO.P,U8,1,GND*%
%TO.N,GND*%
X159154511Y-117814511D03*
%TO.P,U8,2,TXD*%
%TO.N,/AtMega328p/USB MCU CH340 Interface A/TxD_A*%
X159154511Y-119084511D03*
%TO.P,U8,3,RXD*%
%TO.N,/AtMega328p/USB MCU CH340 Interface A/RxD_A*%
X159154511Y-120354511D03*
%TO.P,U8,4,V3*%
%TO.N,Net-(C24-Pad1)*%
X159154511Y-121624511D03*
%TO.P,U8,5,UD+*%
%TO.N,Net-(D4-Pad3)*%
X159154511Y-122894511D03*
%TO.P,U8,6,UD-*%
%TO.N,Net-(D4-Pad2)*%
X159154511Y-124164511D03*
%TO.P,U8,7,NC*%
%TO.N,unconnected-(U8-Pad7)*%
X159154511Y-125434511D03*
%TO.P,U8,8,NC*%
%TO.N,unconnected-(U8-Pad8)*%
X159154511Y-126704511D03*
%TO.P,U8,9,~{CTS}*%
%TO.N,unconnected-(U8-Pad9)*%
X164104511Y-126704511D03*
%TO.P,U8,10,~{DSR}*%
%TO.N,unconnected-(U8-Pad10)*%
X164104511Y-125434511D03*
%TO.P,U8,11,~{RI}*%
%TO.N,unconnected-(U8-Pad11)*%
X164104511Y-124164511D03*
%TO.P,U8,12,~{DCD}*%
%TO.N,unconnected-(U8-Pad12)*%
X164104511Y-122894511D03*
%TO.P,U8,13,~{DTR}*%
%TO.N,Net-(C22-Pad2)*%
X164104511Y-121624511D03*
%TO.P,U8,14,~{RTS}*%
%TO.N,unconnected-(U8-Pad14)*%
X164104511Y-120354511D03*
%TO.P,U8,15,R232*%
%TO.N,unconnected-(U8-Pad15)*%
X164104511Y-119084511D03*
%TO.P,U8,16,VCC*%
%TO.N,/AtMega328p/MCU_5V_BUS*%
X164104511Y-117814511D03*
%TD*%
D43*
%TO.P,C30,1*%
%TO.N,MCU_5V*%
X86344511Y-112899511D03*
%TO.P,C30,2*%
%TO.N,GND*%
X84269511Y-112899511D03*
%TD*%
D37*
%TO.P,R22,1*%
%TO.N,/AtMega328p/CH_J*%
X158968730Y-111609511D03*
%TO.P,R22,2*%
%TO.N,Net-(Q16-Pad1)*%
X160968730Y-111609511D03*
%TD*%
D43*
%TO.P,C11,1*%
%TO.N,/Power Distribution/5V_I_SENSE_IP*%
X107129511Y-119249511D03*
%TO.P,C11,2*%
%TO.N,GND*%
X105054511Y-119249511D03*
%TD*%
D24*
%TO.P,TP5,1,1*%
%TO.N,5V_BUS*%
X128084511Y-137029511D03*
%TD*%
D30*
%TO.P,J16,*%
%TO.N,*%
X116524511Y-43129511D03*
X105524511Y-43129511D03*
D31*
%TO.P,J16,1,V-*%
%TO.N,GND*%
X108524511Y-48129511D03*
D32*
%TO.P,J16,2,V+*%
%TO.N,/Power Outputs/12V_OP_2*%
X113524511Y-48129511D03*
%TD*%
D21*
%TO.P,J9,1,VBUS*%
%TO.N,5V_BUS*%
X71464511Y-134319511D03*
D22*
%TO.P,J9,2,D-*%
%TO.N,unconnected-(J9-Pad2)*%
X73964511Y-134319511D03*
%TO.P,J9,3,D+*%
%TO.N,unconnected-(J9-Pad3)*%
X75964511Y-134319511D03*
%TO.P,J9,4,GND*%
%TO.N,GND*%
X78464511Y-134319511D03*
D23*
%TO.P,J9,5,Shield*%
X68394511Y-137029511D03*
X81534511Y-137029511D03*
%TD*%
D37*
%TO.P,R4b1,1*%
%TO.N,Net-(R3b1-Pad2)*%
X98239511Y-126869511D03*
%TO.P,R4b1,2*%
%TO.N,GND*%
X100239511Y-126869511D03*
%TD*%
%TO.P,R35,1*%
%TO.N,Net-(Q16-Pad3)*%
X163545544Y-104009511D03*
%TO.P,R35,2*%
%TO.N,HV*%
X165545544Y-104009511D03*
%TD*%
D24*
%TO.P,TP6,1,1*%
%TO.N,/AtMega328p/USB MCU CH340 Interface A/DTR_A*%
X107019511Y-133689511D03*
%TD*%
D49*
%TO.P,C7,1*%
%TO.N,Net-(C7-Pad1)*%
X138134511Y-114639511D03*
%TO.P,C7,2*%
%TO.N,GND*%
X140209511Y-114639511D03*
%TD*%
D74*
%TO.P,U7,1,IP+*%
%TO.N,/Power Distribution/12V_I_SENSE_IP*%
X76584511Y-70189511D03*
%TO.P,U7,2,IP+*%
X76584511Y-68919511D03*
%TO.P,U7,3,IP-*%
%TO.N,12V_BUS*%
X76584511Y-67649511D03*
%TO.P,U7,4,IP-*%
X76584511Y-66379511D03*
%TO.P,U7,5,GND*%
%TO.N,GND*%
X71634511Y-66379511D03*
%TO.P,U7,6,FILTER*%
%TO.N,Net-(C18-Pad1)*%
X71634511Y-67649511D03*
%TO.P,U7,7,VIOUT*%
%TO.N,/BUS_I_SENSE_A*%
X71634511Y-68919511D03*
%TO.P,U7,8,VCC*%
%TO.N,5V_BUS*%
X71634511Y-70189511D03*
%TD*%
D56*
%TO.P,R34,1*%
%TO.N,Net-(D8-Pad1)*%
X69759511Y-50669511D03*
%TO.P,R34,2*%
%TO.N,GND*%
X67759511Y-50669511D03*
%TD*%
D43*
%TO.P,C28,1*%
%TO.N,/ESP32_Daughterboard/MCU_5V_BUS*%
X224640000Y-112482500D03*
%TO.P,C28,2*%
%TO.N,/ESP32_Daughterboard/GND*%
X222565000Y-112482500D03*
%TD*%
D37*
%TO.P,R38,1*%
%TO.N,/Power Outputs/5v to 12v logic conversion_v2/3_OUT*%
X153987697Y-95094511D03*
%TO.P,R38,2*%
%TO.N,HV*%
X155987697Y-95094511D03*
%TD*%
D75*
%TO.P,U15,1,K*%
%TO.N,Net-(R3b1-Pad2)*%
X96002011Y-128454511D03*
%TO.P,U15,2,REF*%
%TO.N,Net-(R1b1-Pad2)*%
X96002011Y-126554511D03*
%TO.P,U15,3,A*%
%TO.N,GND*%
X94127011Y-127504511D03*
%TD*%
D76*
%TO.P,C6,1*%
%TO.N,Net-(C6-Pad1)*%
X237572500Y-126917500D03*
%TO.P,C6,2*%
%TO.N,/ESP32_Daughterboard/GND*%
X237572500Y-128992500D03*
%TD*%
D77*
%TO.P,Q20,1,B*%
%TO.N,Net-(Q20-Pad1)*%
X231555000Y-107955000D03*
%TO.P,Q20,2,E*%
%TO.N,Net-(Q20-Pad2)*%
X231555000Y-109855000D03*
%TO.P,Q20,3,C*%
%TO.N,/ESP32_Daughterboard/USB ESP32 CH340 Interface /ESP_EN*%
X233430000Y-108905000D03*
%TD*%
D75*
%TO.P,U16,1,K*%
%TO.N,Net-(R3a1-Pad2)*%
X102337011Y-71674511D03*
%TO.P,U16,2,REF*%
%TO.N,Net-(R1a1-Pad2)*%
X102337011Y-69774511D03*
%TO.P,U16,3,A*%
%TO.N,GND*%
X100462011Y-70724511D03*
%TD*%
D78*
%TO.P,U2,1,GND*%
%TO.N,/ESP32_Daughterboard/GND*%
X218472500Y-109935000D03*
%TO.P,U2,2,VO*%
%TO.N,/ESP32_Daughterboard/3V3_BUS*%
X218472500Y-107635000D03*
D79*
X212172500Y-107635000D03*
D78*
%TO.P,U2,3,VI*%
%TO.N,/ESP32_Daughterboard/MCU_5V_BUS*%
X218472500Y-105335000D03*
%TD*%
D25*
%TO.P,J30,1,Pin_1*%
%TO.N,/3V3_BUS*%
X126704511Y-133219511D03*
%TD*%
D49*
%TO.P,C22,1*%
%TO.N,/AtMega328p/USB MCU CH340 Interface A/DTR_A*%
X154009511Y-114639511D03*
%TO.P,C22,2*%
%TO.N,Net-(C22-Pad2)*%
X156084511Y-114639511D03*
%TD*%
D59*
%TO.P,D8,1,K*%
%TO.N,Net-(D8-Pad1)*%
X69784511Y-48129511D03*
%TO.P,D8,2,A*%
%TO.N,Net-(D8-Pad2)*%
X67734511Y-48129511D03*
%TD*%
D76*
%TO.P,C17,1*%
%TO.N,Net-(C17-Pad1)*%
X119719511Y-118914511D03*
%TO.P,C17,2*%
%TO.N,GND*%
X119719511Y-120989511D03*
%TD*%
D37*
%TO.P,R18,1*%
%TO.N,/Power Outputs/5v to 12v logic conversion_v2/0_OUT*%
X138244511Y-95119511D03*
%TO.P,R18,2*%
%TO.N,HV*%
X140244511Y-95119511D03*
%TD*%
D25*
%TO.P,J29,1,Pin_1*%
%TO.N,GND*%
X130004511Y-127747783D03*
D26*
%TO.P,J29,2,Pin_2*%
%TO.N,/3V3_BUS*%
X131274511Y-127747783D03*
%TO.P,J29,3,Pin_3*%
%TO.N,/AtMega328p/MCU_5V_BUS*%
X132544511Y-127747783D03*
%TO.P,J29,4,Pin_4*%
%TO.N,/USB_PBUS*%
X133814511Y-127747783D03*
%TO.P,J29,5,Pin_5*%
%TO.N,unconnected-(J29-Pad5)*%
X135084511Y-127747783D03*
%TO.P,J29,6,Pin_6*%
%TO.N,unconnected-(J29-Pad6)*%
X136354511Y-127747783D03*
%TO.P,J29,7,Pin_7*%
%TO.N,unconnected-(J29-Pad7)*%
X137624511Y-127747783D03*
%TO.P,J29,8,Pin_8*%
%TO.N,unconnected-(J29-Pad8)*%
X138894511Y-127747783D03*
%TO.P,J29,9,Pin_9*%
%TO.N,/AtMega328p/SSERIAL_TX*%
X140164511Y-127747783D03*
%TO.P,J29,10,Pin_10*%
%TO.N,/AtMega328p/SSERIAL_RX*%
X141434511Y-127747783D03*
%TD*%
D77*
%TO.P,U17,1,K*%
%TO.N,/5V_BUS_MONITOR*%
X89682011Y-126554511D03*
%TO.P,U17,2,REF*%
%TO.N,Net-(R3b1-Pad2)*%
X89682011Y-128454511D03*
%TO.P,U17,3,A*%
%TO.N,GND*%
X91557011Y-127504511D03*
%TD*%
D33*
%TO.P,Q16,1,B*%
%TO.N,Net-(Q16-Pad1)*%
X159018730Y-108424511D03*
%TO.P,Q16,2,E*%
%TO.N,GND*%
X160918730Y-108424511D03*
%TO.P,Q16,3,C*%
%TO.N,Net-(Q16-Pad3)*%
X159968730Y-106549511D03*
%TD*%
D56*
%TO.P,R16,1*%
%TO.N,Net-(Q10-Pad3)*%
X140244511Y-103989511D03*
%TO.P,R16,2*%
%TO.N,Net-(Q13-Pad1)*%
X138244511Y-103989511D03*
%TD*%
D33*
%TO.P,Q17,1,B*%
%TO.N,Net-(Q17-Pad1)*%
X154037697Y-100492011D03*
%TO.P,Q17,2,E*%
%TO.N,GND*%
X155937697Y-100492011D03*
%TO.P,Q17,3,C*%
%TO.N,/Power Outputs/5v to 12v logic conversion_v2/3_OUT*%
X154987697Y-98617011D03*
%TD*%
D37*
%TO.P,R2b1,1*%
%TO.N,Net-(R1b1-Pad2)*%
X94159511Y-123694511D03*
%TO.P,R2b1,2*%
%TO.N,GND*%
X96159511Y-123694511D03*
%TD*%
D25*
%TO.P,J5,1,Pin_1*%
%TO.N,Net-(J5-Pad1)*%
X238207500Y-97877500D03*
D26*
%TO.P,J5,2,Pin_2*%
%TO.N,Net-(J5-Pad2)*%
X236937500Y-97877500D03*
%TO.P,J5,3,Pin_3*%
%TO.N,Net-(J5-Pad3)*%
X235667500Y-97877500D03*
%TO.P,J5,4,Pin_4*%
%TO.N,Net-(J5-Pad4)*%
X234397500Y-97877500D03*
%TO.P,J5,5,Pin_5*%
%TO.N,Net-(J5-Pad5)*%
X233127500Y-97877500D03*
%TO.P,J5,6,Pin_6*%
%TO.N,Net-(J5-Pad6)*%
X231857500Y-97877500D03*
%TO.P,J5,7,Pin_7*%
%TO.N,Net-(J5-Pad7)*%
X230587500Y-97877500D03*
%TO.P,J5,8,Pin_8*%
%TO.N,Net-(J5-Pad8)*%
X229317500Y-97877500D03*
%TO.P,J5,9,Pin_9*%
%TO.N,Net-(J5-Pad9)*%
X228047500Y-97877500D03*
%TO.P,J5,10,Pin_10*%
%TO.N,Net-(D9-Pad2)*%
X226777500Y-97877500D03*
%TD*%
D49*
%TO.P,C5,1*%
%TO.N,/ESP32_Daughterboard/3V3_BUS*%
X221295000Y-107635000D03*
%TO.P,C5,2*%
%TO.N,/ESP32_Daughterboard/GND*%
X223370000Y-107635000D03*
%TD*%
D33*
%TO.P,Q15,1,B*%
%TO.N,Net-(Q15-Pad1)*%
X154037697Y-108424511D03*
%TO.P,Q15,2,E*%
%TO.N,GND*%
X155937697Y-108424511D03*
%TO.P,Q15,3,C*%
%TO.N,Net-(Q15-Pad3)*%
X154987697Y-106549511D03*
%TD*%
D80*
%TO.P,Q2,1,G*%
%TO.N,/BUS_B_DISABLE*%
X116224511Y-74967011D03*
%TO.P,Q2,2,S*%
%TO.N,Net-(JP2-Pad2)*%
X114324511Y-74967011D03*
%TO.P,Q2,3,D*%
%TO.N,GND*%
X115274511Y-76842011D03*
%TD*%
%TO.P,Q19,1,B*%
%TO.N,Net-(Q19-Pad1)*%
X230902500Y-113047500D03*
%TO.P,Q19,2,E*%
%TO.N,Net-(Q19-Pad2)*%
X229002500Y-113047500D03*
%TO.P,Q19,3,C*%
%TO.N,/ESP32_Daughterboard/USB ESP32 CH340 Interface /ESP_IO0*%
X229952500Y-114922500D03*
%TD*%
D56*
%TO.P,R9,1*%
%TO.N,/AtMega328p/CH_F*%
X135164511Y-111609511D03*
%TO.P,R9,2*%
%TO.N,Net-(Q9-Pad1)*%
X133164511Y-111609511D03*
%TD*%
%TO.P,R10,1*%
%TO.N,/AtMega328p/CH_G*%
X140244511Y-111609511D03*
%TO.P,R10,2*%
%TO.N,Net-(Q10-Pad1)*%
X138244511Y-111609511D03*
%TD*%
D23*
%TO.P,F1,1*%
%TO.N,/24V_0*%
X159324511Y-43309511D03*
%TO.P,F1,2*%
%TO.N,/24V_1*%
X159324511Y-65909511D03*
%TD*%
D37*
%TO.P,R11,1*%
%TO.N,/AtMega328p/CH_H*%
X143324511Y-111629511D03*
%TO.P,R11,2*%
%TO.N,Net-(Q11-Pad1)*%
X145324511Y-111629511D03*
%TD*%
D33*
%TO.P,Q18,1,B*%
%TO.N,Net-(Q18-Pad1)*%
X159018730Y-100492011D03*
%TO.P,Q18,2,E*%
%TO.N,GND*%
X160918730Y-100492011D03*
%TO.P,Q18,3,C*%
%TO.N,/Power Outputs/5v to 12v logic conversion_v2/4_OUT*%
X159968730Y-98617011D03*
%TD*%
%TO.P,Q9,1,B*%
%TO.N,Net-(Q9-Pad1)*%
X133214511Y-108404511D03*
%TO.P,Q9,2,E*%
%TO.N,GND*%
X135114511Y-108404511D03*
%TO.P,Q9,3,C*%
%TO.N,Net-(Q9-Pad3)*%
X134164511Y-106529511D03*
%TD*%
D81*
%TO.P,C21,1*%
%TO.N,5V_BUS*%
X84269511Y-127504511D03*
%TO.P,C21,2*%
%TO.N,GND*%
X78869511Y-127504511D03*
%TD*%
D56*
%TO.P,R32,1*%
%TO.N,Net-(D6-Pad1)*%
X69759511Y-43049511D03*
%TO.P,R32,2*%
%TO.N,GND*%
X67759511Y-43049511D03*
%TD*%
D25*
%TO.P,J4,1,Pin_1*%
%TO.N,Net-(J4-Pad1)*%
X238842500Y-113350000D03*
D26*
%TO.P,J4,2,Pin_2*%
%TO.N,Net-(J4-Pad2)*%
X238842500Y-112080000D03*
%TO.P,J4,3,Pin_3*%
%TO.N,Net-(J4-Pad3)*%
X238842500Y-110810000D03*
%TO.P,J4,4,Pin_4*%
%TO.N,Net-(J4-Pad4)*%
X238842500Y-109540000D03*
%TO.P,J4,5,Pin_5*%
%TO.N,Net-(J4-Pad5)*%
X238842500Y-108270000D03*
%TO.P,J4,6,Pin_6*%
%TO.N,Net-(J4-Pad6)*%
X238842500Y-107000000D03*
%TD*%
D37*
%TO.P,R4,1*%
%TO.N,Net-(D2-Pad1)*%
X153914511Y-126704511D03*
%TO.P,R4,2*%
%TO.N,GND*%
X155914511Y-126704511D03*
%TD*%
D39*
%TO.P,J31,1,VBUS*%
%TO.N,/USB_PBUS*%
X168564511Y-117039511D03*
%TO.P,J31,2,D-*%
%TO.N,Net-(D4-Pad2)*%
X168564511Y-116239511D03*
%TO.P,J31,3,D+*%
%TO.N,Net-(D4-Pad3)*%
X168564511Y-115439511D03*
%TO.P,J31,4,ID*%
%TO.N,unconnected-(J31-Pad4)*%
X168564511Y-114639511D03*
%TO.P,J31,5,GND*%
%TO.N,GND*%
X168564511Y-113839511D03*
D40*
%TO.P,J31,6,Shield*%
%TO.N,Net-(C25-Pad2)*%
X168664511Y-119889511D03*
X168664511Y-110989511D03*
X174114511Y-119889511D03*
X174114511Y-110989511D03*
%TD*%
D44*
%TO.P,J23,1,Pin_1*%
%TO.N,GND*%
X62044511Y-121234511D03*
D45*
%TO.P,J23,2,Pin_2*%
%TO.N,5V_BUS*%
X62044511Y-126234511D03*
%TD*%
D33*
%TO.P,Q11,1,B*%
%TO.N,Net-(Q11-Pad1)*%
X148454511Y-108424511D03*
%TO.P,Q11,2,E*%
%TO.N,GND*%
X150354511Y-108424511D03*
%TO.P,Q11,3,C*%
%TO.N,Net-(Q11-Pad3)*%
X149404511Y-106549511D03*
%TD*%
D37*
%TO.P,R39,1*%
%TO.N,/Power Outputs/5v to 12v logic conversion_v2/4_OUT*%
X158968730Y-95094511D03*
%TO.P,R39,2*%
%TO.N,HV*%
X160968730Y-95094511D03*
%TD*%
D56*
%TO.P,R37,1*%
%TO.N,Net-(Q16-Pad3)*%
X160968730Y-103989511D03*
%TO.P,R37,2*%
%TO.N,Net-(Q18-Pad1)*%
X158968730Y-103989511D03*
%TD*%
D24*
%TO.P,TP9,1,1*%
%TO.N,/12V_BUS_MONITOR*%
X95589511Y-70189511D03*
%TD*%
D28*
%TO.P,Q7,1,G*%
%TO.N,/Power Outputs/5v to 12v logic conversion_v2/3_OUT*%
X137879511Y-61064511D03*
D29*
%TO.P,Q7,2,D*%
%TO.N,/Power Outputs/12V_OP_3*%
X128729511Y-58524511D03*
D28*
%TO.P,Q7,3,S*%
%TO.N,12V_BUS*%
X137879511Y-55984511D03*
%TD*%
D81*
%TO.P,C13,1*%
%TO.N,/Power Distribution/5V_I_SENSE_IP*%
X101414511Y-116709511D03*
%TO.P,C13,2*%
%TO.N,GND*%
X95814511Y-116709511D03*
%TD*%
D43*
%TO.P,C16,1*%
%TO.N,5V_BUS*%
X62104511Y-72729511D03*
%TO.P,C16,2*%
%TO.N,GND*%
X60029511Y-72729511D03*
%TD*%
D73*
%TO.P,R25,1*%
%TO.N,Net-(Q20-Pad2)*%
X233762500Y-112985000D03*
%TO.P,R25,2*%
%TO.N,Net-(Q19-Pad1)*%
X233762500Y-114985000D03*
%TD*%
%TO.P,R33,1*%
%TO.N,Net-(D7-Pad1)*%
X71120000Y-118380000D03*
%TO.P,R33,2*%
%TO.N,GND*%
X71120000Y-120380000D03*
%TD*%
D82*
%TO.P,L2,1,1*%
%TO.N,Net-(D3-Pad1)*%
X139254511Y-85089511D03*
%TO.P,L2,2,2*%
%TO.N,MCU_5V*%
X129354511Y-85089511D03*
%TD*%
D83*
%TO.P,R26,1*%
%TO.N,Net-(Q19-Pad2)*%
X228682500Y-109905000D03*
%TO.P,R26,2*%
%TO.N,Net-(Q20-Pad1)*%
X228682500Y-107905000D03*
%TD*%
D21*
%TO.P,J11,1,VBUS*%
%TO.N,5V_BUS*%
X114204511Y-134319511D03*
D22*
%TO.P,J11,2,D-*%
%TO.N,unconnected-(J11-Pad2)*%
X116704511Y-134319511D03*
%TO.P,J11,3,D+*%
%TO.N,unconnected-(J11-Pad3)*%
X118704511Y-134319511D03*
%TO.P,J11,4,GND*%
%TO.N,GND*%
X121204511Y-134319511D03*
D23*
%TO.P,J11,5,Shield*%
X111134511Y-137029511D03*
X124274511Y-137029511D03*
%TD*%
D37*
%TO.P,R30,1*%
%TO.N,Net-(D9-Pad1)*%
X237842500Y-119065000D03*
%TO.P,R30,2*%
%TO.N,/ESP32_Daughterboard/GND*%
X239842500Y-119065000D03*
%TD*%
D84*
%TO.P,D1,1,K*%
%TO.N,24V_BUS*%
X163644511Y-69084511D03*
%TO.P,D1,2,A*%
%TO.N,Net-(D1-Pad2)*%
X163644511Y-74584511D03*
%TD*%
D37*
%TO.P,R3,1*%
%TO.N,/ESP32_Daughterboard/3V3_BUS*%
X219062500Y-102555000D03*
%TO.P,R3,2*%
%TO.N,SCL*%
X221062500Y-102555000D03*
%TD*%
D24*
%TO.P,TP8,1,1*%
%TO.N,Net-(D4-Pad3)*%
X175074511Y-102739511D03*
%TD*%
D77*
%TO.P,U18,1,K*%
%TO.N,/12V_BUS_MONITOR*%
X104907011Y-69774511D03*
%TO.P,U18,2,REF*%
%TO.N,Net-(R3a1-Pad2)*%
X104907011Y-71674511D03*
%TO.P,U18,3,A*%
%TO.N,GND*%
X106782011Y-70724511D03*
%TD*%
D75*
%TO.P,Q3,1,G*%
%TO.N,/BUS_A_DISABLE*%
X90589511Y-114484511D03*
%TO.P,Q3,2,S*%
%TO.N,Net-(JP3-Pad2)*%
X90589511Y-112584511D03*
%TO.P,Q3,3,D*%
%TO.N,GND*%
X88714511Y-113534511D03*
%TD*%
D37*
%TO.P,R20,1*%
%TO.N,/Power Outputs/5v to 12v logic conversion_v2/2_OUT*%
X148404511Y-95094511D03*
%TO.P,R20,2*%
%TO.N,HV*%
X150404511Y-95094511D03*
%TD*%
%TO.P,R2a1,1*%
%TO.N,Net-(R1a1-Pad2)*%
X104844511Y-67549511D03*
%TO.P,R2a1,2*%
%TO.N,GND*%
X106844511Y-67549511D03*
%TD*%
D25*
%TO.P,J19,1,Pin_1*%
%TO.N,/ESP32_Daughterboard/GND*%
X212172500Y-129225000D03*
D26*
%TO.P,J19,2,Pin_2*%
%TO.N,/ESP32_Daughterboard/3V3_BUS*%
X213442500Y-129225000D03*
%TO.P,J19,3,Pin_3*%
%TO.N,/ESP32_Daughterboard/MCU_5V_BUS*%
X214712500Y-129225000D03*
%TO.P,J19,4,Pin_4*%
%TO.N,/ESP32_Daughterboard/USB_PBUS*%
X215982500Y-129225000D03*
%TO.P,J19,5,Pin_5*%
%TO.N,unconnected-(J19-Pad5)*%
X217252500Y-129225000D03*
%TO.P,J19,6,Pin_6*%
%TO.N,unconnected-(J19-Pad6)*%
X218522500Y-129225000D03*
%TO.P,J19,7,Pin_7*%
%TO.N,unconnected-(J19-Pad7)*%
X219792500Y-129225000D03*
%TO.P,J19,8,Pin_8*%
%TO.N,unconnected-(J19-Pad8)*%
X221062500Y-129225000D03*
%TO.P,J19,9,Pin_9*%
%TO.N,/ESP32_Daughterboard/SSERIAL_TX*%
X222332500Y-129225000D03*
%TO.P,J19,10,Pin_10*%
%TO.N,/ESP32_Daughterboard/SSERIAL_RX*%
X223602500Y-129225000D03*
%TD*%
D85*
%TO.N,GND*%
X116205000Y-78740000D03*
X141900489Y-114639511D03*
X142240000Y-120650000D03*
X151765000Y-113030000D03*
%TO.N,Net-(D4-Pad2)*%
X156845000Y-124460000D03*
X147320000Y-128270000D03*
%TO.N,GND*%
X151130000Y-127570500D03*
X154940000Y-120015000D03*
X157480000Y-116840000D03*
X132715000Y-123190000D03*
X164115268Y-112109732D03*
X156845000Y-107315000D03*
X151130000Y-107315000D03*
X140970000Y-107950000D03*
X136128550Y-108548340D03*
X156845000Y-127635000D03*
X161925000Y-100330000D03*
X156845000Y-100330000D03*
X151130000Y-100330000D03*
X146050000Y-100330000D03*
X141605000Y-100330000D03*
X88714511Y-117660489D03*
X120015000Y-115570000D03*
X102235000Y-127000000D03*
X96520000Y-125095000D03*
X92710000Y-126365000D03*
X82550000Y-111760000D03*
X69215000Y-120650000D03*
X76969511Y-129404511D03*
X153670000Y-44450000D03*
X99060000Y-71755000D03*
X107315000Y-68580000D03*
X74295000Y-68580000D03*
%TO.N,Net-(C18-Pad1)*%
X69554511Y-67649511D03*
X63839511Y-67649511D03*
%TO.N,/ESP32_Daughterboard/USB ESP32 CH340 Interface /ESP_EN*%
X236937500Y-103592500D03*
X256622500Y-102957500D03*
%TO.N,MCU_5V*%
X125434511Y-91144511D03*
X87969511Y-107654511D03*
X131149511Y-114935000D03*
%TO.N,Net-(D1-Pad2)*%
X156549511Y-75904511D03*
X163534511Y-77174511D03*
%TO.N,Net-(D4-Pad2)*%
X170586217Y-116099521D03*
X161629511Y-124799511D03*
X166709511Y-116544511D03*
X174964511Y-108289511D03*
%TO.N,Net-(D4-Pad3)*%
X160930011Y-122794531D03*
X166002756Y-115837756D03*
X173694511Y-104479511D03*
%TO.N,Net-(D6-Pad2)*%
X79079511Y-117814511D03*
X66675000Y-46961289D03*
%TO.N,Net-(D8-Pad2)*%
X82232476Y-114779011D03*
X66040000Y-47960792D03*
%TO.N,4*%
X243790979Y-125011511D03*
%TO.N,Net-(J5-Pad8)*%
X245192500Y-108037500D03*
%TO.N,Net-(J5-Pad9)*%
X247097500Y-111847500D03*
%TO.N,SCL*%
X255352500Y-119467500D03*
X221062500Y-101052500D03*
%TO.N,SDA*%
X224872500Y-104227500D03*
X252812500Y-120652998D03*
%TO.N,Net-(J8-Pad1)*%
X150773492Y-124165021D03*
%TO.N,Net-(J8-Pad3)*%
X151772730Y-124142049D03*
%TO.N,Net-(J8-Pad4)*%
X149468877Y-124741579D03*
%TO.N,/5V_BUS_MONITOR*%
X79731429Y-119112465D03*
X85429511Y-130514511D03*
X142579511Y-122959011D03*
X136020139Y-116054383D03*
X87334511Y-126704511D03*
%TO.N,/12V_BUS_MONITOR*%
X95589511Y-72729511D03*
X87334511Y-114639511D03*
X134959511Y-119719511D03*
%TO.N,/BUS_B_DISABLE*%
X117814511Y-77174511D03*
X131149511Y-112099511D03*
%TO.N,/BUS_A_DISABLE*%
X91144511Y-115909511D03*
X144909000Y-117660880D03*
%TO.N,/Power Outputs/5v to 12v logic conversion_v2/0_OUT*%
X75269511Y-57489511D03*
X134324511Y-93684511D03*
%TO.N,/Power Outputs/5v to 12v logic conversion_v2/1_OUT*%
X141944511Y-94954511D03*
X91779511Y-58124511D03*
%TO.N,/Power Outputs/5v to 12v logic conversion_v2/2_OUT*%
X109559511Y-58124511D03*
X147024511Y-94954511D03*
%TO.N,/Power Outputs/5v to 12v logic conversion_v2/3_OUT*%
X138134511Y-63204511D03*
X152739511Y-94954511D03*
%TO.N,/Power Outputs/5v to 12v logic conversion_v2/4_OUT*%
X147659511Y-65109511D03*
X157819511Y-94954511D03*
%TO.N,Net-(Q19-Pad2)*%
X224382372Y-118623128D03*
X228682500Y-111212500D03*
%TO.N,/ESP32_Daughterboard/GND*%
X239842500Y-126722500D03*
X229317500Y-101687500D03*
X226141882Y-128357269D03*
X256892500Y-112752500D03*
X213437500Y-124552500D03*
X215990000Y-109935000D03*
X241382500Y-103592500D03*
X228997500Y-122090000D03*
X223602500Y-103592500D03*
X221062500Y-114387500D03*
X217252500Y-126452500D03*
X218522500Y-115022500D03*
X239449083Y-117819349D03*
%TO.N,Net-(Q20-Pad2)*%
X232492500Y-113117500D03*
X228047500Y-117562500D03*
%TO.N,/ESP32_Daughterboard/MCU_5V_BUS*%
X222332500Y-102322500D03*
X223538000Y-116292500D03*
X224237500Y-111212500D03*
%TO.N,/ESP32_Daughterboard/3V3_BUS*%
X236302500Y-122642500D03*
X228682500Y-128357500D03*
X258527500Y-108037500D03*
%TO.N,/AtMega328p/MCU_5V_BUS*%
X149860000Y-113030000D03*
X155279511Y-113369511D03*
X144209500Y-116261880D03*
X152490011Y-121379692D03*
X143214511Y-119084511D03*
X142703883Y-125664383D03*
%TO.N,/BUS_I_SENSE_A*%
X151469511Y-119655011D03*
X92414511Y-88604511D03*
%TO.N,/BUS_I_SENSE_B*%
X151598314Y-120680192D03*
X129879511Y-122195011D03*
%TO.N,/AtMega328p/USB MCU CH340 Interface A/DTR_A*%
X147214648Y-116607555D03*
X127339511Y-127339511D03*
X153374511Y-117814511D03*
%TO.N,/USB_PBUS*%
X123529511Y-126704511D03*
X172251616Y-118712935D03*
%TO.N,/ESP32_Daughterboard/SSERIAL_RX*%
X232492500Y-127087500D03*
%TO.N,/AtMega328p/ADC5*%
X147930008Y-115909511D03*
%TO.N,/AtMega328p/ADC4*%
X148929511Y-115909511D03*
%TO.N,Net-(D9-Pad2)*%
X227921739Y-104353261D03*
X238842500Y-115022500D03*
%TO.N,/AtMega328p/SSERIAL_TX*%
X146999842Y-124735445D03*
%TO.N,/AtMega328p/SSERIAL_RX*%
X148209834Y-124909082D03*
%TO.N,/AtMega328p/CH_F*%
X137041633Y-111922389D03*
X148609011Y-123959149D03*
%TO.N,/AtMega328p/CH_G*%
X141944511Y-111464511D03*
X152256854Y-116510188D03*
%TO.N,/AtMega328p/CH_H*%
X151292014Y-116781232D03*
X146975106Y-112310607D03*
%TO.N,/ESP32_Daughterboard/Logic Level Conversion/1A*%
X231222500Y-130262500D03*
X239477500Y-128992500D03*
%TO.N,/ESP32_Daughterboard/USB ESP32 CH340 Interface /TxD_B*%
X222967500Y-117562500D03*
X254717500Y-123912500D03*
%TO.N,/ESP32_Daughterboard/USB ESP32 CH340 Interface /RxD_B*%
X222758128Y-118977372D03*
X255987500Y-123912500D03*
%TO.N,/AtMega328p/USB MCU CH340 Interface A/RxD_A*%
X146798874Y-115687090D03*
X157184511Y-119784011D03*
%TO.N,/AtMega328p/USB MCU CH340 Interface A/TxD_A*%
X156210000Y-118110000D03*
X145823393Y-115904904D03*
%TO.N,HV*%
X126069511Y-68919511D03*
X129879511Y-89874511D03*
%TD*%
D86*
%TO.N,Net-(J3-Pad4)*%
X251507996Y-102917996D02*
X250797990Y-102917996D01*
X252642500Y-104052500D02*
X251507996Y-102917996D01*
X252642500Y-105252500D02*
X252642500Y-104052500D01*
%TO.N,Net-(J3-Pad3)*%
X242017500Y-98582506D02*
X242017500Y-97877500D01*
X247735423Y-99290435D02*
X242725429Y-99290435D01*
X242725429Y-99290435D02*
X242017500Y-98582506D01*
X250963473Y-102518485D02*
X247735423Y-99290435D01*
X252378485Y-102518485D02*
X250963473Y-102518485D01*
X253912500Y-104052500D02*
X252378485Y-102518485D01*
X253912500Y-105252500D02*
X253912500Y-104052500D01*
%TO.N,Net-(C24-Pad1)*%
X155914511Y-121624511D02*
X159154511Y-121624511D01*
D87*
%TO.N,GND*%
X116205000Y-78740000D02*
X115274511Y-77809511D01*
D86*
%TO.N,Net-(JP2-Pad2)*%
X114225000Y-75066522D02*
X114324511Y-74967011D01*
X114324511Y-80519511D02*
X114225000Y-80420000D01*
X114225000Y-80420000D02*
X114225000Y-75066522D01*
D87*
%TO.N,GND*%
X115274511Y-77809511D02*
X115274511Y-76842011D01*
D86*
%TO.N,MCU_5V*%
X133054511Y-114639511D02*
X131445000Y-114639511D01*
X131445000Y-114639511D02*
X131149511Y-114935000D01*
D87*
%TO.N,5V_BUS*%
X64974022Y-75599022D02*
X67843533Y-72729511D01*
X67843533Y-72729511D02*
X69008533Y-72729511D01*
X69008533Y-72729511D02*
X70913533Y-70824511D01*
X62104511Y-72729511D02*
X69008533Y-72729511D01*
%TO.N,GND*%
X66840235Y-51713787D02*
X62804511Y-55749511D01*
X66840235Y-50669511D02*
X66840235Y-51713787D01*
X64690499Y-48519775D02*
X66840235Y-50669511D01*
X65325499Y-46354463D02*
X65325499Y-46766809D01*
X65405000Y-45404022D02*
X65405000Y-46274962D01*
X67759511Y-43049511D02*
X65405000Y-45404022D01*
X66840235Y-50669511D02*
X67759511Y-50669511D01*
D86*
%TO.N,Net-(D8-Pad2)*%
X66208719Y-48129511D02*
X66040000Y-47960792D01*
X67734511Y-48129511D02*
X66208719Y-48129511D01*
%TO.N,Net-(D6-Pad2)*%
X66675000Y-46649022D02*
X66675000Y-46961289D01*
X67734511Y-45589511D02*
X66675000Y-46649022D01*
D87*
%TO.N,GND*%
X65325499Y-46766809D02*
X64690499Y-47401809D01*
X64690499Y-47401809D02*
X64690499Y-48519775D01*
X65405000Y-46274962D02*
X65325499Y-46354463D01*
D86*
%TO.N,/5V_BUS_MONITOR*%
X78619511Y-120224383D02*
X79731429Y-119112465D01*
X78619511Y-121089511D02*
X78619511Y-120224383D01*
D87*
%TO.N,/24V_0*%
X159324511Y-53969511D02*
X167454511Y-62099511D01*
X159324511Y-43309511D02*
X159324511Y-53969511D01*
D86*
%TO.N,/AtMega328p/at_gnd*%
X143420489Y-120604511D02*
X145222011Y-120604511D01*
D87*
%TO.N,GND*%
X141900489Y-114639511D02*
X143044511Y-114639511D01*
X140209511Y-114639511D02*
X141900489Y-114639511D01*
D86*
%TO.N,/AtMega328p/CH_F*%
X136864511Y-112099511D02*
X137041633Y-111922389D01*
X135654511Y-112099511D02*
X136864511Y-112099511D01*
%TO.N,/BUS_B_DISABLE*%
X132020000Y-112970000D02*
X131149511Y-112099511D01*
X144145000Y-115337135D02*
X144145000Y-113665000D01*
X143510000Y-117276978D02*
X143509999Y-115972136D01*
%TO.N,/AtMega328p/MCU_5V_BUS*%
X145119511Y-115351869D02*
X144209500Y-116261880D01*
X145119511Y-114639511D02*
X145119511Y-115351869D01*
%TO.N,/BUS_B_DISABLE*%
X143509999Y-115972136D02*
X144145000Y-115337135D01*
%TO.N,/BUS_A_DISABLE*%
X145909511Y-117917011D02*
X145165131Y-117917011D01*
X145165131Y-117917011D02*
X144909000Y-117660880D01*
%TO.N,/BUS_B_DISABLE*%
X145222011Y-118604511D02*
X144837532Y-118604511D01*
X144837532Y-118604511D02*
X143510000Y-117276978D01*
X143450000Y-112970000D02*
X132020000Y-112970000D01*
D87*
%TO.N,GND*%
X135114511Y-108404511D02*
X135984721Y-108404511D01*
D86*
%TO.N,/BUS_B_DISABLE*%
X144145000Y-113665000D02*
X143450000Y-112970000D01*
D87*
%TO.N,GND*%
X135984721Y-108404511D02*
X136128550Y-108548340D01*
D86*
%TO.N,/AtMega328p/CH_C*%
X123804022Y-113370000D02*
X123004511Y-114169511D01*
X130324777Y-113370000D02*
X123804022Y-113370000D01*
X130624278Y-113669501D02*
X130324777Y-113370000D01*
X132309744Y-113669501D02*
X130624278Y-113669501D01*
X132609245Y-113370000D02*
X132309744Y-113669501D01*
X138650192Y-113370000D02*
X132609245Y-113370000D01*
X139160000Y-113879808D02*
X138650192Y-113370000D01*
X139160000Y-115074232D02*
X139160000Y-113879808D01*
X141675006Y-116205000D02*
X139700000Y-116205000D01*
X139322491Y-115236723D02*
X139160000Y-115074232D01*
X143651490Y-118181484D02*
X141675006Y-116205000D01*
X139700000Y-116205000D02*
X139322491Y-115827491D01*
X139322491Y-115827491D02*
X139322491Y-115236723D01*
X143849511Y-118181484D02*
X143651490Y-118181484D01*
X145222011Y-119104511D02*
X144772538Y-119104511D01*
X144772538Y-119104511D02*
X143849511Y-118181484D01*
%TO.N,/AtMega328p/USB MCU CH340 Interface A/RxD_A*%
X146522894Y-115963070D02*
X146798874Y-115687090D01*
X146522894Y-116194648D02*
X146522894Y-115963070D01*
X146515147Y-116202395D02*
X146522894Y-116194648D01*
X146909511Y-117291663D02*
X146515147Y-116897299D01*
X146909511Y-117917011D02*
X146909511Y-117291663D01*
%TO.N,/AtMega328p/USB MCU CH340 Interface A/TxD_A*%
X146115636Y-116197147D02*
X145823393Y-115904904D01*
X146115636Y-117062781D02*
X146115636Y-116197147D01*
X146409511Y-117356657D02*
X146115636Y-117062781D01*
X146409511Y-117917011D02*
X146409511Y-117356657D01*
%TO.N,/AtMega328p/USB MCU CH340 Interface A/RxD_A*%
X146515147Y-116897299D02*
X146515147Y-116202395D01*
%TO.N,/AtMega328p/at_gnd*%
X147909511Y-120104511D02*
X150097011Y-120104511D01*
X145222011Y-120604511D02*
X147409511Y-120604511D01*
D87*
%TO.N,24V_BUS*%
X67489511Y-122099511D02*
X69394511Y-124004511D01*
X67489511Y-110945489D02*
X67489511Y-122099511D01*
X69555009Y-108879991D02*
X67489511Y-110945489D01*
X81614991Y-108879991D02*
X69555009Y-108879991D01*
X69394511Y-124004511D02*
X72839511Y-124004511D01*
X81824511Y-109089511D02*
X81614991Y-108879991D01*
%TO.N,5V_BUS*%
X64974022Y-123305000D02*
X62044511Y-126234511D01*
X64974022Y-75599022D02*
X64974022Y-123305000D01*
%TO.N,GND*%
X151764999Y-113245156D02*
X151765000Y-113030000D01*
X150594511Y-114415644D02*
X151764999Y-113245156D01*
X150594511Y-114639511D02*
X150594511Y-114415644D01*
D86*
%TO.N,/AtMega328p/CH_J*%
X154637217Y-109544992D02*
X156904211Y-109544992D01*
X154637217Y-107650814D02*
X154637217Y-109544992D01*
X152814511Y-108274480D02*
X153701500Y-107387491D01*
X152814511Y-113679880D02*
X152814511Y-108274480D01*
X152722981Y-113771409D02*
X152814511Y-113679880D01*
X152722981Y-113995272D02*
X152722981Y-113771409D01*
X151029232Y-115689021D02*
X152722981Y-113995272D01*
X150688028Y-115689021D02*
X151029232Y-115689021D01*
X148909511Y-117467538D02*
X150688028Y-115689021D01*
X148909511Y-117917011D02*
X148909511Y-117467538D01*
X153701500Y-107387491D02*
X154373894Y-107387491D01*
%TO.N,/AtMega328p/CH_I*%
X154988177Y-112629031D02*
X155987697Y-111629511D01*
X154430353Y-112629031D02*
X154988177Y-112629031D01*
X153122491Y-113936893D02*
X154430353Y-112629031D01*
X150970852Y-116088532D02*
X151194717Y-116088531D01*
X151194717Y-116088531D02*
X153122491Y-114160757D01*
%TO.N,/AtMega328p/CH_J*%
X156904211Y-109544992D02*
X158968730Y-111609511D01*
X154373894Y-107387491D02*
X154637217Y-107650814D01*
%TO.N,/AtMega328p/CH_I*%
X153122491Y-114160757D02*
X153122491Y-113936893D01*
X149409511Y-117649873D02*
X150970852Y-116088532D01*
%TO.N,/AtMega328p/CH_H*%
X151292014Y-117409508D02*
X151292014Y-116781232D01*
X150097011Y-118604511D02*
X151292014Y-117409508D01*
%TO.N,/AtMega328p/MCU_5V_BUS*%
X148294511Y-114639511D02*
X149860000Y-113074022D01*
X149860000Y-113074022D02*
X149860000Y-113030000D01*
%TO.N,Net-(D4-Pad2)*%
X157140489Y-124164511D02*
X156845000Y-124460000D01*
X159154511Y-124164511D02*
X157140489Y-124164511D01*
%TO.N,Net-(C25-Pad2)*%
X165209991Y-123494031D02*
X168664511Y-120039511D01*
X158143313Y-123494031D02*
X165209991Y-123494031D01*
X155051386Y-123425490D02*
X158074773Y-123425490D01*
X152849493Y-125627383D02*
X155051386Y-123425490D01*
X150256894Y-125704991D02*
X150349799Y-125704991D01*
X158074773Y-123425490D02*
X158143313Y-123494031D01*
X150427407Y-125627383D02*
X152849493Y-125627383D01*
X149257374Y-126704511D02*
X150256894Y-125704991D01*
X150349799Y-125704991D02*
X150427407Y-125627383D01*
D87*
%TO.N,GND*%
X150834511Y-127275011D02*
X151130000Y-127570500D01*
X150834511Y-126704511D02*
X150834511Y-127275011D01*
D86*
%TO.N,Net-(D4-Pad2)*%
X146854511Y-127804511D02*
X147320000Y-128270000D01*
X145749511Y-127804511D02*
X146854511Y-127804511D01*
D87*
%TO.N,5V_BUS*%
X152225881Y-134319511D02*
X156849506Y-134319511D01*
X151441851Y-135103541D02*
X152225881Y-134319511D01*
X149467172Y-135103542D02*
X151441851Y-135103541D01*
X149067661Y-134704031D02*
X149467172Y-135103542D01*
X146808164Y-134704031D02*
X149067661Y-134704031D01*
X145476144Y-133372011D02*
X146808164Y-134704031D01*
X144802011Y-133372011D02*
X145476144Y-133372011D01*
X144000000Y-132570000D02*
X144802011Y-133372011D01*
X137374839Y-132570000D02*
X144000000Y-132570000D01*
X135625328Y-134319511D02*
X137374839Y-132570000D01*
D86*
%TO.N,Net-(D4-Pad3)*%
X155017371Y-122894511D02*
X159154511Y-122894511D01*
X152684011Y-125227871D02*
X155017371Y-122894511D01*
X150169019Y-125227871D02*
X152684011Y-125227871D01*
X149792379Y-125604511D02*
X150169019Y-125227871D01*
X148503650Y-125604511D02*
X149792379Y-125604511D01*
X148499578Y-125608583D02*
X148503650Y-125604511D01*
X147920090Y-125608583D02*
X148499578Y-125608583D01*
X147916018Y-125604511D02*
X147920090Y-125608583D01*
X145749511Y-125604511D02*
X147916018Y-125604511D01*
D87*
%TO.N,GND*%
X153839511Y-121624511D02*
X153839511Y-121115489D01*
D86*
%TO.N,/AtMega328p/MCU_5V_BUS*%
X152494692Y-120976076D02*
X152494692Y-121379692D01*
X155197491Y-118273277D02*
X152494692Y-120976076D01*
X155197491Y-113451531D02*
X155197491Y-118273277D01*
X155279511Y-113369511D02*
X155197491Y-113451531D01*
X150814511Y-121604511D02*
X151039330Y-121379692D01*
X152494692Y-121379692D02*
X152490011Y-121379692D01*
X150097011Y-121604511D02*
X150814511Y-121604511D01*
X151039330Y-121379692D02*
X152490011Y-121379692D01*
D87*
%TO.N,GND*%
X153839511Y-121115489D02*
X154940000Y-120015000D01*
D86*
%TO.N,/AtMega328p/USB MCU CH340 Interface A/TxD_A*%
X157184511Y-119084511D02*
X156210000Y-118110000D01*
X159154511Y-119084511D02*
X157184511Y-119084511D01*
%TO.N,Net-(C22-Pad2)*%
X160429031Y-117478314D02*
X158741207Y-115790490D01*
X160429031Y-118289748D02*
X160429031Y-117478314D01*
X163763794Y-121624511D02*
X160429031Y-118289748D01*
D87*
%TO.N,GND*%
X158454511Y-117814511D02*
X157480000Y-116840000D01*
D86*
%TO.N,Net-(C22-Pad2)*%
X157065490Y-115790490D02*
X156084511Y-114809511D01*
%TO.N,/AtMega328p/USB MCU CH340 Interface A/RxD_A*%
X159154511Y-120354511D02*
X157755011Y-120354511D01*
X157755011Y-120354511D02*
X157184511Y-119784011D01*
D87*
%TO.N,GND*%
X159154511Y-117814511D02*
X158454511Y-117814511D01*
D86*
%TO.N,Net-(C22-Pad2)*%
X158741207Y-115790490D02*
X157065490Y-115790490D01*
D87*
%TO.N,GND*%
X132715000Y-121794022D02*
X132884511Y-121624511D01*
D86*
%TO.N,/12V_BUS_MONITOR*%
X136864511Y-124164511D02*
X145486483Y-124164511D01*
X146409511Y-123241484D02*
X146409511Y-122792011D01*
X136229511Y-123529511D02*
X136864511Y-124164511D01*
X135274873Y-123529511D02*
X136229511Y-123529511D01*
X133934021Y-122188659D02*
X135274873Y-123529511D01*
X133934021Y-120745001D02*
X133934021Y-122188659D01*
X134959511Y-119719511D02*
X133934021Y-120745001D01*
%TO.N,MCU_5V*%
X131997491Y-119475108D02*
X133023088Y-118449511D01*
D87*
%TO.N,GND*%
X132715000Y-123190000D02*
X132715000Y-121794022D01*
D86*
%TO.N,MCU_5V*%
X131997491Y-121027299D02*
X131997491Y-119475108D01*
X131665490Y-121359300D02*
X131997491Y-121027299D01*
X130514511Y-122894511D02*
X131665489Y-121743533D01*
X122614511Y-122894511D02*
X130514511Y-122894511D01*
X131665489Y-121743533D02*
X131665490Y-121359300D01*
X121099511Y-124409511D02*
X122614511Y-122894511D01*
%TO.N,/12V_BUS_MONITOR*%
X145486483Y-124164511D02*
X146409511Y-123241484D01*
D87*
%TO.N,GND*%
X164115268Y-112109732D02*
X163524290Y-112109732D01*
X155937697Y-108222303D02*
X156845000Y-107315000D01*
X155937697Y-108424511D02*
X155937697Y-108222303D01*
X150354511Y-108090489D02*
X151130000Y-107315000D01*
X150354511Y-108424511D02*
X150354511Y-108090489D01*
X140515489Y-108404511D02*
X140970000Y-107950000D01*
X140194511Y-108404511D02*
X140515489Y-108404511D01*
X155914511Y-126704511D02*
X156845000Y-127635000D01*
X169545000Y-113030000D02*
X166370000Y-113030000D01*
X166370000Y-113030000D02*
X165449732Y-112109732D01*
X165449732Y-112109732D02*
X164115268Y-112109732D01*
X163524290Y-112109732D02*
X163524290Y-107654511D01*
X160994511Y-114639511D02*
X163524290Y-112109732D01*
X162754290Y-108424511D02*
X163524290Y-107654511D01*
X160918730Y-108424511D02*
X162754290Y-108424511D01*
X161762989Y-100492011D02*
X161925000Y-100330000D01*
X160918730Y-100492011D02*
X161762989Y-100492011D01*
X156682989Y-100492011D02*
X156845000Y-100330000D01*
X155937697Y-100492011D02*
X156682989Y-100492011D01*
X150967989Y-100492011D02*
X151130000Y-100330000D01*
X150354511Y-100492011D02*
X150967989Y-100492011D01*
X145274511Y-100517011D02*
X145862989Y-100517011D01*
D86*
%TO.N,HV*%
X147099510Y-100764722D02*
X145324511Y-102539721D01*
X145324511Y-95119511D02*
X147099510Y-96894510D01*
D87*
%TO.N,GND*%
X145862989Y-100517011D02*
X146050000Y-100330000D01*
D86*
%TO.N,HV*%
X145324511Y-102539721D02*
X145324511Y-104009511D01*
X147099510Y-96894510D02*
X147099510Y-100764722D01*
D87*
%TO.N,GND*%
X141417989Y-100517011D02*
X141605000Y-100330000D01*
X140464511Y-100517011D02*
X141417989Y-100517011D01*
X117984511Y-70669511D02*
X116074031Y-72579991D01*
X121624511Y-70669511D02*
X117984511Y-70669511D01*
X121624511Y-70669511D02*
X131659511Y-70669511D01*
X131659511Y-70669511D02*
X133799511Y-68529511D01*
X167668533Y-87264511D02*
X165884022Y-89049022D01*
X171784511Y-87264511D02*
X167668533Y-87264511D01*
X165884022Y-90464022D02*
X165884022Y-89049022D01*
X165884022Y-89049022D02*
X165884022Y-87465000D01*
X165683533Y-87264511D02*
X162634511Y-87264511D01*
X165884022Y-87465000D02*
X165683533Y-87264511D01*
X162634511Y-90664511D02*
X165683533Y-90664511D01*
X165683533Y-90664511D02*
X165884022Y-90464022D01*
X157184511Y-90699511D02*
X162599511Y-90699511D01*
X162599511Y-90699511D02*
X162634511Y-90664511D01*
D86*
%TO.N,MCU_5V*%
X156700489Y-88964511D02*
X162634511Y-88964511D01*
X146854031Y-86869991D02*
X154605969Y-86869991D01*
X145754511Y-87969511D02*
X146854031Y-86869991D01*
X154605969Y-86869991D02*
X156700489Y-88964511D01*
D87*
%TO.N,GND*%
X151154511Y-87969511D02*
X153884511Y-90699511D01*
X153884511Y-90699511D02*
X157184511Y-90699511D01*
X171784511Y-87264511D02*
X171784511Y-78009511D01*
X170449511Y-79344511D02*
X173804511Y-75989511D01*
X164644511Y-79344511D02*
X170449511Y-79344511D01*
X88714511Y-117660489D02*
X88714511Y-113534511D01*
X119364511Y-114919511D02*
X120015000Y-115570000D01*
X119364511Y-113534511D02*
X119364511Y-114919511D01*
X112844511Y-125915489D02*
X109220000Y-129540000D01*
X112844511Y-124009511D02*
X112844511Y-125915489D01*
D86*
%TO.N,/AtMega328p/USB MCU CH340 Interface A/DTR_A*%
X111664512Y-130589510D02*
X112844511Y-129409511D01*
X107674510Y-130589510D02*
X111664512Y-130589510D01*
D87*
%TO.N,GND*%
X109220000Y-129540000D02*
X108413941Y-129540000D01*
D86*
%TO.N,/AtMega328p/USB MCU CH340 Interface A/DTR_A*%
X106494511Y-129409511D02*
X107674510Y-130589510D01*
D87*
%TO.N,GND*%
X112845489Y-124009511D02*
X115865489Y-120989511D01*
X115865489Y-120989511D02*
X116589511Y-120989511D01*
X119719511Y-120989511D02*
X116589511Y-120989511D01*
X98485000Y-119380000D02*
X104140000Y-119380000D01*
X95814511Y-116709511D02*
X98485000Y-119380000D01*
X102104511Y-126869511D02*
X102235000Y-127000000D01*
X100239511Y-126869511D02*
X102104511Y-126869511D01*
%TO.N,5V_BUS*%
X90254511Y-123198134D02*
X91457645Y-121995000D01*
%TO.N,GND*%
X96520000Y-124055000D02*
X96159511Y-123694511D01*
%TO.N,5V_BUS*%
X99135000Y-121995000D02*
X100239511Y-123099511D01*
X90254511Y-123694511D02*
X90254511Y-123198134D01*
X91457645Y-121995000D02*
X99135000Y-121995000D01*
X100239511Y-123099511D02*
X100239511Y-123694511D01*
%TO.N,GND*%
X96520000Y-125095000D02*
X96520000Y-124055000D01*
X93980000Y-127000000D02*
X92075000Y-127000000D01*
X92710000Y-126365000D02*
X92075000Y-127000000D01*
X95814511Y-110299511D02*
X97024511Y-109089511D01*
X95814511Y-116709511D02*
X95814511Y-110299511D01*
X83130000Y-111760000D02*
X84269511Y-112899511D01*
X82550000Y-111760000D02*
X83130000Y-111760000D01*
X81854022Y-111760000D02*
X80714511Y-112899511D01*
X82550000Y-111760000D02*
X81854022Y-111760000D01*
D86*
%TO.N,MCU_5V*%
X80469283Y-113949022D02*
X78619511Y-115798794D01*
X86344511Y-112899511D02*
X85295000Y-113949022D01*
%TO.N,Net-(D8-Pad2)*%
X82429511Y-114976046D02*
X82232476Y-114779011D01*
X82429511Y-116139511D02*
X82429511Y-114976046D01*
%TO.N,MCU_5V*%
X85295000Y-113949022D02*
X80469283Y-113949022D01*
D87*
%TO.N,GND*%
X88714511Y-118614511D02*
X88714511Y-117660489D01*
X86239511Y-121089511D02*
X88714511Y-118614511D01*
X95684511Y-116709511D02*
X93309031Y-114334031D01*
X69485000Y-120380000D02*
X69215000Y-120650000D01*
X71120000Y-120380000D02*
X69485000Y-120380000D01*
D86*
%TO.N,Net-(D7-Pad1)*%
X71259511Y-118519511D02*
X73424511Y-118519511D01*
D87*
%TO.N,GND*%
X76969511Y-129404511D02*
X78869511Y-127504511D01*
X72839511Y-129404511D02*
X76969511Y-129404511D01*
%TO.N,5V_BUS*%
X79669991Y-132104031D02*
X88079511Y-123694511D01*
%TO.N,GND*%
X153035000Y-43815000D02*
X153670000Y-44450000D01*
X152104511Y-43815000D02*
X153035000Y-43815000D01*
X99060000Y-71755000D02*
X99695000Y-71120000D01*
X107315000Y-68580000D02*
X106680000Y-67945000D01*
X108924511Y-70724511D02*
X106814474Y-70724511D01*
X108924511Y-76069511D02*
X108924511Y-70724511D01*
D86*
%TO.N,Net-(R3a1-Pad2)*%
X106379739Y-69675000D02*
X109875000Y-69675000D01*
X104907011Y-71147728D02*
X106379739Y-69675000D01*
X104907011Y-71674511D02*
X104907011Y-71147728D01*
X109875000Y-69675000D02*
X110924511Y-70724511D01*
D87*
%TO.N,GND*%
X89834511Y-73999511D02*
X97024511Y-81189511D01*
X74295000Y-68580000D02*
X74295000Y-71755000D01*
X74295000Y-71755000D02*
X74974991Y-72434991D01*
X74295000Y-67780044D02*
X74295000Y-68580000D01*
X72894467Y-66379511D02*
X74295000Y-67780044D01*
X71634511Y-66379511D02*
X72894467Y-66379511D01*
D86*
%TO.N,Net-(C18-Pad1)*%
X69554511Y-67649511D02*
X71634511Y-67649511D01*
X62104511Y-67649511D02*
X63839511Y-67649511D01*
D87*
%TO.N,GND*%
X60029511Y-69554511D02*
X61104511Y-70629511D01*
X60029511Y-69554511D02*
X60029511Y-72729511D01*
X61104511Y-70629511D02*
X65809511Y-70629511D01*
X60029511Y-67649511D02*
X60029511Y-69554511D01*
D86*
%TO.N,/ESP32_Daughterboard/USB ESP32 CH340 Interface /ESP_EN*%
X257722500Y-105252500D02*
X257722500Y-104057500D01*
X233430000Y-108905000D02*
X235192500Y-107142500D01*
X236767500Y-103592500D02*
X236535000Y-103825000D01*
X236937500Y-103592500D02*
X236767500Y-103592500D01*
X257722500Y-104057500D02*
X256622500Y-102957500D01*
X235192500Y-103825000D02*
X236535000Y-103825000D01*
X235192500Y-107142500D02*
X235192500Y-103825000D01*
X236535000Y-103825000D02*
X238037500Y-103825000D01*
%TO.N,MCU_5V*%
X129354511Y-85089511D02*
X132354022Y-88089022D01*
X133023088Y-118449511D02*
X133023088Y-114670934D01*
X132354022Y-88089022D02*
X145635000Y-88089022D01*
X129354511Y-85089511D02*
X125434511Y-89009511D01*
X87969511Y-107654511D02*
X87969511Y-111274511D01*
X117924511Y-124414511D02*
X121094511Y-124414511D01*
X87969511Y-111274511D02*
X86344511Y-112899511D01*
X125434511Y-89009511D02*
X125434511Y-91144511D01*
%TO.N,Net-(C7-Pad1)*%
X140418533Y-120354511D02*
X138769511Y-120354511D01*
X138134511Y-114639511D02*
X138134511Y-118619511D01*
X141668533Y-121604511D02*
X140418533Y-120354511D01*
X145222011Y-121604511D02*
X141668533Y-121604511D01*
X138134511Y-119719511D02*
X138134511Y-118619511D01*
X138769511Y-120354511D02*
X138134511Y-119719511D01*
%TO.N,Net-(C8-Pad1)*%
X139335000Y-121320000D02*
X140434511Y-122419511D01*
X145131512Y-122195010D02*
X142289767Y-122195010D01*
X142065266Y-122419511D02*
X140434511Y-122419511D01*
X142289767Y-122195010D02*
X142065266Y-122419511D01*
X135264022Y-121320000D02*
X139335000Y-121320000D01*
X145222011Y-122104511D02*
X145131512Y-122195010D01*
D87*
%TO.N,24V_BUS*%
X121624511Y-76069511D02*
X121624511Y-80219511D01*
X113134511Y-90509511D02*
X100404511Y-90509511D01*
X162899511Y-68919511D02*
X160419511Y-68919511D01*
X161094991Y-82324991D02*
X161094991Y-77214991D01*
X162634511Y-83864511D02*
X161094991Y-82324991D01*
X144134511Y-83864511D02*
X162634511Y-83864511D01*
X133799511Y-73529511D02*
X144134511Y-83864511D01*
X173804511Y-70989511D02*
X170519511Y-67704511D01*
X164969511Y-70989511D02*
X162899511Y-68919511D01*
X170519511Y-48445171D02*
X166184511Y-44110171D01*
X121624511Y-80219511D02*
X122524511Y-81119511D01*
X133799511Y-73529511D02*
X124164511Y-73529511D01*
X100404511Y-90509511D02*
X81824511Y-109089511D01*
X160419511Y-68919511D02*
X156609511Y-72729511D01*
X122524511Y-81119511D02*
X113134511Y-90509511D01*
X161094991Y-77214991D02*
X156609511Y-72729511D01*
X160419511Y-68919511D02*
X160584511Y-69084511D01*
X173804511Y-70989511D02*
X164969511Y-70989511D01*
X124164511Y-73529511D02*
X121624511Y-76069511D01*
X160584511Y-69084511D02*
X163644511Y-69084511D01*
X170519511Y-67704511D02*
X170519511Y-48445171D01*
X166184511Y-44110171D02*
X166184511Y-43049511D01*
D88*
%TO.N,/Power Distribution/5V_I_SENSE_IP*%
X111305801Y-116709511D02*
X114390000Y-113625312D01*
X114390000Y-113625312D02*
X114390000Y-113218038D01*
X107129511Y-119249511D02*
X108564511Y-117814511D01*
X110709511Y-116709511D02*
X111305801Y-116709511D01*
X111639511Y-117639511D02*
X111639511Y-117179511D01*
X118724511Y-109019511D02*
X122524511Y-109019511D01*
X111464511Y-117814511D02*
X111639511Y-117639511D01*
X118588527Y-109019511D02*
X118724511Y-109019511D01*
X110709511Y-116709511D02*
X111639511Y-117639511D01*
X108564511Y-117814511D02*
X111464511Y-117814511D01*
X114390000Y-113218038D02*
X118588527Y-109019511D01*
X101414511Y-116709511D02*
X110709511Y-116709511D01*
D86*
%TO.N,Net-(C17-Pad1)*%
X118914511Y-119719511D02*
X119719511Y-118914511D01*
X116589511Y-119719511D02*
X118914511Y-119719511D01*
%TO.N,Net-(C25-Pad2)*%
X168664511Y-119889511D02*
X174114511Y-119889511D01*
X174114511Y-110989511D02*
X174114511Y-119889511D01*
X145129511Y-126704511D02*
X144029511Y-127804511D01*
X174114511Y-110989511D02*
X168664511Y-110989511D01*
X148834511Y-126704511D02*
X145129511Y-126704511D01*
X168664511Y-110719732D02*
X165599290Y-107654511D01*
%TO.N,Net-(C29-Pad1)*%
X219327500Y-118073217D02*
X220721783Y-119467500D01*
X219327500Y-112482500D02*
X219327500Y-118073217D01*
%TO.N,Net-(D1-Pad2)*%
X162644511Y-79344511D02*
X163534511Y-78454511D01*
X163534511Y-78454511D02*
X163534511Y-77174511D01*
X156609511Y-77809511D02*
X156609511Y-75964511D01*
X156609511Y-75964511D02*
X156549511Y-75904511D01*
X163644511Y-77064511D02*
X163534511Y-77174511D01*
X163644511Y-74584511D02*
X163644511Y-77064511D01*
%TO.N,Net-(D2-Pad1)*%
X150454511Y-133054511D02*
X153914511Y-129594511D01*
X153914511Y-129594511D02*
X153914511Y-126704511D01*
%TO.N,Net-(D2-Pad2)*%
X145727011Y-131812011D02*
X147162011Y-131812011D01*
X146909511Y-122792011D02*
X146909511Y-123366145D01*
X141944511Y-127127103D02*
X143130000Y-128312592D01*
X141944511Y-125434511D02*
X141944511Y-127127103D01*
X143130000Y-129215000D02*
X145727011Y-131812011D01*
X142774022Y-124605000D02*
X141944511Y-125434511D01*
X147162011Y-131812011D02*
X148404511Y-133054511D01*
X146909511Y-123366145D02*
X145670655Y-124605000D01*
X143130000Y-128312592D02*
X143130000Y-129215000D01*
X145670655Y-124605000D02*
X142774022Y-124605000D01*
%TO.N,Net-(D3-Pad1)*%
X155574511Y-85089511D02*
X157184511Y-86699511D01*
X158319511Y-85564511D02*
X162634511Y-85564511D01*
X157184511Y-86699511D02*
X158319511Y-85564511D01*
X139254511Y-85089511D02*
X155574511Y-85089511D01*
%TO.N,Net-(D4-Pad2)*%
X168564511Y-116239511D02*
X167014511Y-116239511D01*
X174964511Y-108289511D02*
X174964511Y-106659511D01*
X167014511Y-116239511D02*
X166709511Y-116544511D01*
X170446227Y-116239511D02*
X170586217Y-116099521D01*
X160994511Y-124164511D02*
X159154511Y-124164511D01*
X161629511Y-124799511D02*
X160994511Y-124164511D01*
X168564511Y-116239511D02*
X170446227Y-116239511D01*
%TO.N,Net-(D4-Pad3)*%
X159154511Y-122894511D02*
X160830031Y-122894511D01*
X173694511Y-104119511D02*
X175074511Y-102739511D01*
X173694511Y-104479511D02*
X173694511Y-104119511D01*
X166401001Y-115439511D02*
X166002756Y-115837756D01*
X168564511Y-115439511D02*
X166401001Y-115439511D01*
X160830031Y-122894511D02*
X160930011Y-122794531D01*
%TO.N,Net-(D5-Pad1)*%
X76014511Y-115599511D02*
X78714511Y-112899511D01*
X76014511Y-118469511D02*
X76014511Y-115599511D01*
%TO.N,Net-(D5-Pad2)*%
X81159511Y-120748794D02*
X82093314Y-119814991D01*
X82765708Y-119814991D02*
X83699511Y-120748794D01*
X77859031Y-122364031D02*
X80225708Y-122364031D01*
X82093314Y-119814991D02*
X82765708Y-119814991D01*
X76014511Y-120519511D02*
X77859031Y-122364031D01*
X80225708Y-122364031D02*
X81159511Y-121430228D01*
X84969511Y-121089511D02*
X83699511Y-121089511D01*
%TO.N,Net-(D6-Pad1)*%
X69759511Y-43049511D02*
X69759511Y-45564511D01*
%TO.N,Net-(D6-Pad2)*%
X82093314Y-117414031D02*
X81159511Y-116480228D01*
X79889511Y-117004511D02*
X79079511Y-117814511D01*
X83699511Y-116480228D02*
X82765708Y-117414031D01*
X82765708Y-117414031D02*
X82093314Y-117414031D01*
X81159511Y-116139511D02*
X79944511Y-116139511D01*
%TO.N,Net-(D8-Pad1)*%
X69759511Y-50669511D02*
X69759511Y-48154511D01*
D88*
%TO.N,/Power Distribution/12V_I_SENSE_IP*%
X85624511Y-75464511D02*
X84159511Y-73999511D01*
X85624511Y-81189511D02*
X85624511Y-75464511D01*
X77174511Y-73364511D02*
X83524511Y-73364511D01*
X81824511Y-81189511D02*
X85624511Y-81189511D01*
X83524511Y-73364511D02*
X84159511Y-73999511D01*
X77174511Y-73364511D02*
X77174511Y-70189511D01*
X77174511Y-70189511D02*
X76539511Y-69554511D01*
X76539511Y-69554511D02*
X76539511Y-69399031D01*
D86*
%TO.N,23*%
X247742500Y-129225000D02*
X255120000Y-129225000D01*
X258992500Y-125352500D02*
X258992500Y-122252500D01*
X255120000Y-129225000D02*
X258992500Y-125352500D01*
%TO.N,19*%
X251372500Y-123619994D02*
X251372500Y-122252500D01*
X246472500Y-128519994D02*
X251372500Y-123619994D01*
X246472500Y-129225000D02*
X246472500Y-128519994D01*
%TO.N,18*%
X245202500Y-129225000D02*
X250102500Y-124325000D01*
X250102500Y-124325000D02*
X250102500Y-122252500D01*
%TO.N,5*%
X243932500Y-129225000D02*
X248832500Y-124325000D01*
X248832500Y-124325000D02*
X248832500Y-122252500D01*
%TO.N,4*%
X245022500Y-122252500D02*
X245022500Y-123779990D01*
X245022500Y-123779990D02*
X243790979Y-125011511D01*
%TO.N,Net-(J3-Pad1)*%
X256452500Y-105252500D02*
X256452500Y-104052500D01*
X255582011Y-99447018D02*
X254012493Y-97877500D01*
X254012493Y-97877500D02*
X244557500Y-97877500D01*
X255582011Y-103182011D02*
X255582011Y-99447018D01*
X256452500Y-104052500D02*
X255582011Y-103182011D01*
%TO.N,Net-(J3-Pad2)*%
X243287500Y-98584606D02*
X243593818Y-98890924D01*
X243593818Y-98890924D02*
X247943976Y-98890924D01*
X243287500Y-97877500D02*
X243287500Y-98584606D01*
X254037979Y-98467979D02*
X255182500Y-99612500D01*
X248366921Y-98467979D02*
X254037979Y-98467979D01*
X247943976Y-98890924D02*
X248366921Y-98467979D01*
X255182500Y-99612500D02*
X255182500Y-105252500D01*
%TO.N,Net-(J3-Pad4)*%
X250797990Y-102917996D02*
X247569940Y-99689946D01*
X242559946Y-99689946D02*
X240747500Y-97877500D01*
X247569940Y-99689946D02*
X242559946Y-99689946D01*
%TO.N,Net-(J4-Pad1)*%
X238842500Y-113796522D02*
X241973478Y-116927500D01*
X238842500Y-113350000D02*
X238842500Y-113796522D01*
%TO.N,Net-(J4-Pad2)*%
X241552500Y-115657500D02*
X242752500Y-115657500D01*
X240347989Y-114452989D02*
X241552500Y-115657500D01*
X239171522Y-112080000D02*
X240347989Y-113256467D01*
X240347989Y-113256467D02*
X240347989Y-114452989D01*
%TO.N,Net-(J4-Pad3)*%
X240347989Y-112315489D02*
X240347989Y-112647982D01*
X240347989Y-112647982D02*
X242087507Y-114387500D01*
X238842500Y-110810000D02*
X240347989Y-112315489D01*
%TO.N,Net-(J4-Pad4)*%
X241382500Y-113117500D02*
X242752500Y-113117500D01*
X240747500Y-112482500D02*
X241382500Y-113117500D01*
X238842500Y-109540000D02*
X240747500Y-111445000D01*
X240747500Y-111445000D02*
X240747500Y-112482500D01*
%TO.N,Net-(J4-Pad5)*%
X240347989Y-110480495D02*
X241714994Y-111847500D01*
X241714994Y-111847500D02*
X242752500Y-111847500D01*
X238842500Y-108270000D02*
X240347989Y-109775489D01*
X240347989Y-109775489D02*
X240347989Y-110480495D01*
%TO.N,Net-(J4-Pad6)*%
X240747500Y-108905000D02*
X240747500Y-109942500D01*
X240747500Y-109942500D02*
X241382500Y-110577500D01*
X241382500Y-110577500D02*
X242752500Y-110577500D01*
X238842500Y-107000000D02*
X240747500Y-108905000D01*
%TO.N,Net-(J5-Pad1)*%
X251372500Y-104057500D02*
X247404456Y-100089456D01*
X251372500Y-105252500D02*
X251372500Y-104057500D01*
X240419456Y-100089456D02*
X238207500Y-97877500D01*
X240419456Y-100089457D02*
X247404456Y-100089456D01*
%TO.N,Net-(J5-Pad2)*%
X250102500Y-104052500D02*
X246538967Y-100488967D01*
X238931099Y-100488967D02*
X236937500Y-98495368D01*
X250102500Y-105252500D02*
X250102500Y-104052500D01*
X238931099Y-100488968D02*
X246538967Y-100488967D01*
X236937500Y-98495368D02*
X236937500Y-97877500D01*
%TO.N,Net-(J5-Pad3)*%
X238678478Y-100888478D02*
X245663478Y-100888478D01*
X238678478Y-100888478D02*
X235667500Y-97877500D01*
X248832500Y-104057500D02*
X248832500Y-105252500D01*
X245663478Y-100888478D02*
X248832500Y-104057500D01*
%TO.N,Net-(J5-Pad4)*%
X244792998Y-101287998D02*
X238512991Y-101287997D01*
X247562500Y-104057500D02*
X244792998Y-101287998D01*
X235336331Y-98677011D02*
X234536820Y-97877500D01*
X238512991Y-101287997D02*
X235902005Y-98677011D01*
X247562500Y-105252500D02*
X247562500Y-104057500D01*
X235902005Y-98677011D02*
X235336331Y-98677011D01*
%TO.N,Net-(J5-Pad5)*%
X246292500Y-105252500D02*
X246292500Y-104052500D01*
X246292500Y-104052500D02*
X243927500Y-101687500D01*
X243927500Y-101687500D02*
X243427546Y-101687500D01*
X243427546Y-101687500D02*
X243427530Y-101687516D01*
X233127500Y-97877500D02*
X236937500Y-101687500D01*
X243427530Y-101687516D02*
X238347504Y-101687516D01*
X236937500Y-101687500D02*
X239477500Y-101687500D01*
%TO.N,Net-(J5-Pad6)*%
X245022500Y-104052500D02*
X243057020Y-102087020D01*
X236067020Y-102087020D02*
X231857500Y-97877500D01*
X245022500Y-105252500D02*
X245022500Y-104052500D01*
X243057020Y-102087020D02*
X236067020Y-102087020D01*
%TO.N,Net-(J5-Pad7)*%
X243752500Y-104057500D02*
X242181531Y-102486531D01*
X243752500Y-105252500D02*
X243752500Y-104057500D01*
X235196531Y-102486531D02*
X230587500Y-97877500D01*
X242181531Y-102486531D02*
X235196531Y-102486531D01*
%TO.N,Net-(J5-Pad8)*%
X245192500Y-108037500D02*
X243922500Y-109307500D01*
X243922500Y-109307500D02*
X242752500Y-109307500D01*
%TO.N,Net-(J5-Pad9)*%
X247097500Y-115052500D02*
X243952500Y-118197500D01*
X247097500Y-111847500D02*
X247097500Y-115052500D01*
X243952500Y-118197500D02*
X242752500Y-118197500D01*
%TO.N,Net-(D9-Pad1)*%
X237817500Y-116525000D02*
X237817500Y-119040000D01*
%TO.N,SCL*%
X255352500Y-119467500D02*
X256137500Y-119467500D01*
X257722500Y-121052500D02*
X257722500Y-122252500D01*
X256137500Y-119467500D02*
X257722500Y-121052500D01*
X221062500Y-102555000D02*
X221062500Y-101052500D01*
%TO.N,SDA*%
X224872500Y-102555000D02*
X224872500Y-104227500D01*
X224227500Y-101910000D02*
X224872500Y-102555000D01*
X252812500Y-120652998D02*
X253092020Y-120652998D01*
X224227500Y-97877500D02*
X224227500Y-101910000D01*
X253092020Y-120652998D02*
X253912500Y-121473478D01*
%TO.N,Net-(J8-Pad1)*%
X149409511Y-122792011D02*
X150773492Y-124155992D01*
X150773492Y-124155992D02*
X150773492Y-124165021D01*
%TO.N,Net-(J8-Pad3)*%
X151772730Y-123780230D02*
X151772730Y-124142049D01*
X150097011Y-122104511D02*
X151772730Y-123780230D01*
%TO.N,Net-(J8-Pad4)*%
X148909511Y-123241484D02*
X149468877Y-123800850D01*
X149468877Y-123800850D02*
X149468877Y-124741579D01*
X148909511Y-122792011D02*
X148909511Y-123241484D01*
D87*
%TO.N,/24V_1*%
X156819511Y-65909511D02*
X159324511Y-65909511D01*
X147459511Y-75269511D02*
X156819511Y-65909511D01*
D89*
%TO.N,/Power Outputs/12V_OP_0*%
X83524511Y-57369511D02*
X83524511Y-48609511D01*
%TO.N,/Power Outputs/12V_OP_1*%
X100149511Y-53523650D02*
X98754511Y-52128650D01*
X98754511Y-48599511D02*
X98754511Y-52128650D01*
X100149511Y-58524511D02*
X100149511Y-53523650D01*
%TO.N,/Power Outputs/12V_OP_2*%
X113369511Y-54079511D02*
X113369511Y-48284511D01*
X117814511Y-58524511D02*
X113369511Y-54079511D01*
X113524511Y-48129511D02*
X113524511Y-50235423D01*
%TO.N,/Power Outputs/12V_OP_3*%
X128764511Y-48129511D02*
X130619511Y-49984511D01*
X130619511Y-49984511D02*
X130619511Y-52161332D01*
X128729511Y-58524511D02*
X128729511Y-54051332D01*
X128729511Y-54051332D02*
X130619511Y-52161332D01*
D86*
%TO.N,Net-(J20-Pad2)*%
X222073697Y-120137980D02*
X222967500Y-121031783D01*
X222332500Y-122007500D02*
X221062500Y-122007500D01*
X217252500Y-119302500D02*
X219286783Y-119302500D01*
X220122263Y-120137980D02*
X222073697Y-120137980D01*
X222967500Y-121372500D02*
X222332500Y-122007500D01*
X222967500Y-121031783D02*
X222967500Y-121372500D01*
X219286783Y-119302500D02*
X220122263Y-120137980D01*
%TO.N,Net-(J20-Pad3)*%
X217252500Y-120102500D02*
X219157500Y-120102500D01*
X219157500Y-120102500D02*
X219792500Y-120737500D01*
X219792500Y-120737500D02*
X221062500Y-120737500D01*
%TO.N,Net-(JP2-Pad2)*%
X114004511Y-73999511D02*
X114004511Y-73349511D01*
X114324511Y-74967011D02*
X114324511Y-74319511D01*
X114324511Y-74319511D02*
X114004511Y-73999511D01*
X114004511Y-73349511D02*
X114624511Y-72729511D01*
%TO.N,Net-(JP3-Pad2)*%
X89424511Y-109089511D02*
X89424511Y-111419511D01*
X89424511Y-111419511D02*
X90589511Y-112584511D01*
X90589511Y-112584511D02*
X92859511Y-112584511D01*
D87*
%TO.N,5V_BUS*%
X86019511Y-127504511D02*
X92834511Y-134319511D01*
X105749511Y-122259511D02*
X110194511Y-122259511D01*
X71459511Y-70824511D02*
X71634511Y-70649511D01*
X71464511Y-134319511D02*
X73679991Y-132104031D01*
X62044511Y-126234511D02*
X63379511Y-126234511D01*
X70913533Y-70824511D02*
X71459511Y-70824511D01*
X131775378Y-134319511D02*
X135599511Y-134319511D01*
X63379511Y-126234511D02*
X71464511Y-134319511D01*
X114230328Y-134319511D02*
X115979839Y-132570000D01*
X116589511Y-114234511D02*
X117289511Y-113534511D01*
X113564031Y-119054947D02*
X112264467Y-120354511D01*
X129065378Y-137029511D02*
X131775378Y-134319511D01*
X92834511Y-134319511D02*
X94584022Y-132570000D01*
X108924511Y-122259511D02*
X110829511Y-120354511D01*
X115979839Y-132570000D02*
X123625000Y-132570000D01*
X104314511Y-123694511D02*
X105749511Y-122259511D01*
X116589511Y-117179511D02*
X116589511Y-114234511D01*
X100239511Y-123694511D02*
X104314511Y-123694511D01*
X108470378Y-136229511D02*
X110380378Y-134319511D01*
X84269511Y-127504511D02*
X86019511Y-127504511D01*
X71634511Y-70649511D02*
X71634511Y-70189511D01*
X116589511Y-117179511D02*
X115329555Y-117179511D01*
X113564031Y-118945035D02*
X113564031Y-119054947D01*
X115329555Y-117179511D02*
X113564031Y-118945035D01*
X112264467Y-120354511D02*
X112099511Y-120354511D01*
X73679991Y-132104031D02*
X79669991Y-132104031D01*
X123625000Y-132570000D02*
X128084511Y-137029511D01*
X94584022Y-132570000D02*
X102725000Y-132570000D01*
X102725000Y-132570000D02*
X106384511Y-136229511D01*
X110194511Y-122259511D02*
X112099511Y-120354511D01*
X128084511Y-137029511D02*
X129065378Y-137029511D01*
X106384511Y-136229511D02*
X108470378Y-136229511D01*
X88079511Y-123694511D02*
X90254511Y-123694511D01*
X110380378Y-134319511D02*
X114230328Y-134319511D01*
D86*
%TO.N,/5V_BUS_MONITOR*%
X135054511Y-115088755D02*
X136020139Y-116054383D01*
X78619511Y-121089511D02*
X79889511Y-121089511D01*
X142746511Y-122792011D02*
X142579511Y-122959011D01*
X86064511Y-131149511D02*
X85429511Y-130514511D01*
X145909511Y-122792011D02*
X142746511Y-122792011D01*
X89532011Y-126704511D02*
X87334511Y-126704511D01*
X86064511Y-132419511D02*
X86064511Y-131149511D01*
%TO.N,/12V_BUS_MONITOR*%
X84969511Y-116139511D02*
X86469511Y-116139511D01*
X87334511Y-115274511D02*
X87334511Y-114639511D01*
X96339511Y-69439511D02*
X100628794Y-69439511D01*
X86469511Y-116139511D02*
X87334511Y-115274511D01*
X104307491Y-70374031D02*
X104907011Y-69774511D01*
X95589511Y-70189511D02*
X95589511Y-72729511D01*
X101563314Y-70374031D02*
X104307491Y-70374031D01*
X134959511Y-118513088D02*
X134959511Y-119719511D01*
X95589511Y-70189511D02*
X96339511Y-69439511D01*
X100628794Y-69439511D02*
X101563314Y-70374031D01*
%TO.N,/BUS_B_DISABLE*%
X116224511Y-75584511D02*
X117814511Y-77174511D01*
%TO.N,/BUS_A_DISABLE*%
X91144511Y-115909511D02*
X91144511Y-115039511D01*
X91144511Y-115039511D02*
X90589511Y-114484511D01*
%TO.N,/Power Outputs/5v to 12v logic conversion_v2/0_OUT*%
X135759511Y-95119511D02*
X134324511Y-93684511D01*
X75269511Y-57489511D02*
X73764511Y-55984511D01*
X138244511Y-95119511D02*
X138244511Y-97372011D01*
X138244511Y-95119511D02*
X135759511Y-95119511D01*
X138244511Y-97372011D02*
X139514511Y-98642011D01*
%TO.N,/Power Outputs/5v to 12v logic conversion_v2/1_OUT*%
X143324511Y-97642011D02*
X144324511Y-98642011D01*
X90999511Y-57344511D02*
X90999511Y-55984511D01*
X91779511Y-58124511D02*
X90999511Y-57344511D01*
X143324511Y-95119511D02*
X143324511Y-97642011D01*
X142109511Y-95119511D02*
X141944511Y-94954511D01*
X143324511Y-95119511D02*
X142109511Y-95119511D01*
%TO.N,/Power Outputs/5v to 12v logic conversion_v2/2_OUT*%
X149404511Y-98617011D02*
X149404511Y-96094511D01*
X108664511Y-57229511D02*
X108664511Y-55984511D01*
X148404511Y-95094511D02*
X147164511Y-95094511D01*
X109559511Y-58124511D02*
X108664511Y-57229511D01*
X149404511Y-96094511D02*
X148404511Y-95094511D01*
X147164511Y-95094511D02*
X147024511Y-94954511D01*
%TO.N,/Power Outputs/5v to 12v logic conversion_v2/3_OUT*%
X154987697Y-98617011D02*
X154987697Y-96094511D01*
X137879511Y-61064511D02*
X137879511Y-62949511D01*
X152879511Y-95094511D02*
X152739511Y-94954511D01*
X153987697Y-95094511D02*
X152879511Y-95094511D01*
X154987697Y-96094511D02*
X153987697Y-95094511D01*
X137879511Y-62949511D02*
X138134511Y-63204511D01*
%TO.N,/Power Outputs/5v to 12v logic conversion_v2/4_OUT*%
X145754511Y-64899511D02*
X147449511Y-64899511D01*
X158968730Y-95094511D02*
X157959511Y-95094511D01*
X159968730Y-96094511D02*
X158968730Y-95094511D01*
X159968730Y-98617011D02*
X159968730Y-96094511D01*
X147449511Y-64899511D02*
X147659511Y-65109511D01*
X157959511Y-95094511D02*
X157819511Y-94954511D01*
%TO.N,Net-(Q9-Pad1)*%
X133214511Y-108404511D02*
X133214511Y-111559511D01*
%TO.N,Net-(Q9-Pad3)*%
X133164511Y-105529511D02*
X134164511Y-106529511D01*
X130084511Y-104009511D02*
X133144511Y-104009511D01*
X133164511Y-103989511D02*
X133164511Y-105529511D01*
%TO.N,Net-(Q10-Pad1)*%
X138294511Y-108404511D02*
X138294511Y-111559511D01*
%TO.N,Net-(Q10-Pad3)*%
X139244511Y-104989511D02*
X140244511Y-103989511D01*
X140244511Y-103989511D02*
X143304511Y-103989511D01*
X139244511Y-106529511D02*
X139244511Y-104989511D01*
%TO.N,Net-(Q11-Pad1)*%
X145324511Y-111629511D02*
X148454511Y-108499511D01*
%TO.N,Net-(Q11-Pad3)*%
X146594511Y-106549511D02*
X149404511Y-106549511D01*
X149404511Y-106549511D02*
X150404511Y-105549511D01*
X145324511Y-107819511D02*
X146594511Y-106549511D01*
X150404511Y-105549511D02*
X150404511Y-104009511D01*
%TO.N,Net-(Q12-Pad1)*%
X138564511Y-100589511D02*
X135164511Y-103989511D01*
%TO.N,Net-(Q13-Pad1)*%
X138244511Y-103989511D02*
X139244031Y-102989991D01*
X140894031Y-102989991D02*
X143367011Y-100517011D01*
X139244031Y-102989991D02*
X140894031Y-102989991D01*
%TO.N,Net-(Q14-Pad1)*%
X148454511Y-100492011D02*
X148454511Y-103959511D01*
%TO.N,Net-(Q15-Pad1)*%
X153987697Y-111629511D02*
X153987697Y-108474511D01*
%TO.N,Net-(Q16-Pad1)*%
X159018730Y-108424511D02*
X159018730Y-109659511D01*
X159018730Y-109659511D02*
X160968730Y-111609511D01*
%TO.N,Net-(Q17-Pad1)*%
X153987697Y-104009511D02*
X153987697Y-100542011D01*
%TO.N,Net-(Q18-Pad1)*%
X158968730Y-103989511D02*
X158968730Y-100542011D01*
%TO.N,Net-(Q19-Pad1)*%
X230902500Y-113047500D02*
X232840000Y-114985000D01*
X232840000Y-114985000D02*
X233762500Y-114985000D01*
%TO.N,Net-(Q19-Pad2)*%
X229002500Y-111532500D02*
X228682500Y-111212500D01*
X229002500Y-113047500D02*
X229002500Y-111532500D01*
X225226744Y-119467500D02*
X224382372Y-118623128D01*
X228682500Y-111212500D02*
X228682500Y-109905000D01*
%TO.N,/ESP32_Daughterboard/GND*%
X230792500Y-127630000D02*
X228125000Y-127630000D01*
X239842500Y-118212766D02*
X239449083Y-117819349D01*
X221062500Y-115657500D02*
X222565000Y-114155000D01*
X260262500Y-105252500D02*
X260262500Y-109382500D01*
X228997500Y-122090000D02*
X231455000Y-124547500D01*
X240112500Y-103825000D02*
X242752500Y-106465000D01*
X228125000Y-127630000D02*
X227412500Y-126917500D01*
D87*
X218472500Y-109935000D02*
X217252500Y-111155000D01*
D86*
X211702500Y-124552500D02*
X213437500Y-124552500D01*
X221062500Y-115657500D02*
X221062500Y-114387500D01*
X260262500Y-109382500D02*
X256892500Y-112752500D01*
X217252500Y-121702500D02*
X217252500Y-124452500D01*
X211702500Y-115652500D02*
X217152500Y-115652500D01*
X227412500Y-127086651D02*
X226141882Y-128357269D01*
X237572500Y-128992500D02*
X239842500Y-126722500D01*
X223370000Y-103825000D02*
X223602500Y-103592500D01*
X222565000Y-112482500D02*
X222565000Y-108440000D01*
D87*
X217252500Y-111155000D02*
X217252500Y-112482500D01*
D86*
X222565000Y-114155000D02*
X222565000Y-112482500D01*
X260262500Y-121052500D02*
X256892500Y-117682500D01*
X239842500Y-126722500D02*
X239842500Y-124145000D01*
X217152500Y-126352500D02*
X217252500Y-126452500D01*
D87*
X252762500Y-112752500D02*
X256892500Y-112752500D01*
D86*
X229792500Y-103825000D02*
X229792500Y-102162500D01*
X222565000Y-108440000D02*
X223370000Y-107635000D01*
X217892500Y-115652500D02*
X218522500Y-115022500D01*
X229792500Y-102162500D02*
X229317500Y-101687500D01*
X228997500Y-120335000D02*
X228997500Y-122090000D01*
X239842500Y-119065000D02*
X239842500Y-118212766D01*
X240112500Y-103825000D02*
X241150000Y-103825000D01*
X241150000Y-103825000D02*
X241382500Y-103592500D01*
X260262500Y-101580000D02*
X260262500Y-105252500D01*
X223370000Y-105095000D02*
X223370000Y-103825000D01*
D87*
X218472500Y-109935000D02*
X215990000Y-109935000D01*
D86*
X242752500Y-106465000D02*
X242752500Y-108037500D01*
X256892500Y-117682500D02*
X256892500Y-112752500D01*
X217152500Y-124552500D02*
X217152500Y-126352500D01*
X260262500Y-122252500D02*
X260262500Y-121052500D01*
%TO.N,Net-(Q20-Pad1)*%
X228682500Y-107905000D02*
X231505000Y-107905000D01*
%TO.N,Net-(Q20-Pad2)*%
X228047500Y-117562500D02*
X227412500Y-118197500D01*
X231555000Y-110777500D02*
X233762500Y-112985000D01*
X232625000Y-112985000D02*
X232492500Y-113117500D01*
X233762500Y-112985000D02*
X232625000Y-112985000D01*
X231555000Y-109855000D02*
X231555000Y-110777500D01*
X227412500Y-118197500D02*
X226012500Y-118197500D01*
%TO.N,Net-(R1a1-Pad2)*%
X102337011Y-69774511D02*
X102337011Y-67977011D01*
X102764511Y-67549511D02*
X104844511Y-67549511D01*
%TO.N,Net-(R1b1-Pad2)*%
X94159511Y-124712011D02*
X96002011Y-126554511D01*
X92254511Y-123694511D02*
X94159511Y-123694511D01*
X94159511Y-123694511D02*
X94159511Y-124712011D01*
%TO.N,Net-(R3a1-Pad2)*%
X104907011Y-71674511D02*
X102337011Y-71674511D01*
X110924511Y-67644511D02*
X110924511Y-70724511D01*
%TO.N,Net-(R3b1-Pad2)*%
X96002011Y-128454511D02*
X96654511Y-128454511D01*
X96654511Y-128454511D02*
X98239511Y-126869511D01*
X96002011Y-128454511D02*
X89682011Y-128454511D01*
X98239511Y-123694511D02*
X98239511Y-126869511D01*
%TO.N,Net-(R6-Pad1)*%
X111464511Y-113369511D02*
X114924511Y-109909511D01*
X114924511Y-109909511D02*
X114924511Y-109019511D01*
D89*
%TO.N,/Power Outputs/12V_OP_4*%
X145284511Y-55749511D02*
X141944511Y-52409511D01*
X141944511Y-52409511D02*
X141944511Y-50189511D01*
X144004511Y-48129511D02*
X141944511Y-50189511D01*
D86*
%TO.N,/ESP32_Daughterboard/MCU_5V_BUS*%
X234192500Y-127630000D02*
X235192500Y-127630000D01*
X218472500Y-105335000D02*
X221055000Y-105335000D01*
X235192500Y-127630000D02*
X235292011Y-127530489D01*
X222187499Y-104202501D02*
X221295000Y-105095000D01*
X226012500Y-115657500D02*
X224173000Y-115657500D01*
X233530000Y-124547500D02*
X233530000Y-122055755D01*
X227131745Y-115657500D02*
X226012500Y-115657500D01*
X224640000Y-112482500D02*
X224640000Y-114285000D01*
X224237500Y-111212500D02*
X224237500Y-112080000D01*
X233530000Y-122055755D02*
X227131745Y-115657500D01*
X224173000Y-115657500D02*
X223538000Y-116292500D01*
X224640000Y-114285000D02*
X226012500Y-115657500D01*
X235292011Y-127530489D02*
X235292011Y-126309511D01*
X222332500Y-98522500D02*
X222332500Y-102322500D01*
X235292011Y-126309511D02*
X233530000Y-124547500D01*
X222187499Y-98377499D02*
X222187499Y-104202501D01*
X221687500Y-97877500D02*
X222332500Y-98522500D01*
%TO.N,/ESP32_Daughterboard/3V3_BUS*%
X257892500Y-101285000D02*
X258992500Y-102385000D01*
X223969725Y-106119520D02*
X226872500Y-103216745D01*
X219062500Y-102063255D02*
X220417500Y-100708255D01*
X220417500Y-100708255D02*
X220417500Y-97877500D01*
X210267500Y-114387500D02*
X210267500Y-125817500D01*
X258992500Y-107572500D02*
X258527500Y-108037500D01*
X212172500Y-112482500D02*
X212172500Y-107635000D01*
X258992500Y-102385000D02*
X258992500Y-105252500D01*
X236805000Y-122642500D02*
X237842500Y-121605000D01*
X236302500Y-122642500D02*
X236805000Y-122642500D01*
X222810480Y-106119520D02*
X223969725Y-106119520D01*
X217172989Y-104444511D02*
X219062500Y-102555000D01*
X214242011Y-130024511D02*
X226380489Y-130024511D01*
X226872500Y-103216745D02*
X226872500Y-102555000D01*
X258992500Y-105252500D02*
X258992500Y-107572500D01*
X228125000Y-128280000D02*
X230792500Y-128280000D01*
X213442500Y-129225000D02*
X214242011Y-130024511D01*
X218472500Y-107635000D02*
X217172989Y-106335489D01*
X210267500Y-114387500D02*
X212172500Y-112482500D01*
X210267500Y-125817500D02*
X213442500Y-128992500D01*
X217172989Y-106335489D02*
X217172989Y-104444511D01*
X221295000Y-107635000D02*
X222810480Y-106119520D01*
X228682500Y-128357500D02*
X228047500Y-128357500D01*
X218472500Y-107635000D02*
X221295000Y-107635000D01*
X226380489Y-130024511D02*
X228125000Y-128280000D01*
X212172500Y-107635000D02*
X218472500Y-107635000D01*
%TO.N,/AtMega328p/MCU_5V_BUS*%
X145119511Y-114639511D02*
X148294511Y-114639511D01*
X157649511Y-113369511D02*
X155279511Y-113369511D01*
X131037227Y-126240499D02*
X132544511Y-127747783D01*
X117924511Y-125684511D02*
X121074511Y-125684511D01*
X158919511Y-114639511D02*
X157649511Y-113369511D01*
X143849511Y-125604511D02*
X142763755Y-125604511D01*
X125434511Y-126339511D02*
X124804511Y-125709511D01*
X145222011Y-120104511D02*
X144234511Y-120104511D01*
X158919511Y-114639511D02*
X162094511Y-117814511D01*
X125533523Y-126240499D02*
X131037227Y-126240499D01*
X124804511Y-125709511D02*
X121099511Y-125709511D01*
X162094511Y-117814511D02*
X164104511Y-117814511D01*
X144234511Y-120104511D02*
X143214511Y-119084511D01*
X142763755Y-125604511D02*
X142703883Y-125664383D01*
%TO.N,Net-(C6-Pad1)*%
X237572500Y-126917500D02*
X237572500Y-124415000D01*
X236210000Y-128280000D02*
X237572500Y-126917500D01*
X234192500Y-128280000D02*
X236210000Y-128280000D01*
X237842500Y-123605000D02*
X239842500Y-121605000D01*
%TO.N,/BUS_I_SENSE_A*%
X79079511Y-88604511D02*
X92414511Y-88604511D01*
X72909031Y-82434031D02*
X79079511Y-88604511D01*
X151419011Y-119604511D02*
X151469511Y-119655011D01*
X150097011Y-119604511D02*
X151419011Y-119604511D01*
X71975228Y-68919511D02*
X72909031Y-69853314D01*
X72909031Y-69853314D02*
X72909031Y-82434031D01*
%TO.N,/BUS_I_SENSE_B*%
X125347491Y-117727491D02*
X129815011Y-122195011D01*
X129815011Y-122195011D02*
X129879511Y-122195011D01*
X118892629Y-117727491D02*
X125347491Y-117727491D01*
X150097011Y-121104511D02*
X150749517Y-121104511D01*
X150749517Y-121104511D02*
X151173836Y-120680192D01*
X118177631Y-118442489D02*
X118892629Y-117727491D01*
X151173836Y-120680192D02*
X151598314Y-120680192D01*
X116596533Y-118442489D02*
X118177631Y-118442489D01*
D89*
%TO.N,12V_BUS*%
X106629031Y-65649991D02*
X108664511Y-63614511D01*
X129835262Y-45029022D02*
X133054511Y-48248271D01*
X86642500Y-47386522D02*
X89000000Y-45029022D01*
X73219511Y-61064511D02*
X73219511Y-63059511D01*
X62804511Y-60749511D02*
X72904511Y-60749511D01*
X137813533Y-66379511D02*
X141379022Y-62814022D01*
X90999511Y-63614511D02*
X94934511Y-67549511D01*
X141379022Y-62814022D02*
X141379022Y-59484022D01*
X137879511Y-55984511D02*
X137879511Y-53797885D01*
X86642500Y-47386522D02*
X90884628Y-51628650D01*
X133054511Y-51925000D02*
X132819031Y-51925000D01*
X67809511Y-65754511D02*
X62804511Y-60749511D01*
X106629031Y-65649991D02*
X107794921Y-65649991D01*
X72904511Y-60749511D02*
X73219511Y-61064511D01*
X147335000Y-68399022D02*
X150834511Y-64899511D01*
X108664511Y-61873533D02*
X113170489Y-66379511D01*
X114595262Y-45029022D02*
X129835262Y-45029022D01*
X100764511Y-67549511D02*
X100764511Y-66699581D01*
X84435978Y-45180000D02*
X86642500Y-47386522D01*
X67809511Y-70629511D02*
X67809511Y-65754511D01*
X89000000Y-45029022D02*
X114595262Y-45029022D01*
X73219511Y-63059511D02*
X77174511Y-67014511D01*
X90884628Y-51628650D02*
X96554991Y-51628650D01*
X73999511Y-46275489D02*
X75095000Y-45180000D01*
X76584511Y-66379511D02*
X85564511Y-66379511D01*
X77174511Y-67014511D02*
X84929511Y-67014511D01*
X86564511Y-66379511D02*
X90999511Y-61944511D01*
X113170489Y-66379511D02*
X137813533Y-66379511D01*
X114595262Y-45029022D02*
X116474022Y-46907782D01*
X101814101Y-65649991D02*
X106629031Y-65649991D01*
X141379022Y-59484022D02*
X137879511Y-55984511D01*
X100764511Y-66699581D02*
X101814101Y-65649991D01*
X137879511Y-53797885D02*
X139624991Y-52052405D01*
X75095000Y-45180000D02*
X84435978Y-45180000D01*
X116474022Y-46907782D02*
X116474022Y-50396504D01*
X73999511Y-51774511D02*
X73999511Y-46275489D01*
X84929511Y-67014511D02*
X85564511Y-66379511D01*
X107794921Y-65649991D02*
X109019511Y-66874581D01*
X133054511Y-48248271D02*
X133054511Y-51925000D01*
X90999511Y-61064511D02*
X90999511Y-63614511D01*
X85564511Y-66379511D02*
X86564511Y-66379511D01*
X108664511Y-63614511D02*
X108664511Y-61064511D01*
X94934511Y-67549511D02*
X100764511Y-67549511D01*
X116474022Y-50396504D02*
X115689031Y-51181495D01*
X73999511Y-51774511D02*
X81314991Y-51774511D01*
X129835262Y-45029022D02*
X148534022Y-45029022D01*
X109019511Y-66874581D02*
X109019511Y-67549511D01*
X137813533Y-66379511D02*
X139833044Y-68399022D01*
X148534022Y-45029022D02*
X152104511Y-48599511D01*
X139833044Y-68399022D02*
X147335000Y-68399022D01*
X71779511Y-51774511D02*
X73999511Y-51774511D01*
X62804511Y-60749511D02*
X71779511Y-51774511D01*
D86*
%TO.N,Net-(Q15-Pad3)*%
X150404511Y-110119487D02*
X150404511Y-111629511D01*
X154987697Y-106549511D02*
X153974487Y-106549511D01*
X153974487Y-106549511D02*
X150404511Y-110119487D01*
X154987697Y-106549511D02*
X155987697Y-105549511D01*
X155987697Y-105549511D02*
X155987697Y-104009511D01*
%TO.N,Net-(Q16-Pad3)*%
X159968730Y-104989511D02*
X159968730Y-106549511D01*
X160968730Y-103989511D02*
X159968730Y-104989511D01*
X163525544Y-103989511D02*
X160968730Y-103989511D01*
%TO.N,/AtMega328p/USB MCU CH340 Interface A/DTR_A*%
X147409511Y-117917011D02*
X147409511Y-117402545D01*
X153374511Y-117814511D02*
X153374511Y-115274511D01*
X124364511Y-129409511D02*
X125434511Y-128339511D01*
X153374511Y-115274511D02*
X154009511Y-114639511D01*
X126434511Y-127339511D02*
X127339511Y-127339511D01*
X147409511Y-117402545D02*
X147309022Y-117302056D01*
X147309022Y-116701929D02*
X147214648Y-116607555D01*
X107019511Y-133689511D02*
X107019511Y-129934511D01*
X112844511Y-129409511D02*
X124364511Y-129409511D01*
X125434511Y-128339511D02*
X126434511Y-127339511D01*
X147309022Y-117302056D02*
X147309022Y-116701929D01*
%TO.N,/3V3_BUS*%
X131274511Y-131929679D02*
X129977385Y-133226805D01*
X129977385Y-133226805D02*
X126711805Y-133226805D01*
X131274511Y-127747783D02*
X131274511Y-131929679D01*
%TO.N,Net-(D7-Pad2)*%
X81096198Y-122763541D02*
X82429511Y-121430228D01*
X75718541Y-122763541D02*
X81096198Y-122763541D01*
X73474511Y-120519511D02*
X75718541Y-122763541D01*
%TO.N,/USB_PBUS*%
X170663106Y-117039511D02*
X170912627Y-116789990D01*
X171616395Y-116789990D02*
X172251616Y-117425211D01*
X172251616Y-117425211D02*
X172251616Y-118712935D01*
X170912627Y-116789990D02*
X171616395Y-116789990D01*
X121404511Y-126704511D02*
X123529511Y-126704511D01*
X168564511Y-117039511D02*
X170663106Y-117039511D01*
X117924511Y-126954511D02*
X121044511Y-126954511D01*
%TO.N,/ESP32_Daughterboard/USB_PBUS*%
X217252500Y-118502500D02*
X216052500Y-118502500D01*
X215402021Y-128644521D02*
X215982500Y-129225000D01*
X216052500Y-118502500D02*
X215402021Y-119152979D01*
X215402021Y-119152979D02*
X215402021Y-128644521D01*
%TO.N,/ESP32_Daughterboard/SSERIAL_TX*%
X229842980Y-126030480D02*
X230792500Y-126980000D01*
X225527020Y-126030480D02*
X229842980Y-126030480D01*
X222332500Y-129225000D02*
X225527020Y-126030480D01*
%TO.N,/ESP32_Daughterboard/SSERIAL_RX*%
X232600000Y-126980000D02*
X232492500Y-127087500D01*
X234192500Y-126980000D02*
X232600000Y-126980000D01*
%TO.N,/AtMega328p/ADC5*%
X147909511Y-117917011D02*
X147909511Y-116999517D01*
X147930008Y-116979020D02*
X147930008Y-115909511D01*
X147909511Y-116999517D02*
X147930008Y-116979020D01*
%TO.N,/AtMega328p/ADC4*%
X148409511Y-116429511D02*
X148929511Y-115909511D01*
X148409511Y-117917011D02*
X148409511Y-116429511D01*
%TO.N,Net-(D9-Pad2)*%
X227772020Y-104203542D02*
X227921739Y-104353261D01*
X226777500Y-97877500D02*
X227772020Y-98872020D01*
X227772020Y-98872020D02*
X227772020Y-104203542D01*
X239867500Y-116525000D02*
X239867500Y-117248521D01*
X239867500Y-117248521D02*
X242086479Y-119467500D01*
X239867500Y-116047500D02*
X238842500Y-115022500D01*
%TO.N,/AtMega328p/SSERIAL_TX*%
X147409511Y-122792011D02*
X147409511Y-123730173D01*
X146999842Y-124139842D02*
X146999842Y-124735445D01*
X147409511Y-123730173D02*
X146999842Y-124139842D01*
%TO.N,/AtMega328p/SSERIAL_RX*%
X147909511Y-122792011D02*
X147909511Y-124608759D01*
X147909511Y-124608759D02*
X148209834Y-124909082D01*
%TO.N,/ESP32_Daughterboard/USB ESP32 CH340 Interface /ESP_IO0*%
X241835000Y-120335000D02*
X234397500Y-120335000D01*
X243752500Y-122252500D02*
X241835000Y-120335000D01*
X229952500Y-115890000D02*
X234397500Y-120335000D01*
X229952500Y-114922500D02*
X229952500Y-115890000D01*
%TO.N,/AtMega328p/CH_F*%
X148409511Y-123759649D02*
X148609011Y-123959149D01*
X148409511Y-122792011D02*
X148409511Y-123759649D01*
%TO.N,/AtMega328p/CH_G*%
X152256854Y-117662168D02*
X152256854Y-116510188D01*
X150117011Y-119084511D02*
X150834511Y-119084511D01*
X141944511Y-111464511D02*
X140389511Y-111464511D01*
X150834511Y-119084511D02*
X152256854Y-117662168D01*
%TO.N,/AtMega328p/CH_H*%
X146356682Y-112929031D02*
X146975106Y-112310607D01*
X143324511Y-111629511D02*
X144624031Y-112929031D01*
X144624031Y-112929031D02*
X146356682Y-112929031D01*
%TO.N,/ESP32_Daughterboard/Logic Level Conversion/1A*%
X246292500Y-123499235D02*
X240799235Y-128992500D01*
X240799235Y-128992500D02*
X239477500Y-128992500D01*
X231222500Y-130262500D02*
X231222500Y-129360000D01*
X231222500Y-129360000D02*
X230792500Y-128930000D01*
X246292500Y-122252500D02*
X246292500Y-123499235D01*
%TO.N,/ESP32_Daughterboard/Logic Level Conversion/0A*%
X247562500Y-123166745D02*
X247562500Y-122252500D01*
X235142020Y-129879520D02*
X240849725Y-129879520D01*
X234192500Y-128930000D02*
X235142020Y-129879520D01*
X240849725Y-129879520D02*
X247562500Y-123166745D01*
%TO.N,/ESP32_Daughterboard/USB ESP32 CH340 Interface /TxD_B*%
X222332500Y-116927500D02*
X221062500Y-116927500D01*
X222967500Y-117562500D02*
X222332500Y-116927500D01*
X255182500Y-123447500D02*
X254717500Y-123912500D01*
X255182500Y-122252500D02*
X255182500Y-123447500D01*
%TO.N,/ESP32_Daughterboard/USB ESP32 CH340 Interface /RxD_B*%
X221978256Y-118197500D02*
X222758128Y-118977372D01*
X256452500Y-123447500D02*
X255987500Y-123912500D01*
X256452500Y-122252500D02*
X256452500Y-123447500D01*
X221062500Y-118197500D02*
X221978256Y-118197500D01*
%TO.N,HV*%
X134999511Y-89874511D02*
X129879511Y-89874511D01*
X148790708Y-107387491D02*
X148118314Y-107387491D01*
X149404991Y-94094991D02*
X150404511Y-95094511D01*
X144324991Y-94119991D02*
X145324511Y-95119511D01*
X128084511Y-91669511D02*
X129879511Y-89874511D01*
X140244511Y-95119511D02*
X134999511Y-89874511D01*
X140244511Y-95119511D02*
X141244031Y-94119991D01*
X144665000Y-109160000D02*
X143324511Y-107819511D01*
X159969210Y-94094991D02*
X160968730Y-95094511D01*
X146349031Y-94094991D02*
X149404991Y-94094991D01*
X160968730Y-95094511D02*
X165545544Y-99671325D01*
X149054031Y-110979991D02*
X149054031Y-107650814D01*
X148118314Y-107387491D02*
X146345805Y-109160000D01*
X150404511Y-95094511D02*
X151404031Y-94094991D01*
X145324511Y-95119511D02*
X146349031Y-94094991D01*
X146345805Y-109160000D02*
X144665000Y-109160000D01*
X156987217Y-94094991D02*
X159969210Y-94094991D01*
X149054031Y-107650814D02*
X148790708Y-107387491D01*
X143324511Y-107819511D02*
X143324511Y-106009511D01*
X143324511Y-106009511D02*
X145324511Y-104009511D01*
X155987697Y-95094511D02*
X156987217Y-94094991D01*
X141244031Y-94119991D02*
X144324991Y-94119991D01*
X165545544Y-99671325D02*
X165545544Y-104009511D01*
X126069511Y-68314148D02*
X126069511Y-68919511D01*
X128084511Y-104009511D02*
X128084511Y-91669511D01*
X125724808Y-67969445D02*
X126069511Y-68314148D01*
X148404511Y-111629511D02*
X149054031Y-110979991D01*
X151404031Y-94094991D02*
X154988177Y-94094991D01*
X154988177Y-94094991D02*
X155987697Y-95094511D01*
%TD*%
M02*
