M48
; DRILL file {KiCad (6.0.0)} date Fri Feb 25 16:17:40 2022
; FORMAT={-:-/ absolute / inch / decimal}
; #@! TF.CreationDate,2022-02-25T16:17:40+00:00
; #@! TF.GenerationSoftware,Kicad,Pcbnew,(6.0.0)
; #@! TF.FileFunction,Plated,1,4,PTH
FMAT,2
INCH
; #@! TA.AperFunction,Plated,PTH,ViaDrill
T1C0.0157
; #@! TA.AperFunction,Plated,PTH,ComponentDrill
T2C0.0236
; #@! TA.AperFunction,Plated,PTH,ComponentDrill
T3C0.0256
; #@! TA.AperFunction,Plated,PTH,ComponentDrill
T4C0.0276
; #@! TA.AperFunction,Plated,PTH,ComponentDrill
T5C0.0315
; #@! TA.AperFunction,Plated,PTH,ComponentDrill
T6C0.0374
; #@! TA.AperFunction,Plated,PTH,ComponentDrill
T7C0.0394
; #@! TA.AperFunction,Plated,PTH,ComponentDrill
T8C0.0472
; #@! TA.AperFunction,Plated,PTH,ComponentDrill
T9C0.0520
; #@! TA.AperFunction,Plated,PTH,ComponentDrill
T10C0.0591
; #@! TA.AperFunction,Plated,PTH,ComponentDrill
T11C0.0709
; #@! TA.AperFunction,Plated,PTH,ComponentDrill
T12C0.0748
; #@! TA.AperFunction,Plated,PTH,ComponentDrill
T13C0.0906
; #@! TA.AperFunction,Plated,PTH,ComponentDrill
T14C0.1063
%
G90
G05
T1
X2.5134Y-2.6634
X2.6Y-1.8882
X2.625Y-1.8489
X2.725Y-4.75
X2.7384Y-2.6634
X2.925Y-2.7
X2.9634Y-2.2634
X3.0303Y-5.0947
X3.1134Y-4.6384
X3.139Y-4.6895
X3.2375Y-4.5189
X3.25Y-4.4
X3.3634Y-5.1384
X3.4384Y-4.5134
X3.4384Y-4.9884
X3.4634Y-4.2384
X3.4927Y-4.6323
X3.5884Y-4.5634
X3.6134Y-2.2884
X3.6384Y-3.4884
X3.65Y-4.975
X3.7634Y-2.8634
X3.8Y-4.925
X3.9Y-2.825
X4.025Y-5.0
X4.225Y-2.7
X4.3134Y-2.2884
X4.575Y-3.1
X4.6384Y-3.0384
X4.725Y-4.55
X4.8634Y-4.9884
X4.9384Y-3.5884
X4.9634Y-2.7134
X5.0134Y-5.0134
X5.1134Y-3.5384
X5.1134Y-4.8108
X5.1634Y-4.4134
X5.1634Y-4.525
X5.225Y-4.85
X5.2884Y-3.6884
X5.3134Y-4.7134
X5.3551Y-4.5691
X5.3594Y-4.2736
X5.3953Y-4.4064
X5.4384Y-2.4884
X5.55Y-4.25
X5.575Y-3.95
X5.5866Y-4.5134
X5.5884Y-3.7384
X5.5884Y-4.3884
X5.6Y-4.75
X5.6134Y-4.8409
X5.6183Y-4.9474
X5.6384Y-4.6884
X5.6775Y-4.5772
X5.7051Y-4.6323
X5.7411Y-4.5632
X5.75Y-3.95
X5.7795Y-4.5546
X5.7864Y-4.4217
X5.7874Y-4.9108
X5.7884Y-3.7384
X5.7959Y-4.5908
X5.8Y-5.05
X5.8134Y-2.5634
X5.824Y-4.5634
X5.835Y-4.9177
X5.8507Y-4.8803
X5.8634Y-4.5634
X5.8846Y-4.9111
X5.9Y-4.45
X5.936Y-4.8884
X5.95Y-3.95
X5.95Y-4.225
X5.95Y-5.0225
X5.9564Y-4.5977
X5.9634Y-4.7108
X5.9684Y-4.7512
X5.975Y-4.45
X5.9753Y-4.8875
X5.9944Y-4.587
X6.0035Y-4.7787
X6.0134Y-3.7384
X6.0384Y-4.6384
X6.05Y-1.75
X6.1Y-4.725
X6.1134Y-4.4634
X6.15Y-4.65
X6.1634Y-2.9884
X6.175Y-3.95
X6.175Y-4.225
X6.175Y-4.9
X6.175Y-5.025
X6.1884Y-4.7159
X6.2Y-4.6
X6.2134Y-3.7384
X6.3358Y-4.8344
X6.3634Y-4.9134
X6.375Y-3.95
X6.4384Y-3.0384
X6.4612Y-4.4138
X6.5355Y-4.5605
X6.5634Y-4.5884
X6.716Y-4.5708
X6.7816Y-4.6737
X6.8384Y-4.1134
X6.8884Y-4.2634
X8.4031Y-4.9036
X8.5035Y-4.3281
X8.5532Y-4.9784
X8.6032Y-4.5284
X8.7032Y-3.9784
X8.7032Y-4.5034
X8.7532Y-4.0284
X8.77Y-4.6841
X8.7782Y-4.6284
X8.8007Y-4.5784
X8.8032Y-4.0784
X8.8282Y-4.3784
X8.834Y-4.6702
X8.8532Y-4.1034
X8.9032Y-5.0534
X8.9733Y-4.1084
X8.9782Y-4.6284
X9.0032Y-4.3784
X9.0032Y-5.0534
X9.0156Y-4.8067
X9.0282Y-4.0034
X9.1032Y-5.1284
X9.1532Y-4.4534
X9.1532Y-5.0034
X9.3032Y-4.8284
X9.3282Y-4.0784
X9.4032Y-4.5284
X9.4271Y-4.6386
X9.4282Y-5.0784
X9.4426Y-4.9891
X9.5032Y-4.0784
X9.5981Y-4.9217
X9.6532Y-4.2534
X9.7282Y-4.4034
X9.9532Y-4.7501
X10.0282Y-4.8784
X10.0532Y-4.7034
X10.0782Y-4.8784
X10.1032Y-4.0534
X10.1139Y-4.4391
X10.1782Y-4.2534
T3
X4.1927Y-4.9949
X4.1927Y-5.0449
X4.1927Y-5.0949
X4.2427Y-4.9949
X4.2427Y-5.0449
X4.2427Y-5.0949
X4.6427Y-4.8982
X4.6427Y-4.9482
X4.6427Y-4.9982
X4.8427Y-4.4949
X4.9884Y-5.2449
X4.9927Y-4.4949
X5.0427Y-4.4949
X6.8927Y-5.0949
X8.3532Y-5.0876
X8.4032Y-5.0876
X8.4532Y-5.0876
X8.5032Y-5.0876
X8.5532Y-5.0876
X8.6032Y-5.0876
X8.6279Y-3.8534
X8.6532Y-5.0876
X8.6779Y-3.8534
X8.7032Y-5.0876
X8.7279Y-3.8534
X8.7532Y-5.0876
X8.7779Y-3.8534
X8.8032Y-5.0876
X8.8279Y-3.8534
X8.9282Y-3.8534
X8.9782Y-3.8534
X9.0282Y-3.8534
X9.0782Y-3.8534
X9.1282Y-3.8534
X9.1782Y-3.8534
X9.2282Y-3.8534
X9.2782Y-3.8534
X9.3282Y-3.8534
X9.3782Y-3.8534
X9.4032Y-4.2126
X9.4032Y-4.2626
X9.4032Y-4.3126
X9.4032Y-4.3626
X9.4032Y-4.4126
X9.4032Y-4.4626
X9.4782Y-3.8534
X9.5282Y-3.8534
X9.5536Y-5.0876
X9.5782Y-3.8534
X9.6036Y-5.0876
X9.6282Y-3.8534
X9.6536Y-5.0876
X9.7036Y-5.0876
X9.7536Y-5.0876
T4
X2.5909Y-2.7807
X2.6697Y-2.7807
X5.1183Y-5.0294
X5.1683Y-5.0294
X5.2183Y-5.0294
X5.2683Y-5.0294
X5.3183Y-5.0294
X5.3683Y-5.0294
X5.4183Y-5.0294
X5.4683Y-5.0294
X5.5183Y-5.0294
X5.5683Y-5.0294
T5
X3.9884Y-2.9949
X4.0884Y-4.4634
X4.2884Y-2.9949
X4.3884Y-4.4634
X5.2677Y-2.698
X5.2677Y-2.8949
T6
X2.8136Y-5.2882
X2.912Y-5.2882
X2.9907Y-5.2882
X3.0892Y-5.2882
X3.6549Y-5.2882
X3.7533Y-5.2882
X3.8321Y-5.2882
X3.9305Y-5.2882
X4.4962Y-5.2882
X4.5947Y-5.2882
X4.6734Y-5.2882
X4.7718Y-5.2882
X5.3386Y-5.2882
X5.437Y-5.2882
X5.5157Y-5.2882
X5.6142Y-5.2882
X6.1752Y-5.2882
X6.2736Y-5.2882
X6.3523Y-5.2882
X6.4508Y-5.2882
T7
X2.9545Y-1.698
X3.3876Y-1.698
X3.5545Y-1.698
X3.9876Y-1.698
X4.1545Y-1.698
X4.5876Y-1.698
X4.7545Y-1.698
X5.1876Y-1.698
X5.3545Y-1.698
X5.7876Y-1.698
T8
X3.2214Y-4.2949
X3.371Y-3.1964
X3.371Y-4.2949
X3.5207Y-3.1964
X3.5207Y-4.2949
X3.6703Y-3.1964
X3.8199Y-4.2949
X3.875Y-3.346
X3.875Y-3.4957
X4.1703Y-3.9929
X4.1703Y-4.1425
X4.2254Y-3.1937
X4.375Y-4.2921
X4.5246Y-3.1937
X4.5246Y-4.2921
X4.6742Y-3.1937
X4.6742Y-4.2921
X4.8238Y-3.1937
T9
X2.4427Y-4.773
X2.4427Y-4.9699
X2.4726Y-2.1949
X2.4726Y-2.3917
X6.8427Y-2.7949
X6.8427Y-2.9917
T10
X6.2726Y-1.7051
X6.2726Y-2.5949
T11
X3.2214Y-3.1964
X3.8199Y-3.1964
X4.2254Y-4.2921
X4.8238Y-4.2921
T12
X3.0726Y-1.8949
X3.2695Y-1.8949
X3.6726Y-1.8949
X3.8695Y-1.8949
X4.2726Y-1.8949
X4.4695Y-1.8949
X4.8726Y-1.8949
X5.0695Y-1.8949
X5.4726Y-1.8949
X5.6695Y-1.8949
T13
X2.6927Y-5.3949
X3.21Y-5.3949
X3.534Y-5.3949
X4.0514Y-5.3949
X4.3754Y-5.3949
X4.8927Y-5.3949
X5.2177Y-5.3949
X5.735Y-5.3949
X6.0543Y-5.3949
X6.5716Y-5.3949
T14
X6.5927Y-2.1614
X6.5927Y-2.4449
T2
G00X6.8506Y-2.0374
M15
G01X6.8073Y-2.0374
M16
G05
G00X6.8506Y-2.5689
M15
G01X6.8073Y-2.5689
M16
G05
T0
M30
