M48
; DRILL file {KiCad (6.0.0)} date Thu Mar  3 15:12:17 2022
; FORMAT={-:-/ absolute / inch / decimal}
; #@! TF.CreationDate,2022-03-03T15:12:17+00:00
; #@! TF.GenerationSoftware,Kicad,Pcbnew,(6.0.0)
; #@! TF.FileFunction,Plated,1,4,PTH
FMAT,2
INCH
; #@! TA.AperFunction,Plated,PTH,ViaDrill
T1C0.0157
; #@! TA.AperFunction,Plated,PTH,ComponentDrill
T2C0.0256
%
G90
G05
T1
X4.975Y-4.0801
X5.0703Y-3.5067
X5.12Y-4.157
X5.17Y-3.707
X5.175Y-3.8
X5.2739Y-3.6763
X5.2741Y-3.1562
X5.32Y-3.207
X5.325Y-3.5
X5.3368Y-3.8627
X5.345Y-3.807
X5.3675Y-3.757
X5.37Y-3.257
X5.4007Y-3.8487
X5.4193Y-3.2813
X5.47Y-4.2319
X5.5375Y-3.8145
X5.54Y-3.2869
X5.57Y-3.557
X5.57Y-4.2328
X5.5824Y-3.9852
X5.595Y-3.182
X5.67Y-4.307
X5.72Y-3.632
X5.7284Y-4.1903
X5.87Y-4.007
X5.895Y-3.257
X5.97Y-3.707
X5.9939Y-3.8171
X5.995Y-4.257
X6.0094Y-4.1676
X6.07Y-3.257
X6.1648Y-4.1002
X6.22Y-3.432
X6.295Y-3.582
X6.52Y-3.9286
X6.595Y-4.057
X6.62Y-3.882
X6.645Y-4.057
X6.67Y-3.232
X6.6806Y-3.6176
X6.745Y-3.432
X6.8133Y-3.4117
X6.8133Y-3.8867
T2
X4.92Y-4.2661
X4.97Y-4.2661
X5.02Y-4.2661
X5.07Y-4.2661
X5.12Y-4.2661
X5.17Y-4.2661
X5.1946Y-3.032
X5.22Y-4.2661
X5.2446Y-3.032
X5.27Y-4.2661
X5.2946Y-3.032
X5.32Y-4.2661
X5.3446Y-3.032
X5.37Y-4.2661
X5.3946Y-3.032
X5.475Y-3.4
X5.475Y-3.45
X5.495Y-3.032
X5.545Y-3.032
X5.595Y-3.032
X5.645Y-3.032
X5.695Y-3.032
X5.745Y-3.032
X5.795Y-3.032
X5.845Y-3.032
X5.895Y-3.032
X5.945Y-3.032
X5.97Y-3.3911
X5.97Y-3.4411
X5.97Y-3.4911
X5.97Y-3.5411
X5.97Y-3.5911
X5.97Y-3.6411
X6.045Y-3.032
X6.095Y-3.032
X6.1204Y-4.2661
X6.145Y-3.032
X6.1704Y-4.2661
X6.195Y-3.032
X6.2204Y-4.2661
X6.2704Y-4.2661
X6.3204Y-4.2661
T0
M30
