%TF.GenerationSoftware,KiCad,Pcbnew,(6.0.0)*%
%TF.CreationDate,2022-03-03T15:11:55+00:00*%
%TF.ProjectId,ISOpowerWiFi_PCB,49534f70-6f77-4657-9257-6946695f5043,rev?*%
%TF.SameCoordinates,Original*%
%TF.FileFunction,Copper,L4,Bot*%
%TF.FilePolarity,Positive*%
%FSLAX46Y46*%
G04 Gerber Fmt 4.6, Leading zero omitted, Abs format (unit mm)*
G04 Created by KiCad (PCBNEW (6.0.0)) date 2022-03-03 15:11:55*
%MOMM*%
%LPD*%
G01*
G04 APERTURE LIST*
%TA.AperFunction,ComponentPad*%
%ADD10R,1.000000X1.000000*%
%TD*%
%TA.AperFunction,ComponentPad*%
%ADD11O,1.000000X1.000000*%
%TD*%
%TA.AperFunction,ViaPad*%
%ADD12C,0.800000*%
%TD*%
G04 APERTURE END LIST*
D10*
%TO.P,J1,1,Pin_1*%
%TO.N,/ESP32_Daughterboard/MCU_5V_BUS*%
X139065000Y-87630000D03*
D11*
%TO.P,J1,2,Pin_2*%
%TO.N,/ESP32_Daughterboard/USB_PBUS*%
X139065000Y-86360000D03*
%TD*%
D10*
%TO.P,J2,1,Pin_1*%
%TO.N,23*%
X160538000Y-108359043D03*
D11*
%TO.P,J2,2,Pin_2*%
%TO.N,19*%
X159268000Y-108359043D03*
%TO.P,J2,3,Pin_3*%
%TO.N,18*%
X157998000Y-108359043D03*
%TO.P,J2,4,Pin_4*%
%TO.N,5*%
X156728000Y-108359043D03*
%TO.P,J2,5,Pin_5*%
%TO.N,4*%
X155458000Y-108359043D03*
%TD*%
D10*
%TO.P,J7,1,Pin_1*%
%TO.N,/ESP32_Daughterboard/GND*%
X131943000Y-77011543D03*
D11*
%TO.P,J7,2,Pin_2*%
%TO.N,/ESP32_Daughterboard/3V3_BUS*%
X133213000Y-77011543D03*
%TO.P,J7,3,Pin_3*%
%TO.N,/ESP32_Daughterboard/MCU_5V_BUS*%
X134483000Y-77011543D03*
%TO.P,J7,4,Pin_4*%
%TO.N,SCL*%
X135753000Y-77011543D03*
%TO.P,J7,5,Pin_5*%
%TO.N,SDA*%
X137023000Y-77011543D03*
%TD*%
D10*
%TO.P,J3,1,Pin_1*%
%TO.N,Net-(J3-Pad1)*%
X157353000Y-77011543D03*
D11*
%TO.P,J3,2,Pin_2*%
%TO.N,Net-(J3-Pad2)*%
X156083000Y-77011543D03*
%TO.P,J3,3,Pin_3*%
%TO.N,Net-(J3-Pad3)*%
X154813000Y-77011543D03*
%TO.P,J3,4,Pin_4*%
%TO.N,Net-(J3-Pad4)*%
X153543000Y-77011543D03*
%TD*%
D10*
%TO.P,J5,1,Pin_1*%
%TO.N,Net-(J5-Pad1)*%
X151003000Y-77011543D03*
D11*
%TO.P,J5,2,Pin_2*%
%TO.N,Net-(J5-Pad2)*%
X149733000Y-77011543D03*
%TO.P,J5,3,Pin_3*%
%TO.N,Net-(J5-Pad3)*%
X148463000Y-77011543D03*
%TO.P,J5,4,Pin_4*%
%TO.N,Net-(J5-Pad4)*%
X147193000Y-77011543D03*
%TO.P,J5,5,Pin_5*%
%TO.N,Net-(J5-Pad5)*%
X145923000Y-77011543D03*
%TO.P,J5,6,Pin_6*%
%TO.N,Net-(J5-Pad6)*%
X144653000Y-77011543D03*
%TO.P,J5,7,Pin_7*%
%TO.N,Net-(J5-Pad7)*%
X143383000Y-77011543D03*
%TO.P,J5,8,Pin_8*%
%TO.N,Net-(J5-Pad8)*%
X142113000Y-77011543D03*
%TO.P,J5,9,Pin_9*%
%TO.N,Net-(J5-Pad9)*%
X140843000Y-77011543D03*
%TO.P,J5,10,Pin_10*%
%TO.N,Net-(D9-Pad2)*%
X139573000Y-77011543D03*
%TD*%
D10*
%TO.P,J4,1,Pin_1*%
%TO.N,Net-(J4-Pad1)*%
X151638000Y-92484043D03*
D11*
%TO.P,J4,2,Pin_2*%
%TO.N,Net-(J4-Pad2)*%
X151638000Y-91214043D03*
%TO.P,J4,3,Pin_3*%
%TO.N,Net-(J4-Pad3)*%
X151638000Y-89944043D03*
%TO.P,J4,4,Pin_4*%
%TO.N,Net-(J4-Pad4)*%
X151638000Y-88674043D03*
%TO.P,J4,5,Pin_5*%
%TO.N,Net-(J4-Pad5)*%
X151638000Y-87404043D03*
%TO.P,J4,6,Pin_6*%
%TO.N,Net-(J4-Pad6)*%
X151638000Y-86134043D03*
%TD*%
D10*
%TO.P,J19,1,Pin_1*%
%TO.N,/ESP32_Daughterboard/GND*%
X124968000Y-108359043D03*
D11*
%TO.P,J19,2,Pin_2*%
%TO.N,/ESP32_Daughterboard/3V3_BUS*%
X126238000Y-108359043D03*
%TO.P,J19,3,Pin_3*%
%TO.N,/ESP32_Daughterboard/MCU_5V_BUS*%
X127508000Y-108359043D03*
%TO.P,J19,4,Pin_4*%
%TO.N,/ESP32_Daughterboard/USB_PBUS*%
X128778000Y-108359043D03*
%TO.P,J19,5,Pin_5*%
%TO.N,unconnected-(J19-Pad5)*%
X130048000Y-108359043D03*
%TO.P,J19,6,Pin_6*%
%TO.N,unconnected-(J19-Pad6)*%
X131318000Y-108359043D03*
%TO.P,J19,7,Pin_7*%
%TO.N,unconnected-(J19-Pad7)*%
X132588000Y-108359043D03*
%TO.P,J19,8,Pin_8*%
%TO.N,unconnected-(J19-Pad8)*%
X133858000Y-108359043D03*
%TO.P,J19,9,Pin_9*%
%TO.N,/ESP32_Daughterboard/SSERIAL_TX*%
X135128000Y-108359043D03*
%TO.P,J19,10,Pin_10*%
%TO.N,/ESP32_Daughterboard/SSERIAL_RX*%
X136398000Y-108359043D03*
%TD*%
D12*
%TO.N,/ESP32_Daughterboard/GND*%
X173058000Y-98722000D03*
X173058000Y-86657000D03*
%TO.N,/ESP32_Daughterboard/USB_PBUS*%
X131445000Y-96520000D03*
%TO.N,/ESP32_Daughterboard/USB ESP32 CH340 Interface /ESP_EN*%
X149733000Y-82726543D03*
X169418000Y-82091543D03*
%TO.N,4*%
X156586479Y-104145554D03*
%TO.N,Net-(J5-Pad8)*%
X157988000Y-87171543D03*
%TO.N,Net-(J5-Pad9)*%
X159893000Y-90981543D03*
%TO.N,SCL*%
X168148000Y-98601543D03*
X133962500Y-80166959D03*
%TO.N,SDA*%
X137650697Y-83344241D03*
X165608000Y-99787041D03*
%TO.N,Net-(Q19-Pad2)*%
X137177872Y-97757171D03*
X141478000Y-90346543D03*
%TO.N,/ESP32_Daughterboard/GND*%
X152638000Y-105856543D03*
X142113000Y-80821543D03*
X138937382Y-107491312D03*
X169688000Y-91886543D03*
X126365000Y-103635201D03*
X128785500Y-89069043D03*
X154178000Y-82726543D03*
X141793000Y-101224043D03*
X136398000Y-82726543D03*
X133956012Y-93378056D03*
X130048000Y-105586543D03*
X131318000Y-94156543D03*
X152244583Y-96953392D03*
%TO.N,Net-(Q20-Pad2)*%
X145288000Y-92251543D03*
X140651283Y-96888258D03*
%TO.N,/ESP32_Daughterboard/MCU_5V_BUS*%
X135128000Y-81456543D03*
X136333500Y-95426543D03*
X135255000Y-88900000D03*
%TO.N,/ESP32_Daughterboard/3V3_BUS*%
X149098000Y-101776543D03*
X141478000Y-107513543D03*
X171323000Y-87171543D03*
%TO.N,/ESP32_Daughterboard/SSERIAL_RX*%
X145500477Y-106434020D03*
%TO.N,Net-(D9-Pad2)*%
X140717239Y-83487304D03*
X151638000Y-94156543D03*
%TO.N,/ESP32_Daughterboard/Logic Level Conversion/1A*%
X144018000Y-109396543D03*
X152273000Y-108126543D03*
%TO.N,/ESP32_Daughterboard/USB ESP32 CH340 Interface /TxD_B*%
X135763000Y-96696543D03*
X167513000Y-103046543D03*
%TO.N,/ESP32_Daughterboard/USB ESP32 CH340 Interface /RxD_B*%
X135553628Y-98111415D03*
X168783000Y-103046543D03*
%TD*%
%TA.AperFunction,Conductor*%
%TO.N,/ESP32_Daughterboard/GND*%
G36*
X172560995Y-75629679D02*
G01*
X172586730Y-75633686D01*
X172593727Y-75632771D01*
X172593729Y-75632771D01*
X172603569Y-75631484D01*
X172624174Y-75630953D01*
X172803771Y-75645088D01*
X172819114Y-75647518D01*
X172918117Y-75671286D01*
X173017126Y-75695056D01*
X173031892Y-75699855D01*
X173136828Y-75743321D01*
X173220029Y-75777784D01*
X173233870Y-75784837D01*
X173407492Y-75891233D01*
X173420060Y-75900364D01*
X173574903Y-76032612D01*
X173585888Y-76043597D01*
X173718136Y-76198440D01*
X173727267Y-76211008D01*
X173833663Y-76384630D01*
X173840716Y-76398471D01*
X173918644Y-76586604D01*
X173923444Y-76601374D01*
X173930317Y-76630005D01*
X173970982Y-76799386D01*
X173973412Y-76814730D01*
X173987022Y-76987663D01*
X173986149Y-77010655D01*
X173984814Y-77019230D01*
X173985729Y-77026227D01*
X173985729Y-77026228D01*
X173989164Y-77052495D01*
X173990000Y-77065332D01*
X173990000Y-109363264D01*
X173988821Y-109378495D01*
X173984814Y-109404230D01*
X173985729Y-109411228D01*
X173985729Y-109411229D01*
X173986653Y-109418294D01*
X173987012Y-109440833D01*
X173976314Y-109549454D01*
X173972528Y-109568489D01*
X173934826Y-109692775D01*
X173927399Y-109710705D01*
X173866177Y-109825244D01*
X173855396Y-109841380D01*
X173772999Y-109941782D01*
X173759282Y-109955499D01*
X173681717Y-110019154D01*
X173658880Y-110037896D01*
X173642744Y-110048677D01*
X173528205Y-110109899D01*
X173510275Y-110117326D01*
X173448132Y-110136177D01*
X173385987Y-110155028D01*
X173366955Y-110158814D01*
X173346864Y-110160793D01*
X173264755Y-110168879D01*
X173248295Y-110168417D01*
X173248294Y-110168485D01*
X173241240Y-110168399D01*
X173234270Y-110167314D01*
X173208958Y-110170624D01*
X173201005Y-110171664D01*
X173188168Y-110172500D01*
X144764189Y-110172500D01*
X144705998Y-110153593D01*
X144670034Y-110104093D01*
X144670034Y-110042907D01*
X144690618Y-110007256D01*
X144742788Y-109949316D01*
X144757040Y-109933487D01*
X144810218Y-109841380D01*
X144849933Y-109772593D01*
X144849935Y-109772588D01*
X144852527Y-109768099D01*
X144873970Y-109702105D01*
X144909940Y-109591403D01*
X144909941Y-109591398D01*
X144911542Y-109586471D01*
X144931504Y-109396543D01*
X144911542Y-109206615D01*
X144909941Y-109201688D01*
X144909940Y-109201683D01*
X144854129Y-109029918D01*
X144852527Y-109024987D01*
X144849935Y-109020498D01*
X144849933Y-109020493D01*
X144759635Y-108864094D01*
X144757040Y-108859599D01*
X144704778Y-108801556D01*
X144632723Y-108721530D01*
X144632719Y-108721526D01*
X144629253Y-108717677D01*
X144474752Y-108605425D01*
X144332245Y-108541977D01*
X144305026Y-108529858D01*
X144305022Y-108529857D01*
X144300288Y-108527749D01*
X144295218Y-108526671D01*
X144295217Y-108526671D01*
X144260083Y-108519203D01*
X144113487Y-108488043D01*
X143922513Y-108488043D01*
X143775917Y-108519203D01*
X143740783Y-108526671D01*
X143740782Y-108526671D01*
X143735712Y-108527749D01*
X143730978Y-108529857D01*
X143730974Y-108529858D01*
X143703755Y-108541977D01*
X143561248Y-108605425D01*
X143406747Y-108717677D01*
X143403281Y-108721526D01*
X143403277Y-108721530D01*
X143331222Y-108801556D01*
X143278960Y-108859599D01*
X143276365Y-108864094D01*
X143186067Y-109020493D01*
X143186065Y-109020498D01*
X143183473Y-109024987D01*
X143181871Y-109029918D01*
X143126060Y-109201683D01*
X143126059Y-109201688D01*
X143124458Y-109206615D01*
X143104496Y-109396543D01*
X143124458Y-109586471D01*
X143126059Y-109591398D01*
X143126060Y-109591403D01*
X143162030Y-109702105D01*
X143183473Y-109768099D01*
X143186065Y-109772588D01*
X143186067Y-109772593D01*
X143225782Y-109841380D01*
X143278960Y-109933487D01*
X143293213Y-109949316D01*
X143345382Y-110007256D01*
X143370269Y-110063152D01*
X143357548Y-110123000D01*
X143312078Y-110163941D01*
X143271811Y-110172500D01*
X123745236Y-110172500D01*
X123730005Y-110171321D01*
X123722240Y-110170112D01*
X123704270Y-110167314D01*
X123697272Y-110168229D01*
X123697271Y-110168229D01*
X123690206Y-110169153D01*
X123667667Y-110169512D01*
X123615572Y-110164381D01*
X123559045Y-110158814D01*
X123540013Y-110155028D01*
X123477868Y-110136177D01*
X123415725Y-110117326D01*
X123397795Y-110109899D01*
X123283256Y-110048677D01*
X123267120Y-110037896D01*
X123244283Y-110019154D01*
X123166718Y-109955499D01*
X123153001Y-109941782D01*
X123070604Y-109841380D01*
X123059823Y-109825244D01*
X122998601Y-109710705D01*
X122991174Y-109692775D01*
X122953472Y-109568489D01*
X122949686Y-109549454D01*
X122939621Y-109447255D01*
X122940083Y-109430795D01*
X122940015Y-109430794D01*
X122940101Y-109423740D01*
X122941186Y-109416770D01*
X122936836Y-109383505D01*
X122936000Y-109370668D01*
X122936000Y-108904454D01*
X123960001Y-108904454D01*
X123960290Y-108909794D01*
X123966078Y-108963078D01*
X123968927Y-108975063D01*
X124015351Y-109098898D01*
X124022059Y-109111151D01*
X124100863Y-109216299D01*
X124110744Y-109226180D01*
X124215892Y-109304984D01*
X124228145Y-109311692D01*
X124351978Y-109358115D01*
X124363967Y-109360966D01*
X124417252Y-109366754D01*
X124422586Y-109367043D01*
X124698320Y-109367043D01*
X124711005Y-109362921D01*
X124714000Y-109358800D01*
X124714000Y-109351362D01*
X125222000Y-109351362D01*
X125226122Y-109364047D01*
X125230243Y-109367042D01*
X125513411Y-109367042D01*
X125518751Y-109366753D01*
X125572035Y-109360965D01*
X125584020Y-109358116D01*
X125707857Y-109311691D01*
X125720106Y-109304985D01*
X125730300Y-109297345D01*
X125788204Y-109277577D01*
X125828885Y-109285762D01*
X125832294Y-109287667D01*
X125875361Y-109301660D01*
X126015792Y-109347289D01*
X126015798Y-109347290D01*
X126020392Y-109348783D01*
X126025188Y-109349355D01*
X126025193Y-109349356D01*
X126122551Y-109360965D01*
X126216777Y-109372201D01*
X126221599Y-109371830D01*
X126221602Y-109371830D01*
X126409143Y-109357399D01*
X126409147Y-109357398D01*
X126413972Y-109357027D01*
X126418632Y-109355726D01*
X126418637Y-109355725D01*
X126521469Y-109327013D01*
X126604463Y-109303841D01*
X126608776Y-109301662D01*
X126608782Y-109301660D01*
X126776678Y-109216849D01*
X126780996Y-109214668D01*
X126791304Y-109206615D01*
X126809764Y-109192192D01*
X126867259Y-109171265D01*
X126926862Y-109188806D01*
X126929650Y-109191179D01*
X127102294Y-109287667D01*
X127145361Y-109301660D01*
X127285792Y-109347289D01*
X127285798Y-109347290D01*
X127290392Y-109348783D01*
X127295188Y-109349355D01*
X127295193Y-109349356D01*
X127392551Y-109360965D01*
X127486777Y-109372201D01*
X127491599Y-109371830D01*
X127491602Y-109371830D01*
X127679143Y-109357399D01*
X127679147Y-109357398D01*
X127683972Y-109357027D01*
X127688632Y-109355726D01*
X127688637Y-109355725D01*
X127791469Y-109327013D01*
X127874463Y-109303841D01*
X127878776Y-109301662D01*
X127878782Y-109301660D01*
X128046678Y-109216849D01*
X128050996Y-109214668D01*
X128061304Y-109206615D01*
X128079764Y-109192192D01*
X128137259Y-109171265D01*
X128196862Y-109188806D01*
X128199650Y-109191179D01*
X128372294Y-109287667D01*
X128415361Y-109301660D01*
X128555792Y-109347289D01*
X128555798Y-109347290D01*
X128560392Y-109348783D01*
X128565188Y-109349355D01*
X128565193Y-109349356D01*
X128662551Y-109360965D01*
X128756777Y-109372201D01*
X128761599Y-109371830D01*
X128761602Y-109371830D01*
X128949143Y-109357399D01*
X128949147Y-109357398D01*
X128953972Y-109357027D01*
X128958632Y-109355726D01*
X128958637Y-109355725D01*
X129061469Y-109327013D01*
X129144463Y-109303841D01*
X129148776Y-109301662D01*
X129148782Y-109301660D01*
X129316678Y-109216849D01*
X129320996Y-109214668D01*
X129331304Y-109206615D01*
X129349764Y-109192192D01*
X129407259Y-109171265D01*
X129466862Y-109188806D01*
X129469650Y-109191179D01*
X129642294Y-109287667D01*
X129685361Y-109301660D01*
X129825792Y-109347289D01*
X129825798Y-109347290D01*
X129830392Y-109348783D01*
X129835188Y-109349355D01*
X129835193Y-109349356D01*
X129932551Y-109360965D01*
X130026777Y-109372201D01*
X130031599Y-109371830D01*
X130031602Y-109371830D01*
X130219143Y-109357399D01*
X130219147Y-109357398D01*
X130223972Y-109357027D01*
X130228632Y-109355726D01*
X130228637Y-109355725D01*
X130331469Y-109327013D01*
X130414463Y-109303841D01*
X130418776Y-109301662D01*
X130418782Y-109301660D01*
X130586678Y-109216849D01*
X130590996Y-109214668D01*
X130601304Y-109206615D01*
X130619764Y-109192192D01*
X130677259Y-109171265D01*
X130736862Y-109188806D01*
X130739650Y-109191179D01*
X130912294Y-109287667D01*
X130955361Y-109301660D01*
X131095792Y-109347289D01*
X131095798Y-109347290D01*
X131100392Y-109348783D01*
X131105188Y-109349355D01*
X131105193Y-109349356D01*
X131202551Y-109360965D01*
X131296777Y-109372201D01*
X131301599Y-109371830D01*
X131301602Y-109371830D01*
X131489143Y-109357399D01*
X131489147Y-109357398D01*
X131493972Y-109357027D01*
X131498632Y-109355726D01*
X131498637Y-109355725D01*
X131601469Y-109327013D01*
X131684463Y-109303841D01*
X131688776Y-109301662D01*
X131688782Y-109301660D01*
X131856678Y-109216849D01*
X131860996Y-109214668D01*
X131871304Y-109206615D01*
X131889764Y-109192192D01*
X131947259Y-109171265D01*
X132006862Y-109188806D01*
X132009650Y-109191179D01*
X132182294Y-109287667D01*
X132225361Y-109301660D01*
X132365792Y-109347289D01*
X132365798Y-109347290D01*
X132370392Y-109348783D01*
X132375188Y-109349355D01*
X132375193Y-109349356D01*
X132472551Y-109360965D01*
X132566777Y-109372201D01*
X132571599Y-109371830D01*
X132571602Y-109371830D01*
X132759143Y-109357399D01*
X132759147Y-109357398D01*
X132763972Y-109357027D01*
X132768632Y-109355726D01*
X132768637Y-109355725D01*
X132871469Y-109327013D01*
X132954463Y-109303841D01*
X132958776Y-109301662D01*
X132958782Y-109301660D01*
X133126678Y-109216849D01*
X133130996Y-109214668D01*
X133141304Y-109206615D01*
X133159764Y-109192192D01*
X133217259Y-109171265D01*
X133276862Y-109188806D01*
X133279650Y-109191179D01*
X133452294Y-109287667D01*
X133495361Y-109301660D01*
X133635792Y-109347289D01*
X133635798Y-109347290D01*
X133640392Y-109348783D01*
X133645188Y-109349355D01*
X133645193Y-109349356D01*
X133742551Y-109360965D01*
X133836777Y-109372201D01*
X133841599Y-109371830D01*
X133841602Y-109371830D01*
X134029143Y-109357399D01*
X134029147Y-109357398D01*
X134033972Y-109357027D01*
X134038632Y-109355726D01*
X134038637Y-109355725D01*
X134141469Y-109327013D01*
X134224463Y-109303841D01*
X134228776Y-109301662D01*
X134228782Y-109301660D01*
X134396678Y-109216849D01*
X134400996Y-109214668D01*
X134411304Y-109206615D01*
X134429764Y-109192192D01*
X134487259Y-109171265D01*
X134546862Y-109188806D01*
X134549650Y-109191179D01*
X134722294Y-109287667D01*
X134765361Y-109301660D01*
X134905792Y-109347289D01*
X134905798Y-109347290D01*
X134910392Y-109348783D01*
X134915188Y-109349355D01*
X134915193Y-109349356D01*
X135012551Y-109360965D01*
X135106777Y-109372201D01*
X135111599Y-109371830D01*
X135111602Y-109371830D01*
X135299143Y-109357399D01*
X135299147Y-109357398D01*
X135303972Y-109357027D01*
X135308632Y-109355726D01*
X135308637Y-109355725D01*
X135411469Y-109327013D01*
X135494463Y-109303841D01*
X135498776Y-109301662D01*
X135498782Y-109301660D01*
X135666678Y-109216849D01*
X135670996Y-109214668D01*
X135681304Y-109206615D01*
X135699764Y-109192192D01*
X135757259Y-109171265D01*
X135816862Y-109188806D01*
X135819650Y-109191179D01*
X135992294Y-109287667D01*
X136035361Y-109301660D01*
X136175792Y-109347289D01*
X136175798Y-109347290D01*
X136180392Y-109348783D01*
X136185188Y-109349355D01*
X136185193Y-109349356D01*
X136282551Y-109360965D01*
X136376777Y-109372201D01*
X136381599Y-109371830D01*
X136381602Y-109371830D01*
X136569143Y-109357399D01*
X136569147Y-109357398D01*
X136573972Y-109357027D01*
X136578632Y-109355726D01*
X136578637Y-109355725D01*
X136681469Y-109327013D01*
X136764463Y-109303841D01*
X136768776Y-109301662D01*
X136768782Y-109301660D01*
X136936678Y-109216849D01*
X136940996Y-109214668D01*
X136944813Y-109211686D01*
X137093032Y-109095885D01*
X137093034Y-109095883D01*
X137096847Y-109092904D01*
X137226078Y-108943188D01*
X137239383Y-108919768D01*
X137321381Y-108775426D01*
X137321382Y-108775424D01*
X137323769Y-108771222D01*
X137386197Y-108583556D01*
X137392059Y-108537158D01*
X137410637Y-108390091D01*
X137410985Y-108387338D01*
X137411380Y-108359043D01*
X137410466Y-108349714D01*
X137400678Y-108249896D01*
X137392080Y-108162210D01*
X137334916Y-107972874D01*
X137242066Y-107798247D01*
X137117065Y-107644981D01*
X137085583Y-107618937D01*
X136968402Y-107521996D01*
X136968400Y-107521995D01*
X136964675Y-107518913D01*
X136954743Y-107513543D01*
X140564496Y-107513543D01*
X140584458Y-107703471D01*
X140586059Y-107708398D01*
X140586060Y-107708403D01*
X140618503Y-107808250D01*
X140643473Y-107885099D01*
X140646065Y-107889588D01*
X140646067Y-107889593D01*
X140691683Y-107968601D01*
X140738960Y-108050487D01*
X140742432Y-108054343D01*
X140863277Y-108188556D01*
X140863281Y-108188560D01*
X140866747Y-108192409D01*
X141021248Y-108304661D01*
X141111613Y-108344894D01*
X141190974Y-108380228D01*
X141190978Y-108380229D01*
X141195712Y-108382337D01*
X141200782Y-108383415D01*
X141200783Y-108383415D01*
X141232191Y-108390091D01*
X141382513Y-108422043D01*
X141573487Y-108422043D01*
X141723809Y-108390091D01*
X141755217Y-108383415D01*
X141755218Y-108383415D01*
X141760288Y-108382337D01*
X141765022Y-108380229D01*
X141765026Y-108380228D01*
X141844387Y-108344894D01*
X141934752Y-108304661D01*
X142089253Y-108192409D01*
X142092719Y-108188560D01*
X142092723Y-108188556D01*
X142148559Y-108126543D01*
X151359496Y-108126543D01*
X151379458Y-108316471D01*
X151381059Y-108321398D01*
X151381060Y-108321403D01*
X151401583Y-108384564D01*
X151438473Y-108498099D01*
X151441065Y-108502588D01*
X151441067Y-108502593D01*
X151487812Y-108583556D01*
X151533960Y-108663487D01*
X151537432Y-108667343D01*
X151658277Y-108801556D01*
X151658281Y-108801560D01*
X151661747Y-108805409D01*
X151816248Y-108917661D01*
X151881808Y-108946850D01*
X151985974Y-108993228D01*
X151985978Y-108993229D01*
X151990712Y-108995337D01*
X151995782Y-108996415D01*
X151995783Y-108996415D01*
X152030917Y-109003883D01*
X152177513Y-109035043D01*
X152368487Y-109035043D01*
X152515083Y-109003883D01*
X152550217Y-108996415D01*
X152550218Y-108996415D01*
X152555288Y-108995337D01*
X152560022Y-108993229D01*
X152560026Y-108993228D01*
X152664192Y-108946850D01*
X152729752Y-108917661D01*
X152884253Y-108805409D01*
X152887719Y-108801560D01*
X152887723Y-108801556D01*
X153008568Y-108667343D01*
X153012040Y-108663487D01*
X153058188Y-108583556D01*
X153104933Y-108502593D01*
X153104935Y-108502588D01*
X153107527Y-108498099D01*
X153144417Y-108384564D01*
X153157307Y-108344894D01*
X154444719Y-108344894D01*
X154445907Y-108359043D01*
X154459983Y-108526671D01*
X154461268Y-108541977D01*
X154462601Y-108546625D01*
X154462601Y-108546626D01*
X154496111Y-108663487D01*
X154515783Y-108732093D01*
X154606187Y-108907999D01*
X154609194Y-108911793D01*
X154613845Y-108917661D01*
X154729035Y-109062996D01*
X154732722Y-109066134D01*
X154732724Y-109066136D01*
X154875962Y-109188041D01*
X154875967Y-109188044D01*
X154879650Y-109191179D01*
X154883873Y-109193539D01*
X154883877Y-109193542D01*
X155000747Y-109258858D01*
X155052294Y-109287667D01*
X155095361Y-109301660D01*
X155235792Y-109347289D01*
X155235798Y-109347290D01*
X155240392Y-109348783D01*
X155245188Y-109349355D01*
X155245193Y-109349356D01*
X155342551Y-109360965D01*
X155436777Y-109372201D01*
X155441599Y-109371830D01*
X155441602Y-109371830D01*
X155629143Y-109357399D01*
X155629147Y-109357398D01*
X155633972Y-109357027D01*
X155638632Y-109355726D01*
X155638637Y-109355725D01*
X155741468Y-109327013D01*
X155824463Y-109303841D01*
X155828776Y-109301662D01*
X155828782Y-109301660D01*
X155996678Y-109216849D01*
X156000996Y-109214668D01*
X156011304Y-109206615D01*
X156029764Y-109192192D01*
X156087259Y-109171265D01*
X156146862Y-109188806D01*
X156149650Y-109191179D01*
X156322294Y-109287667D01*
X156365361Y-109301660D01*
X156505792Y-109347289D01*
X156505798Y-109347290D01*
X156510392Y-109348783D01*
X156515188Y-109349355D01*
X156515193Y-109349356D01*
X156612551Y-109360965D01*
X156706777Y-109372201D01*
X156711599Y-109371830D01*
X156711602Y-109371830D01*
X156899143Y-109357399D01*
X156899147Y-109357398D01*
X156903972Y-109357027D01*
X156908632Y-109355726D01*
X156908637Y-109355725D01*
X157011468Y-109327013D01*
X157094463Y-109303841D01*
X157098776Y-109301662D01*
X157098782Y-109301660D01*
X157266678Y-109216849D01*
X157270996Y-109214668D01*
X157281304Y-109206615D01*
X157299764Y-109192192D01*
X157357259Y-109171265D01*
X157416862Y-109188806D01*
X157419650Y-109191179D01*
X157592294Y-109287667D01*
X157635361Y-109301660D01*
X157775792Y-109347289D01*
X157775798Y-109347290D01*
X157780392Y-109348783D01*
X157785188Y-109349355D01*
X157785193Y-109349356D01*
X157882551Y-109360965D01*
X157976777Y-109372201D01*
X157981599Y-109371830D01*
X157981602Y-109371830D01*
X158169143Y-109357399D01*
X158169147Y-109357398D01*
X158173972Y-109357027D01*
X158178632Y-109355726D01*
X158178637Y-109355725D01*
X158281468Y-109327013D01*
X158364463Y-109303841D01*
X158368776Y-109301662D01*
X158368782Y-109301660D01*
X158536678Y-109216849D01*
X158540996Y-109214668D01*
X158551304Y-109206615D01*
X158569764Y-109192192D01*
X158627259Y-109171265D01*
X158686862Y-109188806D01*
X158689650Y-109191179D01*
X158862294Y-109287667D01*
X158905361Y-109301660D01*
X159045792Y-109347289D01*
X159045798Y-109347290D01*
X159050392Y-109348783D01*
X159055188Y-109349355D01*
X159055193Y-109349356D01*
X159152551Y-109360965D01*
X159246777Y-109372201D01*
X159251599Y-109371830D01*
X159251602Y-109371830D01*
X159439143Y-109357399D01*
X159439147Y-109357398D01*
X159443972Y-109357027D01*
X159448632Y-109355726D01*
X159448637Y-109355725D01*
X159551468Y-109327013D01*
X159634463Y-109303841D01*
X159650564Y-109295708D01*
X159668671Y-109286561D01*
X159729136Y-109277200D01*
X159772681Y-109295708D01*
X159791295Y-109309658D01*
X159927684Y-109360788D01*
X159933856Y-109361458D01*
X159933858Y-109361459D01*
X159969837Y-109365367D01*
X159989866Y-109367543D01*
X161086134Y-109367543D01*
X161106163Y-109365367D01*
X161142142Y-109361459D01*
X161142144Y-109361458D01*
X161148316Y-109360788D01*
X161187100Y-109346249D01*
X161278106Y-109312132D01*
X161278107Y-109312132D01*
X161284705Y-109309658D01*
X161401261Y-109222304D01*
X161488615Y-109105748D01*
X161492313Y-109095885D01*
X161537565Y-108975174D01*
X161539745Y-108969359D01*
X161540428Y-108963078D01*
X161545692Y-108914616D01*
X161546500Y-108907177D01*
X161546500Y-107810909D01*
X161539745Y-107748727D01*
X161508611Y-107665676D01*
X161491089Y-107618937D01*
X161491089Y-107618936D01*
X161488615Y-107612338D01*
X161401261Y-107495782D01*
X161284705Y-107408428D01*
X161278101Y-107405952D01*
X161173460Y-107366724D01*
X161148316Y-107357298D01*
X161142144Y-107356628D01*
X161142142Y-107356627D01*
X161106163Y-107352719D01*
X161086134Y-107350543D01*
X159989866Y-107350543D01*
X159969837Y-107352719D01*
X159933858Y-107356627D01*
X159933856Y-107356628D01*
X159927684Y-107357298D01*
X159791295Y-107408428D01*
X159785651Y-107412658D01*
X159774551Y-107420977D01*
X159716647Y-107440745D01*
X159668095Y-107428843D01*
X159664953Y-107427144D01*
X159664952Y-107427144D01*
X159660701Y-107424845D01*
X159599667Y-107405952D01*
X159476389Y-107367791D01*
X159476385Y-107367790D01*
X159471768Y-107366361D01*
X159466960Y-107365856D01*
X159466957Y-107365855D01*
X159279891Y-107346194D01*
X159279889Y-107346194D01*
X159275075Y-107345688D01*
X159213058Y-107351332D01*
X159082933Y-107363174D01*
X159082930Y-107363174D01*
X159078112Y-107363613D01*
X158983246Y-107391533D01*
X158893028Y-107418085D01*
X158893025Y-107418086D01*
X158888381Y-107419453D01*
X158884092Y-107421695D01*
X158884090Y-107421696D01*
X158717398Y-107508841D01*
X158717396Y-107508842D01*
X158713110Y-107511083D01*
X158699537Y-107521996D01*
X158695960Y-107524872D01*
X158638763Y-107546599D01*
X158579718Y-107530556D01*
X158570824Y-107523999D01*
X158568407Y-107522000D01*
X158568405Y-107521998D01*
X158564675Y-107518913D01*
X158420059Y-107440719D01*
X158394955Y-107427145D01*
X158394954Y-107427144D01*
X158390701Y-107424845D01*
X158329667Y-107405952D01*
X158206389Y-107367791D01*
X158206385Y-107367790D01*
X158201768Y-107366361D01*
X158196960Y-107365856D01*
X158196957Y-107365855D01*
X158009891Y-107346194D01*
X158009889Y-107346194D01*
X158005075Y-107345688D01*
X157943058Y-107351332D01*
X157812933Y-107363174D01*
X157812930Y-107363174D01*
X157808112Y-107363613D01*
X157713246Y-107391533D01*
X157623028Y-107418085D01*
X157623025Y-107418086D01*
X157618381Y-107419453D01*
X157614092Y-107421695D01*
X157614090Y-107421696D01*
X157447398Y-107508841D01*
X157447396Y-107508842D01*
X157443110Y-107511083D01*
X157429537Y-107521996D01*
X157425960Y-107524872D01*
X157368763Y-107546599D01*
X157309718Y-107530556D01*
X157300824Y-107523999D01*
X157298407Y-107522000D01*
X157298405Y-107521998D01*
X157294675Y-107518913D01*
X157150059Y-107440719D01*
X157124955Y-107427145D01*
X157124954Y-107427144D01*
X157120701Y-107424845D01*
X157059667Y-107405952D01*
X156936389Y-107367791D01*
X156936385Y-107367790D01*
X156931768Y-107366361D01*
X156926960Y-107365856D01*
X156926957Y-107365855D01*
X156739891Y-107346194D01*
X156739889Y-107346194D01*
X156735075Y-107345688D01*
X156673058Y-107351332D01*
X156542933Y-107363174D01*
X156542930Y-107363174D01*
X156538112Y-107363613D01*
X156443246Y-107391533D01*
X156353028Y-107418085D01*
X156353025Y-107418086D01*
X156348381Y-107419453D01*
X156344092Y-107421695D01*
X156344090Y-107421696D01*
X156177398Y-107508841D01*
X156177396Y-107508842D01*
X156173110Y-107511083D01*
X156159537Y-107521996D01*
X156155960Y-107524872D01*
X156098763Y-107546599D01*
X156039718Y-107530556D01*
X156030824Y-107523999D01*
X156028407Y-107522000D01*
X156028405Y-107521998D01*
X156024675Y-107518913D01*
X155880059Y-107440719D01*
X155854955Y-107427145D01*
X155854954Y-107427144D01*
X155850701Y-107424845D01*
X155789667Y-107405952D01*
X155666389Y-107367791D01*
X155666385Y-107367790D01*
X155661768Y-107366361D01*
X155656960Y-107365856D01*
X155656957Y-107365855D01*
X155469891Y-107346194D01*
X155469889Y-107346194D01*
X155465075Y-107345688D01*
X155403058Y-107351332D01*
X155272933Y-107363174D01*
X155272930Y-107363174D01*
X155268112Y-107363613D01*
X155173246Y-107391533D01*
X155083028Y-107418085D01*
X155083025Y-107418086D01*
X155078381Y-107419453D01*
X155074092Y-107421695D01*
X155074090Y-107421696D01*
X154907398Y-107508841D01*
X154907396Y-107508842D01*
X154903110Y-107511083D01*
X154748975Y-107635011D01*
X154745866Y-107638716D01*
X154745863Y-107638719D01*
X154723244Y-107665676D01*
X154621846Y-107786517D01*
X154619514Y-107790760D01*
X154619512Y-107790762D01*
X154580517Y-107861695D01*
X154526567Y-107959830D01*
X154466765Y-108148349D01*
X154466225Y-108153161D01*
X154466225Y-108153162D01*
X154446398Y-108329928D01*
X154444719Y-108344894D01*
X153157307Y-108344894D01*
X153164940Y-108321403D01*
X153164941Y-108321398D01*
X153166542Y-108316471D01*
X153186504Y-108126543D01*
X153166542Y-107936615D01*
X153164941Y-107931688D01*
X153164940Y-107931683D01*
X153109129Y-107759918D01*
X153107527Y-107754987D01*
X153104935Y-107750498D01*
X153104933Y-107750493D01*
X153014635Y-107594094D01*
X153012040Y-107589599D01*
X152948394Y-107518913D01*
X152887723Y-107451530D01*
X152887719Y-107451526D01*
X152884253Y-107447677D01*
X152729752Y-107335425D01*
X152627277Y-107289801D01*
X152560026Y-107259858D01*
X152560022Y-107259857D01*
X152555288Y-107257749D01*
X152550218Y-107256671D01*
X152550217Y-107256671D01*
X152515083Y-107249203D01*
X152368487Y-107218043D01*
X152177513Y-107218043D01*
X152030917Y-107249203D01*
X151995783Y-107256671D01*
X151995782Y-107256671D01*
X151990712Y-107257749D01*
X151985978Y-107259857D01*
X151985974Y-107259858D01*
X151918723Y-107289801D01*
X151816248Y-107335425D01*
X151661747Y-107447677D01*
X151658281Y-107451526D01*
X151658277Y-107451530D01*
X151597606Y-107518913D01*
X151533960Y-107589599D01*
X151531365Y-107594094D01*
X151441067Y-107750493D01*
X151441065Y-107750498D01*
X151438473Y-107754987D01*
X151436871Y-107759918D01*
X151381060Y-107931683D01*
X151381059Y-107931688D01*
X151379458Y-107936615D01*
X151359496Y-108126543D01*
X142148559Y-108126543D01*
X142213568Y-108054343D01*
X142217040Y-108050487D01*
X142264317Y-107968601D01*
X142309933Y-107889593D01*
X142309935Y-107889588D01*
X142312527Y-107885099D01*
X142337497Y-107808250D01*
X142369940Y-107708403D01*
X142369941Y-107708398D01*
X142371542Y-107703471D01*
X142391504Y-107513543D01*
X142371542Y-107323615D01*
X142369941Y-107318688D01*
X142369940Y-107318683D01*
X142314129Y-107146918D01*
X142312527Y-107141987D01*
X142309935Y-107137498D01*
X142309933Y-107137493D01*
X142219635Y-106981094D01*
X142217040Y-106976599D01*
X142160066Y-106913323D01*
X142092723Y-106838530D01*
X142092719Y-106838526D01*
X142089253Y-106834677D01*
X141934752Y-106722425D01*
X141832277Y-106676801D01*
X141765026Y-106646858D01*
X141765022Y-106646857D01*
X141760288Y-106644749D01*
X141755218Y-106643671D01*
X141755217Y-106643671D01*
X141718779Y-106635926D01*
X141573487Y-106605043D01*
X141382513Y-106605043D01*
X141237221Y-106635926D01*
X141200783Y-106643671D01*
X141200782Y-106643671D01*
X141195712Y-106644749D01*
X141190978Y-106646857D01*
X141190974Y-106646858D01*
X141123723Y-106676801D01*
X141021248Y-106722425D01*
X140866747Y-106834677D01*
X140863281Y-106838526D01*
X140863277Y-106838530D01*
X140795934Y-106913323D01*
X140738960Y-106976599D01*
X140736365Y-106981094D01*
X140646067Y-107137493D01*
X140646065Y-107137498D01*
X140643473Y-107141987D01*
X140641871Y-107146918D01*
X140586060Y-107318683D01*
X140586059Y-107318688D01*
X140584458Y-107323615D01*
X140564496Y-107513543D01*
X136954743Y-107513543D01*
X136820059Y-107440719D01*
X136794955Y-107427145D01*
X136794954Y-107427144D01*
X136790701Y-107424845D01*
X136729667Y-107405952D01*
X136606389Y-107367791D01*
X136606385Y-107367790D01*
X136601768Y-107366361D01*
X136596960Y-107365856D01*
X136596957Y-107365855D01*
X136409891Y-107346194D01*
X136409889Y-107346194D01*
X136405075Y-107345688D01*
X136343058Y-107351332D01*
X136212933Y-107363174D01*
X136212930Y-107363174D01*
X136208112Y-107363613D01*
X136113246Y-107391533D01*
X136023028Y-107418085D01*
X136023025Y-107418086D01*
X136018381Y-107419453D01*
X136014092Y-107421695D01*
X136014090Y-107421696D01*
X135847398Y-107508841D01*
X135847396Y-107508842D01*
X135843110Y-107511083D01*
X135829537Y-107521996D01*
X135825960Y-107524872D01*
X135768763Y-107546599D01*
X135709718Y-107530556D01*
X135700824Y-107523999D01*
X135698407Y-107522000D01*
X135698405Y-107521998D01*
X135694675Y-107518913D01*
X135550059Y-107440719D01*
X135524955Y-107427145D01*
X135524954Y-107427144D01*
X135520701Y-107424845D01*
X135459667Y-107405952D01*
X135336389Y-107367791D01*
X135336385Y-107367790D01*
X135331768Y-107366361D01*
X135326960Y-107365856D01*
X135326957Y-107365855D01*
X135139891Y-107346194D01*
X135139889Y-107346194D01*
X135135075Y-107345688D01*
X135073058Y-107351332D01*
X134942933Y-107363174D01*
X134942930Y-107363174D01*
X134938112Y-107363613D01*
X134843246Y-107391533D01*
X134753028Y-107418085D01*
X134753025Y-107418086D01*
X134748381Y-107419453D01*
X134744092Y-107421695D01*
X134744090Y-107421696D01*
X134577398Y-107508841D01*
X134577396Y-107508842D01*
X134573110Y-107511083D01*
X134559537Y-107521996D01*
X134555960Y-107524872D01*
X134498763Y-107546599D01*
X134439718Y-107530556D01*
X134430824Y-107523999D01*
X134428407Y-107522000D01*
X134428405Y-107521998D01*
X134424675Y-107518913D01*
X134280059Y-107440719D01*
X134254955Y-107427145D01*
X134254954Y-107427144D01*
X134250701Y-107424845D01*
X134189667Y-107405952D01*
X134066389Y-107367791D01*
X134066385Y-107367790D01*
X134061768Y-107366361D01*
X134056960Y-107365856D01*
X134056957Y-107365855D01*
X133869891Y-107346194D01*
X133869889Y-107346194D01*
X133865075Y-107345688D01*
X133803058Y-107351332D01*
X133672933Y-107363174D01*
X133672930Y-107363174D01*
X133668112Y-107363613D01*
X133573246Y-107391533D01*
X133483028Y-107418085D01*
X133483025Y-107418086D01*
X133478381Y-107419453D01*
X133474092Y-107421695D01*
X133474090Y-107421696D01*
X133307398Y-107508841D01*
X133307396Y-107508842D01*
X133303110Y-107511083D01*
X133289537Y-107521996D01*
X133285960Y-107524872D01*
X133228763Y-107546599D01*
X133169718Y-107530556D01*
X133160824Y-107523999D01*
X133158407Y-107522000D01*
X133158405Y-107521998D01*
X133154675Y-107518913D01*
X133010059Y-107440719D01*
X132984955Y-107427145D01*
X132984954Y-107427144D01*
X132980701Y-107424845D01*
X132919667Y-107405952D01*
X132796389Y-107367791D01*
X132796385Y-107367790D01*
X132791768Y-107366361D01*
X132786960Y-107365856D01*
X132786957Y-107365855D01*
X132599891Y-107346194D01*
X132599889Y-107346194D01*
X132595075Y-107345688D01*
X132533058Y-107351332D01*
X132402933Y-107363174D01*
X132402930Y-107363174D01*
X132398112Y-107363613D01*
X132303246Y-107391533D01*
X132213028Y-107418085D01*
X132213025Y-107418086D01*
X132208381Y-107419453D01*
X132204092Y-107421695D01*
X132204090Y-107421696D01*
X132037398Y-107508841D01*
X132037396Y-107508842D01*
X132033110Y-107511083D01*
X132019537Y-107521996D01*
X132015960Y-107524872D01*
X131958763Y-107546599D01*
X131899718Y-107530556D01*
X131890824Y-107523999D01*
X131888407Y-107522000D01*
X131888405Y-107521998D01*
X131884675Y-107518913D01*
X131740059Y-107440719D01*
X131714955Y-107427145D01*
X131714954Y-107427144D01*
X131710701Y-107424845D01*
X131649667Y-107405952D01*
X131526389Y-107367791D01*
X131526385Y-107367790D01*
X131521768Y-107366361D01*
X131516960Y-107365856D01*
X131516957Y-107365855D01*
X131329891Y-107346194D01*
X131329889Y-107346194D01*
X131325075Y-107345688D01*
X131263058Y-107351332D01*
X131132933Y-107363174D01*
X131132930Y-107363174D01*
X131128112Y-107363613D01*
X131033246Y-107391533D01*
X130943028Y-107418085D01*
X130943025Y-107418086D01*
X130938381Y-107419453D01*
X130934092Y-107421695D01*
X130934090Y-107421696D01*
X130767398Y-107508841D01*
X130767396Y-107508842D01*
X130763110Y-107511083D01*
X130749537Y-107521996D01*
X130745960Y-107524872D01*
X130688763Y-107546599D01*
X130629718Y-107530556D01*
X130620824Y-107523999D01*
X130618407Y-107522000D01*
X130618405Y-107521998D01*
X130614675Y-107518913D01*
X130470059Y-107440719D01*
X130444955Y-107427145D01*
X130444954Y-107427144D01*
X130440701Y-107424845D01*
X130379667Y-107405952D01*
X130256389Y-107367791D01*
X130256385Y-107367790D01*
X130251768Y-107366361D01*
X130246960Y-107365856D01*
X130246957Y-107365855D01*
X130059891Y-107346194D01*
X130059889Y-107346194D01*
X130055075Y-107345688D01*
X129993058Y-107351332D01*
X129862933Y-107363174D01*
X129862930Y-107363174D01*
X129858112Y-107363613D01*
X129763246Y-107391533D01*
X129673028Y-107418085D01*
X129673025Y-107418086D01*
X129668381Y-107419453D01*
X129664092Y-107421695D01*
X129664090Y-107421696D01*
X129497398Y-107508841D01*
X129497396Y-107508842D01*
X129493110Y-107511083D01*
X129479537Y-107521996D01*
X129475960Y-107524872D01*
X129418763Y-107546599D01*
X129359718Y-107530556D01*
X129350824Y-107523999D01*
X129348407Y-107522000D01*
X129348405Y-107521998D01*
X129344675Y-107518913D01*
X129200059Y-107440719D01*
X129174955Y-107427145D01*
X129174954Y-107427144D01*
X129170701Y-107424845D01*
X129109667Y-107405952D01*
X128986389Y-107367791D01*
X128986385Y-107367790D01*
X128981768Y-107366361D01*
X128976960Y-107365856D01*
X128976957Y-107365855D01*
X128789891Y-107346194D01*
X128789889Y-107346194D01*
X128785075Y-107345688D01*
X128723058Y-107351332D01*
X128592933Y-107363174D01*
X128592930Y-107363174D01*
X128588112Y-107363613D01*
X128493246Y-107391533D01*
X128403028Y-107418085D01*
X128403025Y-107418086D01*
X128398381Y-107419453D01*
X128394092Y-107421695D01*
X128394090Y-107421696D01*
X128227398Y-107508841D01*
X128227396Y-107508842D01*
X128223110Y-107511083D01*
X128209537Y-107521996D01*
X128205960Y-107524872D01*
X128148763Y-107546599D01*
X128089718Y-107530556D01*
X128080824Y-107523999D01*
X128078407Y-107522000D01*
X128078405Y-107521998D01*
X128074675Y-107518913D01*
X127930059Y-107440719D01*
X127904955Y-107427145D01*
X127904954Y-107427144D01*
X127900701Y-107424845D01*
X127839667Y-107405952D01*
X127716389Y-107367791D01*
X127716385Y-107367790D01*
X127711768Y-107366361D01*
X127706960Y-107365856D01*
X127706957Y-107365855D01*
X127519891Y-107346194D01*
X127519889Y-107346194D01*
X127515075Y-107345688D01*
X127453058Y-107351332D01*
X127322933Y-107363174D01*
X127322930Y-107363174D01*
X127318112Y-107363613D01*
X127223246Y-107391533D01*
X127133028Y-107418085D01*
X127133025Y-107418086D01*
X127128381Y-107419453D01*
X127124092Y-107421695D01*
X127124090Y-107421696D01*
X126957398Y-107508841D01*
X126957396Y-107508842D01*
X126953110Y-107511083D01*
X126939537Y-107521996D01*
X126935960Y-107524872D01*
X126878763Y-107546599D01*
X126819718Y-107530556D01*
X126810824Y-107523999D01*
X126808407Y-107522000D01*
X126808405Y-107521998D01*
X126804675Y-107518913D01*
X126660059Y-107440719D01*
X126634955Y-107427145D01*
X126634954Y-107427144D01*
X126630701Y-107424845D01*
X126569667Y-107405952D01*
X126446389Y-107367791D01*
X126446385Y-107367790D01*
X126441768Y-107366361D01*
X126436960Y-107365856D01*
X126436957Y-107365855D01*
X126249891Y-107346194D01*
X126249889Y-107346194D01*
X126245075Y-107345688D01*
X126183058Y-107351332D01*
X126052933Y-107363174D01*
X126052930Y-107363174D01*
X126048112Y-107363613D01*
X125953246Y-107391533D01*
X125863028Y-107418085D01*
X125863025Y-107418086D01*
X125858381Y-107419453D01*
X125837221Y-107430515D01*
X125776894Y-107440719D01*
X125731983Y-107422002D01*
X125720108Y-107413102D01*
X125707855Y-107406394D01*
X125584022Y-107359971D01*
X125572033Y-107357120D01*
X125518748Y-107351332D01*
X125513414Y-107351043D01*
X125237680Y-107351043D01*
X125224995Y-107355165D01*
X125222000Y-107359286D01*
X125222000Y-109351362D01*
X124714000Y-109351362D01*
X124714000Y-108628723D01*
X124709878Y-108616038D01*
X124705757Y-108613043D01*
X123975681Y-108613043D01*
X123962996Y-108617165D01*
X123960001Y-108621286D01*
X123960001Y-108904454D01*
X122936000Y-108904454D01*
X122936000Y-108089363D01*
X123960000Y-108089363D01*
X123964122Y-108102048D01*
X123968243Y-108105043D01*
X124698320Y-108105043D01*
X124711005Y-108100921D01*
X124714000Y-108096800D01*
X124714000Y-107366724D01*
X124709878Y-107354039D01*
X124705757Y-107351044D01*
X124422589Y-107351044D01*
X124417249Y-107351333D01*
X124363965Y-107357121D01*
X124351980Y-107359970D01*
X124228145Y-107406394D01*
X124215892Y-107413102D01*
X124110744Y-107491906D01*
X124100863Y-107501787D01*
X124022059Y-107606935D01*
X124015351Y-107619188D01*
X123968928Y-107743021D01*
X123966077Y-107755010D01*
X123960289Y-107808295D01*
X123960000Y-107813629D01*
X123960000Y-108089363D01*
X122936000Y-108089363D01*
X122936000Y-106434020D01*
X144586973Y-106434020D01*
X144606935Y-106623948D01*
X144608536Y-106628875D01*
X144608537Y-106628880D01*
X144614379Y-106646858D01*
X144665950Y-106805576D01*
X144668542Y-106810065D01*
X144668544Y-106810070D01*
X144684976Y-106838530D01*
X144761437Y-106970964D01*
X144764909Y-106974820D01*
X144885754Y-107109033D01*
X144885758Y-107109037D01*
X144889224Y-107112886D01*
X145043725Y-107225138D01*
X145114550Y-107256671D01*
X145213451Y-107300705D01*
X145213455Y-107300706D01*
X145218189Y-107302814D01*
X145223259Y-107303892D01*
X145223260Y-107303892D01*
X145258394Y-107311360D01*
X145404990Y-107342520D01*
X145595964Y-107342520D01*
X145742560Y-107311360D01*
X145777694Y-107303892D01*
X145777695Y-107303892D01*
X145782765Y-107302814D01*
X145787499Y-107300706D01*
X145787503Y-107300705D01*
X145886404Y-107256671D01*
X145957229Y-107225138D01*
X146111730Y-107112886D01*
X146115196Y-107109037D01*
X146115200Y-107109033D01*
X146236045Y-106974820D01*
X146239517Y-106970964D01*
X146315978Y-106838530D01*
X146332410Y-106810070D01*
X146332412Y-106810065D01*
X146335004Y-106805576D01*
X146386575Y-106646858D01*
X146392417Y-106628880D01*
X146392418Y-106628875D01*
X146394019Y-106623948D01*
X146413981Y-106434020D01*
X146405597Y-106354246D01*
X163498743Y-106354246D01*
X163536268Y-106639277D01*
X163537159Y-106642534D01*
X163537160Y-106642539D01*
X163588890Y-106831631D01*
X163612129Y-106916579D01*
X163613453Y-106919683D01*
X163710378Y-107146918D01*
X163724923Y-107181019D01*
X163872561Y-107427704D01*
X164052313Y-107652071D01*
X164054762Y-107654395D01*
X164210858Y-107802524D01*
X164260851Y-107849966D01*
X164263586Y-107851931D01*
X164263588Y-107851933D01*
X164438340Y-107977505D01*
X164494317Y-108017729D01*
X164748392Y-108152255D01*
X164751561Y-108153415D01*
X164751564Y-108153416D01*
X164775595Y-108162210D01*
X165018373Y-108251054D01*
X165299264Y-108312298D01*
X165302615Y-108312562D01*
X165302617Y-108312562D01*
X165394498Y-108319793D01*
X165524739Y-108330043D01*
X165680271Y-108330043D01*
X165894825Y-108315416D01*
X166176342Y-108257117D01*
X166447343Y-108161150D01*
X166450333Y-108159607D01*
X166450337Y-108159605D01*
X166699808Y-108030844D01*
X166699814Y-108030840D01*
X166702812Y-108029293D01*
X166938023Y-107863984D01*
X167148622Y-107668283D01*
X167161892Y-107652071D01*
X167216180Y-107585743D01*
X167330713Y-107445811D01*
X167480927Y-107200685D01*
X167580987Y-106972743D01*
X167595130Y-106940524D01*
X167595132Y-106940520D01*
X167596483Y-106937441D01*
X167634046Y-106805576D01*
X167674318Y-106664201D01*
X167674319Y-106664196D01*
X167675244Y-106660949D01*
X167715751Y-106376327D01*
X167715850Y-106357580D01*
X167717239Y-106092200D01*
X167717257Y-106088840D01*
X167679732Y-105803809D01*
X167673804Y-105782137D01*
X167604762Y-105529763D01*
X167604761Y-105529759D01*
X167603871Y-105526507D01*
X167491077Y-105262067D01*
X167343439Y-105015382D01*
X167163687Y-104791015D01*
X166955149Y-104593120D01*
X166952412Y-104591153D01*
X166724425Y-104427327D01*
X166724422Y-104427325D01*
X166721683Y-104425357D01*
X166467608Y-104290831D01*
X166464439Y-104289671D01*
X166464436Y-104289670D01*
X166386386Y-104261108D01*
X166197627Y-104192032D01*
X165916736Y-104130788D01*
X165913385Y-104130524D01*
X165913383Y-104130524D01*
X165821502Y-104123293D01*
X165691261Y-104113043D01*
X165535729Y-104113043D01*
X165321175Y-104127670D01*
X165039658Y-104185969D01*
X164768657Y-104281936D01*
X164765667Y-104283479D01*
X164765663Y-104283481D01*
X164516192Y-104412242D01*
X164516186Y-104412246D01*
X164513188Y-104413793D01*
X164277977Y-104579102D01*
X164067378Y-104774803D01*
X164065246Y-104777408D01*
X164065244Y-104777410D01*
X164029921Y-104820567D01*
X163885287Y-104997275D01*
X163735073Y-105242401D01*
X163619517Y-105505645D01*
X163613855Y-105525520D01*
X163547345Y-105759007D01*
X163540756Y-105782137D01*
X163500249Y-106066759D01*
X163500231Y-106070125D01*
X163500231Y-106070130D01*
X163499553Y-106199572D01*
X163498743Y-106354246D01*
X146405597Y-106354246D01*
X146394019Y-106244092D01*
X146392418Y-106239165D01*
X146392417Y-106239160D01*
X146336606Y-106067395D01*
X146335004Y-106062464D01*
X146332412Y-106057975D01*
X146332410Y-106057970D01*
X146242112Y-105901571D01*
X146239517Y-105897076D01*
X146229053Y-105885454D01*
X146115200Y-105759007D01*
X146115196Y-105759003D01*
X146111730Y-105755154D01*
X145957229Y-105642902D01*
X145854754Y-105597278D01*
X145787503Y-105567335D01*
X145787499Y-105567334D01*
X145782765Y-105565226D01*
X145777695Y-105564148D01*
X145777694Y-105564148D01*
X145742560Y-105556680D01*
X145595964Y-105525520D01*
X145404990Y-105525520D01*
X145258394Y-105556680D01*
X145223260Y-105564148D01*
X145223259Y-105564148D01*
X145218189Y-105565226D01*
X145213455Y-105567334D01*
X145213451Y-105567335D01*
X145146200Y-105597278D01*
X145043725Y-105642902D01*
X144889224Y-105755154D01*
X144885758Y-105759003D01*
X144885754Y-105759007D01*
X144771901Y-105885454D01*
X144761437Y-105897076D01*
X144758842Y-105901571D01*
X144668544Y-106057970D01*
X144668542Y-106057975D01*
X144665950Y-106062464D01*
X144664348Y-106067395D01*
X144608537Y-106239160D01*
X144608536Y-106239165D01*
X144606935Y-106244092D01*
X144586973Y-106434020D01*
X122936000Y-106434020D01*
X122936000Y-104145554D01*
X155672975Y-104145554D01*
X155692937Y-104335482D01*
X155694538Y-104340409D01*
X155694539Y-104340414D01*
X155721626Y-104423778D01*
X155751952Y-104517110D01*
X155754544Y-104521599D01*
X155754546Y-104521604D01*
X155823192Y-104640502D01*
X155847439Y-104682498D01*
X155850911Y-104686354D01*
X155971756Y-104820567D01*
X155971760Y-104820571D01*
X155975226Y-104824420D01*
X156129727Y-104936672D01*
X156232202Y-104982296D01*
X156299453Y-105012239D01*
X156299457Y-105012240D01*
X156304191Y-105014348D01*
X156309261Y-105015426D01*
X156309262Y-105015426D01*
X156322680Y-105018278D01*
X156490992Y-105054054D01*
X156681966Y-105054054D01*
X156850278Y-105018278D01*
X156863696Y-105015426D01*
X156863697Y-105015426D01*
X156868767Y-105014348D01*
X156873501Y-105012240D01*
X156873505Y-105012239D01*
X156940756Y-104982296D01*
X157043231Y-104936672D01*
X157197732Y-104824420D01*
X157201198Y-104820571D01*
X157201202Y-104820567D01*
X157322047Y-104686354D01*
X157325519Y-104682498D01*
X157349766Y-104640502D01*
X157418412Y-104521604D01*
X157418414Y-104521599D01*
X157421006Y-104517110D01*
X157451332Y-104423778D01*
X157478419Y-104340414D01*
X157478420Y-104340409D01*
X157480021Y-104335482D01*
X157499983Y-104145554D01*
X157480021Y-103955626D01*
X157478420Y-103950699D01*
X157478419Y-103950694D01*
X157422608Y-103778929D01*
X157421006Y-103773998D01*
X157418414Y-103769509D01*
X157418412Y-103769504D01*
X157328114Y-103613105D01*
X157325519Y-103608610D01*
X157298851Y-103578992D01*
X157201202Y-103470541D01*
X157201198Y-103470537D01*
X157197732Y-103466688D01*
X157043231Y-103354436D01*
X156940756Y-103308812D01*
X156873505Y-103278869D01*
X156873501Y-103278868D01*
X156868767Y-103276760D01*
X156863697Y-103275682D01*
X156863696Y-103275682D01*
X156828562Y-103268214D01*
X156681966Y-103237054D01*
X156490992Y-103237054D01*
X156344396Y-103268214D01*
X156309262Y-103275682D01*
X156309261Y-103275682D01*
X156304191Y-103276760D01*
X156299457Y-103278868D01*
X156299453Y-103278869D01*
X156232202Y-103308812D01*
X156129727Y-103354436D01*
X155975226Y-103466688D01*
X155971760Y-103470537D01*
X155971756Y-103470541D01*
X155874107Y-103578992D01*
X155847439Y-103608610D01*
X155844844Y-103613105D01*
X155754546Y-103769504D01*
X155754544Y-103769509D01*
X155751952Y-103773998D01*
X155750350Y-103778929D01*
X155694539Y-103950694D01*
X155694538Y-103950699D01*
X155692937Y-103955626D01*
X155672975Y-104145554D01*
X122936000Y-104145554D01*
X122936000Y-103046543D01*
X166599496Y-103046543D01*
X166619458Y-103236471D01*
X166621059Y-103241398D01*
X166621060Y-103241403D01*
X166633234Y-103278869D01*
X166678473Y-103418099D01*
X166681065Y-103422588D01*
X166681067Y-103422593D01*
X166704767Y-103463642D01*
X166773960Y-103583487D01*
X166777432Y-103587343D01*
X166898277Y-103721556D01*
X166898281Y-103721560D01*
X166901747Y-103725409D01*
X167056248Y-103837661D01*
X167158723Y-103883285D01*
X167225974Y-103913228D01*
X167225978Y-103913229D01*
X167230712Y-103915337D01*
X167235782Y-103916415D01*
X167235783Y-103916415D01*
X167270917Y-103923883D01*
X167417513Y-103955043D01*
X167608487Y-103955043D01*
X167755083Y-103923883D01*
X167790217Y-103916415D01*
X167790218Y-103916415D01*
X167795288Y-103915337D01*
X167800022Y-103913229D01*
X167800026Y-103913228D01*
X167867277Y-103883285D01*
X167969752Y-103837661D01*
X168089809Y-103750434D01*
X168148000Y-103731527D01*
X168206191Y-103750434D01*
X168326248Y-103837661D01*
X168428723Y-103883285D01*
X168495974Y-103913228D01*
X168495978Y-103913229D01*
X168500712Y-103915337D01*
X168505782Y-103916415D01*
X168505783Y-103916415D01*
X168540917Y-103923883D01*
X168687513Y-103955043D01*
X168878487Y-103955043D01*
X169025083Y-103923883D01*
X169060217Y-103916415D01*
X169060218Y-103916415D01*
X169065288Y-103915337D01*
X169070022Y-103913229D01*
X169070026Y-103913228D01*
X169137277Y-103883285D01*
X169239752Y-103837661D01*
X169394253Y-103725409D01*
X169397719Y-103721560D01*
X169397723Y-103721556D01*
X169518568Y-103587343D01*
X169522040Y-103583487D01*
X169591233Y-103463642D01*
X169614933Y-103422593D01*
X169614935Y-103422588D01*
X169617527Y-103418099D01*
X169662766Y-103278869D01*
X169674940Y-103241403D01*
X169674941Y-103241398D01*
X169676542Y-103236471D01*
X169696504Y-103046543D01*
X169676542Y-102856615D01*
X169674941Y-102851688D01*
X169674940Y-102851683D01*
X169619129Y-102679918D01*
X169617527Y-102674987D01*
X169614935Y-102670498D01*
X169614933Y-102670493D01*
X169524635Y-102514094D01*
X169522040Y-102509599D01*
X169463914Y-102445043D01*
X169397723Y-102371530D01*
X169397719Y-102371526D01*
X169394253Y-102367677D01*
X169239752Y-102255425D01*
X169137277Y-102209801D01*
X169070026Y-102179858D01*
X169070022Y-102179857D01*
X169065288Y-102177749D01*
X169060218Y-102176671D01*
X169060217Y-102176671D01*
X168975519Y-102158668D01*
X168878487Y-102138043D01*
X168687513Y-102138043D01*
X168590481Y-102158668D01*
X168505783Y-102176671D01*
X168505782Y-102176671D01*
X168500712Y-102177749D01*
X168495978Y-102179857D01*
X168495974Y-102179858D01*
X168428723Y-102209801D01*
X168326248Y-102255425D01*
X168252520Y-102308992D01*
X168206191Y-102342652D01*
X168148000Y-102361559D01*
X168089809Y-102342652D01*
X168043480Y-102308992D01*
X167969752Y-102255425D01*
X167867277Y-102209801D01*
X167800026Y-102179858D01*
X167800022Y-102179857D01*
X167795288Y-102177749D01*
X167790218Y-102176671D01*
X167790217Y-102176671D01*
X167705519Y-102158668D01*
X167608487Y-102138043D01*
X167417513Y-102138043D01*
X167320481Y-102158668D01*
X167235783Y-102176671D01*
X167235782Y-102176671D01*
X167230712Y-102177749D01*
X167225978Y-102179857D01*
X167225974Y-102179858D01*
X167158723Y-102209801D01*
X167056248Y-102255425D01*
X166901747Y-102367677D01*
X166898281Y-102371526D01*
X166898277Y-102371530D01*
X166832086Y-102445043D01*
X166773960Y-102509599D01*
X166771365Y-102514094D01*
X166681067Y-102670493D01*
X166681065Y-102670498D01*
X166678473Y-102674987D01*
X166676871Y-102679918D01*
X166621060Y-102851683D01*
X166621059Y-102851688D01*
X166619458Y-102856615D01*
X166599496Y-103046543D01*
X122936000Y-103046543D01*
X122936000Y-101429468D01*
X126334645Y-101429468D01*
X126335084Y-101434290D01*
X126348498Y-101581683D01*
X126352570Y-101626431D01*
X126353938Y-101631078D01*
X126396750Y-101776543D01*
X126408410Y-101816162D01*
X126410652Y-101820451D01*
X126410653Y-101820453D01*
X126497798Y-101987145D01*
X126500040Y-101991433D01*
X126623968Y-102145568D01*
X126627673Y-102148677D01*
X126627676Y-102148680D01*
X126664833Y-102179858D01*
X126775474Y-102272697D01*
X126779717Y-102275029D01*
X126779719Y-102275031D01*
X126944539Y-102365641D01*
X126944542Y-102365642D01*
X126948787Y-102367976D01*
X127137306Y-102427778D01*
X127142118Y-102428318D01*
X127142119Y-102428318D01*
X127288471Y-102444734D01*
X127288473Y-102444734D01*
X127291227Y-102445043D01*
X127397769Y-102445043D01*
X127544833Y-102430623D01*
X127734169Y-102373459D01*
X127908796Y-102280609D01*
X128062062Y-102155608D01*
X128073488Y-102141796D01*
X128185047Y-102006945D01*
X128185048Y-102006943D01*
X128188130Y-102003218D01*
X128282198Y-101829244D01*
X128298512Y-101776543D01*
X148184496Y-101776543D01*
X148204458Y-101966471D01*
X148206059Y-101971398D01*
X148206060Y-101971403D01*
X148215015Y-101998962D01*
X148263473Y-102148099D01*
X148266065Y-102152588D01*
X148266067Y-102152593D01*
X148279969Y-102176671D01*
X148358960Y-102313487D01*
X148362432Y-102317343D01*
X148483277Y-102451556D01*
X148483281Y-102451560D01*
X148486747Y-102455409D01*
X148641248Y-102567661D01*
X148743723Y-102613285D01*
X148810974Y-102643228D01*
X148810978Y-102643229D01*
X148815712Y-102645337D01*
X148820782Y-102646415D01*
X148820783Y-102646415D01*
X148855917Y-102653883D01*
X149002513Y-102685043D01*
X149193487Y-102685043D01*
X149340083Y-102653883D01*
X149375217Y-102646415D01*
X149375218Y-102646415D01*
X149380288Y-102645337D01*
X149385022Y-102643229D01*
X149385026Y-102643228D01*
X149452277Y-102613285D01*
X149554752Y-102567661D01*
X149709253Y-102455409D01*
X149712719Y-102451560D01*
X149712723Y-102451556D01*
X149833568Y-102317343D01*
X149837040Y-102313487D01*
X149916031Y-102176671D01*
X149929933Y-102152593D01*
X149929935Y-102152588D01*
X149932527Y-102148099D01*
X149980985Y-101998962D01*
X149989940Y-101971403D01*
X149989941Y-101971398D01*
X149991542Y-101966471D01*
X150011504Y-101776543D01*
X149991542Y-101586615D01*
X149989941Y-101581688D01*
X149989940Y-101581683D01*
X149940481Y-101429468D01*
X149932527Y-101404987D01*
X149929935Y-101400498D01*
X149929933Y-101400493D01*
X149839635Y-101244094D01*
X149837040Y-101239599D01*
X149826576Y-101227977D01*
X149712723Y-101101530D01*
X149712719Y-101101526D01*
X149709253Y-101097677D01*
X149554752Y-100985425D01*
X149452277Y-100939801D01*
X149385026Y-100909858D01*
X149385022Y-100909857D01*
X149380288Y-100907749D01*
X149375218Y-100906671D01*
X149375217Y-100906671D01*
X149340083Y-100899203D01*
X149193487Y-100868043D01*
X149002513Y-100868043D01*
X148855917Y-100899203D01*
X148820783Y-100906671D01*
X148820782Y-100906671D01*
X148815712Y-100907749D01*
X148810978Y-100909857D01*
X148810974Y-100909858D01*
X148743723Y-100939801D01*
X148641248Y-100985425D01*
X148486747Y-101097677D01*
X148483281Y-101101526D01*
X148483277Y-101101530D01*
X148369424Y-101227977D01*
X148358960Y-101239599D01*
X148356365Y-101244094D01*
X148266067Y-101400493D01*
X148266065Y-101400498D01*
X148263473Y-101404987D01*
X148255519Y-101429468D01*
X148206060Y-101581683D01*
X148206059Y-101581688D01*
X148204458Y-101586615D01*
X148184496Y-101776543D01*
X128298512Y-101776543D01*
X128340682Y-101640311D01*
X128341653Y-101631078D01*
X128360849Y-101448434D01*
X128360849Y-101448432D01*
X128361355Y-101443618D01*
X128343430Y-101246655D01*
X128287590Y-101056924D01*
X128249110Y-100983318D01*
X128198202Y-100885941D01*
X128198201Y-100885939D01*
X128195960Y-100881653D01*
X128072032Y-100727518D01*
X128068327Y-100724409D01*
X128068324Y-100724406D01*
X127984090Y-100653726D01*
X127920526Y-100600389D01*
X127916283Y-100598057D01*
X127916281Y-100598055D01*
X127751461Y-100507445D01*
X127751458Y-100507444D01*
X127747213Y-100505110D01*
X127558694Y-100445308D01*
X127553882Y-100444768D01*
X127553881Y-100444768D01*
X127407529Y-100428352D01*
X127407527Y-100428352D01*
X127404773Y-100428043D01*
X127298231Y-100428043D01*
X127151167Y-100442463D01*
X126961831Y-100499627D01*
X126787204Y-100592477D01*
X126633938Y-100717478D01*
X126507870Y-100869868D01*
X126413802Y-101043842D01*
X126355318Y-101232775D01*
X126354813Y-101237583D01*
X126354812Y-101237586D01*
X126354128Y-101244094D01*
X126334645Y-101429468D01*
X122936000Y-101429468D01*
X122936000Y-99787041D01*
X164694496Y-99787041D01*
X164714458Y-99976969D01*
X164716059Y-99981896D01*
X164716060Y-99981901D01*
X164756748Y-100107124D01*
X164773473Y-100158597D01*
X164776065Y-100163086D01*
X164776067Y-100163091D01*
X164844713Y-100281989D01*
X164868960Y-100323985D01*
X164872432Y-100327841D01*
X164993277Y-100462054D01*
X164993281Y-100462058D01*
X164996747Y-100465907D01*
X165151248Y-100578159D01*
X165201178Y-100600389D01*
X165320974Y-100653726D01*
X165320978Y-100653727D01*
X165325712Y-100655835D01*
X165330782Y-100656913D01*
X165330783Y-100656913D01*
X165365917Y-100664381D01*
X165512513Y-100695541D01*
X165703487Y-100695541D01*
X165850083Y-100664381D01*
X165885217Y-100656913D01*
X165885218Y-100656913D01*
X165890288Y-100655835D01*
X165895022Y-100653727D01*
X165895026Y-100653726D01*
X166014822Y-100600389D01*
X166064752Y-100578159D01*
X166219253Y-100465907D01*
X166222719Y-100462058D01*
X166222723Y-100462054D01*
X166343568Y-100327841D01*
X166347040Y-100323985D01*
X166371287Y-100281989D01*
X166439933Y-100163091D01*
X166439935Y-100163086D01*
X166442527Y-100158597D01*
X166459252Y-100107124D01*
X166499940Y-99981901D01*
X166499941Y-99981896D01*
X166501542Y-99976969D01*
X166521504Y-99787041D01*
X166501542Y-99597113D01*
X166499941Y-99592186D01*
X166499940Y-99592181D01*
X166444129Y-99420416D01*
X166442527Y-99415485D01*
X166439935Y-99410996D01*
X166439933Y-99410991D01*
X166349635Y-99254592D01*
X166347040Y-99250097D01*
X166336576Y-99238475D01*
X166222723Y-99112028D01*
X166222719Y-99112024D01*
X166219253Y-99108175D01*
X166064752Y-98995923D01*
X165962277Y-98950299D01*
X165895026Y-98920356D01*
X165895022Y-98920355D01*
X165890288Y-98918247D01*
X165885218Y-98917169D01*
X165885217Y-98917169D01*
X165826272Y-98904640D01*
X165703487Y-98878541D01*
X165512513Y-98878541D01*
X165389728Y-98904640D01*
X165330783Y-98917169D01*
X165330782Y-98917169D01*
X165325712Y-98918247D01*
X165320978Y-98920355D01*
X165320974Y-98920356D01*
X165253723Y-98950299D01*
X165151248Y-98995923D01*
X164996747Y-99108175D01*
X164993281Y-99112024D01*
X164993277Y-99112028D01*
X164879424Y-99238475D01*
X164868960Y-99250097D01*
X164866365Y-99254592D01*
X164776067Y-99410991D01*
X164776065Y-99410996D01*
X164773473Y-99415485D01*
X164771871Y-99420416D01*
X164716060Y-99592181D01*
X164716059Y-99592186D01*
X164714458Y-99597113D01*
X164694496Y-99787041D01*
X122936000Y-99787041D01*
X122936000Y-98111415D01*
X134640124Y-98111415D01*
X134660086Y-98301343D01*
X134661687Y-98306270D01*
X134661688Y-98306275D01*
X134691333Y-98397510D01*
X134719101Y-98482971D01*
X134721693Y-98487460D01*
X134721695Y-98487465D01*
X134755054Y-98545244D01*
X134814588Y-98648359D01*
X134818060Y-98652215D01*
X134938905Y-98786428D01*
X134938909Y-98786432D01*
X134942375Y-98790281D01*
X135096876Y-98902533D01*
X135199351Y-98948157D01*
X135266602Y-98978100D01*
X135266606Y-98978101D01*
X135271340Y-98980209D01*
X135276410Y-98981287D01*
X135276411Y-98981287D01*
X135311545Y-98988755D01*
X135458141Y-99019915D01*
X135649115Y-99019915D01*
X135795711Y-98988755D01*
X135830845Y-98981287D01*
X135830846Y-98981287D01*
X135835916Y-98980209D01*
X135840650Y-98978101D01*
X135840654Y-98978100D01*
X135907905Y-98948157D01*
X136010380Y-98902533D01*
X136164881Y-98790281D01*
X136168347Y-98786432D01*
X136168351Y-98786428D01*
X136289196Y-98652215D01*
X136292668Y-98648359D01*
X136352202Y-98545244D01*
X136385561Y-98487465D01*
X136385563Y-98487460D01*
X136388155Y-98482971D01*
X136393696Y-98465918D01*
X136429659Y-98416418D01*
X136487850Y-98397510D01*
X136546041Y-98416417D01*
X136561424Y-98430268D01*
X136563143Y-98432178D01*
X136563150Y-98432184D01*
X136566619Y-98436037D01*
X136721120Y-98548289D01*
X136823595Y-98593913D01*
X136890846Y-98623856D01*
X136890850Y-98623857D01*
X136895584Y-98625965D01*
X136900654Y-98627043D01*
X136900655Y-98627043D01*
X136935789Y-98634511D01*
X137082385Y-98665671D01*
X137273359Y-98665671D01*
X137419955Y-98634511D01*
X137455089Y-98627043D01*
X137455090Y-98627043D01*
X137460160Y-98625965D01*
X137464894Y-98623857D01*
X137464898Y-98623856D01*
X137515012Y-98601543D01*
X167234496Y-98601543D01*
X167254458Y-98791471D01*
X167256059Y-98796398D01*
X167256060Y-98796403D01*
X167291229Y-98904640D01*
X167313473Y-98973099D01*
X167316065Y-98977588D01*
X167316067Y-98977593D01*
X167339879Y-99018836D01*
X167408960Y-99138487D01*
X167412432Y-99142343D01*
X167533277Y-99276556D01*
X167533281Y-99276560D01*
X167536747Y-99280409D01*
X167691248Y-99392661D01*
X167793723Y-99438285D01*
X167860974Y-99468228D01*
X167860978Y-99468229D01*
X167865712Y-99470337D01*
X167870782Y-99471415D01*
X167870783Y-99471415D01*
X167905917Y-99478883D01*
X168052513Y-99510043D01*
X168243487Y-99510043D01*
X168390083Y-99478883D01*
X168425217Y-99471415D01*
X168425218Y-99471415D01*
X168430288Y-99470337D01*
X168435022Y-99468229D01*
X168435026Y-99468228D01*
X168502277Y-99438285D01*
X168604752Y-99392661D01*
X168759253Y-99280409D01*
X168762719Y-99276560D01*
X168762723Y-99276556D01*
X168883568Y-99142343D01*
X168887040Y-99138487D01*
X168956121Y-99018836D01*
X168979933Y-98977593D01*
X168979935Y-98977588D01*
X168982527Y-98973099D01*
X169004771Y-98904640D01*
X169039940Y-98796403D01*
X169039941Y-98796398D01*
X169041542Y-98791471D01*
X169061504Y-98601543D01*
X169041542Y-98411615D01*
X169039941Y-98406688D01*
X169039940Y-98406683D01*
X168984129Y-98234918D01*
X168982527Y-98229987D01*
X168979935Y-98225498D01*
X168979933Y-98225493D01*
X168889635Y-98069094D01*
X168887040Y-98064599D01*
X168869217Y-98044805D01*
X168762723Y-97926530D01*
X168762719Y-97926526D01*
X168759253Y-97922677D01*
X168604752Y-97810425D01*
X168496724Y-97762328D01*
X168435026Y-97734858D01*
X168435022Y-97734857D01*
X168430288Y-97732749D01*
X168425218Y-97731671D01*
X168425217Y-97731671D01*
X168390083Y-97724203D01*
X168243487Y-97693043D01*
X168052513Y-97693043D01*
X167905917Y-97724203D01*
X167870783Y-97731671D01*
X167870782Y-97731671D01*
X167865712Y-97732749D01*
X167860978Y-97734857D01*
X167860974Y-97734858D01*
X167799276Y-97762328D01*
X167691248Y-97810425D01*
X167536747Y-97922677D01*
X167533281Y-97926526D01*
X167533277Y-97926530D01*
X167426783Y-98044805D01*
X167408960Y-98064599D01*
X167406365Y-98069094D01*
X167316067Y-98225493D01*
X167316065Y-98225498D01*
X167313473Y-98229987D01*
X167311871Y-98234918D01*
X167256060Y-98406683D01*
X167256059Y-98406688D01*
X167254458Y-98411615D01*
X167234496Y-98601543D01*
X137515012Y-98601543D01*
X137532149Y-98593913D01*
X137634624Y-98548289D01*
X137789125Y-98436037D01*
X137792591Y-98432188D01*
X137792595Y-98432184D01*
X137913440Y-98297971D01*
X137916912Y-98294115D01*
X137941159Y-98252119D01*
X138009805Y-98133221D01*
X138009807Y-98133216D01*
X138012399Y-98128727D01*
X138044275Y-98030623D01*
X138069812Y-97952031D01*
X138069813Y-97952026D01*
X138071414Y-97947099D01*
X138091376Y-97757171D01*
X138090157Y-97745568D01*
X138083421Y-97681483D01*
X138071414Y-97567243D01*
X138069813Y-97562316D01*
X138069812Y-97562311D01*
X138014001Y-97390546D01*
X138012399Y-97385615D01*
X138009807Y-97381126D01*
X138009805Y-97381121D01*
X137929218Y-97241541D01*
X137916912Y-97220227D01*
X137900421Y-97201912D01*
X137792595Y-97082158D01*
X137792591Y-97082154D01*
X137789125Y-97078305D01*
X137634624Y-96966053D01*
X137500151Y-96906182D01*
X137464898Y-96890486D01*
X137464894Y-96890485D01*
X137460160Y-96888377D01*
X137459600Y-96888258D01*
X139737779Y-96888258D01*
X139757741Y-97078186D01*
X139759342Y-97083113D01*
X139759343Y-97083118D01*
X139795701Y-97195013D01*
X139816756Y-97259814D01*
X139819348Y-97264303D01*
X139819350Y-97264308D01*
X139844618Y-97308073D01*
X139912243Y-97425202D01*
X139915715Y-97429058D01*
X140036560Y-97563271D01*
X140036564Y-97563275D01*
X140040030Y-97567124D01*
X140194531Y-97679376D01*
X140297006Y-97725000D01*
X140364257Y-97754943D01*
X140364261Y-97754944D01*
X140368995Y-97757052D01*
X140374065Y-97758130D01*
X140374066Y-97758130D01*
X140393816Y-97762328D01*
X140555796Y-97796758D01*
X140746770Y-97796758D01*
X140908750Y-97762328D01*
X140928500Y-97758130D01*
X140928501Y-97758130D01*
X140933571Y-97757052D01*
X140938305Y-97754944D01*
X140938309Y-97754943D01*
X141005560Y-97725000D01*
X141108035Y-97679376D01*
X141262536Y-97567124D01*
X141266002Y-97563275D01*
X141266006Y-97563271D01*
X141386851Y-97429058D01*
X141390323Y-97425202D01*
X141457948Y-97308073D01*
X141483216Y-97264308D01*
X141483218Y-97264303D01*
X141485810Y-97259814D01*
X141506865Y-97195013D01*
X141543223Y-97083118D01*
X141543224Y-97083113D01*
X141544825Y-97078186D01*
X141564787Y-96888258D01*
X141544825Y-96698330D01*
X141543224Y-96693403D01*
X141543223Y-96693398D01*
X141487412Y-96521633D01*
X141485810Y-96516702D01*
X141483218Y-96512213D01*
X141483216Y-96512208D01*
X141392918Y-96355809D01*
X141390323Y-96351314D01*
X141271879Y-96219768D01*
X141266006Y-96213245D01*
X141266002Y-96213241D01*
X141262536Y-96209392D01*
X141108035Y-96097140D01*
X140984168Y-96041991D01*
X140938309Y-96021573D01*
X140938305Y-96021572D01*
X140933571Y-96019464D01*
X140928501Y-96018386D01*
X140928500Y-96018386D01*
X140893366Y-96010918D01*
X140746770Y-95979758D01*
X140555796Y-95979758D01*
X140409200Y-96010918D01*
X140374066Y-96018386D01*
X140374065Y-96018386D01*
X140368995Y-96019464D01*
X140364261Y-96021572D01*
X140364257Y-96021573D01*
X140318398Y-96041991D01*
X140194531Y-96097140D01*
X140040030Y-96209392D01*
X140036564Y-96213241D01*
X140036560Y-96213245D01*
X140030687Y-96219768D01*
X139912243Y-96351314D01*
X139909648Y-96355809D01*
X139819350Y-96512208D01*
X139819348Y-96512213D01*
X139816756Y-96516702D01*
X139815154Y-96521633D01*
X139759343Y-96693398D01*
X139759342Y-96693403D01*
X139757741Y-96698330D01*
X139737779Y-96888258D01*
X137459600Y-96888258D01*
X137455090Y-96887299D01*
X137455089Y-96887299D01*
X137419955Y-96879831D01*
X137273359Y-96848671D01*
X137082385Y-96848671D01*
X136935789Y-96879831D01*
X136900655Y-96887299D01*
X136900654Y-96887299D01*
X136895584Y-96888377D01*
X136890850Y-96890485D01*
X136890846Y-96890486D01*
X136801245Y-96930379D01*
X136740394Y-96936775D01*
X136687406Y-96906182D01*
X136662520Y-96850286D01*
X136662520Y-96829590D01*
X136675962Y-96701700D01*
X136676504Y-96696543D01*
X136656542Y-96506615D01*
X136654940Y-96501684D01*
X136654939Y-96501680D01*
X136618965Y-96390963D01*
X136618965Y-96329778D01*
X136654929Y-96280278D01*
X136672853Y-96269930D01*
X136790252Y-96217661D01*
X136944753Y-96105409D01*
X136948219Y-96101560D01*
X136948223Y-96101556D01*
X137069068Y-95967343D01*
X137072540Y-95963487D01*
X137136240Y-95853156D01*
X137165433Y-95802593D01*
X137165435Y-95802588D01*
X137168027Y-95798099D01*
X137225439Y-95621406D01*
X137225440Y-95621403D01*
X137225441Y-95621398D01*
X137227042Y-95616471D01*
X137247004Y-95426543D01*
X137227042Y-95236615D01*
X137225441Y-95231688D01*
X137225440Y-95231683D01*
X137169629Y-95059918D01*
X137168027Y-95054987D01*
X137165435Y-95050498D01*
X137165433Y-95050493D01*
X137075135Y-94894094D01*
X137072540Y-94889599D01*
X137020278Y-94831556D01*
X136948223Y-94751530D01*
X136948219Y-94751526D01*
X136944753Y-94747677D01*
X136790252Y-94635425D01*
X136687777Y-94589801D01*
X136620526Y-94559858D01*
X136620522Y-94559857D01*
X136615788Y-94557749D01*
X136610718Y-94556671D01*
X136610717Y-94556671D01*
X136575583Y-94549203D01*
X136428987Y-94518043D01*
X136238013Y-94518043D01*
X136091417Y-94549203D01*
X136056283Y-94556671D01*
X136056282Y-94556671D01*
X136051212Y-94557749D01*
X136046478Y-94559857D01*
X136046474Y-94559858D01*
X135979223Y-94589801D01*
X135876748Y-94635425D01*
X135722247Y-94747677D01*
X135718781Y-94751526D01*
X135718777Y-94751530D01*
X135646722Y-94831556D01*
X135594460Y-94889599D01*
X135591865Y-94894094D01*
X135501567Y-95050493D01*
X135501565Y-95050498D01*
X135498973Y-95054987D01*
X135497371Y-95059918D01*
X135441560Y-95231683D01*
X135441559Y-95231688D01*
X135439958Y-95236615D01*
X135419996Y-95426543D01*
X135439958Y-95616471D01*
X135441560Y-95621402D01*
X135441561Y-95621406D01*
X135477535Y-95732123D01*
X135477535Y-95793308D01*
X135441571Y-95842808D01*
X135423648Y-95853155D01*
X135306248Y-95905425D01*
X135151747Y-96017677D01*
X135148281Y-96021526D01*
X135148277Y-96021530D01*
X135070010Y-96108455D01*
X135023960Y-96159599D01*
X135021365Y-96164094D01*
X134931067Y-96320493D01*
X134931065Y-96320498D01*
X134928473Y-96324987D01*
X134926871Y-96329918D01*
X134871060Y-96501683D01*
X134871059Y-96501688D01*
X134869458Y-96506615D01*
X134849496Y-96696543D01*
X134869458Y-96886471D01*
X134871059Y-96891398D01*
X134871060Y-96891403D01*
X134885803Y-96936775D01*
X134928473Y-97068099D01*
X134931065Y-97072588D01*
X134931067Y-97072593D01*
X134937144Y-97083118D01*
X135023960Y-97233487D01*
X135027433Y-97237344D01*
X135030482Y-97241541D01*
X135029223Y-97242455D01*
X135051363Y-97292170D01*
X135038646Y-97352020D01*
X135011097Y-97382618D01*
X134946574Y-97429497D01*
X134946567Y-97429503D01*
X134942375Y-97432549D01*
X134938909Y-97436398D01*
X134938905Y-97436402D01*
X134892752Y-97487661D01*
X134814588Y-97574471D01*
X134811993Y-97578966D01*
X134721695Y-97735365D01*
X134721693Y-97735370D01*
X134719101Y-97739859D01*
X134715152Y-97752014D01*
X134661688Y-97916555D01*
X134661687Y-97916560D01*
X134660086Y-97921487D01*
X134640124Y-98111415D01*
X122936000Y-98111415D01*
X122936000Y-97029468D01*
X126334645Y-97029468D01*
X126337712Y-97063168D01*
X126350339Y-97201912D01*
X126352570Y-97226431D01*
X126353938Y-97231078D01*
X126400673Y-97389872D01*
X126408410Y-97416162D01*
X126410652Y-97420451D01*
X126410653Y-97420453D01*
X126490090Y-97572401D01*
X126500040Y-97591433D01*
X126512512Y-97606945D01*
X126615765Y-97735365D01*
X126623968Y-97745568D01*
X126627673Y-97748677D01*
X126627676Y-97748680D01*
X126683688Y-97795679D01*
X126775474Y-97872697D01*
X126779717Y-97875029D01*
X126779719Y-97875031D01*
X126944539Y-97965641D01*
X126944542Y-97965642D01*
X126948787Y-97967976D01*
X127137306Y-98027778D01*
X127142118Y-98028318D01*
X127142119Y-98028318D01*
X127288471Y-98044734D01*
X127288473Y-98044734D01*
X127291227Y-98045043D01*
X127397769Y-98045043D01*
X127544833Y-98030623D01*
X127734169Y-97973459D01*
X127908796Y-97880609D01*
X128062062Y-97755608D01*
X128070368Y-97745568D01*
X128185047Y-97606945D01*
X128185048Y-97606943D01*
X128188130Y-97603218D01*
X128282198Y-97429244D01*
X128306103Y-97352020D01*
X128339252Y-97244932D01*
X128339253Y-97244928D01*
X128340682Y-97240311D01*
X128341400Y-97233487D01*
X128360849Y-97048434D01*
X128360849Y-97048432D01*
X128361355Y-97043618D01*
X128351632Y-96936775D01*
X128343869Y-96851476D01*
X128343869Y-96851473D01*
X128343430Y-96846655D01*
X128299776Y-96698330D01*
X128288958Y-96661571D01*
X128288957Y-96661568D01*
X128287590Y-96656924D01*
X128218704Y-96525157D01*
X128216008Y-96520000D01*
X130531496Y-96520000D01*
X130551458Y-96709928D01*
X130553059Y-96714855D01*
X130553060Y-96714860D01*
X130589872Y-96828154D01*
X130610473Y-96891556D01*
X130613065Y-96896045D01*
X130613067Y-96896050D01*
X130636580Y-96936775D01*
X130705960Y-97056944D01*
X130709432Y-97060800D01*
X130830277Y-97195013D01*
X130830281Y-97195017D01*
X130833747Y-97198866D01*
X130988248Y-97311118D01*
X131080116Y-97352020D01*
X131157974Y-97386685D01*
X131157978Y-97386686D01*
X131162712Y-97388794D01*
X131167782Y-97389872D01*
X131167783Y-97389872D01*
X131170954Y-97390546D01*
X131349513Y-97428500D01*
X131540487Y-97428500D01*
X131719046Y-97390546D01*
X131722217Y-97389872D01*
X131722218Y-97389872D01*
X131727288Y-97388794D01*
X131732022Y-97386686D01*
X131732026Y-97386685D01*
X131809884Y-97352020D01*
X131901752Y-97311118D01*
X132056253Y-97198866D01*
X132059719Y-97195017D01*
X132059723Y-97195013D01*
X132180568Y-97060800D01*
X132184040Y-97056944D01*
X132253420Y-96936775D01*
X132276933Y-96896050D01*
X132276935Y-96896045D01*
X132279527Y-96891556D01*
X132300128Y-96828154D01*
X132336940Y-96714860D01*
X132336941Y-96714855D01*
X132338542Y-96709928D01*
X132358504Y-96520000D01*
X132338542Y-96330072D01*
X132336941Y-96325145D01*
X132336940Y-96325140D01*
X132284612Y-96164094D01*
X132279527Y-96148444D01*
X132276935Y-96143955D01*
X132276933Y-96143950D01*
X132186635Y-95987551D01*
X132184040Y-95983056D01*
X132067078Y-95853156D01*
X132059723Y-95844987D01*
X132059719Y-95844983D01*
X132056253Y-95841134D01*
X131901752Y-95728882D01*
X131799277Y-95683258D01*
X131732026Y-95653315D01*
X131732022Y-95653314D01*
X131727288Y-95651206D01*
X131722218Y-95650128D01*
X131722217Y-95650128D01*
X131687083Y-95642660D01*
X131540487Y-95611500D01*
X131349513Y-95611500D01*
X131202917Y-95642660D01*
X131167783Y-95650128D01*
X131167782Y-95650128D01*
X131162712Y-95651206D01*
X131157978Y-95653314D01*
X131157974Y-95653315D01*
X131090723Y-95683258D01*
X130988248Y-95728882D01*
X130833747Y-95841134D01*
X130830281Y-95844983D01*
X130830277Y-95844987D01*
X130822922Y-95853156D01*
X130705960Y-95983056D01*
X130703365Y-95987551D01*
X130613067Y-96143950D01*
X130613065Y-96143955D01*
X130610473Y-96148444D01*
X130605388Y-96164094D01*
X130553060Y-96325140D01*
X130553059Y-96325145D01*
X130551458Y-96330072D01*
X130531496Y-96520000D01*
X128216008Y-96520000D01*
X128198202Y-96485941D01*
X128198201Y-96485939D01*
X128195960Y-96481653D01*
X128072032Y-96327518D01*
X128068327Y-96324409D01*
X128068324Y-96324406D01*
X128003401Y-96269930D01*
X127920526Y-96200389D01*
X127916283Y-96198057D01*
X127916281Y-96198055D01*
X127751461Y-96107445D01*
X127751458Y-96107444D01*
X127747213Y-96105110D01*
X127558694Y-96045308D01*
X127553882Y-96044768D01*
X127553881Y-96044768D01*
X127407529Y-96028352D01*
X127407527Y-96028352D01*
X127404773Y-96028043D01*
X127298231Y-96028043D01*
X127151167Y-96042463D01*
X126961831Y-96099627D01*
X126787204Y-96192477D01*
X126633938Y-96317478D01*
X126630854Y-96321206D01*
X126630853Y-96321207D01*
X126623763Y-96329778D01*
X126507870Y-96469868D01*
X126413802Y-96643842D01*
X126355318Y-96832775D01*
X126354813Y-96837583D01*
X126354812Y-96837586D01*
X126341310Y-96966053D01*
X126334645Y-97029468D01*
X122936000Y-97029468D01*
X122936000Y-92251543D01*
X144374496Y-92251543D01*
X144394458Y-92441471D01*
X144396059Y-92446398D01*
X144396060Y-92446403D01*
X144436748Y-92571626D01*
X144453473Y-92623099D01*
X144456065Y-92627588D01*
X144456067Y-92627593D01*
X144524713Y-92746491D01*
X144548960Y-92788487D01*
X144552432Y-92792343D01*
X144673277Y-92926556D01*
X144673281Y-92926560D01*
X144676747Y-92930409D01*
X144831248Y-93042661D01*
X144933497Y-93088185D01*
X145000974Y-93118228D01*
X145000978Y-93118229D01*
X145005712Y-93120337D01*
X145010782Y-93121415D01*
X145010783Y-93121415D01*
X145045917Y-93128883D01*
X145192513Y-93160043D01*
X145383487Y-93160043D01*
X145530083Y-93128883D01*
X145565217Y-93121415D01*
X145565218Y-93121415D01*
X145570288Y-93120337D01*
X145575022Y-93118229D01*
X145575026Y-93118228D01*
X145642503Y-93088185D01*
X145744752Y-93042661D01*
X145899253Y-92930409D01*
X145902719Y-92926560D01*
X145902723Y-92926556D01*
X146023568Y-92792343D01*
X146027040Y-92788487D01*
X146051287Y-92746491D01*
X146119933Y-92627593D01*
X146119935Y-92627588D01*
X146122527Y-92623099D01*
X146139252Y-92571626D01*
X146179940Y-92446403D01*
X146179941Y-92446398D01*
X146181542Y-92441471D01*
X146201504Y-92251543D01*
X146181542Y-92061615D01*
X146179941Y-92056688D01*
X146179940Y-92056683D01*
X146124129Y-91884918D01*
X146122527Y-91879987D01*
X146119935Y-91875498D01*
X146119933Y-91875493D01*
X146029635Y-91719094D01*
X146027040Y-91714599D01*
X146016576Y-91702977D01*
X145902723Y-91576530D01*
X145902719Y-91576526D01*
X145899253Y-91572677D01*
X145744752Y-91460425D01*
X145602245Y-91396977D01*
X145575026Y-91384858D01*
X145575022Y-91384857D01*
X145570288Y-91382749D01*
X145565218Y-91381671D01*
X145565217Y-91381671D01*
X145530083Y-91374203D01*
X145383487Y-91343043D01*
X145192513Y-91343043D01*
X145045917Y-91374203D01*
X145010783Y-91381671D01*
X145010782Y-91381671D01*
X145005712Y-91382749D01*
X145000978Y-91384857D01*
X145000974Y-91384858D01*
X144973755Y-91396977D01*
X144831248Y-91460425D01*
X144676747Y-91572677D01*
X144673281Y-91576526D01*
X144673277Y-91576530D01*
X144559424Y-91702977D01*
X144548960Y-91714599D01*
X144546365Y-91719094D01*
X144456067Y-91875493D01*
X144456065Y-91875498D01*
X144453473Y-91879987D01*
X144451871Y-91884918D01*
X144396060Y-92056683D01*
X144396059Y-92056688D01*
X144394458Y-92061615D01*
X144374496Y-92251543D01*
X122936000Y-92251543D01*
X122936000Y-90346543D01*
X140564496Y-90346543D01*
X140584458Y-90536471D01*
X140586059Y-90541398D01*
X140586060Y-90541403D01*
X140598413Y-90579421D01*
X140643473Y-90718099D01*
X140646065Y-90722588D01*
X140646067Y-90722593D01*
X140696868Y-90810582D01*
X140738960Y-90883487D01*
X140742432Y-90887343D01*
X140863277Y-91021556D01*
X140863281Y-91021560D01*
X140866747Y-91025409D01*
X141021248Y-91137661D01*
X141123723Y-91183285D01*
X141190974Y-91213228D01*
X141190978Y-91213229D01*
X141195712Y-91215337D01*
X141200782Y-91216415D01*
X141200783Y-91216415D01*
X141235917Y-91223883D01*
X141382513Y-91255043D01*
X141573487Y-91255043D01*
X141720083Y-91223883D01*
X141755217Y-91216415D01*
X141755218Y-91216415D01*
X141760288Y-91215337D01*
X141765022Y-91213229D01*
X141765026Y-91213228D01*
X141794974Y-91199894D01*
X150624719Y-91199894D01*
X150625839Y-91213228D01*
X150639983Y-91381671D01*
X150641268Y-91396977D01*
X150642601Y-91401625D01*
X150642601Y-91401626D01*
X150676111Y-91518487D01*
X150695783Y-91587093D01*
X150697998Y-91591403D01*
X150709867Y-91614497D01*
X150719650Y-91674895D01*
X150701036Y-91719121D01*
X150691615Y-91731692D01*
X150691611Y-91731699D01*
X150687385Y-91737338D01*
X150684911Y-91743936D01*
X150684911Y-91743937D01*
X150674143Y-91772661D01*
X150636255Y-91873727D01*
X150635585Y-91879899D01*
X150635584Y-91879901D01*
X150631676Y-91915880D01*
X150629500Y-91935909D01*
X150629500Y-93032177D01*
X150636255Y-93094359D01*
X150687385Y-93230748D01*
X150774739Y-93347304D01*
X150891295Y-93434658D01*
X150897902Y-93437135D01*
X150898894Y-93437678D01*
X150940857Y-93482206D01*
X150948633Y-93542895D01*
X150924925Y-93590761D01*
X150902432Y-93615742D01*
X150902429Y-93615747D01*
X150898960Y-93619599D01*
X150896367Y-93624091D01*
X150806067Y-93780493D01*
X150806065Y-93780498D01*
X150803473Y-93784987D01*
X150801871Y-93789918D01*
X150746060Y-93961683D01*
X150746059Y-93961688D01*
X150744458Y-93966615D01*
X150724496Y-94156543D01*
X150744458Y-94346471D01*
X150746059Y-94351398D01*
X150746060Y-94351403D01*
X150786748Y-94476626D01*
X150803473Y-94528099D01*
X150806065Y-94532588D01*
X150806067Y-94532593D01*
X150819969Y-94556671D01*
X150898960Y-94693487D01*
X150902432Y-94697343D01*
X151023277Y-94831556D01*
X151023281Y-94831560D01*
X151026747Y-94835409D01*
X151181248Y-94947661D01*
X151283723Y-94993285D01*
X151350974Y-95023228D01*
X151350978Y-95023229D01*
X151355712Y-95025337D01*
X151360782Y-95026415D01*
X151360783Y-95026415D01*
X151395917Y-95033883D01*
X151542513Y-95065043D01*
X151733487Y-95065043D01*
X151880083Y-95033883D01*
X151915217Y-95026415D01*
X151915218Y-95026415D01*
X151920288Y-95025337D01*
X151925022Y-95023229D01*
X151925026Y-95023228D01*
X151992277Y-94993285D01*
X152094752Y-94947661D01*
X152249253Y-94835409D01*
X152252719Y-94831560D01*
X152252723Y-94831556D01*
X152373568Y-94697343D01*
X152377040Y-94693487D01*
X152456031Y-94556671D01*
X152469933Y-94532593D01*
X152469935Y-94532588D01*
X152472527Y-94528099D01*
X152489252Y-94476626D01*
X152529940Y-94351403D01*
X152529941Y-94351398D01*
X152531542Y-94346471D01*
X152551504Y-94156543D01*
X152531542Y-93966615D01*
X152529941Y-93961688D01*
X152529940Y-93961683D01*
X152474129Y-93789918D01*
X152472527Y-93784987D01*
X152469935Y-93780498D01*
X152469933Y-93780493D01*
X152379633Y-93624091D01*
X152377040Y-93619599D01*
X152373571Y-93615747D01*
X152373568Y-93615742D01*
X152351075Y-93590761D01*
X152326188Y-93534866D01*
X152338909Y-93475017D01*
X152377106Y-93437678D01*
X152378098Y-93437135D01*
X152384705Y-93434658D01*
X152501261Y-93347304D01*
X152588615Y-93230748D01*
X152639745Y-93094359D01*
X152646500Y-93032177D01*
X152646500Y-91935909D01*
X152644324Y-91915880D01*
X152640416Y-91879901D01*
X152640415Y-91879899D01*
X152639745Y-91873727D01*
X152588615Y-91737338D01*
X152576538Y-91721224D01*
X152556769Y-91663321D01*
X152564328Y-91626408D01*
X152563769Y-91626222D01*
X152624670Y-91443147D01*
X152624670Y-91443145D01*
X152626197Y-91438556D01*
X152632059Y-91392158D01*
X152650637Y-91245091D01*
X152650985Y-91242338D01*
X152651380Y-91214043D01*
X152650466Y-91204714D01*
X152641705Y-91115370D01*
X152632080Y-91017210D01*
X152621311Y-90981543D01*
X158979496Y-90981543D01*
X158999458Y-91171471D01*
X159001059Y-91176398D01*
X159001060Y-91176403D01*
X159021583Y-91239564D01*
X159058473Y-91353099D01*
X159061065Y-91357588D01*
X159061067Y-91357593D01*
X159107812Y-91438556D01*
X159153960Y-91518487D01*
X159157432Y-91522343D01*
X159278277Y-91656556D01*
X159278281Y-91656560D01*
X159281747Y-91660409D01*
X159436248Y-91772661D01*
X159538723Y-91818285D01*
X159605974Y-91848228D01*
X159605978Y-91848229D01*
X159610712Y-91850337D01*
X159615782Y-91851415D01*
X159615783Y-91851415D01*
X159650917Y-91858883D01*
X159797513Y-91890043D01*
X159988487Y-91890043D01*
X160135083Y-91858883D01*
X160170217Y-91851415D01*
X160170218Y-91851415D01*
X160175288Y-91850337D01*
X160180022Y-91848229D01*
X160180026Y-91848228D01*
X160247277Y-91818285D01*
X160349752Y-91772661D01*
X160504253Y-91660409D01*
X160507719Y-91656560D01*
X160507723Y-91656556D01*
X160628568Y-91522343D01*
X160632040Y-91518487D01*
X160678188Y-91438556D01*
X160724933Y-91357593D01*
X160724935Y-91357588D01*
X160727527Y-91353099D01*
X160764417Y-91239564D01*
X160784940Y-91176403D01*
X160784941Y-91176398D01*
X160786542Y-91171471D01*
X160806504Y-90981543D01*
X160786542Y-90791615D01*
X160784941Y-90786688D01*
X160784940Y-90786683D01*
X160729129Y-90614918D01*
X160727527Y-90609987D01*
X160724935Y-90605498D01*
X160724933Y-90605493D01*
X160634635Y-90449094D01*
X160632040Y-90444599D01*
X160621576Y-90432977D01*
X160507723Y-90306530D01*
X160507719Y-90306526D01*
X160504253Y-90302677D01*
X160349752Y-90190425D01*
X160207245Y-90126977D01*
X160180026Y-90114858D01*
X160180022Y-90114857D01*
X160175288Y-90112749D01*
X160170218Y-90111671D01*
X160170217Y-90111671D01*
X160135083Y-90104203D01*
X159988487Y-90073043D01*
X159797513Y-90073043D01*
X159650917Y-90104203D01*
X159615783Y-90111671D01*
X159615782Y-90111671D01*
X159610712Y-90112749D01*
X159605978Y-90114857D01*
X159605974Y-90114858D01*
X159578755Y-90126977D01*
X159436248Y-90190425D01*
X159281747Y-90302677D01*
X159278281Y-90306526D01*
X159278277Y-90306530D01*
X159164424Y-90432977D01*
X159153960Y-90444599D01*
X159151365Y-90449094D01*
X159061067Y-90605493D01*
X159061065Y-90605498D01*
X159058473Y-90609987D01*
X159056871Y-90614918D01*
X159001060Y-90786683D01*
X159001059Y-90786688D01*
X158999458Y-90791615D01*
X158979496Y-90981543D01*
X152621311Y-90981543D01*
X152574916Y-90827874D01*
X152482066Y-90653247D01*
X152479010Y-90649500D01*
X152479004Y-90649491D01*
X152473373Y-90642587D01*
X152451247Y-90585542D01*
X152467464Y-90528975D01*
X152466078Y-90528188D01*
X152561381Y-90360426D01*
X152561382Y-90360424D01*
X152563769Y-90356222D01*
X152626197Y-90168556D01*
X152627706Y-90156615D01*
X152650637Y-89975091D01*
X152650985Y-89972338D01*
X152651380Y-89944043D01*
X152650466Y-89934714D01*
X152638197Y-89809599D01*
X152632080Y-89747210D01*
X152574916Y-89557874D01*
X152482066Y-89383247D01*
X152479010Y-89379500D01*
X152479004Y-89379491D01*
X152473373Y-89372587D01*
X152451247Y-89315542D01*
X152467464Y-89258975D01*
X152466078Y-89258188D01*
X152561381Y-89090426D01*
X152561382Y-89090424D01*
X152563769Y-89086222D01*
X152626197Y-88898556D01*
X152632059Y-88852158D01*
X152650637Y-88705091D01*
X152650985Y-88702338D01*
X152651380Y-88674043D01*
X152650466Y-88664714D01*
X152637587Y-88533375D01*
X152632080Y-88477210D01*
X152574916Y-88287874D01*
X152482066Y-88113247D01*
X152479010Y-88109500D01*
X152479004Y-88109491D01*
X152473373Y-88102587D01*
X152451247Y-88045542D01*
X152467464Y-87988975D01*
X152466078Y-87988188D01*
X152561381Y-87820426D01*
X152561382Y-87820424D01*
X152563769Y-87816222D01*
X152626197Y-87628556D01*
X152632059Y-87582158D01*
X152650637Y-87435091D01*
X152650985Y-87432338D01*
X152651380Y-87404043D01*
X152650466Y-87394714D01*
X152632552Y-87212028D01*
X152632080Y-87207210D01*
X152621311Y-87171543D01*
X157074496Y-87171543D01*
X157094458Y-87361471D01*
X157096059Y-87366398D01*
X157096060Y-87366403D01*
X157116583Y-87429564D01*
X157153473Y-87543099D01*
X157156065Y-87547588D01*
X157156067Y-87547593D01*
X157202812Y-87628556D01*
X157248960Y-87708487D01*
X157252432Y-87712343D01*
X157373277Y-87846556D01*
X157373281Y-87846560D01*
X157376747Y-87850409D01*
X157531248Y-87962661D01*
X157633723Y-88008285D01*
X157700974Y-88038228D01*
X157700978Y-88038229D01*
X157705712Y-88040337D01*
X157710782Y-88041415D01*
X157710783Y-88041415D01*
X157730199Y-88045542D01*
X157892513Y-88080043D01*
X158083487Y-88080043D01*
X158245801Y-88045542D01*
X158265217Y-88041415D01*
X158265218Y-88041415D01*
X158270288Y-88040337D01*
X158275022Y-88038229D01*
X158275026Y-88038228D01*
X158342277Y-88008285D01*
X158444752Y-87962661D01*
X158599253Y-87850409D01*
X158602719Y-87846560D01*
X158602723Y-87846556D01*
X158723568Y-87712343D01*
X158727040Y-87708487D01*
X158773188Y-87628556D01*
X158819933Y-87547593D01*
X158819935Y-87547588D01*
X158822527Y-87543099D01*
X158859417Y-87429564D01*
X158879940Y-87366403D01*
X158879941Y-87366398D01*
X158881542Y-87361471D01*
X158901504Y-87171543D01*
X170409496Y-87171543D01*
X170429458Y-87361471D01*
X170431059Y-87366398D01*
X170431060Y-87366403D01*
X170451583Y-87429564D01*
X170488473Y-87543099D01*
X170491065Y-87547588D01*
X170491067Y-87547593D01*
X170537812Y-87628556D01*
X170583960Y-87708487D01*
X170587432Y-87712343D01*
X170708277Y-87846556D01*
X170708281Y-87846560D01*
X170711747Y-87850409D01*
X170866248Y-87962661D01*
X170968723Y-88008285D01*
X171035974Y-88038228D01*
X171035978Y-88038229D01*
X171040712Y-88040337D01*
X171045782Y-88041415D01*
X171045783Y-88041415D01*
X171065199Y-88045542D01*
X171227513Y-88080043D01*
X171418487Y-88080043D01*
X171580801Y-88045542D01*
X171600217Y-88041415D01*
X171600218Y-88041415D01*
X171605288Y-88040337D01*
X171610022Y-88038229D01*
X171610026Y-88038228D01*
X171677277Y-88008285D01*
X171779752Y-87962661D01*
X171934253Y-87850409D01*
X171937719Y-87846560D01*
X171937723Y-87846556D01*
X172058568Y-87712343D01*
X172062040Y-87708487D01*
X172108188Y-87628556D01*
X172154933Y-87547593D01*
X172154935Y-87547588D01*
X172157527Y-87543099D01*
X172194417Y-87429564D01*
X172214940Y-87366403D01*
X172214941Y-87366398D01*
X172216542Y-87361471D01*
X172236504Y-87171543D01*
X172216542Y-86981615D01*
X172214941Y-86976688D01*
X172214940Y-86976683D01*
X172164671Y-86821973D01*
X172157527Y-86799987D01*
X172154935Y-86795498D01*
X172154933Y-86795493D01*
X172064635Y-86639094D01*
X172062040Y-86634599D01*
X172021076Y-86589104D01*
X171937723Y-86496530D01*
X171937719Y-86496526D01*
X171934253Y-86492677D01*
X171779752Y-86380425D01*
X171637245Y-86316977D01*
X171610026Y-86304858D01*
X171610022Y-86304857D01*
X171605288Y-86302749D01*
X171600218Y-86301671D01*
X171600217Y-86301671D01*
X171565083Y-86294203D01*
X171418487Y-86263043D01*
X171227513Y-86263043D01*
X171080917Y-86294203D01*
X171045783Y-86301671D01*
X171045782Y-86301671D01*
X171040712Y-86302749D01*
X171035978Y-86304857D01*
X171035974Y-86304858D01*
X171008755Y-86316977D01*
X170866248Y-86380425D01*
X170711747Y-86492677D01*
X170708281Y-86496526D01*
X170708277Y-86496530D01*
X170624924Y-86589104D01*
X170583960Y-86634599D01*
X170581365Y-86639094D01*
X170491067Y-86795493D01*
X170491065Y-86795498D01*
X170488473Y-86799987D01*
X170481329Y-86821973D01*
X170431060Y-86976683D01*
X170431059Y-86976688D01*
X170429458Y-86981615D01*
X170409496Y-87171543D01*
X158901504Y-87171543D01*
X158881542Y-86981615D01*
X158879941Y-86976688D01*
X158879940Y-86976683D01*
X158829671Y-86821973D01*
X158822527Y-86799987D01*
X158819935Y-86795498D01*
X158819933Y-86795493D01*
X158729635Y-86639094D01*
X158727040Y-86634599D01*
X158686076Y-86589104D01*
X158602723Y-86496530D01*
X158602719Y-86496526D01*
X158599253Y-86492677D01*
X158444752Y-86380425D01*
X158302245Y-86316977D01*
X158275026Y-86304858D01*
X158275022Y-86304857D01*
X158270288Y-86302749D01*
X158265218Y-86301671D01*
X158265217Y-86301671D01*
X158230083Y-86294203D01*
X158083487Y-86263043D01*
X157892513Y-86263043D01*
X157745917Y-86294203D01*
X157710783Y-86301671D01*
X157710782Y-86301671D01*
X157705712Y-86302749D01*
X157700978Y-86304857D01*
X157700974Y-86304858D01*
X157673755Y-86316977D01*
X157531248Y-86380425D01*
X157376747Y-86492677D01*
X157373281Y-86496526D01*
X157373277Y-86496530D01*
X157289924Y-86589104D01*
X157248960Y-86634599D01*
X157246365Y-86639094D01*
X157156067Y-86795493D01*
X157156065Y-86795498D01*
X157153473Y-86799987D01*
X157146329Y-86821973D01*
X157096060Y-86976683D01*
X157096059Y-86976688D01*
X157094458Y-86981615D01*
X157074496Y-87171543D01*
X152621311Y-87171543D01*
X152574916Y-87017874D01*
X152482066Y-86843247D01*
X152479010Y-86839500D01*
X152479004Y-86839491D01*
X152473373Y-86832587D01*
X152451247Y-86775542D01*
X152467464Y-86718975D01*
X152466078Y-86718188D01*
X152561381Y-86550426D01*
X152561382Y-86550424D01*
X152563769Y-86546222D01*
X152626197Y-86358556D01*
X152628410Y-86341043D01*
X152639390Y-86254120D01*
X152650985Y-86162338D01*
X152651380Y-86134043D01*
X152650466Y-86124714D01*
X152634844Y-85965404D01*
X152632080Y-85937210D01*
X152574916Y-85747874D01*
X152482066Y-85573247D01*
X152357065Y-85419981D01*
X152295135Y-85368748D01*
X152208402Y-85296996D01*
X152208400Y-85296995D01*
X152204675Y-85293913D01*
X152030701Y-85199845D01*
X151971170Y-85181417D01*
X151846389Y-85142791D01*
X151846385Y-85142790D01*
X151841768Y-85141361D01*
X151836960Y-85140856D01*
X151836957Y-85140855D01*
X151649891Y-85121194D01*
X151649889Y-85121194D01*
X151645075Y-85120688D01*
X151566884Y-85127804D01*
X151452933Y-85138174D01*
X151452930Y-85138174D01*
X151448112Y-85138613D01*
X151353246Y-85166533D01*
X151263028Y-85193085D01*
X151263025Y-85193086D01*
X151258381Y-85194453D01*
X151254092Y-85196695D01*
X151254090Y-85196696D01*
X151087398Y-85283841D01*
X151087396Y-85283842D01*
X151083110Y-85286083D01*
X150928975Y-85410011D01*
X150925866Y-85413716D01*
X150925863Y-85413719D01*
X150872460Y-85477363D01*
X150801846Y-85561517D01*
X150799514Y-85565760D01*
X150799512Y-85565762D01*
X150753373Y-85649690D01*
X150706567Y-85734830D01*
X150646765Y-85923349D01*
X150646225Y-85928161D01*
X150646225Y-85928162D01*
X150641103Y-85973831D01*
X150624719Y-86119894D01*
X150625907Y-86134043D01*
X150639983Y-86301671D01*
X150641268Y-86316977D01*
X150642601Y-86321625D01*
X150642601Y-86321626D01*
X150662508Y-86391048D01*
X150695783Y-86507093D01*
X150786187Y-86682999D01*
X150789195Y-86686794D01*
X150804175Y-86705694D01*
X150825503Y-86763041D01*
X150809050Y-86821973D01*
X150807681Y-86823802D01*
X150807695Y-86823811D01*
X150804958Y-86827808D01*
X150801846Y-86831517D01*
X150799514Y-86835760D01*
X150799512Y-86835762D01*
X150782240Y-86867181D01*
X150706567Y-87004830D01*
X150646765Y-87193349D01*
X150646225Y-87198161D01*
X150646225Y-87198162D01*
X150628486Y-87356313D01*
X150624719Y-87389894D01*
X150625907Y-87404043D01*
X150637584Y-87543099D01*
X150641268Y-87586977D01*
X150642601Y-87591625D01*
X150642601Y-87591626D01*
X150676111Y-87708487D01*
X150695783Y-87777093D01*
X150786187Y-87952999D01*
X150789195Y-87956794D01*
X150804175Y-87975694D01*
X150825503Y-88033041D01*
X150809050Y-88091973D01*
X150807681Y-88093802D01*
X150807695Y-88093811D01*
X150804958Y-88097808D01*
X150801846Y-88101517D01*
X150799514Y-88105760D01*
X150799512Y-88105762D01*
X150759726Y-88178134D01*
X150706567Y-88274830D01*
X150646765Y-88463349D01*
X150646225Y-88468161D01*
X150646225Y-88468162D01*
X150627119Y-88638500D01*
X150624719Y-88659894D01*
X150641268Y-88856977D01*
X150642601Y-88861625D01*
X150642601Y-88861626D01*
X150653191Y-88898556D01*
X150695783Y-89047093D01*
X150697998Y-89051403D01*
X150783974Y-89218693D01*
X150786187Y-89222999D01*
X150789195Y-89226794D01*
X150804175Y-89245694D01*
X150825503Y-89303041D01*
X150809050Y-89361973D01*
X150807681Y-89363802D01*
X150807695Y-89363811D01*
X150804958Y-89367808D01*
X150801846Y-89371517D01*
X150799514Y-89375760D01*
X150799512Y-89375762D01*
X150763758Y-89440800D01*
X150706567Y-89544830D01*
X150646765Y-89733349D01*
X150646225Y-89738161D01*
X150646225Y-89738162D01*
X150638457Y-89807421D01*
X150624719Y-89929894D01*
X150628514Y-89975091D01*
X150639983Y-90111671D01*
X150641268Y-90126977D01*
X150642601Y-90131625D01*
X150642601Y-90131626D01*
X150660335Y-90193470D01*
X150695783Y-90317093D01*
X150786187Y-90492999D01*
X150789195Y-90496794D01*
X150804175Y-90515694D01*
X150825503Y-90573041D01*
X150809050Y-90631973D01*
X150807681Y-90633802D01*
X150807695Y-90633811D01*
X150804958Y-90637808D01*
X150801846Y-90641517D01*
X150799514Y-90645760D01*
X150799512Y-90645762D01*
X150762456Y-90713168D01*
X150706567Y-90814830D01*
X150646765Y-91003349D01*
X150646225Y-91008161D01*
X150646225Y-91008162D01*
X150628486Y-91166313D01*
X150624719Y-91199894D01*
X141794974Y-91199894D01*
X141832277Y-91183285D01*
X141934752Y-91137661D01*
X142089253Y-91025409D01*
X142092719Y-91021560D01*
X142092723Y-91021556D01*
X142213568Y-90887343D01*
X142217040Y-90883487D01*
X142259132Y-90810582D01*
X142309933Y-90722593D01*
X142309935Y-90722588D01*
X142312527Y-90718099D01*
X142357587Y-90579421D01*
X142369940Y-90541403D01*
X142369941Y-90541398D01*
X142371542Y-90536471D01*
X142391504Y-90346543D01*
X142371542Y-90156615D01*
X142369941Y-90151688D01*
X142369940Y-90151683D01*
X142314129Y-89979918D01*
X142312527Y-89974987D01*
X142309935Y-89970498D01*
X142309933Y-89970493D01*
X142219635Y-89814094D01*
X142217040Y-89809599D01*
X142152718Y-89738162D01*
X142092723Y-89671530D01*
X142092719Y-89671526D01*
X142089253Y-89667677D01*
X141934752Y-89555425D01*
X141832277Y-89509801D01*
X141765026Y-89479858D01*
X141765022Y-89479857D01*
X141760288Y-89477749D01*
X141755218Y-89476671D01*
X141755217Y-89476671D01*
X141720083Y-89469203D01*
X141573487Y-89438043D01*
X141382513Y-89438043D01*
X141235917Y-89469203D01*
X141200783Y-89476671D01*
X141200782Y-89476671D01*
X141195712Y-89477749D01*
X141190978Y-89479857D01*
X141190974Y-89479858D01*
X141123723Y-89509801D01*
X141021248Y-89555425D01*
X140866747Y-89667677D01*
X140863281Y-89671526D01*
X140863277Y-89671530D01*
X140803282Y-89738162D01*
X140738960Y-89809599D01*
X140736365Y-89814094D01*
X140646067Y-89970493D01*
X140646065Y-89970498D01*
X140643473Y-89974987D01*
X140641871Y-89979918D01*
X140586060Y-90151683D01*
X140586059Y-90151688D01*
X140584458Y-90156615D01*
X140564496Y-90346543D01*
X122936000Y-90346543D01*
X122936000Y-88900000D01*
X134341496Y-88900000D01*
X134361458Y-89089928D01*
X134420473Y-89271556D01*
X134423065Y-89276045D01*
X134423067Y-89276050D01*
X134478186Y-89371517D01*
X134515960Y-89436944D01*
X134519432Y-89440800D01*
X134640277Y-89575013D01*
X134640281Y-89575017D01*
X134643747Y-89578866D01*
X134798248Y-89691118D01*
X134893101Y-89733349D01*
X134967974Y-89766685D01*
X134967978Y-89766686D01*
X134972712Y-89768794D01*
X134977782Y-89769872D01*
X134977783Y-89769872D01*
X135012917Y-89777340D01*
X135159513Y-89808500D01*
X135350487Y-89808500D01*
X135497083Y-89777340D01*
X135532217Y-89769872D01*
X135532218Y-89769872D01*
X135537288Y-89768794D01*
X135542022Y-89766686D01*
X135542026Y-89766685D01*
X135616899Y-89733349D01*
X135711752Y-89691118D01*
X135866253Y-89578866D01*
X135869719Y-89575017D01*
X135869723Y-89575013D01*
X135990568Y-89440800D01*
X135994040Y-89436944D01*
X136031814Y-89371517D01*
X136086933Y-89276050D01*
X136086935Y-89276045D01*
X136089527Y-89271556D01*
X136148542Y-89089928D01*
X136168504Y-88900000D01*
X136148542Y-88710072D01*
X136146941Y-88705145D01*
X136146940Y-88705140D01*
X136091129Y-88533375D01*
X136089527Y-88528444D01*
X136086935Y-88523955D01*
X136086933Y-88523950D01*
X135996635Y-88367551D01*
X135994040Y-88363056D01*
X135926346Y-88287874D01*
X135869723Y-88224987D01*
X135869719Y-88224983D01*
X135866253Y-88221134D01*
X135711752Y-88108882D01*
X135609277Y-88063258D01*
X135542026Y-88033315D01*
X135542022Y-88033314D01*
X135537288Y-88031206D01*
X135532218Y-88030128D01*
X135532217Y-88030128D01*
X135497083Y-88022660D01*
X135350487Y-87991500D01*
X135159513Y-87991500D01*
X135012917Y-88022660D01*
X134977783Y-88030128D01*
X134977782Y-88030128D01*
X134972712Y-88031206D01*
X134967978Y-88033314D01*
X134967974Y-88033315D01*
X134900723Y-88063258D01*
X134798248Y-88108882D01*
X134643747Y-88221134D01*
X134640281Y-88224983D01*
X134640277Y-88224987D01*
X134583654Y-88287874D01*
X134515960Y-88363056D01*
X134513365Y-88367551D01*
X134423067Y-88523950D01*
X134423065Y-88523955D01*
X134420473Y-88528444D01*
X134418871Y-88533375D01*
X134363060Y-88705140D01*
X134363059Y-88705145D01*
X134361458Y-88710072D01*
X134341496Y-88900000D01*
X122936000Y-88900000D01*
X122936000Y-86345851D01*
X138051719Y-86345851D01*
X138068268Y-86542934D01*
X138069601Y-86547582D01*
X138069601Y-86547583D01*
X138114939Y-86705694D01*
X138122783Y-86733050D01*
X138124998Y-86737360D01*
X138136867Y-86760454D01*
X138146650Y-86820852D01*
X138128036Y-86865078D01*
X138118615Y-86877649D01*
X138118611Y-86877656D01*
X138114385Y-86883295D01*
X138063255Y-87019684D01*
X138056500Y-87081866D01*
X138056500Y-88178134D01*
X138063255Y-88240316D01*
X138114385Y-88376705D01*
X138201739Y-88493261D01*
X138318295Y-88580615D01*
X138454684Y-88631745D01*
X138460856Y-88632415D01*
X138460858Y-88632416D01*
X138496837Y-88636324D01*
X138516866Y-88638500D01*
X139613134Y-88638500D01*
X139633163Y-88636324D01*
X139669142Y-88632416D01*
X139669144Y-88632415D01*
X139675316Y-88631745D01*
X139811705Y-88580615D01*
X139928261Y-88493261D01*
X140015615Y-88376705D01*
X140066745Y-88240316D01*
X140073500Y-88178134D01*
X140073500Y-87081866D01*
X140066745Y-87019684D01*
X140015615Y-86883295D01*
X140003538Y-86867181D01*
X139983769Y-86809278D01*
X139991328Y-86772365D01*
X139990769Y-86772179D01*
X140051670Y-86589104D01*
X140051670Y-86589102D01*
X140053197Y-86584513D01*
X140059059Y-86538115D01*
X140077637Y-86391048D01*
X140077985Y-86388295D01*
X140078053Y-86383470D01*
X140078341Y-86362770D01*
X140078380Y-86360000D01*
X140077768Y-86353753D01*
X140059552Y-86167985D01*
X140059080Y-86163167D01*
X140001916Y-85973831D01*
X139909066Y-85799204D01*
X139784065Y-85645938D01*
X139631675Y-85519870D01*
X139457701Y-85425802D01*
X139396890Y-85406978D01*
X139273389Y-85368748D01*
X139273385Y-85368747D01*
X139268768Y-85367318D01*
X139263960Y-85366813D01*
X139263957Y-85366812D01*
X139076891Y-85347151D01*
X139076889Y-85347151D01*
X139072075Y-85346645D01*
X138993884Y-85353761D01*
X138879933Y-85364131D01*
X138879930Y-85364131D01*
X138875112Y-85364570D01*
X138780246Y-85392490D01*
X138690028Y-85419042D01*
X138690025Y-85419043D01*
X138685381Y-85420410D01*
X138681092Y-85422652D01*
X138681090Y-85422653D01*
X138514398Y-85509798D01*
X138514396Y-85509799D01*
X138510110Y-85512040D01*
X138355975Y-85635968D01*
X138352866Y-85639673D01*
X138352863Y-85639676D01*
X138299460Y-85703320D01*
X138228846Y-85787474D01*
X138226514Y-85791717D01*
X138226512Y-85791719D01*
X138143880Y-85942028D01*
X138133567Y-85960787D01*
X138073765Y-86149306D01*
X138073225Y-86154118D01*
X138073225Y-86154119D01*
X138054958Y-86316977D01*
X138051719Y-86345851D01*
X122936000Y-86345851D01*
X122936000Y-83344241D01*
X136737193Y-83344241D01*
X136757155Y-83534169D01*
X136758756Y-83539096D01*
X136758757Y-83539101D01*
X136777030Y-83595337D01*
X136816170Y-83715797D01*
X136818762Y-83720286D01*
X136818764Y-83720291D01*
X136887410Y-83839189D01*
X136911657Y-83881185D01*
X136915129Y-83885041D01*
X137035974Y-84019254D01*
X137035978Y-84019258D01*
X137039444Y-84023107D01*
X137193945Y-84135359D01*
X137296420Y-84180983D01*
X137363671Y-84210926D01*
X137363675Y-84210927D01*
X137368409Y-84213035D01*
X137373479Y-84214113D01*
X137373480Y-84214113D01*
X137408614Y-84221581D01*
X137555210Y-84252741D01*
X137746184Y-84252741D01*
X137892780Y-84221581D01*
X137927914Y-84214113D01*
X137927915Y-84214113D01*
X137932985Y-84213035D01*
X137937719Y-84210927D01*
X137937723Y-84210926D01*
X138004974Y-84180983D01*
X138107449Y-84135359D01*
X138261950Y-84023107D01*
X138265416Y-84019258D01*
X138265420Y-84019254D01*
X138386265Y-83885041D01*
X138389737Y-83881185D01*
X138413984Y-83839189D01*
X138482630Y-83720291D01*
X138482632Y-83720286D01*
X138485224Y-83715797D01*
X138524364Y-83595337D01*
X138542637Y-83539101D01*
X138542638Y-83539096D01*
X138544239Y-83534169D01*
X138549165Y-83487304D01*
X139803735Y-83487304D01*
X139823697Y-83677232D01*
X139825298Y-83682159D01*
X139825299Y-83682164D01*
X139865987Y-83807387D01*
X139882712Y-83858860D01*
X139885304Y-83863349D01*
X139885306Y-83863354D01*
X139953952Y-83982252D01*
X139978199Y-84024248D01*
X139981671Y-84028104D01*
X140102516Y-84162317D01*
X140102520Y-84162321D01*
X140105986Y-84166170D01*
X140260487Y-84278422D01*
X140362962Y-84324046D01*
X140430213Y-84353989D01*
X140430217Y-84353990D01*
X140434951Y-84356098D01*
X140440021Y-84357176D01*
X140440022Y-84357176D01*
X140475156Y-84364644D01*
X140621752Y-84395804D01*
X140812726Y-84395804D01*
X140959322Y-84364644D01*
X140994456Y-84357176D01*
X140994457Y-84357176D01*
X140999527Y-84356098D01*
X141004261Y-84353990D01*
X141004265Y-84353989D01*
X141071516Y-84324046D01*
X141173991Y-84278422D01*
X141328492Y-84166170D01*
X141331958Y-84162321D01*
X141331962Y-84162317D01*
X141452807Y-84028104D01*
X141456279Y-84024248D01*
X141480526Y-83982252D01*
X141549172Y-83863354D01*
X141549174Y-83863349D01*
X141551766Y-83858860D01*
X141568491Y-83807387D01*
X141609179Y-83682164D01*
X141609180Y-83682159D01*
X141610781Y-83677232D01*
X141630743Y-83487304D01*
X141610781Y-83297376D01*
X141609180Y-83292449D01*
X141609179Y-83292444D01*
X141553368Y-83120679D01*
X141551766Y-83115748D01*
X141549174Y-83111259D01*
X141549172Y-83111254D01*
X141466574Y-82968191D01*
X141456279Y-82950360D01*
X141392581Y-82879616D01*
X141331962Y-82812291D01*
X141331958Y-82812287D01*
X141328492Y-82808438D01*
X141215774Y-82726543D01*
X148819496Y-82726543D01*
X148839458Y-82916471D01*
X148841059Y-82921398D01*
X148841060Y-82921403D01*
X148853711Y-82960337D01*
X148898473Y-83098099D01*
X148901065Y-83102588D01*
X148901067Y-83102593D01*
X148930928Y-83154313D01*
X148993960Y-83263487D01*
X148997432Y-83267343D01*
X149118277Y-83401556D01*
X149118281Y-83401560D01*
X149121747Y-83405409D01*
X149276248Y-83517661D01*
X149378723Y-83563285D01*
X149445974Y-83593228D01*
X149445978Y-83593229D01*
X149450712Y-83595337D01*
X149455782Y-83596415D01*
X149455783Y-83596415D01*
X149490917Y-83603883D01*
X149637513Y-83635043D01*
X149828487Y-83635043D01*
X149975083Y-83603883D01*
X150010217Y-83596415D01*
X150010218Y-83596415D01*
X150015288Y-83595337D01*
X150020022Y-83593229D01*
X150020026Y-83593228D01*
X150087277Y-83563285D01*
X150189752Y-83517661D01*
X150344253Y-83405409D01*
X150347719Y-83401560D01*
X150347723Y-83401556D01*
X150468568Y-83267343D01*
X150472040Y-83263487D01*
X150535072Y-83154313D01*
X150564933Y-83102593D01*
X150564935Y-83102588D01*
X150567527Y-83098099D01*
X150612289Y-82960337D01*
X150624940Y-82921403D01*
X150624941Y-82921398D01*
X150626542Y-82916471D01*
X150646504Y-82726543D01*
X150626542Y-82536615D01*
X150624941Y-82531688D01*
X150624940Y-82531683D01*
X150569129Y-82359918D01*
X150567527Y-82354987D01*
X150564935Y-82350498D01*
X150564933Y-82350493D01*
X150474635Y-82194094D01*
X150472040Y-82189599D01*
X150419778Y-82131556D01*
X150383750Y-82091543D01*
X168504496Y-82091543D01*
X168524458Y-82281471D01*
X168526059Y-82286398D01*
X168526060Y-82286403D01*
X168538711Y-82325337D01*
X168583473Y-82463099D01*
X168586065Y-82467588D01*
X168586067Y-82467593D01*
X168650275Y-82578804D01*
X168678960Y-82628487D01*
X168682432Y-82632343D01*
X168803277Y-82766556D01*
X168803281Y-82766560D01*
X168806747Y-82770409D01*
X168961248Y-82882661D01*
X169063723Y-82928285D01*
X169130974Y-82958228D01*
X169130978Y-82958229D01*
X169135712Y-82960337D01*
X169140782Y-82961415D01*
X169140783Y-82961415D01*
X169172662Y-82968191D01*
X169322513Y-83000043D01*
X169513487Y-83000043D01*
X169663338Y-82968191D01*
X169695217Y-82961415D01*
X169695218Y-82961415D01*
X169700288Y-82960337D01*
X169705022Y-82958229D01*
X169705026Y-82958228D01*
X169772277Y-82928285D01*
X169874752Y-82882661D01*
X170029253Y-82770409D01*
X170032719Y-82766560D01*
X170032723Y-82766556D01*
X170153568Y-82632343D01*
X170157040Y-82628487D01*
X170185725Y-82578804D01*
X170249933Y-82467593D01*
X170249935Y-82467588D01*
X170252527Y-82463099D01*
X170297289Y-82325337D01*
X170309940Y-82286403D01*
X170309941Y-82286398D01*
X170311542Y-82281471D01*
X170331504Y-82091543D01*
X170311542Y-81901615D01*
X170309941Y-81896688D01*
X170309940Y-81896683D01*
X170254129Y-81724918D01*
X170252527Y-81719987D01*
X170249935Y-81715498D01*
X170249933Y-81715493D01*
X170159635Y-81559094D01*
X170157040Y-81554599D01*
X170146576Y-81542977D01*
X170032723Y-81416530D01*
X170032719Y-81416526D01*
X170029253Y-81412677D01*
X169874752Y-81300425D01*
X169772277Y-81254801D01*
X169705026Y-81224858D01*
X169705022Y-81224857D01*
X169700288Y-81222749D01*
X169695218Y-81221671D01*
X169695217Y-81221671D01*
X169660083Y-81214203D01*
X169513487Y-81183043D01*
X169322513Y-81183043D01*
X169175917Y-81214203D01*
X169140783Y-81221671D01*
X169140782Y-81221671D01*
X169135712Y-81222749D01*
X169130978Y-81224857D01*
X169130974Y-81224858D01*
X169063723Y-81254801D01*
X168961248Y-81300425D01*
X168806747Y-81412677D01*
X168803281Y-81416526D01*
X168803277Y-81416530D01*
X168689424Y-81542977D01*
X168678960Y-81554599D01*
X168676365Y-81559094D01*
X168586067Y-81715493D01*
X168586065Y-81715498D01*
X168583473Y-81719987D01*
X168581871Y-81724918D01*
X168526060Y-81896683D01*
X168526059Y-81896688D01*
X168524458Y-81901615D01*
X168504496Y-82091543D01*
X150383750Y-82091543D01*
X150347723Y-82051530D01*
X150347719Y-82051526D01*
X150344253Y-82047677D01*
X150189752Y-81935425D01*
X150087277Y-81889801D01*
X150020026Y-81859858D01*
X150020022Y-81859857D01*
X150015288Y-81857749D01*
X150010218Y-81856671D01*
X150010217Y-81856671D01*
X149975083Y-81849203D01*
X149828487Y-81818043D01*
X149637513Y-81818043D01*
X149490917Y-81849203D01*
X149455783Y-81856671D01*
X149455782Y-81856671D01*
X149450712Y-81857749D01*
X149445978Y-81859857D01*
X149445974Y-81859858D01*
X149378723Y-81889801D01*
X149276248Y-81935425D01*
X149121747Y-82047677D01*
X149118281Y-82051526D01*
X149118277Y-82051530D01*
X149046222Y-82131556D01*
X148993960Y-82189599D01*
X148991365Y-82194094D01*
X148901067Y-82350493D01*
X148901065Y-82350498D01*
X148898473Y-82354987D01*
X148896871Y-82359918D01*
X148841060Y-82531683D01*
X148841059Y-82531688D01*
X148839458Y-82536615D01*
X148819496Y-82726543D01*
X141215774Y-82726543D01*
X141173991Y-82696186D01*
X141030597Y-82632343D01*
X141004265Y-82620619D01*
X141004261Y-82620618D01*
X140999527Y-82618510D01*
X140994457Y-82617432D01*
X140994456Y-82617432D01*
X140959322Y-82609964D01*
X140812726Y-82578804D01*
X140621752Y-82578804D01*
X140475156Y-82609964D01*
X140440022Y-82617432D01*
X140440021Y-82617432D01*
X140434951Y-82618510D01*
X140430217Y-82620618D01*
X140430213Y-82620619D01*
X140403881Y-82632343D01*
X140260487Y-82696186D01*
X140105986Y-82808438D01*
X140102520Y-82812287D01*
X140102516Y-82812291D01*
X140041897Y-82879616D01*
X139978199Y-82950360D01*
X139967904Y-82968191D01*
X139885306Y-83111254D01*
X139885304Y-83111259D01*
X139882712Y-83115748D01*
X139881110Y-83120679D01*
X139825299Y-83292444D01*
X139825298Y-83292449D01*
X139823697Y-83297376D01*
X139803735Y-83487304D01*
X138549165Y-83487304D01*
X138564201Y-83344241D01*
X138544239Y-83154313D01*
X138542638Y-83149386D01*
X138542637Y-83149381D01*
X138486826Y-82977616D01*
X138485224Y-82972685D01*
X138482632Y-82968196D01*
X138482630Y-82968191D01*
X138392332Y-82811792D01*
X138389737Y-82807297D01*
X138353054Y-82766556D01*
X138265420Y-82669228D01*
X138265416Y-82669224D01*
X138261950Y-82665375D01*
X138107449Y-82553123D01*
X138004974Y-82507499D01*
X137937723Y-82477556D01*
X137937719Y-82477555D01*
X137932985Y-82475447D01*
X137927915Y-82474369D01*
X137927914Y-82474369D01*
X137892780Y-82466901D01*
X137746184Y-82435741D01*
X137555210Y-82435741D01*
X137408614Y-82466901D01*
X137373480Y-82474369D01*
X137373479Y-82474369D01*
X137368409Y-82475447D01*
X137363675Y-82477555D01*
X137363671Y-82477556D01*
X137296420Y-82507499D01*
X137193945Y-82553123D01*
X137039444Y-82665375D01*
X137035978Y-82669224D01*
X137035974Y-82669228D01*
X136948340Y-82766556D01*
X136911657Y-82807297D01*
X136909062Y-82811792D01*
X136818764Y-82968191D01*
X136818762Y-82968196D01*
X136816170Y-82972685D01*
X136814568Y-82977616D01*
X136758757Y-83149381D01*
X136758756Y-83149386D01*
X136757155Y-83154313D01*
X136737193Y-83344241D01*
X122936000Y-83344241D01*
X122936000Y-79684246D01*
X124763743Y-79684246D01*
X124801268Y-79969277D01*
X124802159Y-79972534D01*
X124802160Y-79972539D01*
X124856758Y-80172116D01*
X124877129Y-80246579D01*
X124989923Y-80511019D01*
X125137561Y-80757704D01*
X125317313Y-80982071D01*
X125319762Y-80984395D01*
X125415724Y-81075459D01*
X125525851Y-81179966D01*
X125528586Y-81181931D01*
X125528588Y-81181933D01*
X125693487Y-81300425D01*
X125759317Y-81347729D01*
X126013392Y-81482255D01*
X126016561Y-81483415D01*
X126016564Y-81483416D01*
X126040773Y-81492275D01*
X126283373Y-81581054D01*
X126564264Y-81642298D01*
X126567615Y-81642562D01*
X126567617Y-81642562D01*
X126659498Y-81649793D01*
X126789739Y-81660043D01*
X126945271Y-81660043D01*
X127159825Y-81645416D01*
X127441342Y-81587117D01*
X127712343Y-81491150D01*
X127715333Y-81489607D01*
X127715337Y-81489605D01*
X127964808Y-81360844D01*
X127964814Y-81360840D01*
X127967812Y-81359293D01*
X128203023Y-81193984D01*
X128413622Y-80998283D01*
X128426892Y-80982071D01*
X128593582Y-80778414D01*
X128595713Y-80775811D01*
X128741129Y-80538515D01*
X128744165Y-80533561D01*
X128744167Y-80533556D01*
X128745927Y-80530685D01*
X128861483Y-80267441D01*
X128890106Y-80166959D01*
X133048996Y-80166959D01*
X133068958Y-80356887D01*
X133070559Y-80361814D01*
X133070560Y-80361819D01*
X133095780Y-80439436D01*
X133127973Y-80538515D01*
X133130565Y-80543004D01*
X133130567Y-80543009D01*
X133144341Y-80566866D01*
X133223460Y-80703903D01*
X133226932Y-80707759D01*
X133347777Y-80841972D01*
X133347781Y-80841976D01*
X133351247Y-80845825D01*
X133505748Y-80958077D01*
X133590197Y-80995676D01*
X133675474Y-81033644D01*
X133675478Y-81033645D01*
X133680212Y-81035753D01*
X133685282Y-81036831D01*
X133685283Y-81036831D01*
X133720417Y-81044299D01*
X133867013Y-81075459D01*
X134057987Y-81075459D01*
X134146542Y-81056636D01*
X134207392Y-81063032D01*
X134252861Y-81103973D01*
X134265583Y-81163821D01*
X134261280Y-81184066D01*
X134236060Y-81261683D01*
X134236059Y-81261688D01*
X134234458Y-81266615D01*
X134214496Y-81456543D01*
X134234458Y-81646471D01*
X134236059Y-81651398D01*
X134236060Y-81651403D01*
X134256885Y-81715493D01*
X134293473Y-81828099D01*
X134296065Y-81832588D01*
X134296067Y-81832593D01*
X134354221Y-81933318D01*
X134388960Y-81993487D01*
X134392432Y-81997343D01*
X134513277Y-82131556D01*
X134513281Y-82131560D01*
X134516747Y-82135409D01*
X134671248Y-82247661D01*
X134773723Y-82293285D01*
X134840974Y-82323228D01*
X134840978Y-82323229D01*
X134845712Y-82325337D01*
X134850782Y-82326415D01*
X134850783Y-82326415D01*
X134885917Y-82333883D01*
X135032513Y-82365043D01*
X135223487Y-82365043D01*
X135370083Y-82333883D01*
X135405217Y-82326415D01*
X135405218Y-82326415D01*
X135410288Y-82325337D01*
X135415022Y-82323229D01*
X135415026Y-82323228D01*
X135482277Y-82293285D01*
X135584752Y-82247661D01*
X135739253Y-82135409D01*
X135742719Y-82131560D01*
X135742723Y-82131556D01*
X135863568Y-81997343D01*
X135867040Y-81993487D01*
X135901779Y-81933318D01*
X135959933Y-81832593D01*
X135959935Y-81832588D01*
X135962527Y-81828099D01*
X135999115Y-81715493D01*
X136019940Y-81651403D01*
X136019941Y-81651398D01*
X136021542Y-81646471D01*
X136041504Y-81456543D01*
X136021542Y-81266615D01*
X136019941Y-81261688D01*
X136019940Y-81261683D01*
X135964129Y-81089918D01*
X135962527Y-81084987D01*
X135959935Y-81080498D01*
X135959933Y-81080493D01*
X135869635Y-80924094D01*
X135867040Y-80919599D01*
X135856576Y-80907977D01*
X135742723Y-80781530D01*
X135742719Y-80781526D01*
X135739253Y-80777677D01*
X135584752Y-80665425D01*
X135482277Y-80619801D01*
X135415026Y-80589858D01*
X135415022Y-80589857D01*
X135410288Y-80587749D01*
X135405218Y-80586671D01*
X135405217Y-80586671D01*
X135370083Y-80579203D01*
X135223487Y-80548043D01*
X135032513Y-80548043D01*
X134943958Y-80566866D01*
X134883108Y-80560470D01*
X134837639Y-80519529D01*
X134824917Y-80459681D01*
X134829220Y-80439436D01*
X134854440Y-80361819D01*
X134854441Y-80361814D01*
X134856042Y-80356887D01*
X134876004Y-80166959D01*
X134856042Y-79977031D01*
X134854441Y-79972104D01*
X134854440Y-79972099D01*
X134798629Y-79800334D01*
X134797027Y-79795403D01*
X134794435Y-79790914D01*
X134794433Y-79790909D01*
X134732850Y-79684246D01*
X163498743Y-79684246D01*
X163536268Y-79969277D01*
X163537159Y-79972534D01*
X163537160Y-79972539D01*
X163591758Y-80172116D01*
X163612129Y-80246579D01*
X163724923Y-80511019D01*
X163872561Y-80757704D01*
X164052313Y-80982071D01*
X164054762Y-80984395D01*
X164150724Y-81075459D01*
X164260851Y-81179966D01*
X164263586Y-81181931D01*
X164263588Y-81181933D01*
X164428487Y-81300425D01*
X164494317Y-81347729D01*
X164748392Y-81482255D01*
X164751561Y-81483415D01*
X164751564Y-81483416D01*
X164775773Y-81492275D01*
X165018373Y-81581054D01*
X165299264Y-81642298D01*
X165302615Y-81642562D01*
X165302617Y-81642562D01*
X165394498Y-81649793D01*
X165524739Y-81660043D01*
X165680271Y-81660043D01*
X165894825Y-81645416D01*
X166176342Y-81587117D01*
X166447343Y-81491150D01*
X166450333Y-81489607D01*
X166450337Y-81489605D01*
X166699808Y-81360844D01*
X166699814Y-81360840D01*
X166702812Y-81359293D01*
X166938023Y-81193984D01*
X167148622Y-80998283D01*
X167161892Y-80982071D01*
X167328582Y-80778414D01*
X167330713Y-80775811D01*
X167476129Y-80538515D01*
X167479165Y-80533561D01*
X167479167Y-80533556D01*
X167480927Y-80530685D01*
X167596483Y-80267441D01*
X167675244Y-79990949D01*
X167715751Y-79706327D01*
X167715850Y-79687580D01*
X167717239Y-79422200D01*
X167717257Y-79418840D01*
X167679732Y-79133809D01*
X167673804Y-79112137D01*
X167604762Y-78859763D01*
X167604761Y-78859759D01*
X167603871Y-78856507D01*
X167491077Y-78592067D01*
X167343439Y-78345382D01*
X167163687Y-78121015D01*
X167052414Y-78015421D01*
X166957595Y-77925441D01*
X166957594Y-77925440D01*
X166955149Y-77923120D01*
X166952412Y-77921153D01*
X166724425Y-77757327D01*
X166724422Y-77757325D01*
X166721683Y-77755357D01*
X166467608Y-77620831D01*
X166464439Y-77619671D01*
X166464436Y-77619670D01*
X166386386Y-77591108D01*
X166197627Y-77522032D01*
X165916736Y-77460788D01*
X165913385Y-77460524D01*
X165913383Y-77460524D01*
X165821502Y-77453293D01*
X165691261Y-77443043D01*
X165535729Y-77443043D01*
X165321175Y-77457670D01*
X165039658Y-77515969D01*
X164768657Y-77611936D01*
X164765667Y-77613479D01*
X164765663Y-77613481D01*
X164516192Y-77742242D01*
X164516186Y-77742246D01*
X164513188Y-77743793D01*
X164510428Y-77745733D01*
X164510426Y-77745734D01*
X164439797Y-77795373D01*
X164277977Y-77909102D01*
X164067378Y-78104803D01*
X164065246Y-78107408D01*
X164065244Y-78107410D01*
X164012708Y-78171597D01*
X163885287Y-78327275D01*
X163735073Y-78572401D01*
X163619517Y-78835645D01*
X163540756Y-79112137D01*
X163500249Y-79396759D01*
X163500231Y-79400125D01*
X163500231Y-79400130D01*
X163499750Y-79491946D01*
X163498743Y-79684246D01*
X134732850Y-79684246D01*
X134704135Y-79634510D01*
X134701540Y-79630015D01*
X134691076Y-79618393D01*
X134577223Y-79491946D01*
X134577219Y-79491942D01*
X134573753Y-79488093D01*
X134419252Y-79375841D01*
X134316777Y-79330217D01*
X134249526Y-79300274D01*
X134249522Y-79300273D01*
X134244788Y-79298165D01*
X134239718Y-79297087D01*
X134239717Y-79297087D01*
X134204583Y-79289619D01*
X134057987Y-79258459D01*
X133867013Y-79258459D01*
X133720417Y-79289619D01*
X133685283Y-79297087D01*
X133685282Y-79297087D01*
X133680212Y-79298165D01*
X133675478Y-79300273D01*
X133675474Y-79300274D01*
X133608223Y-79330217D01*
X133505748Y-79375841D01*
X133351247Y-79488093D01*
X133347781Y-79491942D01*
X133347777Y-79491946D01*
X133233924Y-79618393D01*
X133223460Y-79630015D01*
X133220865Y-79634510D01*
X133130567Y-79790909D01*
X133130565Y-79790914D01*
X133127973Y-79795403D01*
X133126371Y-79800334D01*
X133070560Y-79972099D01*
X133070559Y-79972104D01*
X133068958Y-79977031D01*
X133048996Y-80166959D01*
X128890106Y-80166959D01*
X128940244Y-79990949D01*
X128980751Y-79706327D01*
X128980850Y-79687580D01*
X128982239Y-79422200D01*
X128982257Y-79418840D01*
X128944732Y-79133809D01*
X128938804Y-79112137D01*
X128869762Y-78859763D01*
X128869761Y-78859759D01*
X128868871Y-78856507D01*
X128756077Y-78592067D01*
X128608439Y-78345382D01*
X128428687Y-78121015D01*
X128317414Y-78015421D01*
X128222595Y-77925441D01*
X128222594Y-77925440D01*
X128220149Y-77923120D01*
X128217412Y-77921153D01*
X127989425Y-77757327D01*
X127989422Y-77757325D01*
X127986683Y-77755357D01*
X127732608Y-77620831D01*
X127729439Y-77619671D01*
X127729436Y-77619670D01*
X127651386Y-77591108D01*
X127558056Y-77556954D01*
X130935001Y-77556954D01*
X130935290Y-77562294D01*
X130941078Y-77615578D01*
X130943927Y-77627563D01*
X130990351Y-77751398D01*
X130997059Y-77763651D01*
X131075863Y-77868799D01*
X131085744Y-77878680D01*
X131190892Y-77957484D01*
X131203145Y-77964192D01*
X131326978Y-78010615D01*
X131338967Y-78013466D01*
X131392252Y-78019254D01*
X131397586Y-78019543D01*
X131673320Y-78019543D01*
X131686005Y-78015421D01*
X131689000Y-78011300D01*
X131689000Y-78003862D01*
X132197000Y-78003862D01*
X132201122Y-78016547D01*
X132205243Y-78019542D01*
X132488411Y-78019542D01*
X132493751Y-78019253D01*
X132547035Y-78013465D01*
X132559020Y-78010616D01*
X132682857Y-77964191D01*
X132695106Y-77957485D01*
X132705300Y-77949845D01*
X132763204Y-77930077D01*
X132803885Y-77938262D01*
X132807294Y-77940167D01*
X132850361Y-77954160D01*
X132990792Y-77999789D01*
X132990798Y-77999790D01*
X132995392Y-78001283D01*
X133000188Y-78001855D01*
X133000193Y-78001856D01*
X133097551Y-78013465D01*
X133191777Y-78024701D01*
X133196599Y-78024330D01*
X133196602Y-78024330D01*
X133384143Y-78009899D01*
X133384147Y-78009898D01*
X133388972Y-78009527D01*
X133393632Y-78008226D01*
X133393637Y-78008225D01*
X133496469Y-77979513D01*
X133579463Y-77956341D01*
X133583776Y-77954162D01*
X133583782Y-77954160D01*
X133751675Y-77869351D01*
X133751677Y-77869349D01*
X133755996Y-77867168D01*
X133784764Y-77844692D01*
X133842259Y-77823765D01*
X133901862Y-77841306D01*
X133904650Y-77843679D01*
X134077294Y-77940167D01*
X134120361Y-77954160D01*
X134260792Y-77999789D01*
X134260798Y-77999790D01*
X134265392Y-78001283D01*
X134270188Y-78001855D01*
X134270193Y-78001856D01*
X134367551Y-78013465D01*
X134461777Y-78024701D01*
X134466599Y-78024330D01*
X134466602Y-78024330D01*
X134654143Y-78009899D01*
X134654147Y-78009898D01*
X134658972Y-78009527D01*
X134663632Y-78008226D01*
X134663637Y-78008225D01*
X134766469Y-77979513D01*
X134849463Y-77956341D01*
X134853776Y-77954162D01*
X134853782Y-77954160D01*
X135021675Y-77869351D01*
X135021677Y-77869349D01*
X135025996Y-77867168D01*
X135054764Y-77844692D01*
X135112259Y-77823765D01*
X135171862Y-77841306D01*
X135174650Y-77843679D01*
X135347294Y-77940167D01*
X135390361Y-77954160D01*
X135530792Y-77999789D01*
X135530798Y-77999790D01*
X135535392Y-78001283D01*
X135540188Y-78001855D01*
X135540193Y-78001856D01*
X135637551Y-78013465D01*
X135731777Y-78024701D01*
X135736599Y-78024330D01*
X135736602Y-78024330D01*
X135924143Y-78009899D01*
X135924147Y-78009898D01*
X135928972Y-78009527D01*
X135933632Y-78008226D01*
X135933637Y-78008225D01*
X136036469Y-77979513D01*
X136119463Y-77956341D01*
X136123776Y-77954162D01*
X136123782Y-77954160D01*
X136291675Y-77869351D01*
X136291677Y-77869349D01*
X136295996Y-77867168D01*
X136324764Y-77844692D01*
X136382259Y-77823765D01*
X136441862Y-77841306D01*
X136444650Y-77843679D01*
X136617294Y-77940167D01*
X136660361Y-77954160D01*
X136800792Y-77999789D01*
X136800798Y-77999790D01*
X136805392Y-78001283D01*
X136810188Y-78001855D01*
X136810193Y-78001856D01*
X136907551Y-78013465D01*
X137001777Y-78024701D01*
X137006599Y-78024330D01*
X137006602Y-78024330D01*
X137194143Y-78009899D01*
X137194147Y-78009898D01*
X137198972Y-78009527D01*
X137203632Y-78008226D01*
X137203637Y-78008225D01*
X137306469Y-77979513D01*
X137389463Y-77956341D01*
X137393776Y-77954162D01*
X137393782Y-77954160D01*
X137561675Y-77869351D01*
X137561677Y-77869349D01*
X137565996Y-77867168D01*
X137600077Y-77840541D01*
X137718032Y-77748385D01*
X137718034Y-77748383D01*
X137721847Y-77745404D01*
X137851078Y-77595688D01*
X137873082Y-77556954D01*
X137946381Y-77427926D01*
X137946382Y-77427924D01*
X137948769Y-77423722D01*
X138011197Y-77236056D01*
X138017059Y-77189658D01*
X138032764Y-77065332D01*
X138035985Y-77039838D01*
X138036380Y-77011543D01*
X138035466Y-77002214D01*
X138034993Y-76997394D01*
X138559719Y-76997394D01*
X138576268Y-77194477D01*
X138577601Y-77199125D01*
X138577601Y-77199126D01*
X138599010Y-77273786D01*
X138630783Y-77384593D01*
X138632998Y-77388903D01*
X138660901Y-77443196D01*
X138721187Y-77560499D01*
X138844035Y-77715496D01*
X138847722Y-77718634D01*
X138847724Y-77718636D01*
X138990962Y-77840541D01*
X138990967Y-77840544D01*
X138994650Y-77843679D01*
X138998873Y-77846039D01*
X138998877Y-77846042D01*
X139108255Y-77907171D01*
X139167294Y-77940167D01*
X139210361Y-77954160D01*
X139350792Y-77999789D01*
X139350798Y-77999790D01*
X139355392Y-78001283D01*
X139360188Y-78001855D01*
X139360193Y-78001856D01*
X139457551Y-78013465D01*
X139551777Y-78024701D01*
X139556599Y-78024330D01*
X139556602Y-78024330D01*
X139744143Y-78009899D01*
X139744147Y-78009898D01*
X139748972Y-78009527D01*
X139753632Y-78008226D01*
X139753637Y-78008225D01*
X139856469Y-77979513D01*
X139939463Y-77956341D01*
X139943776Y-77954162D01*
X139943782Y-77954160D01*
X140111675Y-77869351D01*
X140111677Y-77869349D01*
X140115996Y-77867168D01*
X140144764Y-77844692D01*
X140202259Y-77823765D01*
X140261862Y-77841306D01*
X140264650Y-77843679D01*
X140437294Y-77940167D01*
X140480361Y-77954160D01*
X140620792Y-77999789D01*
X140620798Y-77999790D01*
X140625392Y-78001283D01*
X140630188Y-78001855D01*
X140630193Y-78001856D01*
X140727551Y-78013465D01*
X140821777Y-78024701D01*
X140826599Y-78024330D01*
X140826602Y-78024330D01*
X141014143Y-78009899D01*
X141014147Y-78009898D01*
X141018972Y-78009527D01*
X141023632Y-78008226D01*
X141023637Y-78008225D01*
X141126469Y-77979513D01*
X141209463Y-77956341D01*
X141213776Y-77954162D01*
X141213782Y-77954160D01*
X141381675Y-77869351D01*
X141381677Y-77869349D01*
X141385996Y-77867168D01*
X141414764Y-77844692D01*
X141472259Y-77823765D01*
X141531862Y-77841306D01*
X141534650Y-77843679D01*
X141707294Y-77940167D01*
X141750361Y-77954160D01*
X141890792Y-77999789D01*
X141890798Y-77999790D01*
X141895392Y-78001283D01*
X141900188Y-78001855D01*
X141900193Y-78001856D01*
X141997551Y-78013465D01*
X142091777Y-78024701D01*
X142096599Y-78024330D01*
X142096602Y-78024330D01*
X142284143Y-78009899D01*
X142284147Y-78009898D01*
X142288972Y-78009527D01*
X142293632Y-78008226D01*
X142293637Y-78008225D01*
X142396469Y-77979513D01*
X142479463Y-77956341D01*
X142483776Y-77954162D01*
X142483782Y-77954160D01*
X142651675Y-77869351D01*
X142651677Y-77869349D01*
X142655996Y-77867168D01*
X142684764Y-77844692D01*
X142742259Y-77823765D01*
X142801862Y-77841306D01*
X142804650Y-77843679D01*
X142977294Y-77940167D01*
X143020361Y-77954160D01*
X143160792Y-77999789D01*
X143160798Y-77999790D01*
X143165392Y-78001283D01*
X143170188Y-78001855D01*
X143170193Y-78001856D01*
X143267551Y-78013465D01*
X143361777Y-78024701D01*
X143366599Y-78024330D01*
X143366602Y-78024330D01*
X143554143Y-78009899D01*
X143554147Y-78009898D01*
X143558972Y-78009527D01*
X143563632Y-78008226D01*
X143563637Y-78008225D01*
X143666469Y-77979513D01*
X143749463Y-77956341D01*
X143753776Y-77954162D01*
X143753782Y-77954160D01*
X143921675Y-77869351D01*
X143921677Y-77869349D01*
X143925996Y-77867168D01*
X143954764Y-77844692D01*
X144012259Y-77823765D01*
X144071862Y-77841306D01*
X144074650Y-77843679D01*
X144247294Y-77940167D01*
X144290361Y-77954160D01*
X144430792Y-77999789D01*
X144430798Y-77999790D01*
X144435392Y-78001283D01*
X144440188Y-78001855D01*
X144440193Y-78001856D01*
X144537551Y-78013465D01*
X144631777Y-78024701D01*
X144636599Y-78024330D01*
X144636602Y-78024330D01*
X144824143Y-78009899D01*
X144824147Y-78009898D01*
X144828972Y-78009527D01*
X144833632Y-78008226D01*
X144833637Y-78008225D01*
X144936469Y-77979513D01*
X145019463Y-77956341D01*
X145023776Y-77954162D01*
X145023782Y-77954160D01*
X145191675Y-77869351D01*
X145191677Y-77869349D01*
X145195996Y-77867168D01*
X145224764Y-77844692D01*
X145282259Y-77823765D01*
X145341862Y-77841306D01*
X145344650Y-77843679D01*
X145517294Y-77940167D01*
X145560361Y-77954160D01*
X145700792Y-77999789D01*
X145700798Y-77999790D01*
X145705392Y-78001283D01*
X145710188Y-78001855D01*
X145710193Y-78001856D01*
X145807551Y-78013465D01*
X145901777Y-78024701D01*
X145906599Y-78024330D01*
X145906602Y-78024330D01*
X146094143Y-78009899D01*
X146094147Y-78009898D01*
X146098972Y-78009527D01*
X146103632Y-78008226D01*
X146103637Y-78008225D01*
X146206469Y-77979513D01*
X146289463Y-77956341D01*
X146293776Y-77954162D01*
X146293782Y-77954160D01*
X146461675Y-77869351D01*
X146461677Y-77869349D01*
X146465996Y-77867168D01*
X146494764Y-77844692D01*
X146552259Y-77823765D01*
X146611862Y-77841306D01*
X146614650Y-77843679D01*
X146787294Y-77940167D01*
X146830361Y-77954160D01*
X146970792Y-77999789D01*
X146970798Y-77999790D01*
X146975392Y-78001283D01*
X146980188Y-78001855D01*
X146980193Y-78001856D01*
X147077551Y-78013465D01*
X147171777Y-78024701D01*
X147176599Y-78024330D01*
X147176602Y-78024330D01*
X147364143Y-78009899D01*
X147364147Y-78009898D01*
X147368972Y-78009527D01*
X147373632Y-78008226D01*
X147373637Y-78008225D01*
X147476469Y-77979513D01*
X147559463Y-77956341D01*
X147563776Y-77954162D01*
X147563782Y-77954160D01*
X147731675Y-77869351D01*
X147731677Y-77869349D01*
X147735996Y-77867168D01*
X147764764Y-77844692D01*
X147822259Y-77823765D01*
X147881862Y-77841306D01*
X147884650Y-77843679D01*
X148057294Y-77940167D01*
X148100361Y-77954160D01*
X148240792Y-77999789D01*
X148240798Y-77999790D01*
X148245392Y-78001283D01*
X148250188Y-78001855D01*
X148250193Y-78001856D01*
X148347551Y-78013465D01*
X148441777Y-78024701D01*
X148446599Y-78024330D01*
X148446602Y-78024330D01*
X148634143Y-78009899D01*
X148634147Y-78009898D01*
X148638972Y-78009527D01*
X148643632Y-78008226D01*
X148643637Y-78008225D01*
X148746469Y-77979513D01*
X148829463Y-77956341D01*
X148833776Y-77954162D01*
X148833782Y-77954160D01*
X149001675Y-77869351D01*
X149001677Y-77869349D01*
X149005996Y-77867168D01*
X149034764Y-77844692D01*
X149092259Y-77823765D01*
X149151862Y-77841306D01*
X149154650Y-77843679D01*
X149327294Y-77940167D01*
X149370361Y-77954160D01*
X149510792Y-77999789D01*
X149510798Y-77999790D01*
X149515392Y-78001283D01*
X149520188Y-78001855D01*
X149520193Y-78001856D01*
X149617551Y-78013465D01*
X149711777Y-78024701D01*
X149716599Y-78024330D01*
X149716602Y-78024330D01*
X149904143Y-78009899D01*
X149904147Y-78009898D01*
X149908972Y-78009527D01*
X149913632Y-78008226D01*
X149913637Y-78008225D01*
X150016469Y-77979513D01*
X150099463Y-77956341D01*
X150115564Y-77948208D01*
X150133671Y-77939061D01*
X150194136Y-77929700D01*
X150237681Y-77948208D01*
X150256295Y-77962158D01*
X150392684Y-78013288D01*
X150398856Y-78013958D01*
X150398858Y-78013959D01*
X150434837Y-78017867D01*
X150454866Y-78020043D01*
X151551134Y-78020043D01*
X151571163Y-78017867D01*
X151607142Y-78013959D01*
X151607144Y-78013958D01*
X151613316Y-78013288D01*
X151652100Y-77998749D01*
X151743106Y-77964632D01*
X151743107Y-77964632D01*
X151749705Y-77962158D01*
X151866261Y-77874804D01*
X151953615Y-77758248D01*
X151957313Y-77748385D01*
X152002565Y-77627674D01*
X152004745Y-77621859D01*
X152005428Y-77615578D01*
X152009324Y-77579706D01*
X152011500Y-77559677D01*
X152011500Y-76997394D01*
X152529719Y-76997394D01*
X152546268Y-77194477D01*
X152547601Y-77199125D01*
X152547601Y-77199126D01*
X152569010Y-77273786D01*
X152600783Y-77384593D01*
X152602998Y-77388903D01*
X152630901Y-77443196D01*
X152691187Y-77560499D01*
X152814035Y-77715496D01*
X152817722Y-77718634D01*
X152817724Y-77718636D01*
X152960962Y-77840541D01*
X152960967Y-77840544D01*
X152964650Y-77843679D01*
X152968873Y-77846039D01*
X152968877Y-77846042D01*
X153078255Y-77907171D01*
X153137294Y-77940167D01*
X153180361Y-77954160D01*
X153320792Y-77999789D01*
X153320798Y-77999790D01*
X153325392Y-78001283D01*
X153330188Y-78001855D01*
X153330193Y-78001856D01*
X153427551Y-78013465D01*
X153521777Y-78024701D01*
X153526599Y-78024330D01*
X153526602Y-78024330D01*
X153714143Y-78009899D01*
X153714147Y-78009898D01*
X153718972Y-78009527D01*
X153723632Y-78008226D01*
X153723637Y-78008225D01*
X153826469Y-77979513D01*
X153909463Y-77956341D01*
X153913776Y-77954162D01*
X153913782Y-77954160D01*
X154081675Y-77869351D01*
X154081677Y-77869349D01*
X154085996Y-77867168D01*
X154114764Y-77844692D01*
X154172259Y-77823765D01*
X154231862Y-77841306D01*
X154234650Y-77843679D01*
X154407294Y-77940167D01*
X154450361Y-77954160D01*
X154590792Y-77999789D01*
X154590798Y-77999790D01*
X154595392Y-78001283D01*
X154600188Y-78001855D01*
X154600193Y-78001856D01*
X154697551Y-78013465D01*
X154791777Y-78024701D01*
X154796599Y-78024330D01*
X154796602Y-78024330D01*
X154984143Y-78009899D01*
X154984147Y-78009898D01*
X154988972Y-78009527D01*
X154993632Y-78008226D01*
X154993637Y-78008225D01*
X155096469Y-77979513D01*
X155179463Y-77956341D01*
X155183776Y-77954162D01*
X155183782Y-77954160D01*
X155351675Y-77869351D01*
X155351677Y-77869349D01*
X155355996Y-77867168D01*
X155384764Y-77844692D01*
X155442259Y-77823765D01*
X155501862Y-77841306D01*
X155504650Y-77843679D01*
X155677294Y-77940167D01*
X155720361Y-77954160D01*
X155860792Y-77999789D01*
X155860798Y-77999790D01*
X155865392Y-78001283D01*
X155870188Y-78001855D01*
X155870193Y-78001856D01*
X155967551Y-78013465D01*
X156061777Y-78024701D01*
X156066599Y-78024330D01*
X156066602Y-78024330D01*
X156254143Y-78009899D01*
X156254147Y-78009898D01*
X156258972Y-78009527D01*
X156263632Y-78008226D01*
X156263637Y-78008225D01*
X156366469Y-77979513D01*
X156449463Y-77956341D01*
X156465564Y-77948208D01*
X156483671Y-77939061D01*
X156544136Y-77929700D01*
X156587681Y-77948208D01*
X156606295Y-77962158D01*
X156742684Y-78013288D01*
X156748856Y-78013958D01*
X156748858Y-78013959D01*
X156784837Y-78017867D01*
X156804866Y-78020043D01*
X157901134Y-78020043D01*
X157921163Y-78017867D01*
X157957142Y-78013959D01*
X157957144Y-78013958D01*
X157963316Y-78013288D01*
X158002100Y-77998749D01*
X158093106Y-77964632D01*
X158093107Y-77964632D01*
X158099705Y-77962158D01*
X158216261Y-77874804D01*
X158303615Y-77758248D01*
X158307313Y-77748385D01*
X158352565Y-77627674D01*
X158354745Y-77621859D01*
X158355428Y-77615578D01*
X158359324Y-77579706D01*
X158361500Y-77559677D01*
X158361500Y-76463409D01*
X158354745Y-76401227D01*
X158303615Y-76264838D01*
X158216261Y-76148282D01*
X158099705Y-76060928D01*
X158093101Y-76058452D01*
X157988460Y-76019224D01*
X157963316Y-76009798D01*
X157957144Y-76009128D01*
X157957142Y-76009127D01*
X157921163Y-76005219D01*
X157901134Y-76003043D01*
X156804866Y-76003043D01*
X156784837Y-76005219D01*
X156748858Y-76009127D01*
X156748856Y-76009128D01*
X156742684Y-76009798D01*
X156606295Y-76060928D01*
X156600651Y-76065158D01*
X156589551Y-76073477D01*
X156531647Y-76093245D01*
X156483095Y-76081343D01*
X156479953Y-76079644D01*
X156479952Y-76079644D01*
X156475701Y-76077345D01*
X156366678Y-76043597D01*
X156291389Y-76020291D01*
X156291385Y-76020290D01*
X156286768Y-76018861D01*
X156281960Y-76018356D01*
X156281957Y-76018355D01*
X156094891Y-75998694D01*
X156094889Y-75998694D01*
X156090075Y-75998188D01*
X156028058Y-76003832D01*
X155897933Y-76015674D01*
X155897930Y-76015674D01*
X155893112Y-76016113D01*
X155819860Y-76037672D01*
X155708028Y-76070585D01*
X155708025Y-76070586D01*
X155703381Y-76071953D01*
X155699092Y-76074195D01*
X155699090Y-76074196D01*
X155532398Y-76161341D01*
X155532396Y-76161342D01*
X155528110Y-76163583D01*
X155514537Y-76174496D01*
X155510960Y-76177372D01*
X155453763Y-76199099D01*
X155394718Y-76183056D01*
X155385824Y-76176499D01*
X155383407Y-76174500D01*
X155383405Y-76174498D01*
X155379675Y-76171413D01*
X155235059Y-76093219D01*
X155209955Y-76079645D01*
X155209954Y-76079644D01*
X155205701Y-76077345D01*
X155096678Y-76043597D01*
X155021389Y-76020291D01*
X155021385Y-76020290D01*
X155016768Y-76018861D01*
X155011960Y-76018356D01*
X155011957Y-76018355D01*
X154824891Y-75998694D01*
X154824889Y-75998694D01*
X154820075Y-75998188D01*
X154758058Y-76003832D01*
X154627933Y-76015674D01*
X154627930Y-76015674D01*
X154623112Y-76016113D01*
X154549860Y-76037672D01*
X154438028Y-76070585D01*
X154438025Y-76070586D01*
X154433381Y-76071953D01*
X154429092Y-76074195D01*
X154429090Y-76074196D01*
X154262398Y-76161341D01*
X154262396Y-76161342D01*
X154258110Y-76163583D01*
X154244537Y-76174496D01*
X154240960Y-76177372D01*
X154183763Y-76199099D01*
X154124718Y-76183056D01*
X154115824Y-76176499D01*
X154113407Y-76174500D01*
X154113405Y-76174498D01*
X154109675Y-76171413D01*
X153965059Y-76093219D01*
X153939955Y-76079645D01*
X153939954Y-76079644D01*
X153935701Y-76077345D01*
X153826678Y-76043597D01*
X153751389Y-76020291D01*
X153751385Y-76020290D01*
X153746768Y-76018861D01*
X153741960Y-76018356D01*
X153741957Y-76018355D01*
X153554891Y-75998694D01*
X153554889Y-75998694D01*
X153550075Y-75998188D01*
X153488058Y-76003832D01*
X153357933Y-76015674D01*
X153357930Y-76015674D01*
X153353112Y-76016113D01*
X153279860Y-76037672D01*
X153168028Y-76070585D01*
X153168025Y-76070586D01*
X153163381Y-76071953D01*
X153159092Y-76074195D01*
X153159090Y-76074196D01*
X152992398Y-76161341D01*
X152992396Y-76161342D01*
X152988110Y-76163583D01*
X152833975Y-76287511D01*
X152830866Y-76291216D01*
X152830863Y-76291219D01*
X152777460Y-76354863D01*
X152706846Y-76439017D01*
X152704514Y-76443260D01*
X152704512Y-76443262D01*
X152621752Y-76593804D01*
X152611567Y-76612330D01*
X152551765Y-76800849D01*
X152551225Y-76805661D01*
X152551225Y-76805662D01*
X152530811Y-76987663D01*
X152529719Y-76997394D01*
X152011500Y-76997394D01*
X152011500Y-76463409D01*
X152004745Y-76401227D01*
X151953615Y-76264838D01*
X151866261Y-76148282D01*
X151749705Y-76060928D01*
X151743101Y-76058452D01*
X151638460Y-76019224D01*
X151613316Y-76009798D01*
X151607144Y-76009128D01*
X151607142Y-76009127D01*
X151571163Y-76005219D01*
X151551134Y-76003043D01*
X150454866Y-76003043D01*
X150434837Y-76005219D01*
X150398858Y-76009127D01*
X150398856Y-76009128D01*
X150392684Y-76009798D01*
X150256295Y-76060928D01*
X150250651Y-76065158D01*
X150239551Y-76073477D01*
X150181647Y-76093245D01*
X150133095Y-76081343D01*
X150129953Y-76079644D01*
X150129952Y-76079644D01*
X150125701Y-76077345D01*
X150016678Y-76043597D01*
X149941389Y-76020291D01*
X149941385Y-76020290D01*
X149936768Y-76018861D01*
X149931960Y-76018356D01*
X149931957Y-76018355D01*
X149744891Y-75998694D01*
X149744889Y-75998694D01*
X149740075Y-75998188D01*
X149678058Y-76003832D01*
X149547933Y-76015674D01*
X149547930Y-76015674D01*
X149543112Y-76016113D01*
X149469860Y-76037672D01*
X149358028Y-76070585D01*
X149358025Y-76070586D01*
X149353381Y-76071953D01*
X149349092Y-76074195D01*
X149349090Y-76074196D01*
X149182398Y-76161341D01*
X149182396Y-76161342D01*
X149178110Y-76163583D01*
X149164537Y-76174496D01*
X149160960Y-76177372D01*
X149103763Y-76199099D01*
X149044718Y-76183056D01*
X149035824Y-76176499D01*
X149033407Y-76174500D01*
X149033405Y-76174498D01*
X149029675Y-76171413D01*
X148885059Y-76093219D01*
X148859955Y-76079645D01*
X148859954Y-76079644D01*
X148855701Y-76077345D01*
X148746678Y-76043597D01*
X148671389Y-76020291D01*
X148671385Y-76020290D01*
X148666768Y-76018861D01*
X148661960Y-76018356D01*
X148661957Y-76018355D01*
X148474891Y-75998694D01*
X148474889Y-75998694D01*
X148470075Y-75998188D01*
X148408058Y-76003832D01*
X148277933Y-76015674D01*
X148277930Y-76015674D01*
X148273112Y-76016113D01*
X148199860Y-76037672D01*
X148088028Y-76070585D01*
X148088025Y-76070586D01*
X148083381Y-76071953D01*
X148079092Y-76074195D01*
X148079090Y-76074196D01*
X147912398Y-76161341D01*
X147912396Y-76161342D01*
X147908110Y-76163583D01*
X147894537Y-76174496D01*
X147890960Y-76177372D01*
X147833763Y-76199099D01*
X147774718Y-76183056D01*
X147765824Y-76176499D01*
X147763407Y-76174500D01*
X147763405Y-76174498D01*
X147759675Y-76171413D01*
X147615059Y-76093219D01*
X147589955Y-76079645D01*
X147589954Y-76079644D01*
X147585701Y-76077345D01*
X147476678Y-76043597D01*
X147401389Y-76020291D01*
X147401385Y-76020290D01*
X147396768Y-76018861D01*
X147391960Y-76018356D01*
X147391957Y-76018355D01*
X147204891Y-75998694D01*
X147204889Y-75998694D01*
X147200075Y-75998188D01*
X147138058Y-76003832D01*
X147007933Y-76015674D01*
X147007930Y-76015674D01*
X147003112Y-76016113D01*
X146929860Y-76037672D01*
X146818028Y-76070585D01*
X146818025Y-76070586D01*
X146813381Y-76071953D01*
X146809092Y-76074195D01*
X146809090Y-76074196D01*
X146642398Y-76161341D01*
X146642396Y-76161342D01*
X146638110Y-76163583D01*
X146624537Y-76174496D01*
X146620960Y-76177372D01*
X146563763Y-76199099D01*
X146504718Y-76183056D01*
X146495824Y-76176499D01*
X146493407Y-76174500D01*
X146493405Y-76174498D01*
X146489675Y-76171413D01*
X146345059Y-76093219D01*
X146319955Y-76079645D01*
X146319954Y-76079644D01*
X146315701Y-76077345D01*
X146206678Y-76043597D01*
X146131389Y-76020291D01*
X146131385Y-76020290D01*
X146126768Y-76018861D01*
X146121960Y-76018356D01*
X146121957Y-76018355D01*
X145934891Y-75998694D01*
X145934889Y-75998694D01*
X145930075Y-75998188D01*
X145868058Y-76003832D01*
X145737933Y-76015674D01*
X145737930Y-76015674D01*
X145733112Y-76016113D01*
X145659860Y-76037672D01*
X145548028Y-76070585D01*
X145548025Y-76070586D01*
X145543381Y-76071953D01*
X145539092Y-76074195D01*
X145539090Y-76074196D01*
X145372398Y-76161341D01*
X145372396Y-76161342D01*
X145368110Y-76163583D01*
X145354537Y-76174496D01*
X145350960Y-76177372D01*
X145293763Y-76199099D01*
X145234718Y-76183056D01*
X145225824Y-76176499D01*
X145223407Y-76174500D01*
X145223405Y-76174498D01*
X145219675Y-76171413D01*
X145075059Y-76093219D01*
X145049955Y-76079645D01*
X145049954Y-76079644D01*
X145045701Y-76077345D01*
X144936678Y-76043597D01*
X144861389Y-76020291D01*
X144861385Y-76020290D01*
X144856768Y-76018861D01*
X144851960Y-76018356D01*
X144851957Y-76018355D01*
X144664891Y-75998694D01*
X144664889Y-75998694D01*
X144660075Y-75998188D01*
X144598058Y-76003832D01*
X144467933Y-76015674D01*
X144467930Y-76015674D01*
X144463112Y-76016113D01*
X144389860Y-76037672D01*
X144278028Y-76070585D01*
X144278025Y-76070586D01*
X144273381Y-76071953D01*
X144269092Y-76074195D01*
X144269090Y-76074196D01*
X144102398Y-76161341D01*
X144102396Y-76161342D01*
X144098110Y-76163583D01*
X144084537Y-76174496D01*
X144080960Y-76177372D01*
X144023763Y-76199099D01*
X143964718Y-76183056D01*
X143955824Y-76176499D01*
X143953407Y-76174500D01*
X143953405Y-76174498D01*
X143949675Y-76171413D01*
X143805059Y-76093219D01*
X143779955Y-76079645D01*
X143779954Y-76079644D01*
X143775701Y-76077345D01*
X143666678Y-76043597D01*
X143591389Y-76020291D01*
X143591385Y-76020290D01*
X143586768Y-76018861D01*
X143581960Y-76018356D01*
X143581957Y-76018355D01*
X143394891Y-75998694D01*
X143394889Y-75998694D01*
X143390075Y-75998188D01*
X143328058Y-76003832D01*
X143197933Y-76015674D01*
X143197930Y-76015674D01*
X143193112Y-76016113D01*
X143119860Y-76037672D01*
X143008028Y-76070585D01*
X143008025Y-76070586D01*
X143003381Y-76071953D01*
X142999092Y-76074195D01*
X142999090Y-76074196D01*
X142832398Y-76161341D01*
X142832396Y-76161342D01*
X142828110Y-76163583D01*
X142814537Y-76174496D01*
X142810960Y-76177372D01*
X142753763Y-76199099D01*
X142694718Y-76183056D01*
X142685824Y-76176499D01*
X142683407Y-76174500D01*
X142683405Y-76174498D01*
X142679675Y-76171413D01*
X142535059Y-76093219D01*
X142509955Y-76079645D01*
X142509954Y-76079644D01*
X142505701Y-76077345D01*
X142396678Y-76043597D01*
X142321389Y-76020291D01*
X142321385Y-76020290D01*
X142316768Y-76018861D01*
X142311960Y-76018356D01*
X142311957Y-76018355D01*
X142124891Y-75998694D01*
X142124889Y-75998694D01*
X142120075Y-75998188D01*
X142058058Y-76003832D01*
X141927933Y-76015674D01*
X141927930Y-76015674D01*
X141923112Y-76016113D01*
X141849860Y-76037672D01*
X141738028Y-76070585D01*
X141738025Y-76070586D01*
X141733381Y-76071953D01*
X141729092Y-76074195D01*
X141729090Y-76074196D01*
X141562398Y-76161341D01*
X141562396Y-76161342D01*
X141558110Y-76163583D01*
X141544537Y-76174496D01*
X141540960Y-76177372D01*
X141483763Y-76199099D01*
X141424718Y-76183056D01*
X141415824Y-76176499D01*
X141413407Y-76174500D01*
X141413405Y-76174498D01*
X141409675Y-76171413D01*
X141265059Y-76093219D01*
X141239955Y-76079645D01*
X141239954Y-76079644D01*
X141235701Y-76077345D01*
X141126678Y-76043597D01*
X141051389Y-76020291D01*
X141051385Y-76020290D01*
X141046768Y-76018861D01*
X141041960Y-76018356D01*
X141041957Y-76018355D01*
X140854891Y-75998694D01*
X140854889Y-75998694D01*
X140850075Y-75998188D01*
X140788058Y-76003832D01*
X140657933Y-76015674D01*
X140657930Y-76015674D01*
X140653112Y-76016113D01*
X140579860Y-76037672D01*
X140468028Y-76070585D01*
X140468025Y-76070586D01*
X140463381Y-76071953D01*
X140459092Y-76074195D01*
X140459090Y-76074196D01*
X140292398Y-76161341D01*
X140292396Y-76161342D01*
X140288110Y-76163583D01*
X140274537Y-76174496D01*
X140270960Y-76177372D01*
X140213763Y-76199099D01*
X140154718Y-76183056D01*
X140145824Y-76176499D01*
X140143407Y-76174500D01*
X140143405Y-76174498D01*
X140139675Y-76171413D01*
X139995059Y-76093219D01*
X139969955Y-76079645D01*
X139969954Y-76079644D01*
X139965701Y-76077345D01*
X139856678Y-76043597D01*
X139781389Y-76020291D01*
X139781385Y-76020290D01*
X139776768Y-76018861D01*
X139771960Y-76018356D01*
X139771957Y-76018355D01*
X139584891Y-75998694D01*
X139584889Y-75998694D01*
X139580075Y-75998188D01*
X139518058Y-76003832D01*
X139387933Y-76015674D01*
X139387930Y-76015674D01*
X139383112Y-76016113D01*
X139309860Y-76037672D01*
X139198028Y-76070585D01*
X139198025Y-76070586D01*
X139193381Y-76071953D01*
X139189092Y-76074195D01*
X139189090Y-76074196D01*
X139022398Y-76161341D01*
X139022396Y-76161342D01*
X139018110Y-76163583D01*
X138863975Y-76287511D01*
X138860866Y-76291216D01*
X138860863Y-76291219D01*
X138807460Y-76354863D01*
X138736846Y-76439017D01*
X138734514Y-76443260D01*
X138734512Y-76443262D01*
X138651752Y-76593804D01*
X138641567Y-76612330D01*
X138581765Y-76800849D01*
X138581225Y-76805661D01*
X138581225Y-76805662D01*
X138560811Y-76987663D01*
X138559719Y-76997394D01*
X138034993Y-76997394D01*
X138017552Y-76819528D01*
X138017080Y-76814710D01*
X137959916Y-76625374D01*
X137867066Y-76450747D01*
X137742065Y-76297481D01*
X137710583Y-76271437D01*
X137593402Y-76174496D01*
X137593400Y-76174495D01*
X137589675Y-76171413D01*
X137445059Y-76093219D01*
X137419955Y-76079645D01*
X137419954Y-76079644D01*
X137415701Y-76077345D01*
X137306678Y-76043597D01*
X137231389Y-76020291D01*
X137231385Y-76020290D01*
X137226768Y-76018861D01*
X137221960Y-76018356D01*
X137221957Y-76018355D01*
X137034891Y-75998694D01*
X137034889Y-75998694D01*
X137030075Y-75998188D01*
X136968058Y-76003832D01*
X136837933Y-76015674D01*
X136837930Y-76015674D01*
X136833112Y-76016113D01*
X136759860Y-76037672D01*
X136648028Y-76070585D01*
X136648025Y-76070586D01*
X136643381Y-76071953D01*
X136639092Y-76074195D01*
X136639090Y-76074196D01*
X136472398Y-76161341D01*
X136472396Y-76161342D01*
X136468110Y-76163583D01*
X136454537Y-76174496D01*
X136450960Y-76177372D01*
X136393763Y-76199099D01*
X136334718Y-76183056D01*
X136325824Y-76176499D01*
X136323407Y-76174500D01*
X136323405Y-76174498D01*
X136319675Y-76171413D01*
X136175059Y-76093219D01*
X136149955Y-76079645D01*
X136149954Y-76079644D01*
X136145701Y-76077345D01*
X136036678Y-76043597D01*
X135961389Y-76020291D01*
X135961385Y-76020290D01*
X135956768Y-76018861D01*
X135951960Y-76018356D01*
X135951957Y-76018355D01*
X135764891Y-75998694D01*
X135764889Y-75998694D01*
X135760075Y-75998188D01*
X135698058Y-76003832D01*
X135567933Y-76015674D01*
X135567930Y-76015674D01*
X135563112Y-76016113D01*
X135489860Y-76037672D01*
X135378028Y-76070585D01*
X135378025Y-76070586D01*
X135373381Y-76071953D01*
X135369092Y-76074195D01*
X135369090Y-76074196D01*
X135202398Y-76161341D01*
X135202396Y-76161342D01*
X135198110Y-76163583D01*
X135184537Y-76174496D01*
X135180960Y-76177372D01*
X135123763Y-76199099D01*
X135064718Y-76183056D01*
X135055824Y-76176499D01*
X135053407Y-76174500D01*
X135053405Y-76174498D01*
X135049675Y-76171413D01*
X134905059Y-76093219D01*
X134879955Y-76079645D01*
X134879954Y-76079644D01*
X134875701Y-76077345D01*
X134766678Y-76043597D01*
X134691389Y-76020291D01*
X134691385Y-76020290D01*
X134686768Y-76018861D01*
X134681960Y-76018356D01*
X134681957Y-76018355D01*
X134494891Y-75998694D01*
X134494889Y-75998694D01*
X134490075Y-75998188D01*
X134428058Y-76003832D01*
X134297933Y-76015674D01*
X134297930Y-76015674D01*
X134293112Y-76016113D01*
X134219860Y-76037672D01*
X134108028Y-76070585D01*
X134108025Y-76070586D01*
X134103381Y-76071953D01*
X134099092Y-76074195D01*
X134099090Y-76074196D01*
X133932398Y-76161341D01*
X133932396Y-76161342D01*
X133928110Y-76163583D01*
X133914537Y-76174496D01*
X133910960Y-76177372D01*
X133853763Y-76199099D01*
X133794718Y-76183056D01*
X133785824Y-76176499D01*
X133783407Y-76174500D01*
X133783405Y-76174498D01*
X133779675Y-76171413D01*
X133635059Y-76093219D01*
X133609955Y-76079645D01*
X133609954Y-76079644D01*
X133605701Y-76077345D01*
X133496678Y-76043597D01*
X133421389Y-76020291D01*
X133421385Y-76020290D01*
X133416768Y-76018861D01*
X133411960Y-76018356D01*
X133411957Y-76018355D01*
X133224891Y-75998694D01*
X133224889Y-75998694D01*
X133220075Y-75998188D01*
X133158058Y-76003832D01*
X133027933Y-76015674D01*
X133027930Y-76015674D01*
X133023112Y-76016113D01*
X132949860Y-76037672D01*
X132838028Y-76070585D01*
X132838025Y-76070586D01*
X132833381Y-76071953D01*
X132812221Y-76083015D01*
X132751894Y-76093219D01*
X132706983Y-76074502D01*
X132695108Y-76065602D01*
X132682855Y-76058894D01*
X132559022Y-76012471D01*
X132547033Y-76009620D01*
X132493748Y-76003832D01*
X132488414Y-76003543D01*
X132212680Y-76003543D01*
X132199995Y-76007665D01*
X132197000Y-76011786D01*
X132197000Y-78003862D01*
X131689000Y-78003862D01*
X131689000Y-77281223D01*
X131684878Y-77268538D01*
X131680757Y-77265543D01*
X130950681Y-77265543D01*
X130937996Y-77269665D01*
X130935001Y-77273786D01*
X130935001Y-77556954D01*
X127558056Y-77556954D01*
X127462627Y-77522032D01*
X127181736Y-77460788D01*
X127178385Y-77460524D01*
X127178383Y-77460524D01*
X127086502Y-77453293D01*
X126956261Y-77443043D01*
X126800729Y-77443043D01*
X126586175Y-77457670D01*
X126304658Y-77515969D01*
X126033657Y-77611936D01*
X126030667Y-77613479D01*
X126030663Y-77613481D01*
X125781192Y-77742242D01*
X125781186Y-77742246D01*
X125778188Y-77743793D01*
X125775428Y-77745733D01*
X125775426Y-77745734D01*
X125704797Y-77795373D01*
X125542977Y-77909102D01*
X125332378Y-78104803D01*
X125330246Y-78107408D01*
X125330244Y-78107410D01*
X125277708Y-78171597D01*
X125150287Y-78327275D01*
X125000073Y-78572401D01*
X124884517Y-78835645D01*
X124805756Y-79112137D01*
X124765249Y-79396759D01*
X124765231Y-79400125D01*
X124765231Y-79400130D01*
X124764750Y-79491946D01*
X124763743Y-79684246D01*
X122936000Y-79684246D01*
X122936000Y-77072736D01*
X122937179Y-77057505D01*
X122940100Y-77038744D01*
X122941186Y-77031770D01*
X122938984Y-77014931D01*
X122938453Y-76994326D01*
X122952588Y-76814729D01*
X122955018Y-76799386D01*
X122968828Y-76741863D01*
X130935000Y-76741863D01*
X130939122Y-76754548D01*
X130943243Y-76757543D01*
X131673320Y-76757543D01*
X131686005Y-76753421D01*
X131689000Y-76749300D01*
X131689000Y-76019224D01*
X131684878Y-76006539D01*
X131680757Y-76003544D01*
X131397589Y-76003544D01*
X131392249Y-76003833D01*
X131338965Y-76009621D01*
X131326980Y-76012470D01*
X131203145Y-76058894D01*
X131190892Y-76065602D01*
X131085744Y-76144406D01*
X131075863Y-76154287D01*
X130997059Y-76259435D01*
X130990351Y-76271688D01*
X130943928Y-76395521D01*
X130941077Y-76407510D01*
X130935289Y-76460795D01*
X130935000Y-76466129D01*
X130935000Y-76741863D01*
X122968828Y-76741863D01*
X122995683Y-76630005D01*
X123002556Y-76601374D01*
X123007356Y-76586604D01*
X123085284Y-76398471D01*
X123092337Y-76384630D01*
X123198733Y-76211008D01*
X123207864Y-76198440D01*
X123340112Y-76043597D01*
X123351097Y-76032612D01*
X123505940Y-75900364D01*
X123518508Y-75891233D01*
X123692130Y-75784837D01*
X123705971Y-75777784D01*
X123789172Y-75743321D01*
X123894108Y-75699855D01*
X123908874Y-75695056D01*
X124007883Y-75671286D01*
X124106886Y-75647518D01*
X124122230Y-75645088D01*
X124295163Y-75631478D01*
X124318155Y-75632351D01*
X124326730Y-75633686D01*
X124333727Y-75632771D01*
X124333728Y-75632771D01*
X124359995Y-75629336D01*
X124372832Y-75628500D01*
X172545764Y-75628500D01*
X172560995Y-75629679D01*
G37*
%TD.AperFunction*%
%TD*%
M02*
