%TF.GenerationSoftware,KiCad,Pcbnew,(6.0.0)*%
%TF.CreationDate,2022-03-03T15:11:55+00:00*%
%TF.ProjectId,ISOpowerWiFi_PCB,49534f70-6f77-4657-9257-6946695f5043,rev?*%
%TF.SameCoordinates,Original*%
%TF.FileFunction,Copper,L2,Inr*%
%TF.FilePolarity,Positive*%
%FSLAX46Y46*%
G04 Gerber Fmt 4.6, Leading zero omitted, Abs format (unit mm)*
G04 Created by KiCad (PCBNEW (6.0.0)) date 2022-03-03 15:11:55*
%MOMM*%
%LPD*%
G01*
G04 APERTURE LIST*
%TA.AperFunction,ComponentPad*%
%ADD10R,1.000000X1.000000*%
%TD*%
%TA.AperFunction,ComponentPad*%
%ADD11O,1.000000X1.000000*%
%TD*%
%TA.AperFunction,ViaPad*%
%ADD12C,0.800000*%
%TD*%
%TA.AperFunction,Conductor*%
%ADD13C,0.300000*%
%TD*%
G04 APERTURE END LIST*
D10*
%TO.N,/ESP32_Daughterboard/MCU_5V_BUS*%
%TO.C,J1*%
X139065000Y-87630000D03*
D11*
%TO.N,/ESP32_Daughterboard/USB_PBUS*%
X139065000Y-86360000D03*
%TD*%
D10*
%TO.N,23*%
%TO.C,J2*%
X160538000Y-108359043D03*
D11*
%TO.N,19*%
X159268000Y-108359043D03*
%TO.N,18*%
X157998000Y-108359043D03*
%TO.N,5*%
X156728000Y-108359043D03*
%TO.N,4*%
X155458000Y-108359043D03*
%TD*%
D10*
%TO.N,/ESP32_Daughterboard/GND*%
%TO.C,J7*%
X131943000Y-77011543D03*
D11*
%TO.N,/ESP32_Daughterboard/3V3_BUS*%
X133213000Y-77011543D03*
%TO.N,/ESP32_Daughterboard/MCU_5V_BUS*%
X134483000Y-77011543D03*
%TO.N,SCL*%
X135753000Y-77011543D03*
%TO.N,SDA*%
X137023000Y-77011543D03*
%TD*%
D10*
%TO.N,Net-(J3-Pad1)*%
%TO.C,J3*%
X157353000Y-77011543D03*
D11*
%TO.N,Net-(J3-Pad2)*%
X156083000Y-77011543D03*
%TO.N,Net-(J3-Pad3)*%
X154813000Y-77011543D03*
%TO.N,Net-(J3-Pad4)*%
X153543000Y-77011543D03*
%TD*%
D10*
%TO.N,Net-(J5-Pad1)*%
%TO.C,J5*%
X151003000Y-77011543D03*
D11*
%TO.N,Net-(J5-Pad2)*%
X149733000Y-77011543D03*
%TO.N,Net-(J5-Pad3)*%
X148463000Y-77011543D03*
%TO.N,Net-(J5-Pad4)*%
X147193000Y-77011543D03*
%TO.N,Net-(J5-Pad5)*%
X145923000Y-77011543D03*
%TO.N,Net-(J5-Pad6)*%
X144653000Y-77011543D03*
%TO.N,Net-(J5-Pad7)*%
X143383000Y-77011543D03*
%TO.N,Net-(J5-Pad8)*%
X142113000Y-77011543D03*
%TO.N,Net-(J5-Pad9)*%
X140843000Y-77011543D03*
%TO.N,Net-(D9-Pad2)*%
X139573000Y-77011543D03*
%TD*%
D10*
%TO.N,Net-(J4-Pad1)*%
%TO.C,J4*%
X151638000Y-92484043D03*
D11*
%TO.N,Net-(J4-Pad2)*%
X151638000Y-91214043D03*
%TO.N,Net-(J4-Pad3)*%
X151638000Y-89944043D03*
%TO.N,Net-(J4-Pad4)*%
X151638000Y-88674043D03*
%TO.N,Net-(J4-Pad5)*%
X151638000Y-87404043D03*
%TO.N,Net-(J4-Pad6)*%
X151638000Y-86134043D03*
%TD*%
D10*
%TO.N,/ESP32_Daughterboard/GND*%
%TO.C,J19*%
X124968000Y-108359043D03*
D11*
%TO.N,/ESP32_Daughterboard/3V3_BUS*%
X126238000Y-108359043D03*
%TO.N,/ESP32_Daughterboard/MCU_5V_BUS*%
X127508000Y-108359043D03*
%TO.N,/ESP32_Daughterboard/USB_PBUS*%
X128778000Y-108359043D03*
%TO.N,unconnected-(J19-Pad5)*%
X130048000Y-108359043D03*
%TO.N,unconnected-(J19-Pad6)*%
X131318000Y-108359043D03*
%TO.N,unconnected-(J19-Pad7)*%
X132588000Y-108359043D03*
%TO.N,unconnected-(J19-Pad8)*%
X133858000Y-108359043D03*
%TO.N,/ESP32_Daughterboard/SSERIAL_TX*%
X135128000Y-108359043D03*
%TO.N,/ESP32_Daughterboard/SSERIAL_RX*%
X136398000Y-108359043D03*
%TD*%
D12*
%TO.N,/ESP32_Daughterboard/GND*%
X173058000Y-98722000D03*
X173058000Y-86657000D03*
%TO.N,/ESP32_Daughterboard/USB_PBUS*%
X131445000Y-96520000D03*
%TO.N,/ESP32_Daughterboard/USB ESP32 CH340 Interface /ESP_EN*%
X149733000Y-82726543D03*
X169418000Y-82091543D03*
%TO.N,4*%
X156586479Y-104145554D03*
%TO.N,Net-(J5-Pad8)*%
X157988000Y-87171543D03*
%TO.N,Net-(J5-Pad9)*%
X159893000Y-90981543D03*
%TO.N,SCL*%
X168148000Y-98601543D03*
X133962500Y-80166959D03*
%TO.N,SDA*%
X137650697Y-83344241D03*
X165608000Y-99787041D03*
%TO.N,Net-(Q19-Pad2)*%
X137177872Y-97757171D03*
X141478000Y-90346543D03*
%TO.N,/ESP32_Daughterboard/GND*%
X152638000Y-105856543D03*
X142113000Y-80821543D03*
X138937382Y-107491312D03*
X169688000Y-91886543D03*
X126365000Y-103635201D03*
X128785500Y-89069043D03*
X154178000Y-82726543D03*
X141793000Y-101224043D03*
X136398000Y-82726543D03*
X133956012Y-93378056D03*
X130048000Y-105586543D03*
X131318000Y-94156543D03*
X152244583Y-96953392D03*
%TO.N,Net-(Q20-Pad2)*%
X145288000Y-92251543D03*
X140651283Y-96888258D03*
%TO.N,/ESP32_Daughterboard/MCU_5V_BUS*%
X135128000Y-81456543D03*
X136333500Y-95426543D03*
X135255000Y-88900000D03*
%TO.N,/ESP32_Daughterboard/3V3_BUS*%
X149098000Y-101776543D03*
X141478000Y-107513543D03*
X171323000Y-87171543D03*
%TO.N,/ESP32_Daughterboard/SSERIAL_RX*%
X145500477Y-106434020D03*
%TO.N,Net-(D9-Pad2)*%
X140717239Y-83487304D03*
X151638000Y-94156543D03*
%TO.N,/ESP32_Daughterboard/Logic Level Conversion/1A*%
X144018000Y-109396543D03*
X152273000Y-108126543D03*
%TO.N,/ESP32_Daughterboard/USB ESP32 CH340 Interface /TxD_B*%
X135763000Y-96696543D03*
X167513000Y-103046543D03*
%TO.N,/ESP32_Daughterboard/USB ESP32 CH340 Interface /RxD_B*%
X135553628Y-98111415D03*
X168783000Y-103046543D03*
%TD*%
D13*
%TO.N,/ESP32_Daughterboard/MCU_5V_BUS*%
X135255000Y-81583543D02*
X135128000Y-81456543D01*
X135255000Y-88900000D02*
X135255000Y-81583543D01*
X135713457Y-95426543D02*
X136333500Y-95426543D01*
X127508000Y-103632000D02*
X135713457Y-95426543D01*
X127508000Y-108359043D02*
X127508000Y-103632000D01*
%TO.N,/ESP32_Daughterboard/3V3_BUS*%
X149098000Y-101776543D02*
X143361000Y-107513543D01*
X143361000Y-107513543D02*
X141478000Y-107513543D01*
X171323000Y-87171543D02*
X156718000Y-101776543D01*
X156718000Y-101776543D02*
X149098000Y-101776543D01*
%TO.N,/ESP32_Daughterboard/USB_PBUS*%
X137795000Y-86995000D02*
X138430000Y-86360000D01*
X138430000Y-86360000D02*
X139065000Y-86360000D01*
X137795000Y-90599022D02*
X137795000Y-86995000D01*
X131874022Y-96520000D02*
X137795000Y-90599022D01*
X131445000Y-96520000D02*
X131874022Y-96520000D01*
%TD*%
M02*
