%TF.GenerationSoftware,KiCad,Pcbnew,(6.0.0)*%
%TF.CreationDate,2022-03-07T15:46:10+00:00*%
%TF.ProjectId,ISOpowerWiFi_PCB,49534f70-6f77-4657-9257-6946695f5043,rev?*%
%TF.SameCoordinates,Original*%
%TF.FileFunction,Copper,L1,Top*%
%TF.FilePolarity,Positive*%
%FSLAX46Y46*%
G04 Gerber Fmt 4.6, Leading zero omitted, Abs format (unit mm)*
G04 Created by KiCad (PCBNEW (6.0.0)) date 2022-03-07 15:46:10*
%MOMM*%
%LPD*%
G01*
G04 APERTURE LIST*
G04 Aperture macros list*
%AMRoundRect*
0 Rectangle with rounded corners*
0 $1 Rounding radius*
0 $2 $3 $4 $5 $6 $7 $8 $9 X,Y pos of 4 corners*
0 Add a 4 corners polygon primitive as box body*
4,1,4,$2,$3,$4,$5,$6,$7,$8,$9,$2,$3,0*
0 Add four circle primitives for the rounded corners*
1,1,$1+$1,$2,$3*
1,1,$1+$1,$4,$5*
1,1,$1+$1,$6,$7*
1,1,$1+$1,$8,$9*
0 Add four rect primitives between the rounded corners*
20,1,$1+$1,$2,$3,$4,$5,0*
20,1,$1+$1,$4,$5,$6,$7,0*
20,1,$1+$1,$6,$7,$8,$9,0*
20,1,$1+$1,$8,$9,$2,$3,0*%
G04 Aperture macros list end*
%TA.AperFunction,SMDPad,CuDef*%
%ADD10R,2.000000X1.500000*%
%TD*%
%TA.AperFunction,SMDPad,CuDef*%
%ADD11R,2.000000X3.800000*%
%TD*%
%TA.AperFunction,SMDPad,CuDef*%
%ADD12RoundRect,0.150000X-0.825000X-0.150000X0.825000X-0.150000X0.825000X0.150000X-0.825000X0.150000X0*%
%TD*%
%TA.AperFunction,SMDPad,CuDef*%
%ADD13R,1.600000X0.300000*%
%TD*%
%TA.AperFunction,SMDPad,CuDef*%
%ADD14RoundRect,0.250000X-0.325000X-0.450000X0.325000X-0.450000X0.325000X0.450000X-0.325000X0.450000X0*%
%TD*%
%TA.AperFunction,SMDPad,CuDef*%
%ADD15R,0.900000X2.000000*%
%TD*%
%TA.AperFunction,SMDPad,CuDef*%
%ADD16R,2.000000X0.900000*%
%TD*%
%TA.AperFunction,SMDPad,CuDef*%
%ADD17R,5.000000X5.000000*%
%TD*%
%TA.AperFunction,ComponentPad*%
%ADD18R,1.000000X1.000000*%
%TD*%
%TA.AperFunction,ComponentPad*%
%ADD19O,1.000000X1.000000*%
%TD*%
%TA.AperFunction,SMDPad,CuDef*%
%ADD20R,2.000000X1.600000*%
%TD*%
%TA.AperFunction,SMDPad,CuDef*%
%ADD21R,2.000000X0.500000*%
%TD*%
%TA.AperFunction,SMDPad,CuDef*%
%ADD22R,1.700000X2.000000*%
%TD*%
%TA.AperFunction,SMDPad,CuDef*%
%ADD23RoundRect,0.250000X0.337500X0.475000X-0.337500X0.475000X-0.337500X-0.475000X0.337500X-0.475000X0*%
%TD*%
%TA.AperFunction,SMDPad,CuDef*%
%ADD24RoundRect,0.250000X-0.350000X-0.450000X0.350000X-0.450000X0.350000X0.450000X-0.350000X0.450000X0*%
%TD*%
%TA.AperFunction,SMDPad,CuDef*%
%ADD25RoundRect,0.250000X0.350000X0.450000X-0.350000X0.450000X-0.350000X-0.450000X0.350000X-0.450000X0*%
%TD*%
%TA.AperFunction,SMDPad,CuDef*%
%ADD26RoundRect,0.250000X-0.337500X-0.475000X0.337500X-0.475000X0.337500X0.475000X-0.337500X0.475000X0*%
%TD*%
%TA.AperFunction,SMDPad,CuDef*%
%ADD27RoundRect,0.250000X0.475000X-0.337500X0.475000X0.337500X-0.475000X0.337500X-0.475000X-0.337500X0*%
%TD*%
%TA.AperFunction,SMDPad,CuDef*%
%ADD28RoundRect,0.250000X-0.475000X0.337500X-0.475000X-0.337500X0.475000X-0.337500X0.475000X0.337500X0*%
%TD*%
%TA.AperFunction,SMDPad,CuDef*%
%ADD29RoundRect,0.150000X-0.587500X-0.150000X0.587500X-0.150000X0.587500X0.150000X-0.587500X0.150000X0*%
%TD*%
%TA.AperFunction,SMDPad,CuDef*%
%ADD30RoundRect,0.150000X-0.150000X0.587500X-0.150000X-0.587500X0.150000X-0.587500X0.150000X0.587500X0*%
%TD*%
%TA.AperFunction,SMDPad,CuDef*%
%ADD31RoundRect,0.250000X-0.450000X0.350000X-0.450000X-0.350000X0.450000X-0.350000X0.450000X0.350000X0*%
%TD*%
%TA.AperFunction,SMDPad,CuDef*%
%ADD32RoundRect,0.250000X0.450000X-0.350000X0.450000X0.350000X-0.450000X0.350000X-0.450000X-0.350000X0*%
%TD*%
%TA.AperFunction,ViaPad*%
%ADD33C,0.800000*%
%TD*%
%TA.AperFunction,Conductor*%
%ADD34C,0.200000*%
%TD*%
%TA.AperFunction,Conductor*%
%ADD35C,0.300000*%
%TD*%
%TA.AperFunction,Conductor*%
%ADD36C,1.500000*%
%TD*%
G04 APERTURE END LIST*
D10*
%TO.P,U2,1,GND*%
%TO.N,/ESP32_Daughterboard/GND*%
X131268000Y-89069043D03*
%TO.P,U2,2,VO*%
%TO.N,/ESP32_Daughterboard/3V3_BUS*%
X131268000Y-86769043D03*
D11*
X124968000Y-86769043D03*
D10*
%TO.P,U2,3,VI*%
%TO.N,/ESP32_Daughterboard/MCU_5V_BUS*%
X131268000Y-84469043D03*
%TD*%
D12*
%TO.P,U14,1,GND*%
%TO.N,/ESP32_Daughterboard/GND*%
X133858000Y-94791543D03*
%TO.P,U14,2,TXD*%
%TO.N,/ESP32_Daughterboard/USB ESP32 CH340 Interface /TxD_B*%
X133858000Y-96061543D03*
%TO.P,U14,3,RXD*%
%TO.N,/ESP32_Daughterboard/USB ESP32 CH340 Interface /RxD_B*%
X133858000Y-97331543D03*
%TO.P,U14,4,V3*%
%TO.N,Net-(C29-Pad1)*%
X133858000Y-98601543D03*
%TO.P,U14,5,UD+*%
%TO.N,Net-(J20-Pad3)*%
X133858000Y-99871543D03*
%TO.P,U14,6,UD-*%
%TO.N,Net-(J20-Pad2)*%
X133858000Y-101141543D03*
%TO.P,U14,7,NC*%
%TO.N,unconnected-(U14-Pad7)*%
X133858000Y-102411543D03*
%TO.P,U14,8,NC*%
%TO.N,unconnected-(U14-Pad8)*%
X133858000Y-103681543D03*
%TO.P,U14,9,~{CTS}*%
%TO.N,unconnected-(U14-Pad9)*%
X138808000Y-103681543D03*
%TO.P,U14,10,~{DSR}*%
%TO.N,unconnected-(U14-Pad10)*%
X138808000Y-102411543D03*
%TO.P,U14,11,~{RI}*%
%TO.N,unconnected-(U14-Pad11)*%
X138808000Y-101141543D03*
%TO.P,U14,12,~{DCD}*%
%TO.N,unconnected-(U14-Pad12)*%
X138808000Y-99871543D03*
%TO.P,U14,13,~{DTR}*%
%TO.N,Net-(Q19-Pad2)*%
X138808000Y-98601543D03*
%TO.P,U14,14,~{RTS}*%
%TO.N,Net-(Q20-Pad2)*%
X138808000Y-97331543D03*
%TO.P,U14,15,R232*%
%TO.N,unconnected-(U14-Pad15)*%
X138808000Y-96061543D03*
%TO.P,U14,16,VCC*%
%TO.N,/ESP32_Daughterboard/MCU_5V_BUS*%
X138808000Y-94791543D03*
%TD*%
D13*
%TO.P,U13,1,B2*%
%TO.N,/ESP32_Daughterboard/SSERIAL_TX*%
X143588000Y-106114043D03*
%TO.P,U13,2,GND*%
%TO.N,/ESP32_Daughterboard/GND*%
X143588000Y-106764043D03*
%TO.P,U13,3,VCCA*%
%TO.N,/ESP32_Daughterboard/3V3_BUS*%
X143588000Y-107414043D03*
%TO.P,U13,4,A2*%
%TO.N,/ESP32_Daughterboard/Logic Level Conversion/1A*%
X143588000Y-108064043D03*
%TO.P,U13,5,A1*%
%TO.N,/ESP32_Daughterboard/Logic Level Conversion/0A*%
X146988000Y-108064043D03*
%TO.P,U13,6,OE*%
%TO.N,Net-(C6-Pad1)*%
X146988000Y-107414043D03*
%TO.P,U13,7,VCCB*%
%TO.N,/ESP32_Daughterboard/MCU_5V_BUS*%
X146988000Y-106764043D03*
%TO.P,U13,8,B1*%
%TO.N,/ESP32_Daughterboard/SSERIAL_RX*%
X146988000Y-106114043D03*
%TD*%
D14*
%TO.P,D9,1,K*%
%TO.N,Net-(D9-Pad1)*%
X150613000Y-95659043D03*
%TO.P,D9,2,A*%
%TO.N,Net-(D9-Pad2)*%
X152663000Y-95659043D03*
%TD*%
D15*
%TO.P,U1,1,GND*%
%TO.N,/ESP32_Daughterboard/GND*%
X173058000Y-84386543D03*
%TO.P,U1,2,VDD*%
%TO.N,/ESP32_Daughterboard/3V3_BUS*%
X171788000Y-84386543D03*
%TO.P,U1,3,EN*%
%TO.N,/ESP32_Daughterboard/USB ESP32 CH340 Interface /ESP_EN*%
X170518000Y-84386543D03*
%TO.P,U1,4,SENSOR_VP*%
%TO.N,Net-(J3-Pad1)*%
X169248000Y-84386543D03*
%TO.P,U1,5,SENSOR_VN*%
%TO.N,Net-(J3-Pad2)*%
X167978000Y-84386543D03*
%TO.P,U1,6,IO34*%
%TO.N,Net-(J3-Pad3)*%
X166708000Y-84386543D03*
%TO.P,U1,7,IO35*%
%TO.N,Net-(J3-Pad4)*%
X165438000Y-84386543D03*
%TO.P,U1,8,GPIO32*%
%TO.N,Net-(J5-Pad1)*%
X164168000Y-84386543D03*
%TO.P,U1,9,GPIO33*%
%TO.N,Net-(J5-Pad2)*%
X162898000Y-84386543D03*
%TO.P,U1,10,GPIO25*%
%TO.N,Net-(J5-Pad3)*%
X161628000Y-84386543D03*
%TO.P,U1,11,GPIO26*%
%TO.N,Net-(J5-Pad4)*%
X160358000Y-84386543D03*
%TO.P,U1,12,GPIO27*%
%TO.N,Net-(J5-Pad5)*%
X159088000Y-84386543D03*
%TO.P,U1,13,GPIO14*%
%TO.N,Net-(J5-Pad6)*%
X157818000Y-84386543D03*
%TO.P,U1,14,GPIO12*%
%TO.N,Net-(J5-Pad7)*%
X156548000Y-84386543D03*
D16*
%TO.P,U1,15,GND*%
%TO.N,/ESP32_Daughterboard/GND*%
X155548000Y-87171543D03*
%TO.P,U1,16,GPIO13*%
%TO.N,Net-(J5-Pad8)*%
X155548000Y-88441543D03*
%TO.P,U1,17,SHD/SD2*%
%TO.N,Net-(J4-Pad6)*%
X155548000Y-89711543D03*
%TO.P,U1,18,SWP/SD3*%
%TO.N,Net-(J4-Pad5)*%
X155548000Y-90981543D03*
%TO.P,U1,19,SCS/CMD*%
%TO.N,Net-(J4-Pad4)*%
X155548000Y-92251543D03*
%TO.P,U1,20,SCK/CLK*%
%TO.N,Net-(J4-Pad3)*%
X155548000Y-93521543D03*
%TO.P,U1,21,SDO/SD0*%
%TO.N,Net-(J4-Pad2)*%
X155548000Y-94791543D03*
%TO.P,U1,22,SDI/SD1*%
%TO.N,Net-(J4-Pad1)*%
X155548000Y-96061543D03*
%TO.P,U1,23,GPIO15*%
%TO.N,Net-(J5-Pad9)*%
X155548000Y-97331543D03*
%TO.P,U1,24,GPIO2*%
%TO.N,Net-(D9-Pad2)*%
X155548000Y-98601543D03*
D15*
%TO.P,U1,25,IO0/GPIO0*%
%TO.N,/ESP32_Daughterboard/USB ESP32 CH340 Interface /ESP_IO0*%
X156548000Y-101386543D03*
%TO.P,U1,26,GPIO4*%
%TO.N,4*%
X157818000Y-101386543D03*
%TO.P,U1,27,UART2_RX/GPIO16*%
%TO.N,/ESP32_Daughterboard/Logic Level Conversion/1A*%
X159088000Y-101386543D03*
%TO.P,U1,28,UART2_TX/GPIO17*%
%TO.N,/ESP32_Daughterboard/Logic Level Conversion/0A*%
X160358000Y-101386543D03*
%TO.P,U1,29,GPIO5*%
%TO.N,5*%
X161628000Y-101386543D03*
%TO.P,U1,30,GPIO18*%
%TO.N,18*%
X162898000Y-101386543D03*
%TO.P,U1,31,GPIO19*%
%TO.N,19*%
X164168000Y-101386543D03*
%TO.P,U1,32,NC*%
%TO.N,unconnected-(U1-Pad32)*%
X165438000Y-101386543D03*
%TO.P,U1,33,GPIO21*%
%TO.N,SDA*%
X166708000Y-101386543D03*
%TO.P,U1,34,RXD0/GPIO3*%
%TO.N,/ESP32_Daughterboard/USB ESP32 CH340 Interface /TxD_B*%
X167978000Y-101386543D03*
%TO.P,U1,35,TXD0/GPIO1*%
%TO.N,/ESP32_Daughterboard/USB ESP32 CH340 Interface /RxD_B*%
X169248000Y-101386543D03*
%TO.P,U1,36,GPIO22*%
%TO.N,SCL*%
X170518000Y-101386543D03*
%TO.P,U1,37,GPIO23*%
%TO.N,23*%
X171788000Y-101386543D03*
%TO.P,U1,38,GND*%
%TO.N,/ESP32_Daughterboard/GND*%
X173058000Y-101386543D03*
D17*
%TO.P,U1,39,GND*%
X165558000Y-91886543D03*
%TD*%
D18*
%TO.P,J2,1,Pin_1*%
%TO.N,23*%
X160538000Y-108359043D03*
D19*
%TO.P,J2,2,Pin_2*%
%TO.N,19*%
X159268000Y-108359043D03*
%TO.P,J2,3,Pin_3*%
%TO.N,18*%
X157998000Y-108359043D03*
%TO.P,J2,4,Pin_4*%
%TO.N,5*%
X156728000Y-108359043D03*
%TO.P,J2,5,Pin_5*%
%TO.N,4*%
X155458000Y-108359043D03*
%TD*%
D20*
%TO.P,SW2,1,1*%
%TO.N,/ESP32_Daughterboard/USB ESP32 CH340 Interface /ESP_IO0*%
X147193000Y-99469043D03*
%TO.P,SW2,2,2*%
%TO.N,/ESP32_Daughterboard/GND*%
X141793000Y-99469043D03*
%TD*%
D21*
%TO.P,J20,1,VBUS*%
%TO.N,/ESP32_Daughterboard/USB_PBUS*%
X130048000Y-97636543D03*
%TO.P,J20,2,D-*%
%TO.N,Net-(J20-Pad2)*%
X130048000Y-98436543D03*
%TO.P,J20,3,D+*%
%TO.N,Net-(J20-Pad3)*%
X130048000Y-99236543D03*
%TO.P,J20,4,ID*%
%TO.N,unconnected-(J20-Pad4)*%
X130048000Y-100036543D03*
%TO.P,J20,5,GND*%
%TO.N,/ESP32_Daughterboard/GND*%
X130048000Y-100836543D03*
D22*
%TO.P,J20,6,Shield*%
X129948000Y-103686543D03*
X124498000Y-94786543D03*
X124498000Y-103686543D03*
X129948000Y-94786543D03*
%TD*%
D23*
%TO.P,C29,1*%
%TO.N,Net-(C29-Pad1)*%
X132123000Y-91616543D03*
%TO.P,C29,2*%
%TO.N,/ESP32_Daughterboard/GND*%
X130048000Y-91616543D03*
%TD*%
D24*
%TO.P,R24,1*%
%TO.N,Net-(C6-Pad1)*%
X150638000Y-103279043D03*
%TO.P,R24,2*%
%TO.N,/ESP32_Daughterboard/GND*%
X152638000Y-103279043D03*
%TD*%
D20*
%TO.P,SW3,1,1*%
%TO.N,/ESP32_Daughterboard/USB ESP32 CH340 Interface /ESP_EN*%
X147988000Y-82959043D03*
%TO.P,SW3,2,2*%
%TO.N,/ESP32_Daughterboard/GND*%
X142588000Y-82959043D03*
%TD*%
D18*
%TO.P,J7,1,Pin_1*%
%TO.N,/ESP32_Daughterboard/GND*%
X131943000Y-77011543D03*
D19*
%TO.P,J7,2,Pin_2*%
%TO.N,/ESP32_Daughterboard/3V3_BUS*%
X133213000Y-77011543D03*
%TO.P,J7,3,Pin_3*%
%TO.N,/ESP32_Daughterboard/MCU_5V_BUS*%
X134483000Y-77011543D03*
%TO.P,J7,4,Pin_4*%
%TO.N,SCL*%
X135753000Y-77011543D03*
%TO.P,J7,5,Pin_5*%
%TO.N,SDA*%
X137023000Y-77011543D03*
%TD*%
D23*
%TO.P,C27,1*%
%TO.N,/ESP32_Daughterboard/MCU_5V_BUS*%
X146325500Y-103681543D03*
%TO.P,C27,2*%
%TO.N,/ESP32_Daughterboard/GND*%
X144250500Y-103681543D03*
%TD*%
D25*
%TO.P,R2,1*%
%TO.N,/ESP32_Daughterboard/3V3_BUS*%
X139668000Y-81689043D03*
%TO.P,R2,2*%
%TO.N,SDA*%
X137668000Y-81689043D03*
%TD*%
D26*
%TO.P,C2,1*%
%TO.N,/ESP32_Daughterboard/MCU_5V_BUS*%
X134090500Y-84229043D03*
%TO.P,C2,2*%
%TO.N,/ESP32_Daughterboard/GND*%
X136165500Y-84229043D03*
%TD*%
D18*
%TO.P,J3,1,Pin_1*%
%TO.N,Net-(J3-Pad1)*%
X157353000Y-77011543D03*
D19*
%TO.P,J3,2,Pin_2*%
%TO.N,Net-(J3-Pad2)*%
X156083000Y-77011543D03*
%TO.P,J3,3,Pin_3*%
%TO.N,Net-(J3-Pad3)*%
X154813000Y-77011543D03*
%TO.P,J3,4,Pin_4*%
%TO.N,Net-(J3-Pad4)*%
X153543000Y-77011543D03*
%TD*%
D26*
%TO.P,C3,1*%
%TO.N,/ESP32_Daughterboard/3V3_BUS*%
X170688000Y-80419043D03*
%TO.P,C3,2*%
%TO.N,/ESP32_Daughterboard/GND*%
X172763000Y-80419043D03*
%TD*%
%TO.P,C1,1*%
%TO.N,/ESP32_Daughterboard/USB ESP32 CH340 Interface /ESP_EN*%
X150833000Y-82959043D03*
%TO.P,C1,2*%
%TO.N,/ESP32_Daughterboard/GND*%
X152908000Y-82959043D03*
%TD*%
D27*
%TO.P,C26,1*%
%TO.N,/ESP32_Daughterboard/3V3_BUS*%
X140208000Y-108126543D03*
%TO.P,C26,2*%
%TO.N,/ESP32_Daughterboard/GND*%
X140208000Y-106051543D03*
%TD*%
D24*
%TO.P,R29,1*%
%TO.N,/ESP32_Daughterboard/3V3_BUS*%
X150638000Y-100739043D03*
%TO.P,R29,2*%
%TO.N,Net-(C6-Pad1)*%
X152638000Y-100739043D03*
%TD*%
D23*
%TO.P,C28,1*%
%TO.N,/ESP32_Daughterboard/MCU_5V_BUS*%
X137435500Y-91616543D03*
%TO.P,C28,2*%
%TO.N,/ESP32_Daughterboard/GND*%
X135360500Y-91616543D03*
%TD*%
D28*
%TO.P,C6,1*%
%TO.N,Net-(C6-Pad1)*%
X150368000Y-106051543D03*
%TO.P,C6,2*%
%TO.N,/ESP32_Daughterboard/GND*%
X150368000Y-108126543D03*
%TD*%
D29*
%TO.P,Q20,1,B*%
%TO.N,Net-(Q20-Pad1)*%
X145747500Y-87089043D03*
%TO.P,Q20,2,E*%
%TO.N,Net-(Q20-Pad2)*%
X145747500Y-88989043D03*
%TO.P,Q20,3,C*%
%TO.N,/ESP32_Daughterboard/USB ESP32 CH340 Interface /ESP_EN*%
X147622500Y-88039043D03*
%TD*%
D18*
%TO.P,J5,1,Pin_1*%
%TO.N,Net-(J5-Pad1)*%
X151003000Y-77011543D03*
D19*
%TO.P,J5,2,Pin_2*%
%TO.N,Net-(J5-Pad2)*%
X149733000Y-77011543D03*
%TO.P,J5,3,Pin_3*%
%TO.N,Net-(J5-Pad3)*%
X148463000Y-77011543D03*
%TO.P,J5,4,Pin_4*%
%TO.N,Net-(J5-Pad4)*%
X147193000Y-77011543D03*
%TO.P,J5,5,Pin_5*%
%TO.N,Net-(J5-Pad5)*%
X145923000Y-77011543D03*
%TO.P,J5,6,Pin_6*%
%TO.N,Net-(J5-Pad6)*%
X144653000Y-77011543D03*
%TO.P,J5,7,Pin_7*%
%TO.N,Net-(J5-Pad7)*%
X143383000Y-77011543D03*
%TO.P,J5,8,Pin_8*%
%TO.N,Net-(J5-Pad8)*%
X142113000Y-77011543D03*
%TO.P,J5,9,Pin_9*%
%TO.N,Net-(J5-Pad9)*%
X140843000Y-77011543D03*
%TO.P,J5,10,Pin_10*%
%TO.N,Net-(D9-Pad2)*%
X139573000Y-77011543D03*
%TD*%
D26*
%TO.P,C5,1*%
%TO.N,/ESP32_Daughterboard/3V3_BUS*%
X134090500Y-86769043D03*
%TO.P,C5,2*%
%TO.N,/ESP32_Daughterboard/GND*%
X136165500Y-86769043D03*
%TD*%
D30*
%TO.P,Q19,1,B*%
%TO.N,Net-(Q19-Pad1)*%
X143698000Y-92181543D03*
%TO.P,Q19,2,E*%
%TO.N,Net-(Q19-Pad2)*%
X141798000Y-92181543D03*
%TO.P,Q19,3,C*%
%TO.N,/ESP32_Daughterboard/USB ESP32 CH340 Interface /ESP_IO0*%
X142748000Y-94056543D03*
%TD*%
D18*
%TO.P,J1,1,Pin_1*%
%TO.N,/ESP32_Daughterboard/MCU_5V_BUS*%
X139065000Y-87630000D03*
D19*
%TO.P,J1,2,Pin_2*%
%TO.N,/ESP32_Daughterboard/USB_PBUS*%
X139065000Y-86360000D03*
%TD*%
D18*
%TO.P,J4,1,Pin_1*%
%TO.N,Net-(J4-Pad1)*%
X151638000Y-92484043D03*
D19*
%TO.P,J4,2,Pin_2*%
%TO.N,Net-(J4-Pad2)*%
X151638000Y-91214043D03*
%TO.P,J4,3,Pin_3*%
%TO.N,Net-(J4-Pad3)*%
X151638000Y-89944043D03*
%TO.P,J4,4,Pin_4*%
%TO.N,Net-(J4-Pad4)*%
X151638000Y-88674043D03*
%TO.P,J4,5,Pin_5*%
%TO.N,Net-(J4-Pad5)*%
X151638000Y-87404043D03*
%TO.P,J4,6,Pin_6*%
%TO.N,Net-(J4-Pad6)*%
X151638000Y-86134043D03*
%TD*%
D31*
%TO.P,R25,1*%
%TO.N,Net-(Q20-Pad2)*%
X146558000Y-92119043D03*
%TO.P,R25,2*%
%TO.N,Net-(Q19-Pad1)*%
X146558000Y-94119043D03*
%TD*%
D32*
%TO.P,R26,1*%
%TO.N,Net-(Q19-Pad2)*%
X142875000Y-89039043D03*
%TO.P,R26,2*%
%TO.N,Net-(Q20-Pad1)*%
X142875000Y-87039043D03*
%TD*%
D24*
%TO.P,R30,1*%
%TO.N,Net-(D9-Pad1)*%
X150638000Y-98199043D03*
%TO.P,R30,2*%
%TO.N,/ESP32_Daughterboard/GND*%
X152638000Y-98199043D03*
%TD*%
%TO.P,R3,1*%
%TO.N,/ESP32_Daughterboard/3V3_BUS*%
X131858000Y-81689043D03*
%TO.P,R3,2*%
%TO.N,SCL*%
X133858000Y-81689043D03*
%TD*%
D18*
%TO.P,J19,1,Pin_1*%
%TO.N,/ESP32_Daughterboard/GND*%
X124968000Y-108359043D03*
D19*
%TO.P,J19,2,Pin_2*%
%TO.N,/ESP32_Daughterboard/3V3_BUS*%
X126238000Y-108359043D03*
%TO.P,J19,3,Pin_3*%
%TO.N,/ESP32_Daughterboard/MCU_5V_BUS*%
X127508000Y-108359043D03*
%TO.P,J19,4,Pin_4*%
%TO.N,/ESP32_Daughterboard/USB_PBUS*%
X128778000Y-108359043D03*
%TO.P,J19,5,Pin_5*%
%TO.N,unconnected-(J19-Pad5)*%
X130048000Y-108359043D03*
%TO.P,J19,6,Pin_6*%
%TO.N,unconnected-(J19-Pad6)*%
X131318000Y-108359043D03*
%TO.P,J19,7,Pin_7*%
%TO.N,unconnected-(J19-Pad7)*%
X132588000Y-108359043D03*
%TO.P,J19,8,Pin_8*%
%TO.N,unconnected-(J19-Pad8)*%
X133858000Y-108359043D03*
%TO.P,J19,9,Pin_9*%
%TO.N,/ESP32_Daughterboard/SSERIAL_TX*%
X135128000Y-108359043D03*
%TO.P,J19,10,Pin_10*%
%TO.N,/ESP32_Daughterboard/SSERIAL_RX*%
X136398000Y-108359043D03*
%TD*%
D33*
%TO.N,/ESP32_Daughterboard/USB ESP32 CH340 Interface /ESP_EN*%
X149733000Y-82726543D03*
X169418000Y-82091543D03*
%TO.N,4*%
X156586479Y-104145554D03*
%TO.N,Net-(J5-Pad8)*%
X157988000Y-87171543D03*
%TO.N,Net-(J5-Pad9)*%
X159893000Y-90981543D03*
%TO.N,SCL*%
X168148000Y-98601543D03*
X133962500Y-80166959D03*
%TO.N,SDA*%
X137650697Y-83344241D03*
X165608000Y-99787041D03*
%TO.N,Net-(Q19-Pad2)*%
X137177872Y-97757171D03*
X141478000Y-90346543D03*
%TO.N,/ESP32_Daughterboard/GND*%
X152638000Y-105856543D03*
X142113000Y-80821543D03*
X138937382Y-107491312D03*
X169688000Y-91886543D03*
X126365000Y-103635201D03*
X128785500Y-89069043D03*
X154178000Y-82726543D03*
X141793000Y-101224043D03*
X136398000Y-82726543D03*
X133956012Y-93378056D03*
X173058000Y-86657000D03*
X130048000Y-105586543D03*
X131318000Y-94156543D03*
X152244583Y-96953392D03*
X173058000Y-98722000D03*
%TO.N,Net-(Q20-Pad2)*%
X145288000Y-92251543D03*
X140651283Y-96888258D03*
%TO.N,/ESP32_Daughterboard/MCU_5V_BUS*%
X135128000Y-81456543D03*
X136333500Y-95426543D03*
X135255000Y-88900000D03*
%TO.N,/ESP32_Daughterboard/3V3_BUS*%
X149098000Y-101776543D03*
X141478000Y-107513543D03*
X171323000Y-87171543D03*
%TO.N,/ESP32_Daughterboard/USB_PBUS*%
X131445000Y-96520000D03*
%TO.N,/ESP32_Daughterboard/SSERIAL_RX*%
X145500477Y-106434020D03*
%TO.N,Net-(D9-Pad2)*%
X140717239Y-83487304D03*
X151638000Y-94156543D03*
%TO.N,/ESP32_Daughterboard/Logic Level Conversion/1A*%
X144018000Y-109396543D03*
X152273000Y-108126543D03*
%TO.N,/ESP32_Daughterboard/USB ESP32 CH340 Interface /TxD_B*%
X135763000Y-96696543D03*
X167513000Y-103046543D03*
%TO.N,/ESP32_Daughterboard/USB ESP32 CH340 Interface /RxD_B*%
X135553628Y-98111415D03*
X168783000Y-103046543D03*
%TD*%
D34*
%TO.N,/ESP32_Daughterboard/USB ESP32 CH340 Interface /ESP_EN*%
X147988000Y-87673543D02*
X147988000Y-82959043D01*
X170518000Y-84386543D02*
X170518000Y-83191543D01*
X147622500Y-88039043D02*
X147988000Y-87673543D01*
X149563000Y-82726543D02*
X149330500Y-82959043D01*
X149733000Y-82726543D02*
X149563000Y-82726543D01*
X170518000Y-83191543D02*
X169418000Y-82091543D01*
X147988000Y-82959043D02*
X149330500Y-82959043D01*
X149330500Y-82959043D02*
X150833000Y-82959043D01*
%TO.N,Net-(C29-Pad1)*%
X132144501Y-97228761D02*
X133517283Y-98601543D01*
X132144501Y-91638044D02*
X132144501Y-97228761D01*
%TO.N,23*%
X160538000Y-108359043D02*
X167915500Y-108359043D01*
X171788000Y-104486543D02*
X171788000Y-101386543D01*
X167915500Y-108359043D02*
X171788000Y-104486543D01*
%TO.N,19*%
X164168000Y-102754037D02*
X164168000Y-101386543D01*
X159268000Y-107654037D02*
X164168000Y-102754037D01*
X159268000Y-108359043D02*
X159268000Y-107654037D01*
%TO.N,18*%
X157998000Y-108359043D02*
X162898000Y-103459043D01*
X162898000Y-103459043D02*
X162898000Y-101386543D01*
%TO.N,5*%
X156728000Y-108359043D02*
X161628000Y-103459043D01*
X161628000Y-103459043D02*
X161628000Y-101386543D01*
%TO.N,4*%
X157818000Y-101386543D02*
X157818000Y-102914033D01*
X157818000Y-102914033D02*
X156586479Y-104145554D01*
%TO.N,Net-(J3-Pad1)*%
X169248000Y-84386543D02*
X169248000Y-83186543D01*
X168377511Y-78581061D02*
X166807993Y-77011543D01*
X166807993Y-77011543D02*
X157353000Y-77011543D01*
X168377511Y-82316054D02*
X168377511Y-78581061D01*
X169248000Y-83186543D02*
X168377511Y-82316054D01*
%TO.N,Net-(J3-Pad2)*%
X156083000Y-77718649D02*
X156389318Y-78024967D01*
X156389318Y-78024967D02*
X160739476Y-78024967D01*
X156083000Y-77011543D02*
X156083000Y-77718649D01*
X166833479Y-77602022D02*
X167978000Y-78746543D01*
X161162421Y-77602022D02*
X166833479Y-77602022D01*
X160739476Y-78024967D02*
X161162421Y-77602022D01*
X167978000Y-78746543D02*
X167978000Y-84386543D01*
%TO.N,Net-(J3-Pad3)*%
X165173985Y-81652528D02*
X163758973Y-81652528D01*
X163758973Y-81652528D02*
X160530923Y-78424478D01*
X155520929Y-78424478D02*
X154813000Y-77716549D01*
X166708000Y-84386543D02*
X166708000Y-83186543D01*
X166708000Y-83186543D02*
X165173985Y-81652528D01*
X154813000Y-77716549D02*
X154813000Y-77011543D01*
X160530923Y-78424478D02*
X155520929Y-78424478D01*
%TO.N,Net-(J3-Pad4)*%
X163593490Y-82052039D02*
X160365440Y-78823989D01*
X165438000Y-84386543D02*
X165438000Y-83186543D01*
X165438000Y-83186543D02*
X164303496Y-82052039D01*
X155355446Y-78823989D02*
X153543000Y-77011543D01*
X160365440Y-78823989D02*
X155355446Y-78823989D01*
X164303496Y-82052039D02*
X163593490Y-82052039D01*
%TO.N,Net-(J4-Pad1)*%
X151638000Y-92930565D02*
X154768978Y-96061543D01*
X151638000Y-92484043D02*
X151638000Y-92930565D01*
%TO.N,Net-(J4-Pad2)*%
X154348000Y-94791543D02*
X155548000Y-94791543D01*
X153143489Y-93587032D02*
X154348000Y-94791543D01*
X151967022Y-91214043D02*
X153143489Y-92390510D01*
X153143489Y-92390510D02*
X153143489Y-93587032D01*
%TO.N,Net-(J4-Pad3)*%
X153143489Y-91449532D02*
X153143489Y-91782025D01*
X153143489Y-91782025D02*
X154883007Y-93521543D01*
X151638000Y-89944043D02*
X153143489Y-91449532D01*
%TO.N,Net-(J4-Pad4)*%
X154178000Y-92251543D02*
X155548000Y-92251543D01*
X153543000Y-91616543D02*
X154178000Y-92251543D01*
X151638000Y-88674043D02*
X153543000Y-90579043D01*
X153543000Y-90579043D02*
X153543000Y-91616543D01*
%TO.N,Net-(J4-Pad5)*%
X153143489Y-89614538D02*
X154510494Y-90981543D01*
X154510494Y-90981543D02*
X155548000Y-90981543D01*
X151638000Y-87404043D02*
X153143489Y-88909532D01*
X153143489Y-88909532D02*
X153143489Y-89614538D01*
%TO.N,Net-(J4-Pad6)*%
X153543000Y-88039043D02*
X153543000Y-89076543D01*
X153543000Y-89076543D02*
X154178000Y-89711543D01*
X154178000Y-89711543D02*
X155548000Y-89711543D01*
X151638000Y-86134043D02*
X153543000Y-88039043D01*
%TO.N,Net-(J5-Pad1)*%
X164168000Y-83191543D02*
X160199956Y-79223499D01*
X164168000Y-84386543D02*
X164168000Y-83191543D01*
X153214956Y-79223499D02*
X151003000Y-77011543D01*
X153214956Y-79223500D02*
X160199956Y-79223499D01*
%TO.N,Net-(J5-Pad2)*%
X162898000Y-83186543D02*
X159334467Y-79623010D01*
X151726599Y-79623010D02*
X149733000Y-77629411D01*
X162898000Y-84386543D02*
X162898000Y-83186543D01*
X151726599Y-79623011D02*
X159334467Y-79623010D01*
X149733000Y-77629411D02*
X149733000Y-77011543D01*
%TO.N,Net-(J5-Pad3)*%
X151473978Y-80022521D02*
X158458978Y-80022521D01*
X151473978Y-80022521D02*
X148463000Y-77011543D01*
X161628000Y-83191543D02*
X161628000Y-84386543D01*
X158458978Y-80022521D02*
X161628000Y-83191543D01*
%TO.N,Net-(J5-Pad4)*%
X157588498Y-80422041D02*
X151308491Y-80422040D01*
X160358000Y-83191543D02*
X157588498Y-80422041D01*
X148131831Y-77811054D02*
X147332320Y-77011543D01*
X151308491Y-80422040D02*
X148697505Y-77811054D01*
X160358000Y-84386543D02*
X160358000Y-83191543D01*
X148697505Y-77811054D02*
X148131831Y-77811054D01*
%TO.N,Net-(J5-Pad5)*%
X159088000Y-84386543D02*
X159088000Y-83186543D01*
X159088000Y-83186543D02*
X156723000Y-80821543D01*
X156723000Y-80821543D02*
X156223046Y-80821543D01*
X156223046Y-80821543D02*
X156223030Y-80821559D01*
X145923000Y-77011543D02*
X149733000Y-80821543D01*
X156223030Y-80821559D02*
X151143004Y-80821559D01*
X149733000Y-80821543D02*
X152273000Y-80821543D01*
%TO.N,Net-(J5-Pad6)*%
X157818000Y-83186543D02*
X155852520Y-81221063D01*
X148862520Y-81221063D02*
X144653000Y-77011543D01*
X157818000Y-84386543D02*
X157818000Y-83186543D01*
X155852520Y-81221063D02*
X148862520Y-81221063D01*
%TO.N,Net-(J5-Pad7)*%
X156548000Y-83191543D02*
X154977031Y-81620574D01*
X156548000Y-84386543D02*
X156548000Y-83191543D01*
X147992031Y-81620574D02*
X143383000Y-77011543D01*
X154977031Y-81620574D02*
X147992031Y-81620574D01*
%TO.N,Net-(J5-Pad8)*%
X155548000Y-88441543D02*
X156718000Y-88441543D01*
X156718000Y-88441543D02*
X157988000Y-87171543D01*
%TO.N,Net-(J5-Pad9)*%
X159893000Y-94186543D02*
X156748000Y-97331543D01*
X159893000Y-90981543D02*
X159893000Y-94186543D01*
X156748000Y-97331543D02*
X155548000Y-97331543D01*
%TO.N,Net-(D9-Pad1)*%
X150613000Y-95659043D02*
X150613000Y-98174043D01*
%TO.N,SCL*%
X133858000Y-81689043D02*
X133858000Y-80271459D01*
X168148000Y-98601543D02*
X168933000Y-98601543D01*
X170518000Y-100186543D02*
X170518000Y-101386543D01*
X168933000Y-98601543D02*
X170518000Y-100186543D01*
X133858000Y-80271459D02*
X133962500Y-80166959D01*
%TO.N,SDA*%
X137023000Y-81044043D02*
X137668000Y-81689043D01*
X137668000Y-83326938D02*
X137650697Y-83344241D01*
X165608000Y-99787041D02*
X165887520Y-99787041D01*
X137023000Y-77011543D02*
X137023000Y-81044043D01*
X137668000Y-81689043D02*
X137668000Y-83326938D01*
X165887520Y-99787041D02*
X166708000Y-100607521D01*
%TO.N,Net-(J20-Pad2)*%
X135273587Y-100983587D02*
X135273587Y-99676413D01*
X135279772Y-100989772D02*
X135273587Y-100983587D01*
X135128000Y-101141543D02*
X133858000Y-101141543D01*
X135128000Y-101141543D02*
X135279772Y-100989772D01*
X130048000Y-98436543D02*
X132082283Y-98436543D01*
X132917763Y-99272023D02*
X134869197Y-99272023D01*
X132082283Y-98436543D02*
X132917763Y-99272023D01*
X134869197Y-99272023D02*
X135273587Y-99676413D01*
%TO.N,Net-(J20-Pad3)*%
X130048000Y-99236543D02*
X131953000Y-99236543D01*
X131953000Y-99236543D02*
X132588000Y-99871543D01*
X132588000Y-99871543D02*
X133858000Y-99871543D01*
%TO.N,Net-(Q19-Pad1)*%
X143698000Y-92181543D02*
X145635500Y-94119043D01*
X145635500Y-94119043D02*
X146558000Y-94119043D01*
%TO.N,Net-(Q19-Pad2)*%
X141798000Y-92181543D02*
X141798000Y-90666543D01*
X141567500Y-90346543D02*
X142875000Y-89039043D01*
X138022244Y-98601543D02*
X137177872Y-97757171D01*
X141478000Y-90346543D02*
X141567500Y-90346543D01*
X141798000Y-90666543D02*
X141478000Y-90346543D01*
D35*
%TO.N,/ESP32_Daughterboard/GND*%
X144250500Y-103681543D02*
X141793000Y-101224043D01*
X130048000Y-103786543D02*
X129948000Y-103686543D01*
X141793000Y-101224043D02*
X141793000Y-99469043D01*
X133985000Y-90241043D02*
X135360500Y-91616543D01*
D36*
X131268000Y-89069043D02*
X130048000Y-90289043D01*
D35*
X129948000Y-94786543D02*
X124498000Y-94786543D01*
X173058000Y-84386543D02*
X173058000Y-86657000D01*
D34*
X130048000Y-100836543D02*
X130048000Y-103586543D01*
D35*
X126313658Y-103686543D02*
X126365000Y-103635201D01*
D34*
X140208000Y-106220694D02*
X138937382Y-107491312D01*
D35*
X130688000Y-94786543D02*
X131318000Y-94156543D01*
D34*
X150368000Y-108126543D02*
X152638000Y-105856543D01*
D35*
X155548000Y-87171543D02*
X155548000Y-84096543D01*
X130048000Y-105586543D02*
X130048000Y-103786543D01*
X140920500Y-106764043D02*
X140208000Y-106051543D01*
D36*
X130048000Y-90289043D02*
X130048000Y-91616543D01*
D35*
X138937382Y-107322161D02*
X140208000Y-106051543D01*
X142588000Y-81296543D02*
X142113000Y-80821543D01*
X154178000Y-82726543D02*
X153140500Y-82726543D01*
D36*
X165558000Y-91886543D02*
X169688000Y-91886543D01*
D35*
X138937382Y-107491312D02*
X138937382Y-107322161D01*
X172763000Y-80419043D02*
X173058000Y-80714043D01*
X133956012Y-93021031D02*
X135360500Y-91616543D01*
X129948000Y-94786543D02*
X130688000Y-94786543D01*
X129948000Y-103686543D02*
X129948000Y-100936543D01*
X152638000Y-97346809D02*
X152244583Y-96953392D01*
X133858000Y-94791543D02*
X133858000Y-93476068D01*
X143588000Y-106764043D02*
X140920500Y-106764043D01*
X155548000Y-84096543D02*
X154178000Y-82726543D01*
X153140500Y-82726543D02*
X152908000Y-82959043D01*
X133985000Y-88949543D02*
X133985000Y-90241043D01*
X124498000Y-103686543D02*
X126313658Y-103686543D01*
X133956012Y-93378056D02*
X133956012Y-93021031D01*
X133858000Y-93476068D02*
X133956012Y-93378056D01*
X173058000Y-80714043D02*
X173058000Y-84386543D01*
X136165500Y-86769043D02*
X133985000Y-88949543D01*
X142588000Y-82959043D02*
X142588000Y-81296543D01*
D36*
X131268000Y-89069043D02*
X128785500Y-89069043D01*
D35*
X136165500Y-82959043D02*
X136398000Y-82726543D01*
X173058000Y-98722000D02*
X173058000Y-101386543D01*
X152638000Y-105856543D02*
X152638000Y-103279043D01*
X152638000Y-98199043D02*
X152638000Y-97346809D01*
X136165500Y-84229043D02*
X136165500Y-82959043D01*
D34*
%TO.N,Net-(Q20-Pad1)*%
X142875000Y-87039043D02*
X145697500Y-87039043D01*
%TO.N,Net-(Q20-Pad2)*%
X138808000Y-97331543D02*
X140207998Y-97331543D01*
X145420500Y-92119043D02*
X145288000Y-92251543D01*
X146558000Y-92119043D02*
X145420500Y-92119043D01*
X140207998Y-97331543D02*
X140651283Y-96888258D01*
X145747500Y-91308543D02*
X146558000Y-92119043D01*
X145747500Y-88989043D02*
X145747500Y-91308543D01*
D35*
%TO.N,/ESP32_Daughterboard/MCU_5V_BUS*%
X148088000Y-106764043D02*
X146988000Y-106764043D01*
D34*
X134982999Y-83336544D02*
X134090500Y-84229043D01*
D35*
X131268000Y-84469043D02*
X133850500Y-84469043D01*
X138808000Y-94791543D02*
X136968500Y-94791543D01*
X138808000Y-92989043D02*
X137435500Y-91616543D01*
X133850500Y-84469043D02*
X134090500Y-84229043D01*
D34*
X137033000Y-91214043D02*
X137033000Y-90678000D01*
D35*
X135128000Y-81456543D02*
X134903489Y-81232032D01*
X138808000Y-94791543D02*
X138808000Y-92989043D01*
X134903489Y-81232032D02*
X134903489Y-77432032D01*
X134903489Y-77432032D02*
X134483000Y-77011543D01*
X139614522Y-94791543D02*
X146325500Y-101502521D01*
X148137511Y-105493554D02*
X148137511Y-106714532D01*
X136968500Y-94791543D02*
X136333500Y-95426543D01*
X135128000Y-83191543D02*
X135128000Y-81456543D01*
X137435500Y-91080500D02*
X135255000Y-88900000D01*
X146325500Y-103681543D02*
X148137511Y-105493554D01*
X139065000Y-89987043D02*
X139065000Y-87630000D01*
X137435500Y-91616543D02*
X139065000Y-89987043D01*
X148137511Y-106714532D02*
X148088000Y-106764043D01*
X134090500Y-84229043D02*
X135128000Y-83191543D01*
X146325500Y-101502521D02*
X146325500Y-103681543D01*
D34*
X134982999Y-77511542D02*
X134982999Y-83336544D01*
D35*
%TO.N,/ESP32_Daughterboard/3V3_BUS*%
X127114501Y-103324746D02*
X123298489Y-99508734D01*
X126238000Y-108359043D02*
X127114501Y-107482542D01*
X133213000Y-80334043D02*
X133213000Y-77011543D01*
X171788000Y-81519043D02*
X170688000Y-80419043D01*
X131268000Y-86769043D02*
X124968000Y-86769043D01*
X140865000Y-108126543D02*
X141478000Y-107513543D01*
X134090500Y-86769043D02*
X135165020Y-85694523D01*
X171788000Y-84386543D02*
X171788000Y-86706543D01*
X143588000Y-107414043D02*
X141577500Y-107414043D01*
X129918489Y-83369532D02*
X131598978Y-81689043D01*
X129918489Y-85419532D02*
X129918489Y-83369532D01*
X171788000Y-84386543D02*
X171788000Y-81519043D01*
X139668000Y-82386892D02*
X139668000Y-81689043D01*
X136360369Y-85694523D02*
X139668000Y-82386892D01*
X139125989Y-109208554D02*
X140208000Y-108126543D01*
X127087511Y-109208554D02*
X139125989Y-109208554D01*
X126238000Y-108359043D02*
X127087511Y-109208554D01*
X123298489Y-99508734D02*
X123298489Y-88438554D01*
X131858000Y-81689043D02*
X133213000Y-80334043D01*
X149098000Y-101776543D02*
X149600500Y-101776543D01*
X131268000Y-86769043D02*
X129918489Y-85419532D01*
X171788000Y-86706543D02*
X171323000Y-87171543D01*
X149600500Y-101776543D02*
X150638000Y-100739043D01*
X127114501Y-107482542D02*
X127114501Y-103324746D01*
X131598978Y-81689043D02*
X131858000Y-81689043D01*
X135165020Y-85694523D02*
X136360369Y-85694523D01*
X123298489Y-88438554D02*
X124968000Y-86769043D01*
X141577500Y-107414043D02*
X141478000Y-107513543D01*
X134090500Y-86769043D02*
X131268000Y-86769043D01*
X140208000Y-108126543D02*
X140865000Y-108126543D01*
D34*
%TO.N,Net-(C6-Pad1)*%
X150368000Y-106051543D02*
X150368000Y-103549043D01*
X149005500Y-107414043D02*
X150368000Y-106051543D01*
X146988000Y-107414043D02*
X149005500Y-107414043D01*
X150638000Y-102739043D02*
X152638000Y-100739043D01*
D35*
%TO.N,/ESP32_Daughterboard/USB_PBUS*%
X128278001Y-98257520D02*
X128898978Y-97636543D01*
X128278001Y-107859044D02*
X128278001Y-98257520D01*
X128898978Y-97636543D02*
X130048000Y-97636543D01*
X130328457Y-97636543D02*
X131445000Y-96520000D01*
X128778000Y-108359043D02*
X128278001Y-107859044D01*
D34*
%TO.N,/ESP32_Daughterboard/SSERIAL_TX*%
X142638480Y-105164523D02*
X143588000Y-106114043D01*
X138322520Y-105164523D02*
X142638480Y-105164523D01*
X135128000Y-108359043D02*
X138322520Y-105164523D01*
%TO.N,/ESP32_Daughterboard/SSERIAL_RX*%
X145820454Y-106114043D02*
X145500477Y-106434020D01*
X146988000Y-106114043D02*
X145820454Y-106114043D01*
%TO.N,Net-(D9-Pad2)*%
X140567520Y-83337585D02*
X140717239Y-83487304D01*
X139573000Y-77011543D02*
X140567520Y-78006063D01*
X140567520Y-78006063D02*
X140567520Y-83337585D01*
X152663000Y-95659043D02*
X152663000Y-96382564D01*
X152663000Y-96382564D02*
X154881979Y-98601543D01*
X152663000Y-95181543D02*
X151638000Y-94156543D01*
%TO.N,/ESP32_Daughterboard/USB ESP32 CH340 Interface /ESP_IO0*%
X154630500Y-99469043D02*
X147193000Y-99469043D01*
X156548000Y-101386543D02*
X154630500Y-99469043D01*
X142748000Y-95024043D02*
X147193000Y-99469043D01*
X142748000Y-94056543D02*
X142748000Y-95024043D01*
%TO.N,/ESP32_Daughterboard/Logic Level Conversion/1A*%
X159088000Y-102633278D02*
X153594735Y-108126543D01*
X153594735Y-108126543D02*
X152273000Y-108126543D01*
X144018000Y-109396543D02*
X144018000Y-108494043D01*
X144018000Y-108494043D02*
X143588000Y-108064043D01*
X159088000Y-101386543D02*
X159088000Y-102633278D01*
%TO.N,/ESP32_Daughterboard/Logic Level Conversion/0A*%
X160358000Y-102300788D02*
X160358000Y-101386543D01*
X147937520Y-109013563D02*
X153645225Y-109013563D01*
X146988000Y-108064043D02*
X147937520Y-109013563D01*
X153645225Y-109013563D02*
X160358000Y-102300788D01*
%TO.N,/ESP32_Daughterboard/USB ESP32 CH340 Interface /TxD_B*%
X135128000Y-96061543D02*
X133858000Y-96061543D01*
X135763000Y-96696543D02*
X135128000Y-96061543D01*
X167978000Y-102581543D02*
X167513000Y-103046543D01*
X167978000Y-101386543D02*
X167978000Y-102581543D01*
%TO.N,/ESP32_Daughterboard/USB ESP32 CH340 Interface /RxD_B*%
X134773756Y-97331543D02*
X135553628Y-98111415D01*
X169248000Y-102581543D02*
X168783000Y-103046543D01*
X169248000Y-101386543D02*
X169248000Y-102581543D01*
X133858000Y-97331543D02*
X134773756Y-97331543D01*
%TD*%
M02*
