M48
; DRILL file {KiCad (6.0.0)} date Mon Mar  7 15:46:15 2022
; FORMAT={-:-/ absolute / metric / decimal}
; #@! TF.CreationDate,2022-03-07T15:46:15+00:00
; #@! TF.GenerationSoftware,Kicad,Pcbnew,(6.0.0)
; #@! TF.FileFunction,Plated,1,4,PTH
FMAT,2
METRIC
; #@! TA.AperFunction,Plated,PTH,ViaDrill
T1C0.400
; #@! TA.AperFunction,Plated,PTH,ComponentDrill
T2C0.650
%
G90
G05
T1
X126.365Y-103.635
X128.785Y-89.069
X130.048Y-105.587
X131.318Y-94.157
X131.445Y-96.52
X133.956Y-93.378
X133.963Y-80.167
X135.128Y-81.457
X135.255Y-88.9
X135.554Y-98.111
X135.763Y-96.697
X136.333Y-95.427
X136.398Y-82.727
X137.178Y-97.757
X137.651Y-83.344
X138.937Y-107.491
X140.651Y-96.888
X140.717Y-83.487
X141.478Y-90.347
X141.478Y-107.514
X141.793Y-101.224
X142.113Y-80.822
X144.018Y-109.397
X145.288Y-92.252
X145.5Y-106.434
X149.098Y-101.777
X149.733Y-82.727
X151.638Y-94.157
X152.245Y-96.953
X152.273Y-108.127
X152.638Y-105.857
X154.178Y-82.727
X156.586Y-104.146
X157.988Y-87.172
X159.893Y-90.982
X165.608Y-99.787
X167.513Y-103.047
X168.148Y-98.602
X168.783Y-103.047
X169.418Y-82.092
X169.688Y-91.887
X171.323Y-87.172
X173.058Y-86.657
X173.058Y-98.722
T2
X124.968Y-108.359
X126.238Y-108.359
X127.508Y-108.359
X128.778Y-108.359
X130.048Y-108.359
X131.318Y-108.359
X131.943Y-77.012
X132.588Y-108.359
X133.213Y-77.012
X133.858Y-108.359
X134.483Y-77.012
X135.128Y-108.359
X135.753Y-77.012
X136.398Y-108.359
X137.023Y-77.012
X139.065Y-86.36
X139.065Y-87.63
X139.573Y-77.012
X140.843Y-77.012
X142.113Y-77.012
X143.383Y-77.012
X144.653Y-77.012
X145.923Y-77.012
X147.193Y-77.012
X148.463Y-77.012
X149.733Y-77.012
X151.003Y-77.012
X151.638Y-86.134
X151.638Y-87.404
X151.638Y-88.674
X151.638Y-89.944
X151.638Y-91.214
X151.638Y-92.484
X153.543Y-77.012
X154.813Y-77.012
X155.458Y-108.359
X156.083Y-77.012
X156.728Y-108.359
X157.353Y-77.012
X157.998Y-108.359
X159.268Y-108.359
X160.538Y-108.359
T0
M30
