%TF.GenerationSoftware,KiCad,Pcbnew,(6.0.0)*%
%TF.CreationDate,2022-03-04T10:43:38+00:00*%
%TF.ProjectId,ISOpower,49534f70-6f77-4657-922e-6b696361645f,rev?*%
%TF.SameCoordinates,Original*%
%TF.FileFunction,Copper,L2,Inr*%
%TF.FilePolarity,Positive*%
%FSLAX46Y46*%
G04 Gerber Fmt 4.6, Leading zero omitted, Abs format (unit mm)*
G04 Created by KiCad (PCBNEW (6.0.0)) date 2022-03-04 10:43:38*
%MOMM*%
%LPD*%
G01*
G04 APERTURE LIST*
%TA.AperFunction,ComponentPad*%
%ADD10R,1.600000X1.500000*%
%TD*%
%TA.AperFunction,ComponentPad*%
%ADD11C,1.600000*%
%TD*%
%TA.AperFunction,ComponentPad*%
%ADD12C,3.000000*%
%TD*%
%TA.AperFunction,ComponentPad*%
%ADD13C,1.400000*%
%TD*%
%TA.AperFunction,ComponentPad*%
%ADD14R,3.500000X3.500000*%
%TD*%
%TA.AperFunction,ComponentPad*%
%ADD15C,3.500000*%
%TD*%
%TA.AperFunction,ComponentPad*%
%ADD16O,1.600000X1.600000*%
%TD*%
%TA.AperFunction,ComponentPad*%
%ADD17R,1.000000X1.000000*%
%TD*%
%TA.AperFunction,ComponentPad*%
%ADD18O,1.000000X1.000000*%
%TD*%
%TA.AperFunction,ComponentPad*%
%ADD19R,3.960000X1.980000*%
%TD*%
%TA.AperFunction,ComponentPad*%
%ADD20O,3.960000X1.980000*%
%TD*%
%TA.AperFunction,ComponentPad*%
%ADD21C,1.900000*%
%TD*%
%TA.AperFunction,ComponentPad*%
%ADD22C,2.500000*%
%TD*%
%TA.AperFunction,ComponentPad*%
%ADD23C,1.800000*%
%TD*%
%TA.AperFunction,ComponentPad*%
%ADD24R,1.400000X1.400000*%
%TD*%
%TA.AperFunction,ComponentPad*%
%ADD25C,3.716000*%
%TD*%
%TA.AperFunction,ComponentPad*%
%ADD26R,3.716000X3.716000*%
%TD*%
%TA.AperFunction,ComponentPad*%
%ADD27O,2.400000X1.200000*%
%TD*%
%TA.AperFunction,ViaPad*%
%ADD28C,0.800000*%
%TD*%
%TA.AperFunction,Conductor*%
%ADD29C,0.200000*%
%TD*%
%TA.AperFunction,Conductor*%
%ADD30C,4.000000*%
%TD*%
%TA.AperFunction,Conductor*%
%ADD31C,4.500000*%
%TD*%
%TA.AperFunction,Conductor*%
%ADD32C,7.000000*%
%TD*%
%TA.AperFunction,Conductor*%
%ADD33C,0.300000*%
%TD*%
%TA.AperFunction,Conductor*%
%ADD34C,6.500000*%
%TD*%
%TA.AperFunction,Conductor*%
%ADD35C,3.000000*%
%TD*%
G04 APERTURE END LIST*
D10*
%TO.N,5V_BUS*%
%TO.C,J12*%
X135599511Y-134319511D03*
D11*
%TO.N,unconnected-(J12-Pad2)*%
X138099511Y-134319511D03*
%TO.N,unconnected-(J12-Pad3)*%
X140099511Y-134319511D03*
%TO.N,GNDPWR*%
X142599511Y-134319511D03*
D12*
X145669511Y-137029511D03*
X132529511Y-137029511D03*
%TD*%
D13*
%TO.N,*%
%TO.C,J15*%
X90284511Y-42545000D03*
X101284511Y-42545000D03*
D14*
%TO.N,GNDPWR*%
X93284511Y-47545000D03*
D15*
%TO.N,/Power Outputs/12V_OP_1*%
X98284511Y-47545000D03*
%TD*%
D11*
%TO.N,Net-(R7-Pad1)*%
%TO.C,R7*%
X59690000Y-85725000D03*
D16*
%TO.N,GNDPWR*%
X59690000Y-93345000D03*
%TD*%
D17*
%TO.N,Net-(J8-Pad1)*%
%TO.C,J8*%
X106494511Y-126869511D03*
D18*
%TO.N,/AtMega328p/MCU_5V_BUS*%
X107764511Y-126869511D03*
%TO.N,Net-(J8-Pad3)*%
X106494511Y-128139511D03*
%TO.N,Net-(J8-Pad4)*%
X107764511Y-128139511D03*
%TO.N,/AtMega328p/USB MCU CH340 Interface A/DTR_A*%
X106494511Y-129409511D03*
%TO.N,GNDPWR*%
X107764511Y-129409511D03*
%TD*%
D17*
%TO.N,/AtMega328p/ADC5*%
%TO.C,J25*%
X128270000Y-109855000D03*
D18*
%TO.N,/AtMega328p/ADC4*%
X129540000Y-109855000D03*
%TD*%
D19*
%TO.N,GNDPWR*%
%TO.C,J21*%
X173804511Y-75989511D03*
D20*
%TO.N,24V_BUS*%
X173804511Y-70989511D03*
%TD*%
D21*
%TO.N,24V_BUS*%
%TO.C,U5*%
X81824511Y-109089511D03*
%TO.N,Net-(JP3-Pad2)*%
X89424511Y-109089511D03*
%TO.N,GNDPWR*%
X97024511Y-109089511D03*
D22*
X97024511Y-81189511D03*
D21*
%TO.N,unconnected-(U5-Pad5)*%
X93224511Y-81189511D03*
%TO.N,Net-(R7-Pad1)*%
X89424511Y-81189511D03*
%TO.N,/Power Distribution/12V_I_SENSE_IP*%
X85624511Y-81189511D03*
D22*
X81824511Y-81189511D03*
D23*
%TO.N,unconnected-(U5-Pad32)*%
X98424511Y-88789511D03*
D21*
%TO.N,unconnected-(U5-Pad33)*%
X98424511Y-84989511D03*
%TO.N,unconnected-(U5-Pad34)*%
X85624511Y-109089511D03*
%TD*%
D13*
%TO.N,*%
%TO.C,J14*%
X75044511Y-42545000D03*
X86044511Y-42545000D03*
D14*
%TO.N,GNDPWR*%
X78044511Y-47545000D03*
D15*
%TO.N,/Power Outputs/12V_OP_0*%
X83044511Y-47545000D03*
%TD*%
D13*
%TO.N,*%
%TO.C,J18*%
X147004511Y-42545000D03*
X136004511Y-42545000D03*
D14*
%TO.N,GNDPWR*%
X139004511Y-47545000D03*
D15*
%TO.N,/Power Outputs/12V_OP_4*%
X144004511Y-47545000D03*
%TD*%
D17*
%TO.N,/AtMega328p/CH_C*%
%TO.C,J24*%
X128905000Y-106680000D03*
%TD*%
D19*
%TO.N,GNDPWR*%
%TO.C,J22*%
X62804511Y-55749511D03*
D20*
%TO.N,12V_BUS*%
X62804511Y-60749511D03*
%TD*%
D10*
%TO.N,5V_BUS*%
%TO.C,J13*%
X156849506Y-134319511D03*
D11*
%TO.N,unconnected-(J13-Pad2)*%
X159349506Y-134319511D03*
%TO.N,unconnected-(J13-Pad3)*%
X161349506Y-134319511D03*
%TO.N,GNDPWR*%
X163849506Y-134319511D03*
D12*
X153779506Y-137029511D03*
X166919506Y-137029511D03*
%TD*%
D21*
%TO.N,24V_BUS*%
%TO.C,U4*%
X122524511Y-81119511D03*
%TO.N,Net-(JP2-Pad2)*%
X114924511Y-81119511D03*
%TO.N,GNDPWR*%
X107324511Y-81119511D03*
D22*
X107324511Y-109019511D03*
D21*
%TO.N,unconnected-(U4-Pad5)*%
X111124511Y-109019511D03*
%TO.N,Net-(R6-Pad1)*%
X114924511Y-109019511D03*
%TO.N,/Power Distribution/5V_I_SENSE_IP*%
X118724511Y-109019511D03*
D22*
X122524511Y-109019511D03*
D23*
%TO.N,unconnected-(U4-Pad32)*%
X105924511Y-101419511D03*
D21*
%TO.N,unconnected-(U4-Pad33)*%
X105924511Y-105219511D03*
%TO.N,unconnected-(U4-Pad34)*%
X118724511Y-81119511D03*
%TD*%
D11*
%TO.N,24V_BUS*%
%TO.C,C19*%
X136525000Y-72390000D03*
%TO.N,GNDPWR*%
X131525000Y-72390000D03*
%TD*%
D24*
%TO.N,Net-(M1-Pad1)*%
%TO.C,M1*%
X67809511Y-70629511D03*
D13*
%TO.N,GNDPWR*%
X65809511Y-70629511D03*
%TD*%
D10*
%TO.N,5V_BUS*%
%TO.C,J10*%
X92834511Y-134319511D03*
D11*
%TO.N,unconnected-(J10-Pad2)*%
X95334511Y-134319511D03*
%TO.N,unconnected-(J10-Pad3)*%
X97334511Y-134319511D03*
%TO.N,GNDPWR*%
X99834511Y-134319511D03*
D12*
X102904511Y-137029511D03*
X89764511Y-137029511D03*
%TD*%
D17*
%TO.N,/USB_PBUS*%
%TO.C,J6*%
X117924511Y-126954511D03*
D18*
%TO.N,/AtMega328p/MCU_5V_BUS*%
X117924511Y-125684511D03*
%TO.N,MCU_5V*%
X117924511Y-124414511D03*
%TD*%
D11*
%TO.N,Net-(R6-Pad1)*%
%TO.C,R6*%
X59690000Y-104775000D03*
D16*
%TO.N,GNDPWR*%
X59690000Y-97155000D03*
%TD*%
D25*
%TO.N,GNDPWR*%
%TO.C,J1*%
X167454511Y-54899511D03*
D26*
%TO.N,/24V_0*%
X167454511Y-62099511D03*
D27*
%TO.N,N/C*%
X173454511Y-65249511D03*
X173454511Y-51749511D03*
%TD*%
D17*
%TO.N,/USB_PBUS*%
%TO.C,J26*%
X169545000Y-130810000D03*
%TD*%
D13*
%TO.N,*%
%TO.C,J17*%
X120764511Y-42545000D03*
X131764511Y-42545000D03*
D14*
%TO.N,GNDPWR*%
X123764511Y-47545000D03*
D15*
%TO.N,/Power Outputs/12V_OP_3*%
X128764511Y-47545000D03*
%TD*%
D13*
%TO.N,*%
%TO.C,J16*%
X116524511Y-42545000D03*
X105524511Y-42545000D03*
D14*
%TO.N,GNDPWR*%
X108524511Y-47545000D03*
D15*
%TO.N,/Power Outputs/12V_OP_2*%
X113524511Y-47545000D03*
%TD*%
D10*
%TO.N,5V_BUS*%
%TO.C,J9*%
X71464511Y-134319511D03*
D11*
%TO.N,unconnected-(J9-Pad2)*%
X73964511Y-134319511D03*
%TO.N,unconnected-(J9-Pad3)*%
X75964511Y-134319511D03*
%TO.N,GNDPWR*%
X78464511Y-134319511D03*
D12*
X68394511Y-137029511D03*
X81534511Y-137029511D03*
%TD*%
D17*
%TO.N,/3V3_BUS*%
%TO.C,J30*%
X121285000Y-120015000D03*
%TD*%
%TO.N,GND*%
%TO.C,J29*%
X130004511Y-127747783D03*
D18*
%TO.N,/3V3_BUS*%
X131274511Y-127747783D03*
%TO.N,/AtMega328p/MCU_5V_BUS*%
X132544511Y-127747783D03*
%TO.N,/USB_PBUS*%
X133814511Y-127747783D03*
%TO.N,unconnected-(J29-Pad5)*%
X135084511Y-127747783D03*
%TO.N,unconnected-(J29-Pad6)*%
X136354511Y-127747783D03*
%TO.N,unconnected-(J29-Pad7)*%
X137624511Y-127747783D03*
%TO.N,unconnected-(J29-Pad8)*%
X138894511Y-127747783D03*
%TO.N,/AtMega328p/SSERIAL_TX*%
X140164511Y-127747783D03*
%TO.N,/AtMega328p/SSERIAL_RX*%
X141434511Y-127747783D03*
%TD*%
D12*
%TO.N,/24V_0*%
%TO.C,F1*%
X159324511Y-43309511D03*
%TO.N,/24V_1*%
X159324511Y-65909511D03*
%TD*%
D19*
%TO.N,GNDPWR*%
%TO.C,J23*%
X62044511Y-121234511D03*
D20*
%TO.N,5V_BUS*%
X62044511Y-126234511D03*
%TD*%
D10*
%TO.N,5V_BUS*%
%TO.C,J11*%
X114204511Y-134319511D03*
D11*
%TO.N,unconnected-(J11-Pad2)*%
X116704511Y-134319511D03*
%TO.N,unconnected-(J11-Pad3)*%
X118704511Y-134319511D03*
%TO.N,GNDPWR*%
X121204511Y-134319511D03*
D12*
X111134511Y-137029511D03*
X124274511Y-137029511D03*
%TD*%
D28*
%TO.N,GND*%
X141605000Y-108585000D03*
X163524290Y-109525710D03*
X151130000Y-107315000D03*
X146050000Y-100330000D03*
X142240000Y-120650000D03*
X161925000Y-100330000D03*
X151765000Y-113030000D03*
X141605000Y-100965000D03*
X156845000Y-100330000D03*
X162264511Y-113369511D03*
X157480000Y-116840000D03*
X154940000Y-120015000D03*
X152364991Y-126964991D03*
X141605000Y-116205000D03*
X156845000Y-107315000D03*
X129540000Y-115570000D03*
X157475681Y-128319999D03*
X166370000Y-113030000D03*
X131445000Y-120650000D03*
X151130000Y-100330000D03*
X136525000Y-108585000D03*
%TO.N,MCU_5V*%
X73660000Y-76835000D03*
X89247122Y-102522878D03*
%TO.N,24V_BUS*%
X93450000Y-98320000D03*
X155575000Y-83820000D03*
X149365378Y-83044622D03*
X69456753Y-112636753D03*
X137160000Y-78740000D03*
X109478762Y-95508762D03*
X102340000Y-98320000D03*
X83820000Y-103569500D03*
X75885009Y-107629991D03*
X161607500Y-70802500D03*
X87379375Y-99444375D03*
X152335500Y-83325378D03*
X71361753Y-110731753D03*
X124620000Y-79024022D03*
X67945000Y-114935000D03*
X118686262Y-86301262D03*
X115828762Y-89158762D03*
X105515000Y-98320000D03*
X166500489Y-70989511D03*
X140017500Y-80962500D03*
X146050000Y-83185000D03*
X67945000Y-116840000D03*
X85156875Y-100900500D03*
X79695009Y-107629991D03*
X99800000Y-98320000D03*
X72949253Y-109144253D03*
X113606262Y-91381262D03*
X158750000Y-83820000D03*
X67945000Y-121920000D03*
X70485000Y-125095000D03*
X111383762Y-93603762D03*
X161925000Y-77470000D03*
X142875000Y-83820000D03*
X69215000Y-123825000D03*
X81915000Y-105410000D03*
X169675489Y-70989511D03*
X136525000Y-75565000D03*
X162242500Y-82867500D03*
X120591262Y-84396262D03*
X90275000Y-98320000D03*
X67945000Y-119380000D03*
X96625000Y-98320000D03*
X128270000Y-78740000D03*
X133403359Y-77804116D03*
%TO.N,/Power Distribution/5V_I_SENSE_IP*%
X113640978Y-112419022D03*
X117792500Y-112077500D03*
X107315000Y-115570000D03*
X110172500Y-112712500D03*
X104905489Y-116709511D03*
%TO.N,Net-(D1-Pad2)*%
X156845000Y-80645000D03*
X164524500Y-77995000D03*
%TO.N,Net-(D2-Pad1)*%
X155396482Y-128448518D03*
X151130000Y-136525000D03*
%TO.N,Net-(D2-Pad2)*%
X148590000Y-136525000D03*
X147320000Y-129540000D03*
X142005908Y-126544001D03*
%TO.N,Net-(D4-Pad2)*%
X170376567Y-115455500D03*
X156845000Y-124460000D03*
X161629511Y-124799511D03*
X147320000Y-127520500D03*
X166709511Y-116544511D03*
X174964511Y-108289511D03*
%TO.N,Net-(D4-Pad3)*%
X160930011Y-122794531D03*
X166002756Y-115837756D03*
X173694511Y-104479511D03*
%TO.N,Net-(D6-Pad2)*%
X78740000Y-104775000D03*
X78740000Y-118110000D03*
%TO.N,Net-(D8-Pad2)*%
X83185000Y-118110000D03*
X79375000Y-102934500D03*
%TO.N,/Power Distribution/12V_I_SENSE_IP*%
X79602011Y-83412011D03*
X86042500Y-76517500D03*
%TO.N,/24V_0*%
X160337500Y-47307500D03*
X160655000Y-50800000D03*
X160655000Y-54610000D03*
X162560000Y-60325000D03*
X160655000Y-58420000D03*
%TO.N,Net-(J8-Pad1)*%
X150773492Y-124165021D03*
%TO.N,Net-(J8-Pad3)*%
X151772730Y-124142049D03*
%TO.N,Net-(J8-Pad4)*%
X149468877Y-124741579D03*
%TO.N,/24V_1*%
X156641351Y-66471351D03*
X150462876Y-69399022D03*
X154622500Y-68262500D03*
%TO.N,5V_BUS*%
X64107500Y-128297500D03*
X145622598Y-131872402D03*
X134620000Y-130810000D03*
X128270000Y-133985000D03*
X131185000Y-131070000D03*
X106680000Y-121920000D03*
X113665000Y-117475000D03*
X92710000Y-131445000D03*
X149550499Y-132389501D03*
X127375000Y-131070000D03*
X104775000Y-121920000D03*
X102870000Y-128270000D03*
X138430000Y-130810000D03*
X101780207Y-131070000D03*
X81915000Y-131070000D03*
X67917500Y-132107500D03*
X110604124Y-120243521D03*
X108259501Y-133040499D03*
X75565000Y-131070000D03*
X102870000Y-125095000D03*
X124835000Y-131070000D03*
X78740000Y-131070000D03*
X98425000Y-130810000D03*
X89747500Y-131232500D03*
X66012500Y-130202500D03*
X104449501Y-133040499D03*
X72765000Y-131070000D03*
X95250000Y-130810000D03*
X116580000Y-131070000D03*
X70715000Y-131850000D03*
X109220000Y-121220500D03*
X85725000Y-130657135D03*
X121025000Y-131070000D03*
X112395000Y-132715000D03*
X142240000Y-130810000D03*
X154940000Y-132715000D03*
%TO.N,/5V_BUS_MONITOR*%
X79731429Y-119112465D03*
X86360000Y-135890000D03*
X142462055Y-123246489D03*
X136361318Y-116587000D03*
X122555000Y-121920000D03*
X86360000Y-125095000D03*
%TO.N,/12V_BUS_MONITOR*%
X134018069Y-116775500D03*
X97155000Y-72390000D03*
X85725000Y-118110000D03*
X133985000Y-120015000D03*
%TO.N,/BUS_B_DISABLE*%
X117814511Y-77174511D03*
X131445000Y-108585000D03*
%TO.N,/BUS_A_DISABLE*%
X144780000Y-117861358D03*
X91440000Y-114300000D03*
%TO.N,/Power Outputs/5v to 12v logic conversion_v2/0_OUT*%
X136525000Y-99695000D03*
X73219511Y-53975000D03*
%TO.N,/Power Outputs/5v to 12v logic conversion_v2/1_OUT*%
X90805000Y-53975000D03*
X142240000Y-96520000D03*
%TO.N,/Power Outputs/5v to 12v logic conversion_v2/2_OUT*%
X147320000Y-96520000D03*
X107950000Y-53975000D03*
%TO.N,/Power Outputs/5v to 12v logic conversion_v2/3_OUT*%
X125730000Y-53975000D03*
X153035000Y-96520000D03*
%TO.N,/Power Outputs/5v to 12v logic conversion_v2/4_OUT*%
X158115000Y-96520000D03*
X141605000Y-64770000D03*
%TO.N,Net-(R3a1-Pad2)*%
X104775000Y-74930000D03*
X108016641Y-72577885D03*
%TO.N,Net-(R3b1-Pad2)*%
X92710000Y-127000000D03*
X88265000Y-125095000D03*
%TO.N,/AtMega328p/MCU_5V_BUS*%
X149858259Y-113028259D03*
X155279511Y-113369511D03*
X144829326Y-115740990D03*
X152490011Y-121379692D03*
X143844562Y-119844011D03*
X142916593Y-125045001D03*
%TO.N,/BUS_I_SENSE_A*%
X151765000Y-119380000D03*
X78105000Y-74295000D03*
%TO.N,/BUS_I_SENSE_B*%
X151598314Y-120680192D03*
X123825000Y-113144500D03*
%TO.N,12V_BUS*%
X90805000Y-62375520D03*
X67520489Y-60749511D03*
X110703642Y-66542322D03*
X90105978Y-67374022D03*
X125434520Y-67605480D03*
X135059511Y-68140489D03*
X102235000Y-67310000D03*
X80645000Y-67310000D03*
X71120000Y-62865000D03*
X74295000Y-60960000D03*
X81280000Y-70485000D03*
X136525000Y-66374022D03*
X116205000Y-67310000D03*
X120472878Y-67487122D03*
X93345000Y-67310000D03*
X130175000Y-67945000D03*
X76835000Y-67310000D03*
X105980500Y-67310000D03*
X97725978Y-67374022D03*
X85725000Y-67310000D03*
X73810000Y-65255000D03*
X126365000Y-62865000D03*
X108585000Y-62865000D03*
%TO.N,/AtMega328p/USB MCU CH340 Interface A/DTR_A*%
X147214648Y-116607555D03*
X107315000Y-135890000D03*
X128360762Y-125209500D03*
X153374511Y-117814511D03*
X111760000Y-128905000D03*
%TO.N,/3V3_BUS*%
X126365000Y-120650000D03*
%TO.N,/USB_PBUS*%
X122555000Y-127000000D03*
X172251616Y-118712935D03*
%TO.N,/AtMega328p/ADC5*%
X147930008Y-115909511D03*
%TO.N,/AtMega328p/ADC4*%
X148929511Y-115909511D03*
%TO.N,/AtMega328p/SSERIAL_TX*%
X146999842Y-124735445D03*
%TO.N,/AtMega328p/SSERIAL_RX*%
X148209834Y-124909082D03*
%TO.N,/AtMega328p/CH_F*%
X137041633Y-111922389D03*
X148609011Y-123959149D03*
%TO.N,/AtMega328p/CH_G*%
X141944511Y-111464511D03*
X152256854Y-116510188D03*
%TO.N,/AtMega328p/CH_H*%
X151292014Y-116781232D03*
X146975106Y-112310607D03*
%TO.N,/AtMega328p/USB MCU CH340 Interface A/RxD_A*%
X146816178Y-115683130D03*
X157184511Y-119784011D03*
%TO.N,/AtMega328p/USB MCU CH340 Interface A/TxD_A*%
X156210000Y-118110000D03*
X145841866Y-115906114D03*
%TO.N,HV*%
X127635000Y-74994500D03*
X157480000Y-99060000D03*
X135890000Y-97155000D03*
X140970000Y-99060000D03*
X145415000Y-99060000D03*
X160655000Y-96520000D03*
X151765000Y-99060000D03*
%TO.N,GNDPWR*%
X103095480Y-77879520D03*
X95380000Y-76070000D03*
X122555000Y-117475000D03*
X99920480Y-77879520D03*
X118745000Y-72390000D03*
X155020000Y-91995000D03*
X71755000Y-46606017D03*
X79375000Y-125730000D03*
X97155000Y-112395000D03*
X71755000Y-43180000D03*
X73660000Y-123190000D03*
X171784511Y-81580489D03*
X76200000Y-92710000D03*
X106268879Y-77693879D03*
X116840000Y-121220500D03*
X71755000Y-49781019D03*
X87059500Y-127457625D03*
X99695000Y-126365000D03*
X113030000Y-76835000D03*
X82550000Y-112395000D03*
X65232500Y-68407500D03*
X90805000Y-126365000D03*
X97024511Y-78235489D03*
X94615000Y-120650000D03*
X118745000Y-120243521D03*
X70167500Y-68897500D03*
X85421611Y-123167367D03*
X88900000Y-116840000D03*
X171784511Y-79675489D03*
X157415500Y-92805000D03*
X95250000Y-116205000D03*
X167454511Y-49080489D03*
%TO.N,Net-(M1-Pad1)*%
X66977617Y-65845500D03*
%TO.N,/Power Outputs/MID_PWR*%
X145732500Y-68262500D03*
X154305000Y-48260000D03*
X143052122Y-68402878D03*
X150985000Y-64280000D03*
X153670000Y-60325000D03*
X156131742Y-52626742D03*
%TD*%
D29*
%TO.N,HV*%
X158115000Y-99060000D02*
X160655000Y-96520000D01*
X157480000Y-99060000D02*
X158115000Y-99060000D01*
D30*
%TO.N,24V_BUS*%
X161925000Y-81915000D02*
X160020000Y-83820000D01*
X67945000Y-116840000D02*
X67945000Y-119380000D01*
X99800000Y-98320000D02*
X102340000Y-98320000D01*
X156210000Y-73025000D02*
X156845000Y-73660000D01*
X155575000Y-83820000D02*
X152830122Y-83820000D01*
X149365378Y-83044622D02*
X149646135Y-83325379D01*
X96625000Y-98320000D02*
X99800000Y-98320000D01*
X158750000Y-83820000D02*
X155575000Y-83820000D01*
X136525000Y-77470000D02*
X136525000Y-75565000D01*
X93450000Y-98320000D02*
X96625000Y-98320000D01*
X160655000Y-71755000D02*
X159385000Y-73025000D01*
X83820000Y-103505000D02*
X83820000Y-103569500D01*
X160020000Y-83820000D02*
X158750000Y-83820000D01*
X124460000Y-79184022D02*
X124460000Y-78740000D01*
X81915000Y-105410000D02*
X83755500Y-103569500D01*
X161925000Y-77470000D02*
X161925000Y-81915000D01*
X67945000Y-114935000D02*
X67945000Y-116840000D01*
X67945000Y-114148507D02*
X67945000Y-114935000D01*
X67945000Y-122555000D02*
X69215000Y-123825000D01*
X136525000Y-75565000D02*
X136525000Y-73660000D01*
X89005000Y-98320000D02*
X83820000Y-103505000D01*
X90275000Y-98320000D02*
X89005000Y-98320000D01*
X81824511Y-109089511D02*
X80364991Y-107629991D01*
X120591262Y-84396262D02*
X122524511Y-82463013D01*
X142875000Y-83820000D02*
X145415000Y-83820000D01*
X149646135Y-83325379D02*
X152335500Y-83325378D01*
X149365378Y-83044622D02*
X149225000Y-83185000D01*
X122524511Y-82463013D02*
X122524511Y-81119511D01*
X109478762Y-95508762D02*
X111383762Y-93603762D01*
X133403359Y-77987141D02*
X133403359Y-77804116D01*
X132650500Y-78740000D02*
X133403359Y-77987141D01*
X67945000Y-121920000D02*
X67945000Y-122555000D01*
X142875000Y-83820000D02*
X140017500Y-80962500D01*
X140017500Y-80962500D02*
X136525000Y-77470000D01*
X173804511Y-70989511D02*
X166500489Y-70989511D01*
X163195000Y-69215000D02*
X161607500Y-70802500D01*
X102340000Y-98320000D02*
X105515000Y-98320000D01*
X80364991Y-107629991D02*
X79695009Y-107629991D01*
X83755500Y-103569500D02*
X83820000Y-103569500D01*
X111383762Y-93603762D02*
X113606262Y-91381262D01*
X136525000Y-77470000D02*
X136190884Y-77804116D01*
X122524511Y-81119511D02*
X124460000Y-79184022D01*
X145415000Y-83820000D02*
X146050000Y-83185000D01*
X118686262Y-86301262D02*
X120591262Y-84396262D01*
X72949253Y-109144253D02*
X71361753Y-110731753D01*
X128270000Y-78740000D02*
X132650500Y-78740000D01*
X149225000Y-83185000D02*
X146050000Y-83185000D01*
X113606262Y-91381262D02*
X115828762Y-89158762D01*
X106667524Y-98320000D02*
X109478762Y-95508762D01*
X75885009Y-107629991D02*
X74463516Y-107629991D01*
X156845000Y-73660000D02*
X161925000Y-73660000D01*
X81824511Y-109089511D02*
X81824511Y-105500489D01*
X67945000Y-119380000D02*
X67945000Y-121920000D01*
X69215000Y-123825000D02*
X70485000Y-125095000D01*
X163830000Y-69215000D02*
X163195000Y-69215000D01*
X105515000Y-98320000D02*
X106667524Y-98320000D01*
X74463516Y-107629991D02*
X72949253Y-109144253D01*
X69456753Y-112636753D02*
X67945000Y-114148507D01*
X128270000Y-78740000D02*
X124460000Y-78740000D01*
X161925000Y-76200000D02*
X161925000Y-77470000D01*
X79695009Y-107629991D02*
X75885009Y-107629991D01*
X165604511Y-70989511D02*
X163830000Y-69215000D01*
X115828762Y-89158762D02*
X118686262Y-86301262D01*
X90275000Y-98320000D02*
X93450000Y-98320000D01*
X159385000Y-73025000D02*
X156210000Y-73025000D01*
X81824511Y-105500489D02*
X81915000Y-105410000D01*
X71361753Y-110731753D02*
X69456753Y-112636753D01*
X161607500Y-70802500D02*
X160655000Y-71755000D01*
X152830122Y-83820000D02*
X152335500Y-83325378D01*
X136190884Y-77804116D02*
X133403359Y-77804116D01*
X161925000Y-73660000D02*
X161925000Y-76200000D01*
X166500489Y-70989511D02*
X165604511Y-70989511D01*
D31*
%TO.N,/Power Distribution/5V_I_SENSE_IP*%
X117450978Y-112419022D02*
X113640978Y-112419022D01*
X118745000Y-111125000D02*
X117450978Y-112419022D01*
X112532636Y-112419022D02*
X110465978Y-112419022D01*
X118724511Y-111104511D02*
X118745000Y-111125000D01*
X113640978Y-112419022D02*
X112532636Y-112419022D01*
X118724511Y-109019511D02*
X118724511Y-111104511D01*
X110465978Y-112419022D02*
X110172500Y-112712500D01*
X107950000Y-114935000D02*
X107315000Y-115570000D01*
X110172500Y-112712500D02*
X107950000Y-114935000D01*
X107315000Y-115570000D02*
X106045000Y-116840000D01*
D29*
%TO.N,Net-(D2-Pad2)*%
X146100853Y-129540000D02*
X143104854Y-126544001D01*
X143104854Y-126544001D02*
X142005908Y-126544001D01*
X147320000Y-129540000D02*
X146100853Y-129540000D01*
%TO.N,Net-(D4-Pad2)*%
X147904022Y-128104522D02*
X147320000Y-127520500D01*
X153070772Y-128104522D02*
X147904022Y-128104522D01*
X156845000Y-124460000D02*
X156715294Y-124460000D01*
X156715294Y-124460000D02*
X153070772Y-128104522D01*
D32*
%TO.N,/Power Distribution/12V_I_SENSE_IP*%
X78740000Y-84274022D02*
X81824511Y-81189511D01*
X81824511Y-78195489D02*
X82550000Y-77470000D01*
X81824511Y-81189511D02*
X81824511Y-78195489D01*
X82550000Y-78115000D02*
X84775000Y-80340000D01*
X82550000Y-77470000D02*
X82550000Y-78115000D01*
X82550000Y-77470000D02*
X85090000Y-77470000D01*
D30*
%TO.N,/24V_0*%
X160337500Y-57467500D02*
X164969511Y-62099511D01*
X164969511Y-62099511D02*
X167454511Y-62099511D01*
X160337500Y-44322500D02*
X159324511Y-43309511D01*
X160337500Y-47307500D02*
X160337500Y-44322500D01*
X160337500Y-47307500D02*
X160337500Y-57467500D01*
%TO.N,/24V_1*%
X156975489Y-65909511D02*
X154622500Y-68262500D01*
X159324511Y-65909511D02*
X156975489Y-65909511D01*
X153035000Y-69850000D02*
X152400000Y-69215000D01*
X154622500Y-68262500D02*
X153035000Y-69850000D01*
X152400000Y-69215000D02*
X151130000Y-69215000D01*
D31*
%TO.N,5V_BUS*%
X101600000Y-130810000D02*
X102870000Y-129540000D01*
X63379511Y-126234511D02*
X68902500Y-131757500D01*
X101600000Y-130810000D02*
X103505000Y-132715000D01*
X98425000Y-130810000D02*
X100330000Y-130810000D01*
X113665000Y-132715000D02*
X115310000Y-131070000D01*
X102870000Y-129540000D02*
X102870000Y-126365000D01*
X69590000Y-131070000D02*
X72765000Y-131070000D01*
X102870000Y-125095000D02*
X106045000Y-121920000D01*
X81915000Y-131070000D02*
X78740000Y-131070000D01*
X154940000Y-132715000D02*
X156210000Y-132715000D01*
X72765000Y-131070000D02*
X75565000Y-131070000D01*
X100330000Y-130810000D02*
X101600000Y-130810000D01*
X134620000Y-130810000D02*
X138430000Y-130810000D01*
X143510000Y-130810000D02*
X143770000Y-131070000D01*
X113665000Y-117475000D02*
X113030000Y-117475000D01*
X142240000Y-130810000D02*
X143510000Y-130810000D01*
X134233195Y-131196805D02*
X134620000Y-130810000D01*
X68902500Y-131757500D02*
X70715000Y-133570000D01*
X62044511Y-126234511D02*
X63379511Y-126234511D01*
X102870000Y-128270000D02*
X102870000Y-126365000D01*
X127520541Y-131196805D02*
X134233195Y-131196805D01*
X143945504Y-131070000D02*
X145590504Y-132715000D01*
X138430000Y-130810000D02*
X142240000Y-130810000D01*
X100330000Y-130810000D02*
X102870000Y-128270000D01*
X145590504Y-132715000D02*
X154940000Y-132715000D01*
X95250000Y-130810000D02*
X94990000Y-131070000D01*
X127393736Y-131070000D02*
X127520541Y-131196805D01*
X113030000Y-117475000D02*
X110604124Y-119900876D01*
X128270000Y-132715000D02*
X128270000Y-133985000D01*
X112395000Y-132715000D02*
X113665000Y-132715000D01*
X106045000Y-121920000D02*
X108520500Y-121920000D01*
X156210000Y-132715000D02*
X156284257Y-132789257D01*
X110604124Y-120243521D02*
X110196979Y-120243521D01*
X103505000Y-132715000D02*
X112395000Y-132715000D01*
X94990000Y-131070000D02*
X81915000Y-131070000D01*
X68902500Y-131757500D02*
X69590000Y-131070000D01*
X78740000Y-131070000D02*
X75565000Y-131070000D01*
X128270000Y-133985000D02*
X128270000Y-135703569D01*
X115310000Y-131070000D02*
X127393736Y-131070000D01*
X110604124Y-119900876D02*
X110604124Y-120243521D01*
X108520500Y-121920000D02*
X109220000Y-121220500D01*
X95250000Y-130810000D02*
X98425000Y-130810000D01*
X134620000Y-133534547D02*
X134620000Y-130810000D01*
X143770000Y-131070000D02*
X143945504Y-131070000D01*
X110196979Y-120243521D02*
X109220000Y-121220500D01*
D29*
%TO.N,/5V_BUS_MONITOR*%
X122555000Y-121920000D02*
X125362535Y-119112465D01*
X125362535Y-119112465D02*
X133835853Y-119112465D01*
X133835853Y-119112465D02*
X136361318Y-116587000D01*
X136361318Y-116587000D02*
X136907000Y-116587000D01*
X136907000Y-116587000D02*
X142462055Y-122142055D01*
X142462055Y-122142055D02*
X142462055Y-123246489D01*
%TO.N,Net-(R3b1-Pad2)*%
X88265000Y-125095000D02*
X90805000Y-125095000D01*
X90805000Y-125095000D02*
X92710000Y-127000000D01*
%TO.N,Net-(R7-Pad1)*%
X89424511Y-81189511D02*
X81724511Y-88889511D01*
X81724511Y-88889511D02*
X62854511Y-88889511D01*
X62854511Y-88889511D02*
X59690000Y-85725000D01*
D33*
%TO.N,/AtMega328p/MCU_5V_BUS*%
X143166582Y-125294990D02*
X142916593Y-125045001D01*
X146349910Y-125394910D02*
X143375327Y-125394910D01*
X153035000Y-121924681D02*
X153035000Y-125095000D01*
X153035000Y-125095000D02*
X152400000Y-125730000D01*
X152400000Y-125730000D02*
X146685000Y-125730000D01*
X154009511Y-113369511D02*
X152400000Y-111760000D01*
X135247293Y-125045001D02*
X142916593Y-125045001D01*
X144829326Y-115740990D02*
X143844562Y-116725754D01*
X151126518Y-111760000D02*
X149858259Y-113028259D01*
X152400000Y-111760000D02*
X151126518Y-111760000D01*
X155279511Y-113369511D02*
X154009511Y-113369511D01*
X143844562Y-116725754D02*
X143844562Y-119844011D01*
X152490011Y-121379692D02*
X153035000Y-121924681D01*
X146685000Y-125730000D02*
X146349910Y-125394910D01*
X143375327Y-125394910D02*
X143275407Y-125294990D01*
X108949511Y-125684511D02*
X117924511Y-125684511D01*
X132544511Y-127747783D02*
X135247293Y-125045001D01*
X107764511Y-126869511D02*
X108949511Y-125684511D01*
X143275407Y-125294990D02*
X143166582Y-125294990D01*
D34*
%TO.N,12V_BUS*%
X92710000Y-67310000D02*
X93345000Y-67310000D01*
X130175000Y-67945000D02*
X116840000Y-67945000D01*
X102235000Y-67310000D02*
X105980500Y-67310000D01*
X74295000Y-62865000D02*
X74295000Y-60960000D01*
X135059511Y-68140489D02*
X130370489Y-68140489D01*
X135059511Y-68140489D02*
X137990489Y-68140489D01*
X71120000Y-62865000D02*
X72707500Y-64452500D01*
X105980500Y-67310000D02*
X109935964Y-67310000D01*
X126365000Y-62865000D02*
X121920000Y-67310000D01*
X80645000Y-67310000D02*
X80645000Y-69850000D01*
X75565000Y-67310000D02*
X76835000Y-67310000D01*
X116205000Y-67310000D02*
X120295756Y-67310000D01*
X130370489Y-68140489D02*
X130175000Y-67945000D01*
X108585000Y-62865000D02*
X110703642Y-64983642D01*
X92710000Y-67310000D02*
X92710000Y-64135000D01*
X69004511Y-60749511D02*
X71120000Y-62865000D01*
X92710000Y-64135000D02*
X90805000Y-62230000D01*
X80645000Y-67310000D02*
X85725000Y-67310000D01*
X85725000Y-67310000D02*
X92710000Y-67310000D01*
X121920000Y-67310000D02*
X120650000Y-67310000D01*
X116840000Y-67945000D02*
X116205000Y-67310000D01*
X120295756Y-67310000D02*
X120472878Y-67487122D01*
X73660000Y-65405000D02*
X75565000Y-67310000D01*
X127000000Y-62865000D02*
X130175000Y-66040000D01*
X62804511Y-60749511D02*
X69004511Y-60749511D01*
X116205000Y-67310000D02*
X111471320Y-67310000D01*
X93345000Y-67310000D02*
X102235000Y-67310000D01*
X120650000Y-67310000D02*
X120472878Y-67487122D01*
X130175000Y-66040000D02*
X130175000Y-67945000D01*
X76835000Y-67310000D02*
X80645000Y-67310000D01*
X110703642Y-64983642D02*
X110703642Y-66542322D01*
X126365000Y-62865000D02*
X127000000Y-62865000D01*
X111471320Y-67310000D02*
X110703642Y-66542322D01*
X72707500Y-64452500D02*
X74295000Y-62865000D01*
X72707500Y-64452500D02*
X73660000Y-65405000D01*
X80645000Y-69850000D02*
X81280000Y-70485000D01*
X109935964Y-67310000D02*
X110703642Y-66542322D01*
D33*
%TO.N,/3V3_BUS*%
X131274511Y-125559511D02*
X126365000Y-120650000D01*
X131274511Y-127747783D02*
X131274511Y-125559511D01*
%TO.N,/USB_PBUS*%
X127000000Y-127000000D02*
X128547294Y-128547294D01*
X169545000Y-130810000D02*
X168629990Y-129894990D01*
X132965000Y-128597294D02*
X133015000Y-128547294D01*
X122555000Y-127000000D02*
X127000000Y-127000000D01*
X133814511Y-127747783D02*
X135767793Y-125794501D01*
X168629990Y-122334561D02*
X172251616Y-118712935D01*
X152970499Y-128840499D02*
X155445998Y-126365000D01*
X128547294Y-128547294D02*
X129155000Y-128547294D01*
X165735000Y-130810000D02*
X169545000Y-130810000D01*
X133015000Y-128547294D02*
X133814511Y-127747783D01*
X147890499Y-128840499D02*
X152970499Y-128840499D01*
X168629990Y-129894990D02*
X168629990Y-122334561D01*
X161290000Y-126365000D02*
X165735000Y-130810000D01*
X129155000Y-128547294D02*
X129205000Y-128597294D01*
X143068503Y-125794501D02*
X145544002Y-128270000D01*
X135767793Y-125794501D02*
X143068503Y-125794501D01*
X147320000Y-128270000D02*
X147890499Y-128840499D01*
X145544002Y-128270000D02*
X147320000Y-128270000D01*
X155445998Y-126365000D02*
X161290000Y-126365000D01*
X129205000Y-128597294D02*
X132965000Y-128597294D01*
D29*
%TO.N,/AtMega328p/CH_F*%
X142939501Y-119928195D02*
X142939501Y-119725256D01*
X142939501Y-119725256D02*
X137041633Y-113827388D01*
X137041633Y-113827388D02*
X137041633Y-111922389D01*
X148609011Y-123959149D02*
X146970455Y-123959149D01*
X146970455Y-123959149D02*
X142939501Y-119928195D01*
%TO.N,/AtMega328p/USB MCU CH340 Interface A/RxD_A*%
X147289298Y-115210010D02*
X146816178Y-115683130D01*
X152317283Y-115210010D02*
X147289298Y-115210010D01*
X157184511Y-119784011D02*
X156891284Y-119784011D01*
X156891284Y-119784011D02*
X152317283Y-115210010D01*
%TO.N,/AtMega328p/USB MCU CH340 Interface A/TxD_A*%
X146635087Y-114810500D02*
X145841866Y-115603721D01*
X152910500Y-114810500D02*
X146635087Y-114810500D01*
X145841866Y-115603721D02*
X145841866Y-115906114D01*
X156210000Y-118110000D02*
X152910500Y-114810500D01*
%TO.N,HV*%
X151765000Y-99060000D02*
X157480000Y-99060000D01*
X145415000Y-99060000D02*
X151765000Y-99060000D01*
X140970000Y-99060000D02*
X145415000Y-99060000D01*
X137795000Y-99060000D02*
X135890000Y-97155000D01*
X140970000Y-99060000D02*
X137795000Y-99060000D01*
%TO.N,Net-(M1-Pad1)*%
X67809511Y-70629511D02*
X67809511Y-66677394D01*
X67809511Y-66677394D02*
X66977617Y-65845500D01*
D35*
%TO.N,/Power Outputs/MID_PWR*%
X156210000Y-52070000D02*
X153670000Y-54610000D01*
X150495000Y-64135000D02*
X146050000Y-68580000D01*
X156210000Y-50165000D02*
X156210000Y-52070000D01*
X153670000Y-62865000D02*
X152400000Y-64135000D01*
X143229244Y-68580000D02*
X143052122Y-68402878D01*
X146050000Y-68580000D02*
X143229244Y-68580000D01*
X152400000Y-64135000D02*
X150495000Y-64135000D01*
X154305000Y-48260000D02*
X156210000Y-50165000D01*
X153670000Y-54610000D02*
X153670000Y-62865000D01*
%TD*%
M02*
