%TF.GenerationSoftware,KiCad,Pcbnew,(6.0.0)*%
%TF.CreationDate,2022-03-07T14:47:04+00:00*%
%TF.ProjectId,ISOpower,49534f70-6f77-4657-922e-6b696361645f,rev?*%
%TF.SameCoordinates,Original*%
%TF.FileFunction,Paste,Top*%
%TF.FilePolarity,Positive*%
%FSLAX46Y46*%
G04 Gerber Fmt 4.6, Leading zero omitted, Abs format (unit mm)*
G04 Created by KiCad (PCBNEW (6.0.0)) date 2022-03-07 14:47:04*
%MOMM*%
%LPD*%
G01*
G04 APERTURE LIST*
G04 Aperture macros list*
%AMRoundRect*
0 Rectangle with rounded corners*
0 $1 Rounding radius*
0 $2 $3 $4 $5 $6 $7 $8 $9 X,Y pos of 4 corners*
0 Add a 4 corners polygon primitive as box body*
4,1,4,$2,$3,$4,$5,$6,$7,$8,$9,$2,$3,0*
0 Add four circle primitives for the rounded corners*
1,1,$1+$1,$2,$3*
1,1,$1+$1,$4,$5*
1,1,$1+$1,$6,$7*
1,1,$1+$1,$8,$9*
0 Add four rect primitives between the rounded corners*
20,1,$1+$1,$2,$3,$4,$5,0*
20,1,$1+$1,$4,$5,$6,$7,0*
20,1,$1+$1,$6,$7,$8,$9,0*
20,1,$1+$1,$8,$9,$2,$3,0*%
G04 Aperture macros list end*
%ADD10R,1.200000X1.400000*%
%ADD11R,1.000000X1.400000*%
%ADD12RoundRect,0.250000X-0.450000X0.325000X-0.450000X-0.325000X0.450000X-0.325000X0.450000X0.325000X0*%
%ADD13RoundRect,0.250000X0.325000X0.450000X-0.325000X0.450000X-0.325000X-0.450000X0.325000X-0.450000X0*%
%ADD14R,1.700000X3.300000*%
%ADD15RoundRect,0.150000X-0.825000X-0.150000X0.825000X-0.150000X0.825000X0.150000X-0.825000X0.150000X0*%
%ADD16RoundRect,0.150000X0.825000X0.150000X-0.825000X0.150000X-0.825000X-0.150000X0.825000X-0.150000X0*%
%ADD17RoundRect,0.150000X0.150000X-0.825000X0.150000X0.825000X-0.150000X0.825000X-0.150000X-0.825000X0*%
%ADD18RoundRect,0.207500X-0.207500X-0.207500X0.207500X-0.207500X0.207500X0.207500X-0.207500X0.207500X0*%
%ADD19RoundRect,0.062500X-0.375000X-0.062500X0.375000X-0.062500X0.375000X0.062500X-0.375000X0.062500X0*%
%ADD20RoundRect,0.062500X-0.062500X-0.375000X0.062500X-0.375000X0.062500X0.375000X-0.062500X0.375000X0*%
%ADD21R,1.800000X2.500000*%
%ADD22RoundRect,0.250000X-1.500000X-0.550000X1.500000X-0.550000X1.500000X0.550000X-1.500000X0.550000X0*%
%ADD23R,4.550000X5.250000*%
%ADD24R,4.600000X1.100000*%
%ADD25RoundRect,0.150000X0.150000X-0.587500X0.150000X0.587500X-0.150000X0.587500X-0.150000X-0.587500X0*%
%ADD26RoundRect,0.250000X-0.350000X-0.450000X0.350000X-0.450000X0.350000X0.450000X-0.350000X0.450000X0*%
%ADD27RoundRect,0.250000X-0.475000X0.337500X-0.475000X-0.337500X0.475000X-0.337500X0.475000X0.337500X0*%
%ADD28RoundRect,0.250000X-0.337500X-0.475000X0.337500X-0.475000X0.337500X0.475000X-0.337500X0.475000X0*%
%ADD29RoundRect,0.250000X0.350000X0.450000X-0.350000X0.450000X-0.350000X-0.450000X0.350000X-0.450000X0*%
%ADD30RoundRect,0.250000X1.500000X0.550000X-1.500000X0.550000X-1.500000X-0.550000X1.500000X-0.550000X0*%
%ADD31RoundRect,0.250000X0.475000X-0.337500X0.475000X0.337500X-0.475000X0.337500X-0.475000X-0.337500X0*%
%ADD32RoundRect,0.250000X0.337500X0.475000X-0.337500X0.475000X-0.337500X-0.475000X0.337500X-0.475000X0*%
%ADD33R,1.600000X2.000000*%
%ADD34R,1.300000X1.600000*%
%ADD35RoundRect,0.250000X-0.275000X-0.350000X0.275000X-0.350000X0.275000X0.350000X-0.275000X0.350000X0*%
%ADD36R,5.250000X4.550000*%
%ADD37R,1.100000X4.600000*%
%ADD38RoundRect,0.250000X-0.450000X0.350000X-0.450000X-0.350000X0.450000X-0.350000X0.450000X0.350000X0*%
%ADD39RoundRect,0.150000X0.587500X0.150000X-0.587500X0.150000X-0.587500X-0.150000X0.587500X-0.150000X0*%
%ADD40RoundRect,0.150000X-0.587500X-0.150000X0.587500X-0.150000X0.587500X0.150000X-0.587500X0.150000X0*%
%ADD41RoundRect,0.150000X-0.150000X0.587500X-0.150000X-0.587500X0.150000X-0.587500X0.150000X0.587500X0*%
%ADD42RoundRect,0.250000X0.550000X-1.500000X0.550000X1.500000X-0.550000X1.500000X-0.550000X-1.500000X0*%
%ADD43R,2.000000X0.500000*%
%ADD44R,1.700000X2.000000*%
%ADD45R,5.400000X2.900000*%
G04 APERTURE END LIST*
D10*
%TO.C,D4*%
X144029511Y-127804511D03*
D11*
X145749511Y-127804511D03*
X145749511Y-125604511D03*
X143849511Y-125604511D03*
%TD*%
D12*
%TO.C,D5*%
X76014511Y-118469511D03*
X76014511Y-120519511D03*
%TD*%
D13*
%TO.C,D2*%
X150885000Y-138430000D03*
X148835000Y-138430000D03*
%TD*%
%TO.C,D6*%
X69360000Y-45085000D03*
X67310000Y-45085000D03*
%TD*%
D12*
%TO.C,D7*%
X73474511Y-118469511D03*
X73474511Y-120519511D03*
%TD*%
D13*
%TO.C,D8*%
X69360000Y-47625000D03*
X67310000Y-47625000D03*
%TD*%
D14*
%TO.C,D1*%
X164465000Y-69430000D03*
X164465000Y-74930000D03*
%TD*%
D15*
%TO.C,U8*%
X159154511Y-117814511D03*
X159154511Y-119084511D03*
X159154511Y-120354511D03*
X159154511Y-121624511D03*
X159154511Y-122894511D03*
X159154511Y-124164511D03*
X159154511Y-125434511D03*
X159154511Y-126704511D03*
X164104511Y-126704511D03*
X164104511Y-125434511D03*
X164104511Y-124164511D03*
X164104511Y-122894511D03*
X164104511Y-121624511D03*
X164104511Y-120354511D03*
X164104511Y-119084511D03*
X164104511Y-117814511D03*
%TD*%
%TO.C,U6*%
X116905000Y-113030000D03*
X116905000Y-114300000D03*
X116905000Y-115570000D03*
X116905000Y-116840000D03*
X121855000Y-116840000D03*
X121855000Y-115570000D03*
X121855000Y-114300000D03*
X121855000Y-113030000D03*
%TD*%
D16*
%TO.C,U7*%
X81215000Y-75565000D03*
X81215000Y-74295000D03*
X81215000Y-73025000D03*
X81215000Y-71755000D03*
X76265000Y-71755000D03*
X76265000Y-73025000D03*
X76265000Y-74295000D03*
X76265000Y-75565000D03*
%TD*%
D17*
%TO.C,U19*%
X78619511Y-121089511D03*
X79889511Y-121089511D03*
X81159511Y-121089511D03*
X82429511Y-121089511D03*
X83699511Y-121089511D03*
X84969511Y-121089511D03*
X86239511Y-121089511D03*
X86239511Y-116139511D03*
X84969511Y-116139511D03*
X83699511Y-116139511D03*
X82429511Y-116139511D03*
X81159511Y-116139511D03*
X79889511Y-116139511D03*
X78619511Y-116139511D03*
%TD*%
D18*
%TO.C,U3*%
X146629511Y-121384511D03*
X147659511Y-121384511D03*
X147659511Y-120354511D03*
X146629511Y-119324511D03*
X148689511Y-119324511D03*
X148689511Y-121384511D03*
X148689511Y-120354511D03*
X146629511Y-120354511D03*
X147659511Y-119324511D03*
D19*
X145222011Y-118604511D03*
X145222011Y-119104511D03*
X145222011Y-119604511D03*
X145222011Y-120104511D03*
X145222011Y-120604511D03*
X145222011Y-121104511D03*
X145222011Y-121604511D03*
X145222011Y-122104511D03*
D20*
X145909511Y-122792011D03*
X146409511Y-122792011D03*
X146909511Y-122792011D03*
X147409511Y-122792011D03*
X147909511Y-122792011D03*
X148409511Y-122792011D03*
X148909511Y-122792011D03*
X149409511Y-122792011D03*
D19*
X150097011Y-122104511D03*
X150097011Y-121604511D03*
X150097011Y-121104511D03*
X150097011Y-120604511D03*
X150097011Y-120104511D03*
X150097011Y-119604511D03*
X150097011Y-119104511D03*
X150097011Y-118604511D03*
D20*
X149409511Y-117917011D03*
X148909511Y-117917011D03*
X148409511Y-117917011D03*
X147909511Y-117917011D03*
X147409511Y-117917011D03*
X146909511Y-117917011D03*
X146409511Y-117917011D03*
X145909511Y-117917011D03*
%TD*%
D21*
%TO.C,D3*%
X157184511Y-88805000D03*
X157184511Y-92805000D03*
%TD*%
D22*
%TO.C,C14*%
X88005000Y-74295000D03*
X93605000Y-74295000D03*
%TD*%
D23*
%TO.C,Q4*%
X84794511Y-61299511D03*
X79944511Y-61299511D03*
X84794511Y-55749511D03*
X79944511Y-55749511D03*
D24*
X73219511Y-55984511D03*
X73219511Y-61064511D03*
%TD*%
D25*
%TO.C,Q13*%
X143374511Y-101777011D03*
X145274511Y-101777011D03*
X144324511Y-99902011D03*
%TD*%
D23*
%TO.C,Q5*%
X102574511Y-61299511D03*
X97724511Y-55749511D03*
X97724511Y-61299511D03*
X102574511Y-55749511D03*
D24*
X90999511Y-55984511D03*
X90999511Y-61064511D03*
%TD*%
D26*
%TO.C,R15*%
X133164511Y-103989511D03*
X135164511Y-103989511D03*
%TD*%
D27*
%TO.C,C12*%
X76200000Y-87460000D03*
X76200000Y-89535000D03*
%TD*%
D23*
%TO.C,U10*%
X169359511Y-86125000D03*
X174209511Y-91675000D03*
X169359511Y-91675000D03*
X174209511Y-86125000D03*
D24*
X162634511Y-85500000D03*
X162634511Y-87200000D03*
X162634511Y-88900000D03*
X162634511Y-90600000D03*
X162634511Y-92300000D03*
%TD*%
D26*
%TO.C,R28*%
X133023088Y-118449511D03*
X135023088Y-118449511D03*
%TD*%
D25*
%TO.C,Q10*%
X138294511Y-108404511D03*
X140194511Y-108404511D03*
X139244511Y-106529511D03*
%TD*%
D28*
%TO.C,C25*%
X163524290Y-107654511D03*
X165599290Y-107654511D03*
%TD*%
D29*
%TO.C,R3a1*%
X110842141Y-71755000D03*
X108842141Y-71755000D03*
%TD*%
D23*
%TO.C,Q1*%
X144695000Y-78340000D03*
X149545000Y-72790000D03*
X144695000Y-72790000D03*
X149545000Y-78340000D03*
D24*
X156270000Y-78105000D03*
X156270000Y-73025000D03*
%TD*%
D30*
%TO.C,C10*%
X124620000Y-74295000D03*
X119220000Y-74295000D03*
%TD*%
D31*
%TO.C,C18*%
X71120000Y-73427500D03*
X71120000Y-71352500D03*
%TD*%
D29*
%TO.C,R23*%
X150404511Y-111629511D03*
X148404511Y-111629511D03*
%TD*%
D26*
%TO.C,R1*%
X165370000Y-80010000D03*
X167370000Y-80010000D03*
%TD*%
D32*
%TO.C,C4*%
X145119511Y-114639511D03*
X143044511Y-114639511D03*
%TD*%
D26*
%TO.C,R1a1*%
X100587141Y-71755000D03*
X102587141Y-71755000D03*
%TD*%
D33*
%TO.C,SW1*%
X113665000Y-127320000D03*
X113665000Y-121920000D03*
%TD*%
D29*
%TO.C,R3b1*%
X93710000Y-118745000D03*
X91710000Y-118745000D03*
%TD*%
D34*
%TO.C,Y1*%
X138134511Y-118619511D03*
X138134511Y-122419511D03*
X140434511Y-122419511D03*
X140434511Y-118619511D03*
%TD*%
D35*
%TO.C,L1*%
X148294511Y-114639511D03*
X150594511Y-114639511D03*
%TD*%
D26*
%TO.C,R1b1*%
X88265000Y-121920000D03*
X90265000Y-121920000D03*
%TD*%
D22*
%TO.C,C9*%
X71120000Y-125730000D03*
X76520000Y-125730000D03*
%TD*%
D26*
%TO.C,R8*%
X148834511Y-126704511D03*
X150834511Y-126704511D03*
%TD*%
D22*
%TO.C,C20*%
X147795000Y-90170000D03*
X153195000Y-90170000D03*
%TD*%
D29*
%TO.C,R21*%
X155987697Y-111629511D03*
X153987697Y-111629511D03*
%TD*%
D25*
%TO.C,Q14*%
X148454511Y-101752011D03*
X150354511Y-101752011D03*
X149404511Y-99877011D03*
%TD*%
D28*
%TO.C,C15*%
X128270000Y-113030000D03*
X130345000Y-113030000D03*
%TD*%
D26*
%TO.C,R19*%
X143324511Y-97770000D03*
X145324511Y-97770000D03*
%TD*%
D29*
%TO.C,R13*%
X145324511Y-107819511D03*
X143324511Y-107819511D03*
%TD*%
%TO.C,R36*%
X155987697Y-104009511D03*
X153987697Y-104009511D03*
%TD*%
D26*
%TO.C,R27*%
X133054511Y-114639511D03*
X135054511Y-114639511D03*
%TD*%
D25*
%TO.C,Q12*%
X138564511Y-101777011D03*
X140464511Y-101777011D03*
X139514511Y-99902011D03*
%TD*%
D32*
%TO.C,C8*%
X134959511Y-121624511D03*
X132884511Y-121624511D03*
%TD*%
D23*
%TO.C,Q6*%
X120239511Y-55749511D03*
X115389511Y-61299511D03*
X120239511Y-61299511D03*
X115389511Y-55749511D03*
D24*
X108664511Y-55984511D03*
X108664511Y-61064511D03*
%TD*%
D26*
%TO.C,R31*%
X78714511Y-112899511D03*
X80714511Y-112899511D03*
%TD*%
%TO.C,R12*%
X143324511Y-104009511D03*
X145324511Y-104009511D03*
%TD*%
D29*
%TO.C,R4a1*%
X110747141Y-74930000D03*
X108747141Y-74930000D03*
%TD*%
D32*
%TO.C,C24*%
X155914511Y-121624511D03*
X153839511Y-121624511D03*
%TD*%
D29*
%TO.C,R17*%
X150404511Y-104009511D03*
X148404511Y-104009511D03*
%TD*%
D28*
%TO.C,C23*%
X158919511Y-114639511D03*
X160994511Y-114639511D03*
%TD*%
D29*
%TO.C,R14*%
X130084511Y-104009511D03*
X128084511Y-104009511D03*
%TD*%
D36*
%TO.C,Q8*%
X143275000Y-52705000D03*
X148825000Y-52705000D03*
X143275000Y-57555000D03*
X148825000Y-57555000D03*
D37*
X143510000Y-64280000D03*
X148590000Y-64280000D03*
%TD*%
D38*
%TO.C,R5*%
X124460000Y-124460000D03*
X124460000Y-126460000D03*
%TD*%
D32*
%TO.C,C30*%
X86344511Y-112899511D03*
X84269511Y-112899511D03*
%TD*%
D26*
%TO.C,R22*%
X158968730Y-111609511D03*
X160968730Y-111609511D03*
%TD*%
D32*
%TO.C,C11*%
X107717500Y-113030000D03*
X105642500Y-113030000D03*
%TD*%
D38*
%TO.C,R4b1*%
X97790000Y-124095000D03*
X97790000Y-126095000D03*
%TD*%
D26*
%TO.C,R35*%
X163545544Y-104009511D03*
X165545544Y-104009511D03*
%TD*%
D28*
%TO.C,C7*%
X138134511Y-114639511D03*
X140209511Y-114639511D03*
%TD*%
D26*
%TO.C,R34*%
X67310000Y-50165000D03*
X69310000Y-50165000D03*
%TD*%
%TO.C,R38*%
X153987697Y-97745000D03*
X155987697Y-97745000D03*
%TD*%
D39*
%TO.C,U15*%
X94282500Y-126045000D03*
X94282500Y-124145000D03*
X92407500Y-125095000D03*
%TD*%
%TO.C,U16*%
X102159641Y-75880000D03*
X102159641Y-73980000D03*
X100284641Y-74930000D03*
%TD*%
D28*
%TO.C,C22*%
X154009511Y-114639511D03*
X156084511Y-114639511D03*
%TD*%
D27*
%TO.C,C17*%
X125095000Y-114532500D03*
X125095000Y-116607500D03*
%TD*%
D26*
%TO.C,R18*%
X138244511Y-97770000D03*
X140244511Y-97770000D03*
%TD*%
D40*
%TO.C,U17*%
X87962500Y-124145000D03*
X87962500Y-126045000D03*
X89837500Y-125095000D03*
%TD*%
D25*
%TO.C,Q16*%
X159018730Y-108424511D03*
X160918730Y-108424511D03*
X159968730Y-106549511D03*
%TD*%
D29*
%TO.C,R16*%
X140244511Y-103989511D03*
X138244511Y-103989511D03*
%TD*%
D25*
%TO.C,Q17*%
X154037697Y-101752011D03*
X155937697Y-101752011D03*
X154987697Y-99877011D03*
%TD*%
D26*
%TO.C,R2b1*%
X92345000Y-121920000D03*
X94345000Y-121920000D03*
%TD*%
D25*
%TO.C,Q15*%
X154037697Y-108424511D03*
X155937697Y-108424511D03*
X154987697Y-106549511D03*
%TD*%
D41*
%TO.C,Q2*%
X116224511Y-74967011D03*
X114324511Y-74967011D03*
X115274511Y-76842011D03*
%TD*%
D29*
%TO.C,R9*%
X135164511Y-111609511D03*
X133164511Y-111609511D03*
%TD*%
%TO.C,R10*%
X140244511Y-111609511D03*
X138244511Y-111609511D03*
%TD*%
D26*
%TO.C,R11*%
X143324511Y-111629511D03*
X145324511Y-111629511D03*
%TD*%
D25*
%TO.C,Q18*%
X159018730Y-101752011D03*
X160918730Y-101752011D03*
X159968730Y-99877011D03*
%TD*%
%TO.C,Q9*%
X133214511Y-108404511D03*
X135114511Y-108404511D03*
X134164511Y-106529511D03*
%TD*%
D42*
%TO.C,C21*%
X83185000Y-129860000D03*
X83185000Y-124460000D03*
%TD*%
D26*
%TO.C,R32*%
X67310000Y-42545000D03*
X69310000Y-42545000D03*
%TD*%
%TO.C,R4*%
X153914511Y-126704511D03*
X155914511Y-126704511D03*
%TD*%
D43*
%TO.C,J31*%
X168564511Y-117039511D03*
X168564511Y-116239511D03*
X168564511Y-115439511D03*
X168564511Y-114639511D03*
X168564511Y-113839511D03*
D44*
X168664511Y-119889511D03*
X168664511Y-110989511D03*
X174114511Y-119889511D03*
X174114511Y-110989511D03*
%TD*%
D25*
%TO.C,Q11*%
X148454511Y-108424511D03*
X150354511Y-108424511D03*
X149404511Y-106549511D03*
%TD*%
D26*
%TO.C,R39*%
X158968730Y-97745000D03*
X160968730Y-97745000D03*
%TD*%
D29*
%TO.C,R37*%
X160968730Y-103989511D03*
X158968730Y-103989511D03*
%TD*%
D23*
%TO.C,Q7*%
X132310000Y-61299511D03*
X137160000Y-61299511D03*
X132310000Y-55749511D03*
X137160000Y-55749511D03*
D24*
X125585000Y-55984511D03*
X125585000Y-61064511D03*
%TD*%
D30*
%TO.C,C13*%
X102755000Y-116205000D03*
X97155000Y-116205000D03*
%TD*%
D31*
%TO.C,C16*%
X73660000Y-73423631D03*
X73660000Y-71348631D03*
%TD*%
D38*
%TO.C,R33*%
X71120000Y-118380000D03*
X71120000Y-120380000D03*
%TD*%
D45*
%TO.C,L2*%
X133480000Y-82680000D03*
X133480000Y-92580000D03*
%TD*%
D40*
%TO.C,U18*%
X104729641Y-73980000D03*
X104729641Y-75880000D03*
X106604641Y-74930000D03*
%TD*%
D39*
%TO.C,Q3*%
X90472500Y-115250000D03*
X90472500Y-113350000D03*
X88597500Y-114300000D03*
%TD*%
D26*
%TO.C,R20*%
X148404511Y-97745000D03*
X150404511Y-97745000D03*
%TD*%
%TO.C,R2a1*%
X104667141Y-71755000D03*
X106667141Y-71755000D03*
%TD*%
M02*
