%TF.GenerationSoftware,KiCad,Pcbnew,(6.0.0)*%
%TF.CreationDate,2022-03-07T14:47:04+00:00*%
%TF.ProjectId,ISOpower,49534f70-6f77-4657-922e-6b696361645f,rev?*%
%TF.SameCoordinates,Original*%
%TF.FileFunction,Copper,L3,Inr*%
%TF.FilePolarity,Positive*%
%FSLAX46Y46*%
G04 Gerber Fmt 4.6, Leading zero omitted, Abs format (unit mm)*
G04 Created by KiCad (PCBNEW (6.0.0)) date 2022-03-07 14:47:04*
%MOMM*%
%LPD*%
G01*
G04 APERTURE LIST*
%TA.AperFunction,ComponentPad*%
%ADD10R,1.700000X1.700000*%
%TD*%
%TA.AperFunction,ComponentPad*%
%ADD11O,1.700000X1.700000*%
%TD*%
%TA.AperFunction,ComponentPad*%
%ADD12R,1.600000X1.500000*%
%TD*%
%TA.AperFunction,ComponentPad*%
%ADD13C,1.600000*%
%TD*%
%TA.AperFunction,ComponentPad*%
%ADD14C,3.000000*%
%TD*%
%TA.AperFunction,ComponentPad*%
%ADD15C,1.400000*%
%TD*%
%TA.AperFunction,ComponentPad*%
%ADD16R,3.500000X3.500000*%
%TD*%
%TA.AperFunction,ComponentPad*%
%ADD17C,3.500000*%
%TD*%
%TA.AperFunction,ComponentPad*%
%ADD18O,1.600000X1.600000*%
%TD*%
%TA.AperFunction,ComponentPad*%
%ADD19R,1.000000X1.000000*%
%TD*%
%TA.AperFunction,ComponentPad*%
%ADD20O,1.000000X1.000000*%
%TD*%
%TA.AperFunction,ComponentPad*%
%ADD21R,3.960000X1.980000*%
%TD*%
%TA.AperFunction,ComponentPad*%
%ADD22O,3.960000X1.980000*%
%TD*%
%TA.AperFunction,ComponentPad*%
%ADD23C,1.900000*%
%TD*%
%TA.AperFunction,ComponentPad*%
%ADD24C,2.500000*%
%TD*%
%TA.AperFunction,ComponentPad*%
%ADD25C,1.800000*%
%TD*%
%TA.AperFunction,ComponentPad*%
%ADD26R,1.400000X1.400000*%
%TD*%
%TA.AperFunction,ComponentPad*%
%ADD27C,3.716000*%
%TD*%
%TA.AperFunction,ComponentPad*%
%ADD28R,3.716000X3.716000*%
%TD*%
%TA.AperFunction,ComponentPad*%
%ADD29O,2.400000X1.200000*%
%TD*%
%TA.AperFunction,ViaPad*%
%ADD30C,0.800000*%
%TD*%
%TA.AperFunction,Conductor*%
%ADD31C,0.200000*%
%TD*%
%TA.AperFunction,Conductor*%
%ADD32C,0.300000*%
%TD*%
G04 APERTURE END LIST*
D10*
%TO.N,Net-(J8-Pad1)*%
%TO.C,J8*%
X104775000Y-128270000D03*
D11*
%TO.N,/AtMega328p/MCU_5V_BUS*%
X104775000Y-125730000D03*
%TO.N,Net-(J8-Pad3)*%
X107315000Y-128270000D03*
%TO.N,Net-(J8-Pad4)*%
X107315000Y-125730000D03*
%TO.N,/AtMega328p/USB MCU CH340 Interface A/DTR_A*%
X109855000Y-128270000D03*
%TO.N,GNDPWR*%
X109855000Y-125730000D03*
%TD*%
D12*
%TO.N,5V_BUS*%
%TO.C,J12*%
X135599511Y-134319511D03*
D13*
%TO.N,unconnected-(J12-Pad2)*%
X138099511Y-134319511D03*
%TO.N,unconnected-(J12-Pad3)*%
X140099511Y-134319511D03*
%TO.N,GNDPWR*%
X142599511Y-134319511D03*
D14*
X145669511Y-137029511D03*
X132529511Y-137029511D03*
%TD*%
D15*
%TO.N,*%
%TO.C,J15*%
X90284511Y-42545000D03*
X101284511Y-42545000D03*
D16*
%TO.N,GNDPWR*%
X93284511Y-47545000D03*
D17*
%TO.N,/Power Outputs/12V_OP_1*%
X98284511Y-47545000D03*
%TD*%
D13*
%TO.N,Net-(R7-Pad1)*%
%TO.C,R7*%
X59690000Y-85725000D03*
D18*
%TO.N,GNDPWR*%
X59690000Y-93345000D03*
%TD*%
D19*
%TO.N,/AtMega328p/ADC5*%
%TO.C,J25*%
X128270000Y-109855000D03*
D20*
%TO.N,/AtMega328p/ADC4*%
X129540000Y-109855000D03*
%TD*%
D21*
%TO.N,GNDPWR*%
%TO.C,J21*%
X173804511Y-75989511D03*
D22*
%TO.N,24V_BUS*%
X173804511Y-70989511D03*
%TD*%
D23*
%TO.N,24V_BUS*%
%TO.C,U5*%
X81824511Y-109089511D03*
%TO.N,Net-(JP3-Pad2)*%
X89424511Y-109089511D03*
%TO.N,GNDPWR*%
X97024511Y-109089511D03*
D24*
X97024511Y-81189511D03*
D23*
%TO.N,unconnected-(U5-Pad5)*%
X93224511Y-81189511D03*
%TO.N,Net-(R7-Pad1)*%
X89424511Y-81189511D03*
%TO.N,/Power Distribution/12V_I_SENSE_IP*%
X85624511Y-81189511D03*
D24*
X81824511Y-81189511D03*
D25*
%TO.N,unconnected-(U5-Pad32)*%
X98424511Y-88789511D03*
D23*
%TO.N,unconnected-(U5-Pad33)*%
X98424511Y-84989511D03*
%TO.N,unconnected-(U5-Pad34)*%
X85624511Y-109089511D03*
%TD*%
D15*
%TO.N,*%
%TO.C,J14*%
X75044511Y-42545000D03*
X86044511Y-42545000D03*
D16*
%TO.N,GNDPWR*%
X78044511Y-47545000D03*
D17*
%TO.N,/Power Outputs/12V_OP_0*%
X83044511Y-47545000D03*
%TD*%
D15*
%TO.N,*%
%TO.C,J18*%
X147004511Y-42545000D03*
X136004511Y-42545000D03*
D16*
%TO.N,GNDPWR*%
X139004511Y-47545000D03*
D17*
%TO.N,/Power Outputs/12V_OP_4*%
X144004511Y-47545000D03*
%TD*%
D19*
%TO.N,/AtMega328p/CH_C*%
%TO.C,J24*%
X128905000Y-106680000D03*
%TD*%
D21*
%TO.N,GNDPWR*%
%TO.C,J22*%
X62804511Y-55749511D03*
D22*
%TO.N,12V_BUS*%
X62804511Y-60749511D03*
%TD*%
D12*
%TO.N,5V_BUS*%
%TO.C,J13*%
X156849506Y-134319511D03*
D13*
%TO.N,unconnected-(J13-Pad2)*%
X159349506Y-134319511D03*
%TO.N,unconnected-(J13-Pad3)*%
X161349506Y-134319511D03*
%TO.N,GNDPWR*%
X163849506Y-134319511D03*
D14*
X153779506Y-137029511D03*
X166919506Y-137029511D03*
%TD*%
D23*
%TO.N,24V_BUS*%
%TO.C,U4*%
X122524511Y-81119511D03*
%TO.N,Net-(JP2-Pad2)*%
X114924511Y-81119511D03*
%TO.N,GNDPWR*%
X107324511Y-81119511D03*
D24*
X107324511Y-109019511D03*
D23*
%TO.N,unconnected-(U4-Pad5)*%
X111124511Y-109019511D03*
%TO.N,Net-(R6-Pad1)*%
X114924511Y-109019511D03*
%TO.N,/Power Distribution/5V_I_SENSE_IP*%
X118724511Y-109019511D03*
D24*
X122524511Y-109019511D03*
D25*
%TO.N,unconnected-(U4-Pad32)*%
X105924511Y-101419511D03*
D23*
%TO.N,unconnected-(U4-Pad33)*%
X105924511Y-105219511D03*
%TO.N,unconnected-(U4-Pad34)*%
X118724511Y-81119511D03*
%TD*%
D13*
%TO.N,24V_BUS*%
%TO.C,C19*%
X136525000Y-72390000D03*
%TO.N,GNDPWR*%
X131525000Y-72390000D03*
%TD*%
D26*
%TO.N,Net-(M1-Pad1)*%
%TO.C,M1*%
X67809511Y-70629511D03*
D15*
%TO.N,GNDPWR*%
X65809511Y-70629511D03*
%TD*%
D12*
%TO.N,5V_BUS*%
%TO.C,J10*%
X92834511Y-134319511D03*
D13*
%TO.N,unconnected-(J10-Pad2)*%
X95334511Y-134319511D03*
%TO.N,unconnected-(J10-Pad3)*%
X97334511Y-134319511D03*
%TO.N,GNDPWR*%
X99834511Y-134319511D03*
D14*
X102904511Y-137029511D03*
X89764511Y-137029511D03*
%TD*%
D19*
%TO.N,/USB_PBUS*%
%TO.C,J6*%
X117924511Y-126954511D03*
D20*
%TO.N,/AtMega328p/MCU_5V_BUS*%
X117924511Y-125684511D03*
%TO.N,MCU_5V*%
X117924511Y-124414511D03*
%TD*%
D13*
%TO.N,Net-(R6-Pad1)*%
%TO.C,R6*%
X59690000Y-104775000D03*
D18*
%TO.N,GNDPWR*%
X59690000Y-97155000D03*
%TD*%
D27*
%TO.N,GNDPWR*%
%TO.C,J1*%
X167454511Y-54899511D03*
D28*
%TO.N,/24V_0*%
X167454511Y-62099511D03*
D29*
%TO.N,N/C*%
X173454511Y-65249511D03*
X173454511Y-51749511D03*
%TD*%
D19*
%TO.N,/USB_PBUS*%
%TO.C,J26*%
X169545000Y-130810000D03*
%TD*%
D15*
%TO.N,*%
%TO.C,J17*%
X120764511Y-42545000D03*
X131764511Y-42545000D03*
D16*
%TO.N,GNDPWR*%
X123764511Y-47545000D03*
D17*
%TO.N,/Power Outputs/12V_OP_3*%
X128764511Y-47545000D03*
%TD*%
D15*
%TO.N,*%
%TO.C,J16*%
X116524511Y-42545000D03*
X105524511Y-42545000D03*
D16*
%TO.N,GNDPWR*%
X108524511Y-47545000D03*
D17*
%TO.N,/Power Outputs/12V_OP_2*%
X113524511Y-47545000D03*
%TD*%
D12*
%TO.N,5V_BUS*%
%TO.C,J9*%
X71464511Y-134319511D03*
D13*
%TO.N,unconnected-(J9-Pad2)*%
X73964511Y-134319511D03*
%TO.N,unconnected-(J9-Pad3)*%
X75964511Y-134319511D03*
%TO.N,GNDPWR*%
X78464511Y-134319511D03*
D14*
X68394511Y-137029511D03*
X81534511Y-137029511D03*
%TD*%
D19*
%TO.N,/3V3_BUS*%
%TO.C,J30*%
X121285000Y-120015000D03*
%TD*%
%TO.N,GND*%
%TO.C,J29*%
X130004511Y-127747783D03*
D20*
%TO.N,/3V3_BUS*%
X131274511Y-127747783D03*
%TO.N,/AtMega328p/MCU_5V_BUS*%
X132544511Y-127747783D03*
%TO.N,/USB_PBUS*%
X133814511Y-127747783D03*
%TO.N,unconnected-(J29-Pad5)*%
X135084511Y-127747783D03*
%TO.N,unconnected-(J29-Pad6)*%
X136354511Y-127747783D03*
%TO.N,unconnected-(J29-Pad7)*%
X137624511Y-127747783D03*
%TO.N,unconnected-(J29-Pad8)*%
X138894511Y-127747783D03*
%TO.N,/AtMega328p/SSERIAL_TX*%
X140164511Y-127747783D03*
%TO.N,/AtMega328p/SSERIAL_RX*%
X141434511Y-127747783D03*
%TD*%
D14*
%TO.N,/24V_0*%
%TO.C,F1*%
X159324511Y-43309511D03*
%TO.N,/24V_1*%
X159324511Y-65909511D03*
%TD*%
D21*
%TO.N,GNDPWR*%
%TO.C,J23*%
X62044511Y-121234511D03*
D22*
%TO.N,5V_BUS*%
X62044511Y-126234511D03*
%TD*%
D12*
%TO.N,5V_BUS*%
%TO.C,J11*%
X114204511Y-134319511D03*
D13*
%TO.N,unconnected-(J11-Pad2)*%
X116704511Y-134319511D03*
%TO.N,unconnected-(J11-Pad3)*%
X118704511Y-134319511D03*
%TO.N,GNDPWR*%
X121204511Y-134319511D03*
D14*
X111134511Y-137029511D03*
X124274511Y-137029511D03*
%TD*%
D30*
%TO.N,5V_BUS*%
X102512604Y-131802396D03*
X101460489Y-129679511D03*
X100330000Y-127000000D03*
X101171893Y-124666893D03*
X102235000Y-121920000D03*
X104140000Y-121920000D03*
%TO.N,Net-(J8-Pad1)*%
X113030000Y-125720498D03*
%TO.N,Net-(R3b1-Pad2)*%
X89535000Y-119380000D03*
%TO.N,GNDPWR*%
X96069511Y-127000000D03*
%TO.N,GND*%
X141605000Y-108585000D03*
X163524290Y-109525710D03*
X151130000Y-107315000D03*
X146050000Y-100330000D03*
X142240000Y-120650000D03*
X161925000Y-100330000D03*
X151765000Y-113030000D03*
X141605000Y-100965000D03*
X156845000Y-100330000D03*
X162264511Y-113369511D03*
X157480000Y-116840000D03*
X154940000Y-120015000D03*
X152364991Y-126964991D03*
X141605000Y-116205000D03*
X156845000Y-107315000D03*
X129540000Y-115570000D03*
X157475681Y-128319999D03*
X166370000Y-113030000D03*
X131445000Y-120650000D03*
X151130000Y-100330000D03*
X136525000Y-108585000D03*
%TO.N,MCU_5V*%
X73660000Y-76835000D03*
X89247122Y-102522878D03*
%TO.N,24V_BUS*%
X93450000Y-98320000D03*
X155575000Y-83820000D03*
X149365378Y-83044622D03*
X69456753Y-112636753D03*
X137160000Y-78740000D03*
X109478762Y-95508762D03*
X102340000Y-98320000D03*
X83820000Y-103569500D03*
X75885009Y-107629991D03*
X161607500Y-70802500D03*
X87379375Y-99444375D03*
X152335500Y-83325378D03*
X71361753Y-110731753D03*
X124620000Y-79024022D03*
X67945000Y-114935000D03*
X118686262Y-86301262D03*
X115828762Y-89158762D03*
X105515000Y-98320000D03*
X166500489Y-70989511D03*
X140017500Y-80962500D03*
X146050000Y-83185000D03*
X67945000Y-116840000D03*
X85156875Y-100900500D03*
X79695009Y-107629991D03*
X99800000Y-98320000D03*
X72949253Y-109144253D03*
X113606262Y-91381262D03*
X158750000Y-83820000D03*
X67945000Y-121920000D03*
X70485000Y-125095000D03*
X111383762Y-93603762D03*
X161925000Y-77470000D03*
X142875000Y-83820000D03*
X69215000Y-123825000D03*
X81915000Y-105410000D03*
X169675489Y-70989511D03*
X136525000Y-75565000D03*
X162242500Y-82867500D03*
X120591262Y-84396262D03*
X90275000Y-98320000D03*
X67945000Y-119380000D03*
X96625000Y-98320000D03*
X128270000Y-78740000D03*
X133403359Y-77804116D03*
%TO.N,/Power Distribution/5V_I_SENSE_IP*%
X113640978Y-112419022D03*
X117792500Y-112077500D03*
X107315000Y-115570000D03*
X110172500Y-112712500D03*
X104905489Y-116709511D03*
%TO.N,Net-(D1-Pad2)*%
X156845000Y-80645000D03*
X164524500Y-77995000D03*
%TO.N,Net-(D2-Pad1)*%
X155396482Y-128448518D03*
X151130000Y-136525000D03*
%TO.N,Net-(D2-Pad2)*%
X148590000Y-136525000D03*
X147320000Y-129540000D03*
X142005908Y-126544001D03*
%TO.N,Net-(D4-Pad2)*%
X170376567Y-115455500D03*
X156845000Y-124460000D03*
X161629511Y-124799511D03*
X147320000Y-127520500D03*
X166709511Y-116544511D03*
X174964511Y-108289511D03*
%TO.N,Net-(D4-Pad3)*%
X160930011Y-122794531D03*
X166002756Y-115837756D03*
X173694511Y-104479511D03*
%TO.N,Net-(D6-Pad2)*%
X78740000Y-104775000D03*
X78740000Y-118110000D03*
%TO.N,Net-(D8-Pad2)*%
X83185000Y-118110000D03*
X79375000Y-102934500D03*
%TO.N,/Power Distribution/12V_I_SENSE_IP*%
X79602011Y-83412011D03*
X86042500Y-76517500D03*
%TO.N,/24V_0*%
X160337500Y-47307500D03*
X160655000Y-50800000D03*
X160655000Y-54610000D03*
X162560000Y-60325000D03*
X160655000Y-58420000D03*
%TO.N,Net-(J8-Pad1)*%
X150773492Y-124165021D03*
%TO.N,Net-(J8-Pad3)*%
X151772730Y-124142049D03*
%TO.N,Net-(J8-Pad4)*%
X149468877Y-124741579D03*
%TO.N,/24V_1*%
X156641351Y-66471351D03*
X150462876Y-69399022D03*
X154622500Y-68262500D03*
%TO.N,5V_BUS*%
X64107500Y-128297500D03*
X145622598Y-131872402D03*
X134620000Y-130810000D03*
X128270000Y-133985000D03*
X131185000Y-131070000D03*
X106680000Y-121920000D03*
X113665000Y-117475000D03*
X92710000Y-131445000D03*
X149550499Y-132389501D03*
X127375000Y-131070000D03*
X138430000Y-130810000D03*
X81915000Y-131070000D03*
X67917500Y-132107500D03*
X110604124Y-120243521D03*
X108259501Y-133040499D03*
X75565000Y-131070000D03*
X124835000Y-131070000D03*
X78740000Y-131070000D03*
X98425000Y-130810000D03*
X89747500Y-131232500D03*
X66012500Y-130202500D03*
X104449501Y-133040499D03*
X72765000Y-131070000D03*
X95250000Y-130810000D03*
X116580000Y-131070000D03*
X70715000Y-131850000D03*
X109220000Y-121220500D03*
X85725000Y-130657135D03*
X121025000Y-131070000D03*
X112395000Y-132715000D03*
X142240000Y-130810000D03*
X154940000Y-132715000D03*
%TO.N,/5V_BUS_MONITOR*%
X79731429Y-119112465D03*
X86360000Y-135890000D03*
X142462055Y-123246489D03*
X136361318Y-116587000D03*
X122555000Y-121920000D03*
X86360000Y-125095000D03*
%TO.N,/12V_BUS_MONITOR*%
X134018069Y-116775500D03*
X97155000Y-72390000D03*
X85725000Y-118110000D03*
X133985000Y-120015000D03*
%TO.N,/BUS_B_DISABLE*%
X117814511Y-77174511D03*
X131445000Y-108585000D03*
%TO.N,/BUS_A_DISABLE*%
X144780000Y-117861358D03*
X91440000Y-114300000D03*
%TO.N,/Power Outputs/5v to 12v logic conversion_v2/0_OUT*%
X136525000Y-99695000D03*
X73219511Y-53975000D03*
%TO.N,/Power Outputs/5v to 12v logic conversion_v2/1_OUT*%
X90805000Y-53975000D03*
X142240000Y-96520000D03*
%TO.N,/Power Outputs/5v to 12v logic conversion_v2/2_OUT*%
X147320000Y-96520000D03*
X107950000Y-53975000D03*
%TO.N,/Power Outputs/5v to 12v logic conversion_v2/3_OUT*%
X125730000Y-53975000D03*
X153035000Y-96520000D03*
%TO.N,/Power Outputs/5v to 12v logic conversion_v2/4_OUT*%
X158115000Y-96520000D03*
X141605000Y-64770000D03*
%TO.N,Net-(R3a1-Pad2)*%
X104775000Y-74930000D03*
X108016641Y-72577885D03*
%TO.N,Net-(R3b1-Pad2)*%
X92710000Y-127000000D03*
X88265000Y-125095000D03*
%TO.N,/AtMega328p/MCU_5V_BUS*%
X149858259Y-113028259D03*
X155279511Y-113369511D03*
X144829326Y-115740990D03*
X152490011Y-121379692D03*
X143844562Y-119844011D03*
X142916593Y-125045001D03*
%TO.N,/BUS_I_SENSE_A*%
X151765000Y-119380000D03*
X78105000Y-74295000D03*
%TO.N,/BUS_I_SENSE_B*%
X151598314Y-120680192D03*
X123825000Y-113144500D03*
%TO.N,12V_BUS*%
X90805000Y-62375520D03*
X67520489Y-60749511D03*
X110703642Y-66542322D03*
X90105978Y-67374022D03*
X125434520Y-67605480D03*
X135059511Y-68140489D03*
X102235000Y-67310000D03*
X80645000Y-67310000D03*
X71120000Y-62865000D03*
X74295000Y-60960000D03*
X81280000Y-70485000D03*
X136525000Y-66374022D03*
X116205000Y-67310000D03*
X120472878Y-67487122D03*
X93345000Y-67310000D03*
X130175000Y-67945000D03*
X76835000Y-67310000D03*
X105980500Y-67310000D03*
X97725978Y-67374022D03*
X85725000Y-67310000D03*
X73810000Y-65255000D03*
X126365000Y-62865000D03*
X108585000Y-62865000D03*
%TO.N,/AtMega328p/USB MCU CH340 Interface A/DTR_A*%
X147214648Y-116607555D03*
X108585000Y-137795000D03*
X128360762Y-125209500D03*
X153374511Y-117814511D03*
X111760000Y-129540000D03*
%TO.N,/3V3_BUS*%
X126365000Y-120650000D03*
%TO.N,/USB_PBUS*%
X122555000Y-127000000D03*
X172251616Y-118712935D03*
%TO.N,/AtMega328p/ADC5*%
X147930008Y-115909511D03*
%TO.N,/AtMega328p/ADC4*%
X148929511Y-115909511D03*
%TO.N,/AtMega328p/SSERIAL_TX*%
X146999842Y-124735445D03*
%TO.N,/AtMega328p/SSERIAL_RX*%
X148209834Y-124909082D03*
%TO.N,/AtMega328p/CH_F*%
X137041633Y-111922389D03*
X148609011Y-123959149D03*
%TO.N,/AtMega328p/CH_G*%
X141944511Y-111464511D03*
X152256854Y-116510188D03*
%TO.N,/AtMega328p/CH_H*%
X151292014Y-116781232D03*
X146975106Y-112310607D03*
%TO.N,/AtMega328p/USB MCU CH340 Interface A/RxD_A*%
X146816178Y-115683130D03*
X157184511Y-119784011D03*
%TO.N,/AtMega328p/USB MCU CH340 Interface A/TxD_A*%
X156210000Y-118110000D03*
X145841866Y-115906114D03*
%TO.N,HV*%
X127635000Y-74994500D03*
X157480000Y-99060000D03*
X135890000Y-97155000D03*
X140970000Y-99060000D03*
X145415000Y-99060000D03*
X160655000Y-96520000D03*
X151765000Y-99060000D03*
%TO.N,GNDPWR*%
X103095480Y-77879520D03*
X95380000Y-76070000D03*
X122555000Y-117475000D03*
X99920480Y-77879520D03*
X118745000Y-72390000D03*
X155020000Y-91995000D03*
X71755000Y-46606017D03*
X79375000Y-125730000D03*
X97155000Y-112395000D03*
X71755000Y-43180000D03*
X73660000Y-123190000D03*
X171784511Y-81580489D03*
X76200000Y-92710000D03*
X106268879Y-77693879D03*
X116840000Y-121220500D03*
X71755000Y-49781019D03*
X87059500Y-127457625D03*
X113030000Y-76835000D03*
X82550000Y-112395000D03*
X65232500Y-68407500D03*
X90805000Y-126365000D03*
X97024511Y-78235489D03*
X94615000Y-120650000D03*
X118745000Y-120243521D03*
X70167500Y-68897500D03*
X85421611Y-123167367D03*
X88900000Y-116840000D03*
X171784511Y-79675489D03*
X157415500Y-92805000D03*
X95250000Y-116205000D03*
X167454511Y-49080489D03*
%TO.N,Net-(M1-Pad1)*%
X66977617Y-65845500D03*
%TO.N,/Power Outputs/MID_PWR*%
X145732500Y-68262500D03*
X154305000Y-48260000D03*
X143052122Y-68402878D03*
X150985000Y-64280000D03*
X153670000Y-60325000D03*
X156131742Y-52626742D03*
%TD*%
D31*
%TO.N,Net-(J8-Pad1)*%
X113379502Y-126070000D02*
X113030000Y-125720498D01*
X115440978Y-126070000D02*
X113379502Y-126070000D01*
%TO.N,/AtMega328p/USB MCU CH340 Interface A/DTR_A*%
X109220000Y-132080000D02*
X111760000Y-129540000D01*
X109220000Y-137160000D02*
X109220000Y-132080000D01*
X108585000Y-137795000D02*
X109220000Y-137160000D01*
%TO.N,Net-(J8-Pad3)*%
X150185681Y-122555000D02*
X151772730Y-124142049D01*
X142759810Y-122555000D02*
X150185681Y-122555000D01*
X142751799Y-122546989D02*
X142759810Y-122555000D01*
X142172311Y-122546989D02*
X142751799Y-122546989D01*
X142164300Y-122555000D02*
X142172311Y-122546989D01*
X137795000Y-122555000D02*
X142164300Y-122555000D01*
X137160000Y-123190000D02*
X137795000Y-122555000D01*
X132715000Y-123190000D02*
X137160000Y-123190000D01*
X128270000Y-126365000D02*
X129540000Y-126365000D01*
X129540000Y-126365000D02*
X132715000Y-123190000D01*
X106165489Y-125253856D02*
X107804345Y-123615000D01*
X106165489Y-127120489D02*
X106165489Y-125253856D01*
X107315000Y-128270000D02*
X106165489Y-127120489D01*
X107804345Y-123615000D02*
X125520000Y-123615000D01*
X125520000Y-123615000D02*
X128270000Y-126365000D01*
%TO.N,Net-(J8-Pad4)*%
X110964734Y-127120489D02*
X108705489Y-127120489D01*
X112483755Y-128639510D02*
X110964734Y-127120489D01*
X145211745Y-128639510D02*
X112483755Y-128639510D01*
X108705489Y-127120489D02*
X107315000Y-125730000D01*
X147030256Y-126820999D02*
X145211745Y-128639510D01*
X147389457Y-126820999D02*
X147030256Y-126820999D01*
X149468877Y-124741579D02*
X147389457Y-126820999D01*
D32*
%TO.N,MCU_5V*%
X73660000Y-86935756D02*
X73660000Y-76835000D01*
X89247122Y-102522878D02*
X73660000Y-86935756D01*
D31*
%TO.N,Net-(D1-Pad2)*%
X164355000Y-77995000D02*
X164524500Y-77995000D01*
X156845000Y-80645000D02*
X161705000Y-80645000D01*
X161705000Y-80645000D02*
X164355000Y-77995000D01*
%TO.N,Net-(D2-Pad1)*%
X151130000Y-132715000D02*
X155396482Y-128448518D01*
X151130000Y-136525000D02*
X151130000Y-132715000D01*
%TO.N,Net-(D2-Pad2)*%
X148590000Y-130810000D02*
X147320000Y-129540000D01*
X148590000Y-136525000D02*
X148590000Y-130810000D01*
%TO.N,Net-(D4-Pad2)*%
X174964511Y-111818756D02*
X171327767Y-115455500D01*
X166709511Y-116544511D02*
X161629511Y-121624511D01*
X174964511Y-108289511D02*
X174964511Y-111818756D01*
X171327767Y-115455500D02*
X170376567Y-115455500D01*
X161629511Y-121624511D02*
X161629511Y-124799511D01*
%TO.N,Net-(D4-Pad3)*%
X173694511Y-112099511D02*
X173694511Y-104479511D01*
X173694511Y-112099511D02*
X169741001Y-112099511D01*
X160930011Y-120419011D02*
X160930011Y-122794531D01*
X166002756Y-115837756D02*
X165511266Y-115837756D01*
X165511266Y-115837756D02*
X160930011Y-120419011D01*
X169741001Y-112099511D02*
X166002756Y-115837756D01*
%TO.N,Net-(D6-Pad2)*%
X78740000Y-118110000D02*
X78740000Y-104775000D01*
%TO.N,Net-(D8-Pad2)*%
X83185000Y-115428427D02*
X80575000Y-112818427D01*
X83185000Y-118110000D02*
X83185000Y-115428427D01*
X80575000Y-112818427D02*
X80575000Y-104134500D01*
X80575000Y-104134500D02*
X79375000Y-102934500D01*
%TO.N,Net-(J8-Pad1)*%
X145867521Y-123995989D02*
X146637626Y-123225884D01*
X146637626Y-123225884D02*
X149834355Y-123225884D01*
X126764777Y-127754022D02*
X127570527Y-126948272D01*
X115440978Y-126070000D02*
X117125000Y-127754022D01*
X127570527Y-126948272D02*
X129635750Y-126948272D01*
X142461367Y-123945989D02*
X142792333Y-123945990D01*
X117125000Y-127754022D02*
X126764777Y-127754022D01*
X132588033Y-123995989D02*
X142411366Y-123995989D01*
X143371821Y-123945990D02*
X143421818Y-123995988D01*
X142411366Y-123995989D02*
X142461367Y-123945989D01*
X149834355Y-123225884D02*
X150773492Y-124165021D01*
X143421818Y-123995988D02*
X145867521Y-123995989D01*
X129635750Y-126948272D02*
X132588033Y-123995989D01*
X142792333Y-123945990D02*
X143371821Y-123945990D01*
%TO.N,/5V_BUS_MONITOR*%
X86360000Y-130302890D02*
X86424501Y-130367391D01*
X79742465Y-119112465D02*
X79731429Y-119112465D01*
X83820000Y-123190000D02*
X79742465Y-119112465D01*
X88265000Y-123190000D02*
X121285000Y-123190000D01*
X86424501Y-130367391D02*
X86424501Y-135825499D01*
X121285000Y-123190000D02*
X122555000Y-121920000D01*
X86424501Y-135825499D02*
X86360000Y-135890000D01*
X83820000Y-123190000D02*
X84455000Y-123190000D01*
X84455000Y-123190000D02*
X86360000Y-125095000D01*
X86360000Y-125095000D02*
X88265000Y-123190000D01*
X86360000Y-125095000D02*
X86360000Y-130302890D01*
%TO.N,/12V_BUS_MONITOR*%
X133718080Y-117075489D02*
X134018069Y-116775500D01*
X85725000Y-118110000D02*
X108585000Y-118110000D01*
X97155000Y-72390000D02*
X97155000Y-76835000D01*
X108585000Y-118110000D02*
X109690489Y-119215489D01*
X109690489Y-119215489D02*
X122084511Y-119215489D01*
X133514021Y-119544021D02*
X133985000Y-120015000D01*
X114300000Y-102827924D02*
X114956038Y-103483962D01*
X114300000Y-93980000D02*
X114300000Y-102827924D01*
X125312559Y-117075489D02*
X133718080Y-117075489D01*
X122413043Y-119544021D02*
X133514021Y-119544021D01*
X114956038Y-103483962D02*
X121049511Y-109577435D01*
X121049511Y-112812441D02*
X125312559Y-117075489D01*
X97155000Y-76835000D02*
X114300000Y-93980000D01*
X121049511Y-109577435D02*
X121049511Y-112812441D01*
X122084511Y-119215489D02*
X122413043Y-119544021D01*
%TO.N,/BUS_B_DISABLE*%
X127635000Y-108585000D02*
X131445000Y-108585000D01*
X117475000Y-98425000D02*
X127635000Y-108585000D01*
X117814511Y-77174511D02*
X117475000Y-77514022D01*
X117475000Y-77514022D02*
X117475000Y-98425000D01*
%TO.N,/BUS_A_DISABLE*%
X126251594Y-119144511D02*
X143496847Y-119144511D01*
X91440000Y-114300000D02*
X121407083Y-114300000D01*
X121407083Y-114300000D02*
X126251594Y-119144511D01*
X143496847Y-119144511D02*
X144780000Y-117861358D01*
%TO.N,/Power Outputs/5v to 12v logic conversion_v2/0_OUT*%
X124460000Y-88900000D02*
X128905000Y-93345000D01*
X135417040Y-99695000D02*
X136525000Y-99695000D01*
X128905000Y-93345000D02*
X129067040Y-93345000D01*
X124460000Y-81287924D02*
X97846577Y-54674501D01*
X97846577Y-54674501D02*
X73919012Y-54674501D01*
X124460000Y-88900000D02*
X124460000Y-81287924D01*
X73919012Y-54674501D02*
X73219511Y-53975000D01*
X129067040Y-93345000D02*
X135417040Y-99695000D01*
%TO.N,/Power Outputs/5v to 12v logic conversion_v2/1_OUT*%
X128270000Y-74295000D02*
X124460000Y-74295000D01*
X133350000Y-79375000D02*
X128270000Y-74295000D01*
X124460000Y-74295000D02*
X104140000Y-53975000D01*
X104140000Y-53975000D02*
X90805000Y-53975000D01*
X133350000Y-87630000D02*
X133350000Y-79375000D01*
X142240000Y-96520000D02*
X133350000Y-87630000D01*
%TO.N,/Power Outputs/5v to 12v logic conversion_v2/2_OUT*%
X133985000Y-69215000D02*
X118745000Y-53975000D01*
X133985000Y-76831518D02*
X133985000Y-69215000D01*
X147320000Y-96520000D02*
X147320000Y-90166518D01*
X147320000Y-90166518D02*
X133985000Y-76831518D01*
X118745000Y-53975000D02*
X107950000Y-53975000D01*
%TO.N,/Power Outputs/5v to 12v logic conversion_v2/3_OUT*%
X153035000Y-81280000D02*
X125730000Y-53975000D01*
X153035000Y-96520000D02*
X153035000Y-81280000D01*
%TO.N,/Power Outputs/5v to 12v logic conversion_v2/4_OUT*%
X158115000Y-84455000D02*
X145415000Y-71755000D01*
X158115000Y-96520000D02*
X158115000Y-84455000D01*
X141605000Y-67945000D02*
X141605000Y-64770000D01*
X145415000Y-71755000D02*
X141605000Y-67945000D01*
%TO.N,Net-(R3a1-Pad2)*%
X104775000Y-74930000D02*
X107127115Y-72577885D01*
X107127115Y-72577885D02*
X108016641Y-72577885D01*
%TO.N,Net-(R6-Pad1)*%
X59690000Y-104775000D02*
X62230000Y-102235000D01*
X89705000Y-103970000D02*
X109875000Y-103970000D01*
X62230000Y-102235000D02*
X87970000Y-102235000D01*
X109875000Y-103970000D02*
X114924511Y-109019511D01*
X87970000Y-102235000D02*
X89705000Y-103970000D01*
%TO.N,/BUS_I_SENSE_A*%
X84375000Y-80565000D02*
X78105000Y-74295000D01*
X144780000Y-116840000D02*
X142875000Y-116840000D01*
X142240000Y-117475000D02*
X125147076Y-117475000D01*
X92456462Y-89916462D02*
X92456462Y-89788538D01*
X151765000Y-119380000D02*
X147320000Y-119380000D01*
X107892076Y-99637076D02*
X99695000Y-91440000D01*
X84375000Y-81707076D02*
X84375000Y-80565000D01*
X107892076Y-100220000D02*
X107892076Y-99637076D01*
X125147076Y-117475000D02*
X107892076Y-100220000D01*
X99695000Y-91440000D02*
X93980000Y-91440000D01*
X93980000Y-91440000D02*
X92456462Y-89916462D01*
X142875000Y-116840000D02*
X142240000Y-117475000D01*
X147320000Y-119380000D02*
X144780000Y-116840000D01*
X92456462Y-89788538D02*
X84375000Y-81707076D01*
%TO.N,/BUS_I_SENSE_B*%
X142240000Y-114300000D02*
X124980500Y-114300000D01*
X152464501Y-119090256D02*
X152054744Y-118680499D01*
X144945484Y-116440490D02*
X144380490Y-116440490D01*
X124980500Y-114300000D02*
X123825000Y-113144500D01*
X151598314Y-120680192D02*
X152464501Y-119814005D01*
X144380490Y-116440490D02*
X142240000Y-114300000D01*
X152054744Y-118680499D02*
X147185493Y-118680499D01*
X152464501Y-119814005D02*
X152464501Y-119090256D01*
X147185493Y-118680499D02*
X144945484Y-116440490D01*
%TO.N,/AtMega328p/USB MCU CH340 Interface A/DTR_A*%
X153374511Y-117814511D02*
X153374511Y-121489118D01*
X128360762Y-124449557D02*
X128360762Y-125209500D01*
X147682582Y-117075489D02*
X147214648Y-116607555D01*
X149297626Y-117814511D02*
X148558604Y-117075489D01*
X130731126Y-122079193D02*
X128360762Y-124449557D01*
X152784436Y-122079193D02*
X130731126Y-122079193D01*
X153374511Y-117814511D02*
X149297626Y-117814511D01*
X153374511Y-121489118D02*
X152784436Y-122079193D01*
X148558604Y-117075489D02*
X147682582Y-117075489D01*
%TO.N,/AtMega328p/ADC5*%
X130175000Y-113665000D02*
X145766029Y-113665000D01*
X147105922Y-114983629D02*
X147930008Y-115807715D01*
X145766029Y-113665000D02*
X147084658Y-114983629D01*
X147084658Y-114983629D02*
X147105922Y-114983629D01*
X128270000Y-109855000D02*
X128270000Y-111760000D01*
X147930008Y-115807715D02*
X147930008Y-115909511D01*
X128270000Y-111760000D02*
X130175000Y-113665000D01*
%TO.N,/AtMega328p/ADC4*%
X131844510Y-113265490D02*
X145931511Y-113265489D01*
X146100034Y-113434012D02*
X146454012Y-113434012D01*
X146454012Y-113434012D02*
X148929511Y-115909511D01*
X129540000Y-110960980D02*
X129540000Y-109855000D01*
X131844510Y-113265490D02*
X129540000Y-110960980D01*
X145931511Y-113265489D02*
X146100034Y-113434012D01*
%TO.N,/AtMega328p/SSERIAL_TX*%
X143256336Y-124395499D02*
X146659896Y-124395499D01*
X143206337Y-124345500D02*
X143256336Y-124395499D01*
X140164511Y-127747783D02*
X140164511Y-126807838D01*
X142626849Y-124345500D02*
X143206337Y-124345500D01*
X140164511Y-126807838D02*
X142626849Y-124345500D01*
X146659896Y-124395499D02*
X146999842Y-124735445D01*
%TO.N,/AtMega328p/SSERIAL_RX*%
X141434511Y-127747783D02*
X145371133Y-127747783D01*
X145371133Y-127747783D02*
X148209834Y-124909082D01*
%TO.N,/AtMega328p/CH_G*%
X152256854Y-116416099D02*
X152256854Y-116510188D01*
X141944511Y-111464511D02*
X147305266Y-111464511D01*
X147305266Y-111464511D02*
X152256854Y-116416099D01*
%TO.N,/AtMega328p/CH_H*%
X147235607Y-112310607D02*
X151292014Y-116367014D01*
X151292014Y-116367014D02*
X151292014Y-116781232D01*
X146975106Y-112310607D02*
X147235607Y-112310607D01*
%TO.N,HV*%
X133985000Y-97155000D02*
X135890000Y-97155000D01*
X127635000Y-74994500D02*
X127219500Y-75410000D01*
X127219500Y-75410000D02*
X127219500Y-90389500D01*
X127219500Y-90389500D02*
X133985000Y-97155000D01*
%TD*%
M02*
