M48
; DRILL file {KiCad (6.0.0)} date Fri Mar  4 10:44:05 2022
; FORMAT={-:-/ absolute / inch / decimal}
; #@! TF.CreationDate,2022-03-04T10:44:05+00:00
; #@! TF.GenerationSoftware,Kicad,Pcbnew,(6.0.0)
; #@! TF.FileFunction,Plated,1,4,PTH
FMAT,2
INCH
; #@! TA.AperFunction,Plated,PTH,ViaDrill
T1C0.0157
; #@! TA.AperFunction,Plated,PTH,ComponentDrill
T2C0.0236
; #@! TA.AperFunction,Plated,PTH,ComponentDrill
T3C0.0256
; #@! TA.AperFunction,Plated,PTH,ComponentDrill
T4C0.0276
; #@! TA.AperFunction,Plated,PTH,ComponentDrill
T5C0.0315
; #@! TA.AperFunction,Plated,PTH,ComponentDrill
T6C0.0374
; #@! TA.AperFunction,Plated,PTH,ComponentDrill
T7C0.0394
; #@! TA.AperFunction,Plated,PTH,ComponentDrill
T8C0.0472
; #@! TA.AperFunction,Plated,PTH,ComponentDrill
T9C0.0520
; #@! TA.AperFunction,Plated,PTH,ComponentDrill
T10C0.0591
; #@! TA.AperFunction,Plated,PTH,ComponentDrill
T11C0.0709
; #@! TA.AperFunction,Plated,PTH,ComponentDrill
T12C0.0748
; #@! TA.AperFunction,Plated,PTH,ComponentDrill
T13C0.0906
; #@! TA.AperFunction,Plated,PTH,ComponentDrill
T14C0.1063
%
G90
G05
T1
X2.5239Y-5.0511
X2.5682Y-2.6932
X2.5989Y-5.1261
X2.6369Y-2.5923
X2.6583Y-2.3917
X2.6739Y-5.2011
X2.675Y-4.525
X2.675Y-4.6
X2.675Y-4.7
X2.675Y-4.8
X2.725Y-4.875
X2.7345Y-4.4345
X2.7625Y-2.7125
X2.775Y-4.925
X2.7841Y-5.1909
X2.8Y-2.475
X2.8095Y-4.3595
X2.825Y-1.7
X2.825Y-1.8349
X2.825Y-1.9599
X2.8648Y-5.1602
X2.872Y-4.297
X2.8827Y-2.125
X2.9Y-3.025
X2.9Y-4.85
X2.9059Y-2.5691
X2.925Y-2.4
X2.975Y-5.1602
X2.9876Y-4.2374
X3.0Y-3.65
X3.025Y-2.65
X3.075Y-2.925
X3.1Y-4.125
X3.1Y-4.65
X3.1Y-5.1602
X3.125Y-4.0525
X3.125Y-4.95
X3.1339Y-3.2839
X3.1376Y-4.2374
X3.139Y-4.6895
X3.175Y-2.65
X3.2Y-2.775
X3.225Y-4.15
X3.225Y-5.1602
X3.25Y-4.425
X3.275Y-4.65
X3.3Y-4.0775
X3.3526Y-3.9725
X3.3631Y-4.8491
X3.375Y-2.65
X3.375Y-4.65
X3.375Y-5.144
X3.3875Y-3.0125
X3.4Y-4.925
X3.4Y-5.35
X3.4275Y-5.018
X3.4401Y-3.9151
X3.475Y-4.925
X3.5Y-4.6
X3.5137Y-4.0363
X3.5334Y-5.1666
X3.5475Y-2.6525
X3.5541Y-3.8709
X3.575Y-2.125
X3.575Y-2.4557
X3.575Y-4.975
X3.6Y-4.5
X3.65Y-5.0
X3.65Y-5.175
X3.675Y-2.65
X3.6791Y-3.8709
X3.725Y-4.75
X3.75Y-4.575
X3.75Y-5.15
X3.7551Y-2.9949
X3.8041Y-3.8709
X3.8199Y-3.0801
X3.825Y-2.85
X3.825Y-4.425
X3.8475Y-2.6525
X3.875Y-5.15
X3.925Y-4.975
X3.9291Y-3.8709
X3.9339Y-3.0661
X4.0071Y-5.1602
X4.025Y-2.65
X4.0291Y-3.8709
X4.05Y-4.925
X4.05Y-5.05
X4.0589Y-3.0661
X4.1122Y-5.2378
X4.125Y-2.95
X4.125Y-4.8
X4.1301Y-4.5949
X4.1541Y-3.8709
X4.1725Y-2.65
X4.1838Y-3.0588
X4.2Y-4.8
X4.225Y-4.55
X4.225Y-5.35
X4.25Y-2.125
X4.2526Y-2.8574
X4.2622Y-5.2378
X4.275Y-2.475
X4.3Y-4.7725
X4.3102Y-3.7602
X4.3375Y-4.4375
X4.3545Y-4.734
X4.3584Y-2.6198
X4.3852Y-3.6852
X4.4Y-5.075
X4.425Y-5.225
X4.45Y-3.025
X4.4727Y-3.5977
X4.4741Y-4.4259
X4.475Y-4.625
X4.5602Y-3.5102
X4.575Y-2.65
X4.5898Y-5.1602
X4.6Y-4.7725
X4.6375Y-4.4125
X4.6384Y-3.0384
X4.6727Y-3.3977
X4.675Y-2.85
X4.675Y-4.734
X4.743Y-2.657
X4.7477Y-3.3227
X4.7648Y-5.1602
X4.825Y-4.625
X4.825Y-4.8
X4.825Y-5.0
X4.875Y-4.4545
X4.9063Y-3.1112
X4.9148Y-5.1602
X4.9384Y-2.6616
X4.95Y-2.125
X4.975Y-2.475
X4.975Y-4.75
X5.0148Y-5.1602
X5.025Y-2.9525
X5.05Y-3.1
X5.05Y-5.275
X5.0536Y-4.9295
X5.1Y-4.55
X5.125Y-2.675
X5.1648Y-5.1602
X5.175Y-4.275
X5.175Y-4.75
X5.2521Y-3.0632
X5.275Y-4.725
X5.2763Y-4.5975
X5.3Y-5.15
X5.3173Y-2.6827
X5.35Y-3.825
X5.3686Y-4.59
X5.375Y-2.6132
X5.375Y-2.975
X5.375Y-3.925
X5.375Y-4.275
X5.3953Y-4.4064
X5.4Y-3.1
X5.45Y-5.15
X5.5125Y-3.1875
X5.55Y-3.9
X5.575Y-2.55
X5.575Y-3.975
X5.575Y-4.275
X5.575Y-4.575
X5.5884Y-4.3884
X5.5908Y-4.982
X5.6Y-3.8
X5.6Y-4.75
X5.6Y-5.15
X5.6087Y-4.8522
X5.625Y-3.3
X5.6266Y-4.923
X5.632Y-2.693
X5.6632Y-4.7183
X5.7Y-4.6402
X5.7019Y-4.5567
X5.725Y-3.9
X5.7332Y-5.1918
X5.7375Y-2.6875
X5.7418Y-4.5632
X5.75Y-3.275
X5.75Y-3.95
X5.7802Y-4.5545
X5.7864Y-4.4217
X5.7874Y-4.9108
X5.7959Y-4.5908
X5.8Y-3.8
X5.8Y-5.0205
X5.8Y-5.1
X5.824Y-4.5634
X5.835Y-4.9177
X5.85Y-5.375
X5.8507Y-4.8803
X5.8634Y-4.5634
X5.8805Y-3.2695
X5.8846Y-4.9111
X5.8878Y-5.2122
X5.8999Y-4.4499
X5.9237Y-2.7322
X5.936Y-4.8884
X5.9443Y-2.5307
X5.95Y-3.95
X5.95Y-4.225
X5.95Y-5.375
X5.9564Y-4.5977
X5.9684Y-4.7512
X5.975Y-3.9
X5.975Y-4.45
X5.975Y-4.7
X5.9753Y-4.8875
X5.9944Y-4.587
X5.9975Y-3.2805
X5.9986Y-4.9986
X6.0035Y-4.7787
X6.025Y-3.8
X6.0384Y-4.6384
X6.05Y-2.375
X6.075Y-1.9
X6.0875Y-2.6875
X6.1Y-4.725
X6.1Y-5.225
X6.1031Y-3.6219
X6.1134Y-4.4634
X6.118Y-5.057
X6.125Y-3.3
X6.1469Y-2.0719
X6.15Y-4.65
X6.167Y-2.617
X6.175Y-3.175
X6.175Y-3.95
X6.175Y-4.225
X6.175Y-4.9
X6.1884Y-4.7159
X6.1975Y-3.6537
X6.1998Y-5.052
X6.2Y-3.9
X6.2Y-4.6
X6.225Y-3.8
X6.25Y-3.3
X6.3125Y-1.8625
X6.325Y-2.0
X6.325Y-2.15
X6.325Y-2.3
X6.325Y-3.8
X6.3358Y-4.8344
X6.3625Y-2.7875
X6.3634Y-4.9134
X6.375Y-3.05
X6.375Y-3.95
X6.3875Y-3.2625
X6.3884Y-4.4634
X6.4Y-2.375
X6.438Y-4.312
X6.4773Y-3.0707
X6.5355Y-4.5605
X6.55Y-4.45
X6.5551Y-2.7949
X6.5634Y-4.5884
X6.5927Y-1.9323
X6.6801Y-2.7949
X6.7077Y-4.5455
X6.7632Y-3.1368
X6.7632Y-3.2118
X6.7816Y-4.6737
X6.8384Y-4.1134
X6.8884Y-4.2634
T3
X4.1927Y-4.9949
X4.1927Y-5.0449
X4.1927Y-5.0949
X4.2427Y-4.9949
X4.2427Y-5.0449
X4.2427Y-5.0949
X4.6427Y-4.8982
X4.6427Y-4.9482
X4.6427Y-4.9982
X4.775Y-4.725
X5.05Y-4.325
X5.075Y-4.2
X5.1Y-4.325
X6.675Y-5.15
T4
X2.5909Y-2.7807
X2.6697Y-2.7807
X5.1183Y-5.0294
X5.1683Y-5.0294
X5.2183Y-5.0294
X5.2683Y-5.0294
X5.3183Y-5.0294
X5.3683Y-5.0294
X5.4183Y-5.0294
X5.4683Y-5.0294
X5.5183Y-5.0294
X5.5683Y-5.0294
T5
X2.35Y-3.375
X2.35Y-3.675
X2.35Y-3.825
X2.35Y-4.125
X5.1781Y-2.85
X5.375Y-2.85
T6
X2.8136Y-5.2882
X2.912Y-5.2882
X2.9907Y-5.2882
X3.0892Y-5.2882
X3.6549Y-5.2882
X3.7533Y-5.2882
X3.8321Y-5.2882
X3.9305Y-5.2882
X4.4962Y-5.2882
X4.5947Y-5.2882
X4.6734Y-5.2882
X4.7718Y-5.2882
X5.3386Y-5.2882
X5.437Y-5.2882
X5.5157Y-5.2882
X5.6142Y-5.2882
X6.1752Y-5.2882
X6.2736Y-5.2882
X6.3523Y-5.2882
X6.4508Y-5.2882
T7
X2.9545Y-1.675
X3.3876Y-1.675
X3.5545Y-1.675
X3.9876Y-1.675
X4.1545Y-1.675
X4.5876Y-1.675
X4.7545Y-1.675
X5.1876Y-1.675
X5.3545Y-1.675
X5.7876Y-1.675
T8
X3.2214Y-4.2949
X3.371Y-3.1964
X3.371Y-4.2949
X3.5207Y-3.1964
X3.5207Y-4.2949
X3.6703Y-3.1964
X3.8199Y-4.2949
X3.875Y-3.346
X3.875Y-3.4957
X4.1703Y-3.9929
X4.1703Y-4.1425
X4.2254Y-3.1937
X4.375Y-4.2921
X4.5246Y-3.1937
X4.5246Y-4.2921
X4.6742Y-3.1937
X4.6742Y-4.2921
X4.8238Y-3.1937
T9
X2.4427Y-4.773
X2.4427Y-4.9699
X2.4726Y-2.1949
X2.4726Y-2.3917
X6.8427Y-2.7949
X6.8427Y-2.9917
T10
X6.2726Y-1.7051
X6.2726Y-2.5949
T11
X3.2214Y-3.1964
X3.8199Y-3.1964
X4.2254Y-4.2921
X4.8238Y-4.2921
T12
X3.0726Y-1.8719
X3.2695Y-1.8719
X3.6726Y-1.8719
X3.8695Y-1.8719
X4.2726Y-1.8719
X4.4695Y-1.8719
X4.8726Y-1.8719
X5.0695Y-1.8719
X5.4726Y-1.8719
X5.6695Y-1.8719
T13
X2.6927Y-5.3949
X3.21Y-5.3949
X3.534Y-5.3949
X4.0514Y-5.3949
X4.3754Y-5.3949
X4.8927Y-5.3949
X5.2177Y-5.3949
X5.735Y-5.3949
X6.0543Y-5.3949
X6.5716Y-5.3949
T14
X6.5927Y-2.1614
X6.5927Y-2.4449
T2
G00X6.8506Y-2.0374
M15
G01X6.8073Y-2.0374
M16
G05
G00X6.8506Y-2.5689
M15
G01X6.8073Y-2.5689
M16
G05
T0
M30
