M48
; DRILL file {KiCad (6.0.0)} date Mon Mar  7 14:47:07 2022
; FORMAT={-:-/ absolute / metric / decimal}
; #@! TF.CreationDate,2022-03-07T14:47:07+00:00
; #@! TF.GenerationSoftware,Kicad,Pcbnew,(6.0.0)
; #@! TF.FileFunction,Plated,1,4,PTH
FMAT,2
METRIC
; #@! TA.AperFunction,Plated,PTH,ViaDrill
T1C0.400
; #@! TA.AperFunction,Plated,PTH,ComponentDrill
T2C0.600
; #@! TA.AperFunction,Plated,PTH,ComponentDrill
T3C0.650
; #@! TA.AperFunction,Plated,PTH,ComponentDrill
T4C0.700
; #@! TA.AperFunction,Plated,PTH,ComponentDrill
T5C0.800
; #@! TA.AperFunction,Plated,PTH,ComponentDrill
T6C0.950
; #@! TA.AperFunction,Plated,PTH,ComponentDrill
T7C1.000
; #@! TA.AperFunction,Plated,PTH,ComponentDrill
T8C1.200
; #@! TA.AperFunction,Plated,PTH,ComponentDrill
T9C1.320
; #@! TA.AperFunction,Plated,PTH,ComponentDrill
T10C1.500
; #@! TA.AperFunction,Plated,PTH,ComponentDrill
T11C1.800
; #@! TA.AperFunction,Plated,PTH,ComponentDrill
T12C1.900
; #@! TA.AperFunction,Plated,PTH,ComponentDrill
T13C2.300
; #@! TA.AperFunction,Plated,PTH,ComponentDrill
T14C2.700
%
G90
G05
T1
X64.108Y-128.297
X65.233Y-68.407
X66.013Y-130.202
X66.978Y-65.846
X67.52Y-60.75
X67.918Y-132.107
X67.945Y-114.935
X67.945Y-116.84
X67.945Y-119.38
X67.945Y-121.92
X69.215Y-123.825
X69.457Y-112.637
X70.167Y-68.897
X70.485Y-125.095
X70.715Y-131.85
X71.12Y-62.865
X71.362Y-110.732
X71.755Y-43.18
X71.755Y-46.606
X71.755Y-49.781
X72.765Y-131.07
X72.949Y-109.144
X73.22Y-53.975
X73.66Y-76.835
X73.66Y-123.19
X73.81Y-65.255
X74.295Y-60.96
X75.565Y-131.07
X75.885Y-107.63
X76.2Y-92.71
X76.835Y-67.31
X78.105Y-74.295
X78.74Y-104.775
X78.74Y-118.11
X78.74Y-131.07
X79.375Y-102.934
X79.375Y-125.73
X79.602Y-83.412
X79.695Y-107.63
X79.731Y-119.112
X80.645Y-67.31
X81.28Y-70.485
X81.915Y-105.41
X81.915Y-131.07
X82.55Y-112.395
X83.185Y-118.11
X83.82Y-103.569
X85.157Y-100.9
X85.422Y-123.167
X85.725Y-67.31
X85.725Y-118.11
X85.725Y-130.657
X86.042Y-76.517
X86.36Y-125.095
X86.36Y-135.89
X87.059Y-127.458
X87.379Y-99.444
X88.265Y-125.095
X88.9Y-116.84
X89.247Y-102.523
X89.535Y-119.38
X89.748Y-131.232
X90.106Y-67.374
X90.275Y-98.32
X90.805Y-53.975
X90.805Y-62.376
X90.805Y-126.365
X91.44Y-114.3
X92.71Y-127.0
X92.71Y-131.445
X93.345Y-67.31
X93.45Y-98.32
X94.615Y-120.65
X95.25Y-116.205
X95.25Y-130.81
X95.38Y-76.07
X96.07Y-127.0
X96.625Y-98.32
X97.025Y-78.235
X97.155Y-72.39
X97.155Y-112.395
X97.726Y-67.374
X98.425Y-130.81
X99.8Y-98.32
X99.92Y-77.88
X100.33Y-127.0
X101.172Y-124.667
X101.46Y-129.68
X102.235Y-67.31
X102.235Y-121.92
X102.34Y-98.32
X102.513Y-131.802
X103.095Y-77.88
X104.14Y-121.92
X104.45Y-133.04
X104.775Y-74.93
X104.905Y-116.71
X105.515Y-98.32
X105.98Y-67.31
X106.269Y-77.694
X106.68Y-121.92
X107.315Y-115.57
X107.95Y-53.975
X108.017Y-72.578
X108.26Y-133.04
X108.585Y-62.865
X108.585Y-137.795
X109.22Y-121.221
X109.479Y-95.509
X110.172Y-112.712
X110.604Y-120.244
X110.704Y-66.542
X111.384Y-93.604
X111.76Y-129.54
X112.395Y-132.715
X113.03Y-76.835
X113.03Y-125.72
X113.606Y-91.381
X113.641Y-112.419
X113.665Y-117.475
X115.829Y-89.159
X116.205Y-67.31
X116.58Y-131.07
X116.84Y-121.221
X117.792Y-112.078
X117.815Y-77.175
X118.686Y-86.301
X118.745Y-72.39
X118.745Y-120.244
X120.473Y-67.487
X120.591Y-84.396
X121.025Y-131.07
X122.555Y-117.475
X122.555Y-121.92
X122.555Y-127.0
X123.825Y-113.144
X124.62Y-79.024
X124.835Y-131.07
X125.435Y-67.605
X125.73Y-53.975
X126.365Y-62.865
X126.365Y-120.65
X127.375Y-131.07
X127.635Y-74.995
X128.27Y-78.74
X128.27Y-133.985
X128.361Y-125.209
X129.54Y-115.57
X130.175Y-67.945
X131.185Y-131.07
X131.445Y-108.585
X131.445Y-120.65
X133.403Y-77.804
X133.985Y-120.015
X134.018Y-116.775
X134.62Y-130.81
X135.06Y-68.14
X135.89Y-97.155
X136.361Y-116.587
X136.525Y-66.374
X136.525Y-75.565
X136.525Y-99.695
X136.525Y-108.585
X137.042Y-111.922
X137.16Y-78.74
X138.43Y-130.81
X140.017Y-80.962
X140.97Y-99.06
X141.605Y-64.77
X141.605Y-100.965
X141.605Y-108.585
X141.605Y-116.205
X141.945Y-111.465
X142.006Y-126.544
X142.24Y-96.52
X142.24Y-120.65
X142.24Y-130.81
X142.462Y-123.246
X142.875Y-83.82
X142.917Y-125.045
X143.052Y-68.403
X143.845Y-119.844
X144.78Y-117.861
X144.829Y-115.741
X145.415Y-99.06
X145.623Y-131.872
X145.732Y-68.263
X145.842Y-115.906
X146.05Y-83.185
X146.05Y-100.33
X146.816Y-115.683
X146.975Y-112.311
X147.0Y-124.735
X147.215Y-116.608
X147.32Y-96.52
X147.32Y-127.52
X147.32Y-129.54
X147.93Y-115.91
X148.21Y-124.909
X148.59Y-136.525
X148.609Y-123.959
X148.93Y-115.91
X149.365Y-83.045
X149.469Y-124.742
X149.55Y-132.39
X149.858Y-113.028
X150.463Y-69.399
X150.773Y-124.165
X150.985Y-64.28
X151.13Y-100.33
X151.13Y-107.315
X151.13Y-136.525
X151.292Y-116.781
X151.598Y-120.68
X151.765Y-99.06
X151.765Y-113.03
X151.765Y-119.38
X151.773Y-124.142
X152.257Y-116.51
X152.335Y-83.325
X152.365Y-126.965
X152.49Y-121.38
X153.035Y-96.52
X153.375Y-117.815
X153.67Y-60.325
X154.305Y-48.26
X154.623Y-68.263
X154.94Y-120.015
X154.94Y-132.715
X155.02Y-91.995
X155.28Y-113.37
X155.396Y-128.449
X155.575Y-83.82
X156.132Y-52.627
X156.21Y-118.11
X156.641Y-66.471
X156.845Y-80.645
X156.845Y-100.33
X156.845Y-107.315
X156.845Y-124.46
X157.185Y-119.784
X157.415Y-92.805
X157.476Y-128.32
X157.48Y-99.06
X157.48Y-116.84
X158.115Y-96.52
X158.75Y-83.82
X160.338Y-47.307
X160.655Y-50.8
X160.655Y-54.61
X160.655Y-58.42
X160.655Y-96.52
X160.93Y-122.795
X161.607Y-70.802
X161.63Y-124.8
X161.925Y-77.47
X161.925Y-100.33
X162.243Y-82.867
X162.265Y-113.37
X162.56Y-60.325
X163.524Y-109.526
X164.524Y-77.995
X166.003Y-115.838
X166.37Y-113.03
X166.5Y-70.99
X166.71Y-116.545
X167.455Y-49.08
X169.675Y-70.99
X170.377Y-115.456
X171.785Y-79.675
X171.785Y-81.58
X172.252Y-118.713
X173.695Y-104.48
X174.965Y-108.29
T3
X117.925Y-124.415
X117.925Y-125.685
X117.925Y-126.955
X121.285Y-120.015
X128.27Y-109.855
X128.905Y-106.68
X129.54Y-109.855
X169.545Y-130.81
T4
X65.81Y-70.63
X67.81Y-70.63
X130.005Y-127.748
X131.275Y-127.748
X132.545Y-127.748
X133.815Y-127.748
X135.085Y-127.748
X136.355Y-127.748
X137.625Y-127.748
X138.895Y-127.748
X140.165Y-127.748
X141.435Y-127.748
T5
X59.69Y-85.725
X59.69Y-93.345
X59.69Y-97.155
X59.69Y-104.775
X131.525Y-72.39
X136.525Y-72.39
T6
X71.465Y-134.32
X73.965Y-134.32
X75.965Y-134.32
X78.465Y-134.32
X92.835Y-134.32
X95.335Y-134.32
X97.335Y-134.32
X99.835Y-134.32
X114.205Y-134.32
X116.705Y-134.32
X118.705Y-134.32
X121.205Y-134.32
X135.6Y-134.32
X138.1Y-134.32
X140.1Y-134.32
X142.6Y-134.32
X156.85Y-134.32
X159.35Y-134.32
X161.35Y-134.32
X163.85Y-134.32
T7
X75.045Y-42.545
X86.045Y-42.545
X90.285Y-42.545
X101.285Y-42.545
X104.775Y-125.73
X104.775Y-128.27
X105.525Y-42.545
X107.315Y-125.73
X107.315Y-128.27
X109.855Y-125.73
X109.855Y-128.27
X116.525Y-42.545
X120.765Y-42.545
X131.765Y-42.545
X136.005Y-42.545
X147.005Y-42.545
T8
X81.825Y-109.09
X85.625Y-81.19
X85.625Y-109.09
X89.425Y-81.19
X89.425Y-109.09
X93.225Y-81.19
X97.025Y-109.09
X98.425Y-84.99
X98.425Y-88.79
X105.925Y-101.42
X105.925Y-105.22
X107.325Y-81.12
X111.125Y-109.02
X114.925Y-81.12
X114.925Y-109.02
X118.725Y-81.12
X118.725Y-109.02
X122.525Y-81.12
T9
X62.045Y-121.235
X62.045Y-126.235
X62.805Y-55.75
X62.805Y-60.75
X173.805Y-70.99
X173.805Y-75.99
T10
X159.325Y-43.31
X159.325Y-65.91
T11
X81.825Y-81.19
X97.025Y-81.19
X107.325Y-109.02
X122.525Y-109.02
T12
X78.045Y-47.545
X83.045Y-47.545
X93.285Y-47.545
X98.285Y-47.545
X108.525Y-47.545
X113.525Y-47.545
X123.765Y-47.545
X128.765Y-47.545
X139.005Y-47.545
X144.005Y-47.545
T13
X68.395Y-137.03
X81.535Y-137.03
X89.765Y-137.03
X102.905Y-137.03
X111.135Y-137.03
X124.275Y-137.03
X132.53Y-137.03
X145.67Y-137.03
X153.78Y-137.03
X166.92Y-137.03
T14
X167.455Y-54.9
X167.455Y-62.1
T2
G00X174.005Y-51.75
M15
G01X172.905Y-51.75
M16
G05
G00X174.005Y-65.25
M15
G01X172.905Y-65.25
M16
G05
T0
M30
