%TF.GenerationSoftware,KiCad,Pcbnew,(6.0.0)*%
%TF.CreationDate,2022-02-25T16:17:33+00:00*%
%TF.ProjectId,ISOpower,49534f70-6f77-4657-922e-6b696361645f,rev?*%
%TF.SameCoordinates,Original*%
%TF.FileFunction,Copper,L3,Inr*%
%TF.FilePolarity,Positive*%
%FSLAX46Y46*%
G04 Gerber Fmt 4.6, Leading zero omitted, Abs format (unit mm)*
G04 Created by KiCad (PCBNEW (6.0.0)) date 2022-02-25 16:17:33*
%MOMM*%
%LPD*%
G01*
G04 APERTURE LIST*
%TA.AperFunction,ComponentPad*%
%ADD10C,3.716000*%
%TD*%
%TA.AperFunction,ComponentPad*%
%ADD11R,3.716000X3.716000*%
%TD*%
%TA.AperFunction,ComponentPad*%
%ADD12O,2.400000X1.200000*%
%TD*%
%TA.AperFunction,ComponentPad*%
%ADD13R,1.600000X1.500000*%
%TD*%
%TA.AperFunction,ComponentPad*%
%ADD14C,1.600000*%
%TD*%
%TA.AperFunction,ComponentPad*%
%ADD15C,3.000000*%
%TD*%
%TA.AperFunction,ComponentPad*%
%ADD16R,1.000000X1.000000*%
%TD*%
%TA.AperFunction,ComponentPad*%
%ADD17O,1.000000X1.000000*%
%TD*%
%TA.AperFunction,ComponentPad*%
%ADD18C,1.400000*%
%TD*%
%TA.AperFunction,ComponentPad*%
%ADD19R,3.500000X3.500000*%
%TD*%
%TA.AperFunction,ComponentPad*%
%ADD20C,3.500000*%
%TD*%
%TA.AperFunction,ComponentPad*%
%ADD21O,1.600000X1.600000*%
%TD*%
%TA.AperFunction,ComponentPad*%
%ADD22R,3.960000X1.980000*%
%TD*%
%TA.AperFunction,ComponentPad*%
%ADD23O,3.960000X1.980000*%
%TD*%
%TA.AperFunction,ComponentPad*%
%ADD24C,1.900000*%
%TD*%
%TA.AperFunction,ComponentPad*%
%ADD25C,1.800000*%
%TD*%
%TA.AperFunction,ComponentPad*%
%ADD26C,2.500000*%
%TD*%
%TA.AperFunction,ComponentPad*%
%ADD27R,1.400000X1.400000*%
%TD*%
%TA.AperFunction,ViaPad*%
%ADD28C,0.800000*%
%TD*%
%TA.AperFunction,Conductor*%
%ADD29C,0.200000*%
%TD*%
G04 APERTURE END LIST*
D10*
%TO.N,GND*%
%TO.C,J1*%
X167454511Y-54899511D03*
D11*
%TO.N,/24V_0*%
X167454511Y-62099511D03*
D12*
%TO.N,N/C*%
X173454511Y-65249511D03*
X173454511Y-51749511D03*
%TD*%
D13*
%TO.N,5V_BUS*%
%TO.C,J12*%
X135599511Y-134319511D03*
D14*
%TO.N,unconnected-(J12-Pad2)*%
X138099511Y-134319511D03*
%TO.N,unconnected-(J12-Pad3)*%
X140099511Y-134319511D03*
%TO.N,GND*%
X142599511Y-134319511D03*
D15*
X145669511Y-137029511D03*
X132529511Y-137029511D03*
%TD*%
D16*
%TO.N,23*%
%TO.C,J2*%
X247742500Y-129225000D03*
D17*
%TO.N,19*%
X246472500Y-129225000D03*
%TO.N,18*%
X245202500Y-129225000D03*
%TO.N,5*%
X243932500Y-129225000D03*
%TO.N,4*%
X242662500Y-129225000D03*
%TD*%
D18*
%TO.N,*%
%TO.C,J15*%
X90284511Y-43129511D03*
X101284511Y-43129511D03*
D19*
%TO.N,GND*%
X93284511Y-48129511D03*
D20*
%TO.N,/Power Outputs/12V_OP_1*%
X98284511Y-48129511D03*
%TD*%
D14*
%TO.N,Net-(R7-Pad1)*%
%TO.C,R7*%
X101304511Y-76069511D03*
D21*
%TO.N,GND*%
X108924511Y-76069511D03*
%TD*%
D16*
%TO.N,Net-(J8-Pad1)*%
%TO.C,J8*%
X106494511Y-126869511D03*
D17*
%TO.N,/AtMega328p/MCU_5V_BUS*%
X107764511Y-126869511D03*
%TO.N,Net-(J8-Pad3)*%
X106494511Y-128139511D03*
%TO.N,Net-(J8-Pad4)*%
X107764511Y-128139511D03*
%TO.N,/AtMega328p/USB MCU CH340 Interface A/DTR_A*%
X106494511Y-129409511D03*
%TO.N,GND*%
X107764511Y-129409511D03*
%TD*%
%TO.N,/AtMega328p/ADC4*%
%TO.C,J25*%
X126814511Y-114169511D03*
D16*
%TO.N,/AtMega328p/ADC5*%
X128084511Y-114169511D03*
%TD*%
D22*
%TO.N,GND*%
%TO.C,J21*%
X173804511Y-75989511D03*
D23*
%TO.N,24V_BUS*%
X173804511Y-70989511D03*
%TD*%
D24*
%TO.N,unconnected-(U5-Pad34)*%
%TO.C,U5*%
X85624511Y-109089511D03*
%TO.N,unconnected-(U5-Pad33)*%
X98424511Y-84989511D03*
D25*
%TO.N,unconnected-(U5-Pad32)*%
X98424511Y-88789511D03*
D26*
%TO.N,/Power Distribution/12V_I_SENSE_IP*%
X81824511Y-81189511D03*
D24*
X85624511Y-81189511D03*
%TO.N,Net-(R7-Pad1)*%
X89424511Y-81189511D03*
%TO.N,unconnected-(U5-Pad5)*%
X93224511Y-81189511D03*
D26*
%TO.N,GND*%
X97024511Y-81189511D03*
D24*
X97024511Y-109089511D03*
%TO.N,Net-(JP3-Pad2)*%
X89424511Y-109089511D03*
%TO.N,24V_BUS*%
X81824511Y-109089511D03*
%TD*%
D18*
%TO.N,*%
%TO.C,J14*%
X75044511Y-43129511D03*
X86044511Y-43129511D03*
D19*
%TO.N,GND*%
X78044511Y-48129511D03*
D20*
%TO.N,/Power Outputs/12V_OP_0*%
X83044511Y-48129511D03*
%TD*%
D18*
%TO.N,*%
%TO.C,J18*%
X147004511Y-43129511D03*
X136004511Y-43129511D03*
D19*
%TO.N,GND*%
X139004511Y-48129511D03*
D20*
%TO.N,/Power Outputs/12V_OP_4*%
X144004511Y-48129511D03*
%TD*%
D16*
%TO.N,/AtMega328p/CH_C*%
%TO.C,J24*%
X123004511Y-114169511D03*
%TD*%
D22*
%TO.N,GND*%
%TO.C,J22*%
X62804511Y-55749511D03*
D23*
%TO.N,12V_BUS*%
X62804511Y-60749511D03*
%TD*%
D16*
%TO.N,/ESP32_Daughterboard/GND*%
%TO.C,J7*%
X219147500Y-97877500D03*
D17*
%TO.N,/ESP32_Daughterboard/3V3_BUS*%
X220417500Y-97877500D03*
%TO.N,/ESP32_Daughterboard/MCU_5V_BUS*%
X221687500Y-97877500D03*
%TO.N,SCL*%
X222957500Y-97877500D03*
%TO.N,SDA*%
X224227500Y-97877500D03*
%TD*%
D13*
%TO.N,5V_BUS*%
%TO.C,J13*%
X156849506Y-134319511D03*
D14*
%TO.N,unconnected-(J13-Pad2)*%
X159349506Y-134319511D03*
%TO.N,unconnected-(J13-Pad3)*%
X161349506Y-134319511D03*
%TO.N,GND*%
X163849506Y-134319511D03*
D15*
X153779506Y-137029511D03*
X166919506Y-137029511D03*
%TD*%
D24*
%TO.N,24V_BUS*%
%TO.C,U4*%
X122524511Y-81119511D03*
%TO.N,Net-(JP2-Pad2)*%
X114924511Y-81119511D03*
%TO.N,GND*%
X107324511Y-81119511D03*
D26*
X107324511Y-109019511D03*
D24*
%TO.N,unconnected-(U4-Pad5)*%
X111124511Y-109019511D03*
%TO.N,Net-(R6-Pad1)*%
X114924511Y-109019511D03*
%TO.N,/Power Distribution/5V_I_SENSE_IP*%
X118724511Y-109019511D03*
D26*
X122524511Y-109019511D03*
D25*
%TO.N,unconnected-(U4-Pad32)*%
X105924511Y-101419511D03*
D24*
%TO.N,unconnected-(U4-Pad33)*%
X105924511Y-105219511D03*
%TO.N,unconnected-(U4-Pad34)*%
X118724511Y-81119511D03*
%TD*%
D16*
%TO.N,Net-(J3-Pad1)*%
%TO.C,J3*%
X244557500Y-97877500D03*
D17*
%TO.N,Net-(J3-Pad2)*%
X243287500Y-97877500D03*
%TO.N,Net-(J3-Pad3)*%
X242017500Y-97877500D03*
%TO.N,Net-(J3-Pad4)*%
X240747500Y-97877500D03*
%TD*%
D14*
%TO.N,24V_BUS*%
%TO.C,C19*%
X133799511Y-73529511D03*
%TO.N,GND*%
X133799511Y-68529511D03*
%TD*%
D27*
%TO.N,12V_BUS*%
%TO.C,M1*%
X67809511Y-70629511D03*
D18*
%TO.N,GND*%
X65809511Y-70629511D03*
%TD*%
D13*
%TO.N,5V_BUS*%
%TO.C,J10*%
X92834511Y-134319511D03*
D14*
%TO.N,unconnected-(J10-Pad2)*%
X95334511Y-134319511D03*
%TO.N,unconnected-(J10-Pad3)*%
X97334511Y-134319511D03*
%TO.N,GND*%
X99834511Y-134319511D03*
D15*
X102904511Y-137029511D03*
X89764511Y-137029511D03*
%TD*%
D16*
%TO.N,/USB_PBUS*%
%TO.C,J6*%
X117924511Y-126954511D03*
D17*
%TO.N,/AtMega328p/MCU_5V_BUS*%
X117924511Y-125684511D03*
%TO.N,MCU_5V*%
X117924511Y-124414511D03*
%TD*%
D14*
%TO.N,Net-(R6-Pad1)*%
%TO.C,R6*%
X111464511Y-113369511D03*
D21*
%TO.N,GND*%
X103844511Y-113369511D03*
%TD*%
D16*
%TO.N,/USB_PBUS*%
%TO.C,J26*%
X175074511Y-129409511D03*
%TD*%
D18*
%TO.N,*%
%TO.C,J17*%
X120764511Y-43129511D03*
X131764511Y-43129511D03*
D19*
%TO.N,GND*%
X123764511Y-48129511D03*
D20*
%TO.N,/Power Outputs/12V_OP_3*%
X128764511Y-48129511D03*
%TD*%
D18*
%TO.N,*%
%TO.C,J16*%
X116524511Y-43129511D03*
X105524511Y-43129511D03*
D19*
%TO.N,GND*%
X108524511Y-48129511D03*
D20*
%TO.N,/Power Outputs/12V_OP_2*%
X113524511Y-48129511D03*
%TD*%
D13*
%TO.N,5V_BUS*%
%TO.C,J9*%
X71464511Y-134319511D03*
D14*
%TO.N,unconnected-(J9-Pad2)*%
X73964511Y-134319511D03*
%TO.N,unconnected-(J9-Pad3)*%
X75964511Y-134319511D03*
%TO.N,GND*%
X78464511Y-134319511D03*
D15*
X68394511Y-137029511D03*
X81534511Y-137029511D03*
%TD*%
D16*
%TO.N,/3V3_BUS*%
%TO.C,J30*%
X126704511Y-133219511D03*
%TD*%
%TO.N,GND*%
%TO.C,J29*%
X130004511Y-127747783D03*
D17*
%TO.N,/3V3_BUS*%
X131274511Y-127747783D03*
%TO.N,/AtMega328p/MCU_5V_BUS*%
X132544511Y-127747783D03*
%TO.N,/USB_PBUS*%
X133814511Y-127747783D03*
%TO.N,unconnected-(J29-Pad5)*%
X135084511Y-127747783D03*
%TO.N,unconnected-(J29-Pad6)*%
X136354511Y-127747783D03*
%TO.N,unconnected-(J29-Pad7)*%
X137624511Y-127747783D03*
%TO.N,unconnected-(J29-Pad8)*%
X138894511Y-127747783D03*
%TO.N,/AtMega328p/SSERIAL_TX*%
X140164511Y-127747783D03*
%TO.N,/AtMega328p/SSERIAL_RX*%
X141434511Y-127747783D03*
%TD*%
D16*
%TO.N,Net-(J5-Pad1)*%
%TO.C,J5*%
X238207500Y-97877500D03*
D17*
%TO.N,Net-(J5-Pad2)*%
X236937500Y-97877500D03*
%TO.N,Net-(J5-Pad3)*%
X235667500Y-97877500D03*
%TO.N,Net-(J5-Pad4)*%
X234397500Y-97877500D03*
%TO.N,Net-(J5-Pad5)*%
X233127500Y-97877500D03*
%TO.N,Net-(J5-Pad6)*%
X231857500Y-97877500D03*
%TO.N,Net-(J5-Pad7)*%
X230587500Y-97877500D03*
%TO.N,Net-(J5-Pad8)*%
X229317500Y-97877500D03*
%TO.N,Net-(J5-Pad9)*%
X228047500Y-97877500D03*
%TO.N,Net-(D9-Pad2)*%
X226777500Y-97877500D03*
%TD*%
D15*
%TO.N,/24V_0*%
%TO.C,F1*%
X159324511Y-43309511D03*
%TO.N,/24V_1*%
X159324511Y-65909511D03*
%TD*%
D16*
%TO.N,Net-(J4-Pad1)*%
%TO.C,J4*%
X238842500Y-113350000D03*
D17*
%TO.N,Net-(J4-Pad2)*%
X238842500Y-112080000D03*
%TO.N,Net-(J4-Pad3)*%
X238842500Y-110810000D03*
%TO.N,Net-(J4-Pad4)*%
X238842500Y-109540000D03*
%TO.N,Net-(J4-Pad5)*%
X238842500Y-108270000D03*
%TO.N,Net-(J4-Pad6)*%
X238842500Y-107000000D03*
%TD*%
D22*
%TO.N,GND*%
%TO.C,J23*%
X62044511Y-121234511D03*
D23*
%TO.N,5V_BUS*%
X62044511Y-126234511D03*
%TD*%
D13*
%TO.N,5V_BUS*%
%TO.C,J11*%
X114204511Y-134319511D03*
D14*
%TO.N,unconnected-(J11-Pad2)*%
X116704511Y-134319511D03*
%TO.N,unconnected-(J11-Pad3)*%
X118704511Y-134319511D03*
%TO.N,GND*%
X121204511Y-134319511D03*
D15*
X111134511Y-137029511D03*
X124274511Y-137029511D03*
%TD*%
D16*
%TO.N,/ESP32_Daughterboard/GND*%
%TO.C,J19*%
X212172500Y-129225000D03*
D17*
%TO.N,/ESP32_Daughterboard/3V3_BUS*%
X213442500Y-129225000D03*
%TO.N,/ESP32_Daughterboard/MCU_5V_BUS*%
X214712500Y-129225000D03*
%TO.N,/ESP32_Daughterboard/USB_PBUS*%
X215982500Y-129225000D03*
%TO.N,unconnected-(J19-Pad5)*%
X217252500Y-129225000D03*
%TO.N,unconnected-(J19-Pad6)*%
X218522500Y-129225000D03*
%TO.N,unconnected-(J19-Pad7)*%
X219792500Y-129225000D03*
%TO.N,unconnected-(J19-Pad8)*%
X221062500Y-129225000D03*
%TO.N,/ESP32_Daughterboard/SSERIAL_TX*%
X222332500Y-129225000D03*
%TO.N,/ESP32_Daughterboard/SSERIAL_RX*%
X223602500Y-129225000D03*
%TD*%
D28*
%TO.N,GND*%
X116205000Y-78740000D03*
X141900489Y-114639511D03*
X142240000Y-120650000D03*
X151765000Y-113030000D03*
%TO.N,Net-(D4-Pad2)*%
X156845000Y-124460000D03*
X147320000Y-128270000D03*
%TO.N,GND*%
X151130000Y-127570500D03*
X154940000Y-120015000D03*
X157480000Y-116840000D03*
X132715000Y-123190000D03*
X164115268Y-112109732D03*
X156845000Y-107315000D03*
X151130000Y-107315000D03*
X140970000Y-107950000D03*
X136128550Y-108548340D03*
X156845000Y-127635000D03*
X161925000Y-100330000D03*
X156845000Y-100330000D03*
X151130000Y-100330000D03*
X146050000Y-100330000D03*
X141605000Y-100330000D03*
X88714511Y-117660489D03*
X120015000Y-115570000D03*
X102235000Y-127000000D03*
X96520000Y-125095000D03*
X92710000Y-126365000D03*
X82550000Y-111760000D03*
X69215000Y-120650000D03*
X76969511Y-129404511D03*
X153670000Y-44450000D03*
X99060000Y-71755000D03*
X107315000Y-68580000D03*
X74295000Y-68580000D03*
%TO.N,Net-(C18-Pad1)*%
X69554511Y-67649511D03*
X63839511Y-67649511D03*
%TO.N,/ESP32_Daughterboard/USB ESP32 CH340 Interface /ESP_EN*%
X236937500Y-103592500D03*
X256622500Y-102957500D03*
%TO.N,MCU_5V*%
X125434511Y-91144511D03*
X87969511Y-107654511D03*
X131149511Y-114935000D03*
%TO.N,Net-(D1-Pad2)*%
X156549511Y-75904511D03*
X163534511Y-77174511D03*
%TO.N,Net-(D4-Pad2)*%
X170586217Y-116099521D03*
X161629511Y-124799511D03*
X166709511Y-116544511D03*
X174964511Y-108289511D03*
%TO.N,Net-(D4-Pad3)*%
X160930011Y-122794531D03*
X166002756Y-115837756D03*
X173694511Y-104479511D03*
%TO.N,Net-(D6-Pad2)*%
X79079511Y-117814511D03*
X66675000Y-46961289D03*
%TO.N,Net-(D8-Pad2)*%
X82232476Y-114779011D03*
X66040000Y-47960792D03*
%TO.N,4*%
X243790979Y-125011511D03*
%TO.N,Net-(J5-Pad8)*%
X245192500Y-108037500D03*
%TO.N,Net-(J5-Pad9)*%
X247097500Y-111847500D03*
%TO.N,SCL*%
X255352500Y-119467500D03*
X221062500Y-101052500D03*
%TO.N,SDA*%
X224872500Y-104227500D03*
X252812500Y-120652998D03*
%TO.N,Net-(J8-Pad1)*%
X150773492Y-124165021D03*
%TO.N,Net-(J8-Pad3)*%
X151772730Y-124142049D03*
%TO.N,Net-(J8-Pad4)*%
X149468877Y-124741579D03*
%TO.N,/5V_BUS_MONITOR*%
X79731429Y-119112465D03*
X85429511Y-130514511D03*
X142579511Y-122959011D03*
X136020139Y-116054383D03*
X87334511Y-126704511D03*
%TO.N,/12V_BUS_MONITOR*%
X95589511Y-72729511D03*
X87334511Y-114639511D03*
X134959511Y-119719511D03*
%TO.N,/BUS_B_DISABLE*%
X117814511Y-77174511D03*
X131149511Y-112099511D03*
%TO.N,/BUS_A_DISABLE*%
X91144511Y-115909511D03*
X144909000Y-117660880D03*
%TO.N,/Power Outputs/5v to 12v logic conversion_v2/0_OUT*%
X75269511Y-57489511D03*
X134324511Y-93684511D03*
%TO.N,/Power Outputs/5v to 12v logic conversion_v2/1_OUT*%
X141944511Y-94954511D03*
X91779511Y-58124511D03*
%TO.N,/Power Outputs/5v to 12v logic conversion_v2/2_OUT*%
X109559511Y-58124511D03*
X147024511Y-94954511D03*
%TO.N,/Power Outputs/5v to 12v logic conversion_v2/3_OUT*%
X138134511Y-63204511D03*
X152739511Y-94954511D03*
%TO.N,/Power Outputs/5v to 12v logic conversion_v2/4_OUT*%
X147659511Y-65109511D03*
X157819511Y-94954511D03*
%TO.N,Net-(Q19-Pad2)*%
X224382372Y-118623128D03*
X228682500Y-111212500D03*
%TO.N,/ESP32_Daughterboard/GND*%
X239842500Y-126722500D03*
X229317500Y-101687500D03*
X226141882Y-128357269D03*
X256892500Y-112752500D03*
X213437500Y-124552500D03*
X215990000Y-109935000D03*
X241382500Y-103592500D03*
X228997500Y-122090000D03*
X223602500Y-103592500D03*
X221062500Y-114387500D03*
X217252500Y-126452500D03*
X218522500Y-115022500D03*
X239449083Y-117819349D03*
%TO.N,Net-(Q20-Pad2)*%
X232492500Y-113117500D03*
X228047500Y-117562500D03*
%TO.N,/ESP32_Daughterboard/MCU_5V_BUS*%
X222332500Y-102322500D03*
X223538000Y-116292500D03*
X224237500Y-111212500D03*
%TO.N,/ESP32_Daughterboard/3V3_BUS*%
X236302500Y-122642500D03*
X228682500Y-128357500D03*
X258527500Y-108037500D03*
%TO.N,/AtMega328p/MCU_5V_BUS*%
X149860000Y-113030000D03*
X155279511Y-113369511D03*
X144209500Y-116261880D03*
X152490011Y-121379692D03*
X143214511Y-119084511D03*
X142703883Y-125664383D03*
%TO.N,/BUS_I_SENSE_A*%
X151469511Y-119655011D03*
X92414511Y-88604511D03*
%TO.N,/BUS_I_SENSE_B*%
X151598314Y-120680192D03*
X129879511Y-122195011D03*
%TO.N,/AtMega328p/USB MCU CH340 Interface A/DTR_A*%
X147214648Y-116607555D03*
X127339511Y-127339511D03*
X153374511Y-117814511D03*
%TO.N,/USB_PBUS*%
X123529511Y-126704511D03*
X172251616Y-118712935D03*
%TO.N,/ESP32_Daughterboard/SSERIAL_RX*%
X232492500Y-127087500D03*
%TO.N,/AtMega328p/ADC5*%
X147930008Y-115909511D03*
%TO.N,/AtMega328p/ADC4*%
X148929511Y-115909511D03*
%TO.N,Net-(D9-Pad2)*%
X227921739Y-104353261D03*
X238842500Y-115022500D03*
%TO.N,/AtMega328p/SSERIAL_TX*%
X146999842Y-124735445D03*
%TO.N,/AtMega328p/SSERIAL_RX*%
X148209834Y-124909082D03*
%TO.N,/AtMega328p/CH_F*%
X137041633Y-111922389D03*
X148609011Y-123959149D03*
%TO.N,/AtMega328p/CH_G*%
X141944511Y-111464511D03*
X152256854Y-116510188D03*
%TO.N,/AtMega328p/CH_H*%
X151292014Y-116781232D03*
X146975106Y-112310607D03*
%TO.N,/ESP32_Daughterboard/Logic Level Conversion/1A*%
X231222500Y-130262500D03*
X239477500Y-128992500D03*
%TO.N,/ESP32_Daughterboard/USB ESP32 CH340 Interface /TxD_B*%
X222967500Y-117562500D03*
X254717500Y-123912500D03*
%TO.N,/ESP32_Daughterboard/USB ESP32 CH340 Interface /RxD_B*%
X222758128Y-118977372D03*
X255987500Y-123912500D03*
%TO.N,/AtMega328p/USB MCU CH340 Interface A/RxD_A*%
X146798874Y-115687090D03*
X157184511Y-119784011D03*
%TO.N,/AtMega328p/USB MCU CH340 Interface A/TxD_A*%
X156210000Y-118110000D03*
X145823393Y-115904904D03*
%TO.N,HV*%
X126069511Y-68919511D03*
X129879511Y-89874511D03*
%TD*%
D29*
%TO.N,/BUS_I_SENSE_A*%
X94555000Y-86464022D02*
X92414511Y-88604511D01*
X104490363Y-86464022D02*
X94555000Y-86464022D01*
X125875181Y-107848840D02*
X104490363Y-86464022D01*
X125875181Y-114360861D02*
X125875181Y-107848840D01*
X128475700Y-116961380D02*
X125875181Y-114360861D01*
X145415000Y-116961380D02*
X128475700Y-116961380D01*
X151469511Y-119655011D02*
X148108631Y-119655011D01*
X148108631Y-119655011D02*
X145415000Y-116961380D01*
%TO.N,Net-(J8-Pad4)*%
X149468877Y-124938075D02*
X149468877Y-124741579D01*
X108264510Y-128639510D02*
X145767442Y-128639510D01*
X145767442Y-128639510D02*
X149468877Y-124938075D01*
X107764511Y-128139511D02*
X108264510Y-128639510D01*
%TO.N,Net-(D8-Pad2)*%
X66040000Y-52000006D02*
X66040000Y-47960792D01*
X78380000Y-64340006D02*
X66040000Y-52000006D01*
X78380000Y-118104259D02*
X78380000Y-64340006D01*
X78789763Y-118514022D02*
X78380000Y-118104259D01*
X79369259Y-118514022D02*
X78789763Y-118514022D01*
X82232476Y-115650805D02*
X79369259Y-118514022D01*
X82232476Y-114779011D02*
X82232476Y-115650805D01*
%TO.N,Net-(D6-Pad2)*%
X67612350Y-53007350D02*
X67612350Y-47898639D01*
X79079511Y-64474511D02*
X67612350Y-53007350D01*
X79079511Y-117814511D02*
X79079511Y-64474511D01*
X67612350Y-47898639D02*
X66675000Y-46961289D01*
%TO.N,/5V_BUS_MONITOR*%
X87334511Y-126069511D02*
X80377465Y-119112465D01*
X87334511Y-126704511D02*
X87334511Y-126069511D01*
X80377465Y-119112465D02*
X79731429Y-119112465D01*
%TO.N,/BUS_I_SENSE_B*%
X130725021Y-121349501D02*
X150929005Y-121349501D01*
X129879511Y-122195011D02*
X130725021Y-121349501D01*
X150929005Y-121349501D02*
X151598314Y-120680192D01*
%TO.N,/AtMega328p/ADC5*%
X147498375Y-115477878D02*
X147930008Y-115909511D01*
X147498375Y-115397346D02*
X147498375Y-115477878D01*
X145766029Y-113665000D02*
X147498375Y-115397346D01*
%TO.N,/AtMega328p/ADC4*%
X127340000Y-113370000D02*
X126814511Y-113895489D01*
X128319028Y-113370000D02*
X127340000Y-113370000D01*
X146454012Y-113434012D02*
X146100034Y-113434012D01*
X146100034Y-113434012D02*
X145931511Y-113265489D01*
X148929511Y-115909511D02*
X146454012Y-113434012D01*
X145931511Y-113265489D02*
X128423538Y-113265490D01*
X128423538Y-113265490D02*
X128319028Y-113370000D01*
%TO.N,/AtMega328p/ADC5*%
X128589022Y-113665000D02*
X145766029Y-113665000D01*
X128084511Y-114169511D02*
X128589022Y-113665000D01*
%TO.N,/BUS_A_DISABLE*%
X92872255Y-117637255D02*
X144885375Y-117637255D01*
X144885375Y-117637255D02*
X144909000Y-117660880D01*
X91144511Y-115909511D02*
X92872255Y-117637255D01*
%TO.N,/AtMega328p/CH_H*%
X147235607Y-112310607D02*
X151292014Y-116367014D01*
X151292014Y-116367014D02*
X151292014Y-116781232D01*
X146975106Y-112310607D02*
X147235607Y-112310607D01*
%TO.N,/AtMega328p/CH_G*%
X147305266Y-111464511D02*
X152256854Y-116416099D01*
X141944511Y-111464511D02*
X147305266Y-111464511D01*
X152256854Y-116416099D02*
X152256854Y-116510188D01*
%TO.N,Net-(J8-Pad3)*%
X151772730Y-124806515D02*
X151772730Y-124142049D01*
X107103831Y-131149511D02*
X145429734Y-131149511D01*
X105695000Y-129740680D02*
X107103831Y-131149511D01*
X105695000Y-128939022D02*
X105695000Y-129740680D01*
X145429734Y-131149511D02*
X151772730Y-124806515D01*
X106494511Y-128139511D02*
X105695000Y-128939022D01*
%TO.N,Net-(R7-Pad1)*%
X94544511Y-76069511D02*
X101304511Y-76069511D01*
X89424511Y-81189511D02*
X94544511Y-76069511D01*
%TO.N,Net-(C18-Pad1)*%
X63839511Y-67649511D02*
X69554511Y-67649511D01*
%TO.N,/ESP32_Daughterboard/USB ESP32 CH340 Interface /ESP_EN*%
X256032021Y-102367021D02*
X238162979Y-102367021D01*
X256622500Y-102957500D02*
X256032021Y-102367021D01*
X238162979Y-102367021D02*
X236937500Y-103592500D01*
%TO.N,Net-(D1-Pad2)*%
X162264511Y-75904511D02*
X163534511Y-77174511D01*
X156549511Y-75904511D02*
X162264511Y-75904511D01*
%TO.N,Net-(D4-Pad2)*%
X174964511Y-108289511D02*
X174964511Y-111818756D01*
X166709511Y-116544511D02*
X161629511Y-121624511D01*
X174964511Y-111818756D02*
X170683746Y-116099521D01*
X161629511Y-121624511D02*
X161629511Y-124799511D01*
X170683746Y-116099521D02*
X170586217Y-116099521D01*
%TO.N,Net-(D4-Pad3)*%
X173694511Y-112099511D02*
X173694511Y-104479511D01*
X173694511Y-112099511D02*
X169741001Y-112099511D01*
X160930011Y-120419011D02*
X160930011Y-122794531D01*
X166002756Y-115837756D02*
X165511266Y-115837756D01*
X165511266Y-115837756D02*
X160930011Y-120419011D01*
X169741001Y-112099511D02*
X166002756Y-115837756D01*
%TO.N,4*%
X242662500Y-126139990D02*
X243790979Y-125011511D01*
X242662500Y-129225000D02*
X242662500Y-126139990D01*
%TO.N,Net-(J5-Pad8)*%
X236841467Y-105401467D02*
X242556467Y-105401467D01*
X242556467Y-105401467D02*
X245192500Y-108037500D01*
X229317500Y-97877500D02*
X236841467Y-105401467D01*
%TO.N,Net-(J5-Pad9)*%
X235970978Y-105800978D02*
X241050978Y-105800978D01*
X241050978Y-105800978D02*
X247097500Y-111847500D01*
X228047500Y-97877500D02*
X235970978Y-105800978D01*
%TO.N,SCL*%
X231280489Y-106200489D02*
X239173669Y-106200489D01*
X221062500Y-101052500D02*
X222957500Y-99157500D01*
X222957500Y-99157500D02*
X222957500Y-97877500D01*
X252440680Y-119467500D02*
X255352500Y-119467500D01*
X239173669Y-106200489D02*
X252440680Y-119467500D01*
X222957500Y-97877500D02*
X231280489Y-106200489D01*
%TO.N,SDA*%
X224872500Y-104227500D02*
X238777999Y-118132999D01*
X238777999Y-118132999D02*
X238777999Y-118487244D01*
X238777999Y-118487244D02*
X240943753Y-120652998D01*
X240943753Y-120652998D02*
X252812500Y-120652998D01*
%TO.N,Net-(J8-Pad1)*%
X145698999Y-124164511D02*
X146637626Y-123225884D01*
X127629255Y-128039012D02*
X127914245Y-127754022D01*
X126764777Y-127754022D02*
X127049767Y-128039012D01*
X127914245Y-127754022D02*
X128195000Y-127754022D01*
X127049767Y-128039012D02*
X127629255Y-128039012D01*
X128195000Y-127754022D02*
X131784511Y-124164511D01*
X131784511Y-124164511D02*
X145698999Y-124164511D01*
X146637626Y-123225884D02*
X149834355Y-123225884D01*
X106494511Y-126869511D02*
X107294022Y-126070000D01*
X117125000Y-127754022D02*
X126764777Y-127754022D01*
X115440978Y-126070000D02*
X117125000Y-127754022D01*
X149834355Y-123225884D02*
X150773492Y-124165021D01*
X107294022Y-126070000D02*
X115440978Y-126070000D01*
%TO.N,/5V_BUS_MONITOR*%
X87334511Y-128609511D02*
X87334511Y-126704511D01*
X85429511Y-130514511D02*
X87334511Y-128609511D01*
%TO.N,/12V_BUS_MONITOR*%
X86874022Y-114179022D02*
X87334511Y-114639511D01*
X95589511Y-72729511D02*
X86874022Y-81445000D01*
X92414511Y-119719511D02*
X134959511Y-119719511D01*
X86874022Y-81445000D02*
X86874022Y-114179022D01*
X87334511Y-114639511D02*
X92414511Y-119719511D01*
%TO.N,/BUS_B_DISABLE*%
X117475000Y-77514022D02*
X117475000Y-98425000D01*
X117814511Y-77174511D02*
X117475000Y-77514022D01*
X117475000Y-98425000D02*
X131149511Y-112099511D01*
%TO.N,/Power Outputs/5v to 12v logic conversion_v2/0_OUT*%
X76604012Y-58824012D02*
X75269511Y-57489511D01*
X104949028Y-58524022D02*
X92369245Y-58524022D01*
X134324511Y-93684511D02*
X134324511Y-87899505D01*
X134324511Y-87899505D02*
X104949028Y-58524022D01*
X92069255Y-58824012D02*
X76604012Y-58824012D01*
X92369245Y-58524022D02*
X92069255Y-58824012D01*
%TO.N,/Power Outputs/5v to 12v logic conversion_v2/1_OUT*%
X105114511Y-58124511D02*
X91779511Y-58124511D01*
X141944511Y-94954511D02*
X105114511Y-58124511D01*
%TO.N,/Power Outputs/5v to 12v logic conversion_v2/2_OUT*%
X147024511Y-94954511D02*
X110194511Y-58124511D01*
X110194511Y-58124511D02*
X109559511Y-58124511D01*
%TO.N,/Power Outputs/5v to 12v logic conversion_v2/3_OUT*%
X152739511Y-94954511D02*
X138134511Y-80349511D01*
X138134511Y-80349511D02*
X138134511Y-63204511D01*
%TO.N,/Power Outputs/5v to 12v logic conversion_v2/4_OUT*%
X147659511Y-84794511D02*
X157819511Y-94954511D01*
X147659511Y-65109511D02*
X147659511Y-84794511D01*
%TO.N,Net-(Q19-Pad2)*%
X224237500Y-115657500D02*
X224237500Y-118478256D01*
X228682500Y-111212500D02*
X224237500Y-115657500D01*
X224237500Y-118478256D02*
X224382372Y-118623128D01*
%TO.N,Net-(Q20-Pad2)*%
X232492500Y-113117500D02*
X228047500Y-117562500D01*
%TO.N,/AtMega328p/USB MCU CH340 Interface A/DTR_A*%
X153374511Y-121489118D02*
X153374511Y-117814511D01*
X127339511Y-127339511D02*
X132599829Y-122079193D01*
X148421604Y-117814511D02*
X147214648Y-116607555D01*
X152784436Y-122079193D02*
X153374511Y-121489118D01*
X153374511Y-117814511D02*
X148421604Y-117814511D01*
X132599829Y-122079193D02*
X152784436Y-122079193D01*
%TO.N,/ESP32_Daughterboard/SSERIAL_RX*%
X223602500Y-129225000D02*
X225740000Y-127087500D01*
X225740000Y-127087500D02*
X232492500Y-127087500D01*
%TO.N,Net-(D9-Pad2)*%
X228173261Y-104353261D02*
X227921739Y-104353261D01*
X238842500Y-115022500D02*
X228173261Y-104353261D01*
%TO.N,/AtMega328p/SSERIAL_TX*%
X140164511Y-127747783D02*
X140164511Y-126565266D01*
X140164511Y-126565266D02*
X141871767Y-124858010D01*
X146877277Y-124858010D02*
X146999842Y-124735445D01*
X141871767Y-124858010D02*
X146877277Y-124858010D01*
%TO.N,/AtMega328p/SSERIAL_RX*%
X141434511Y-127747783D02*
X145371133Y-127747783D01*
X145371133Y-127747783D02*
X148209834Y-124909082D01*
%TO.N,/ESP32_Daughterboard/Logic Level Conversion/1A*%
X231222500Y-130262500D02*
X238207500Y-130262500D01*
X238207500Y-130262500D02*
X239477500Y-128992500D01*
%TO.N,/ESP32_Daughterboard/USB ESP32 CH340 Interface /TxD_B*%
X222967500Y-118197500D02*
X228682500Y-123912500D01*
X254717500Y-123912500D02*
X228682500Y-123912500D01*
X222967500Y-118197500D02*
X222967500Y-117562500D01*
%TO.N,/ESP32_Daughterboard/USB ESP32 CH340 Interface /RxD_B*%
X255287999Y-124612001D02*
X245327008Y-124612001D01*
X255987500Y-123912500D02*
X255287999Y-124612001D01*
X245327008Y-124612001D02*
X245027018Y-124312011D01*
X245027018Y-124312011D02*
X228092767Y-124312011D01*
X228092767Y-124312011D02*
X222758128Y-118977372D01*
%TD*%
M02*
