%TF.GenerationSoftware,KiCad,Pcbnew,(6.0.0)*%
%TF.CreationDate,2022-02-25T16:17:33+00:00*%
%TF.ProjectId,ISOpower,49534f70-6f77-4657-922e-6b696361645f,rev?*%
%TF.SameCoordinates,Original*%
%TF.FileFunction,Soldermask,Bot*%
%TF.FilePolarity,Negative*%
%FSLAX46Y46*%
G04 Gerber Fmt 4.6, Leading zero omitted, Abs format (unit mm)*
G04 Created by KiCad (PCBNEW (6.0.0)) date 2022-02-25 16:17:33*
%MOMM*%
%LPD*%
G01*
G04 APERTURE LIST*
%ADD10C,3.716000*%
%ADD11R,3.716000X3.716000*%
%ADD12O,2.400000X1.200000*%
%ADD13R,1.600000X1.500000*%
%ADD14C,1.600000*%
%ADD15C,3.000000*%
%ADD16R,1.000000X1.000000*%
%ADD17O,1.000000X1.000000*%
%ADD18C,1.400000*%
%ADD19R,3.500000X3.500000*%
%ADD20C,3.500000*%
%ADD21C,3.200000*%
%ADD22C,1.000000*%
%ADD23O,1.600000X1.600000*%
%ADD24R,3.960000X1.980000*%
%ADD25O,3.960000X1.980000*%
%ADD26C,1.900000*%
%ADD27C,1.800000*%
%ADD28C,2.500000*%
%ADD29O,2.000000X3.500000*%
%ADD30R,1.400000X1.400000*%
G04 APERTURE END LIST*
D10*
%TO.C,J1*%
X167454511Y-54899511D03*
D11*
X167454511Y-62099511D03*
D12*
X173454511Y-65249511D03*
X173454511Y-51749511D03*
%TD*%
D13*
%TO.C,J12*%
X135599511Y-134319511D03*
D14*
X138099511Y-134319511D03*
X140099511Y-134319511D03*
X142599511Y-134319511D03*
D15*
X145669511Y-137029511D03*
X132529511Y-137029511D03*
%TD*%
D16*
%TO.C,J2*%
X247742500Y-129225000D03*
D17*
X246472500Y-129225000D03*
X245202500Y-129225000D03*
X243932500Y-129225000D03*
X242662500Y-129225000D03*
%TD*%
D18*
%TO.C,J15*%
X90284511Y-43129511D03*
X101284511Y-43129511D03*
D19*
X93284511Y-48129511D03*
D20*
X98284511Y-48129511D03*
%TD*%
D21*
%TO.C,H10*%
X252812500Y-127087500D03*
%TD*%
D22*
%TO.C,J20*%
X214552500Y-122302500D03*
X214552500Y-117902500D03*
%TD*%
D14*
%TO.C,R7*%
X101304511Y-76069511D03*
D23*
X108924511Y-76069511D03*
%TD*%
D16*
%TO.C,J8*%
X106494511Y-126869511D03*
D17*
X107764511Y-126869511D03*
X106494511Y-128139511D03*
X107764511Y-128139511D03*
X106494511Y-129409511D03*
X107764511Y-129409511D03*
%TD*%
%TO.C,J25*%
X126814511Y-114169511D03*
D16*
X128084511Y-114169511D03*
%TD*%
D21*
%TO.C,H1*%
X62804511Y-134489511D03*
%TD*%
D24*
%TO.C,J21*%
X173804511Y-75989511D03*
D25*
X173804511Y-70989511D03*
%TD*%
D26*
%TO.C,U5*%
X85624511Y-109089511D03*
X98424511Y-84989511D03*
D27*
X98424511Y-88789511D03*
D28*
X81824511Y-81189511D03*
D26*
X85624511Y-81189511D03*
X89424511Y-81189511D03*
X93224511Y-81189511D03*
D28*
X97024511Y-81189511D03*
D26*
X97024511Y-109089511D03*
X89424511Y-109089511D03*
X81824511Y-109089511D03*
%TD*%
D18*
%TO.C,J14*%
X75044511Y-43129511D03*
X86044511Y-43129511D03*
D19*
X78044511Y-48129511D03*
D20*
X83044511Y-48129511D03*
%TD*%
D18*
%TO.C,J18*%
X147004511Y-43129511D03*
X136004511Y-43129511D03*
D19*
X139004511Y-48129511D03*
D20*
X144004511Y-48129511D03*
%TD*%
D16*
%TO.C,J24*%
X123004511Y-114169511D03*
%TD*%
D24*
%TO.C,J22*%
X62804511Y-55749511D03*
D25*
X62804511Y-60749511D03*
%TD*%
D21*
%TO.C,H3*%
X172024511Y-134489511D03*
%TD*%
D16*
%TO.C,J7*%
X219147500Y-97877500D03*
D17*
X220417500Y-97877500D03*
X221687500Y-97877500D03*
X222957500Y-97877500D03*
X224227500Y-97877500D03*
%TD*%
D13*
%TO.C,J13*%
X156849506Y-134319511D03*
D14*
X159349506Y-134319511D03*
X161349506Y-134319511D03*
X163849506Y-134319511D03*
D15*
X153779506Y-137029511D03*
X166919506Y-137029511D03*
%TD*%
D26*
%TO.C,U4*%
X122524511Y-81119511D03*
X114924511Y-81119511D03*
X107324511Y-81119511D03*
D28*
X107324511Y-109019511D03*
D26*
X111124511Y-109019511D03*
X114924511Y-109019511D03*
X118724511Y-109019511D03*
D28*
X122524511Y-109019511D03*
D27*
X105924511Y-101419511D03*
D26*
X105924511Y-105219511D03*
X118724511Y-81119511D03*
%TD*%
D21*
%TO.C,H5*%
X252812500Y-100417500D03*
%TD*%
D16*
%TO.C,J3*%
X244557500Y-97877500D03*
D17*
X243287500Y-97877500D03*
X242017500Y-97877500D03*
X240747500Y-97877500D03*
%TD*%
D14*
%TO.C,C19*%
X133799511Y-73529511D03*
X133799511Y-68529511D03*
%TD*%
D21*
%TO.C,H7*%
X131894511Y-98929511D03*
%TD*%
D29*
%TO.C,M1*%
X59809511Y-111629511D03*
X75809511Y-111629511D03*
X59809511Y-79629511D03*
X75809511Y-79629511D03*
D30*
X67809511Y-70629511D03*
D18*
X65809511Y-70629511D03*
%TD*%
D13*
%TO.C,J10*%
X92834511Y-134319511D03*
D14*
X95334511Y-134319511D03*
X97334511Y-134319511D03*
X99834511Y-134319511D03*
D15*
X102904511Y-137029511D03*
X89764511Y-137029511D03*
%TD*%
D16*
%TO.C,J6*%
X117924511Y-126954511D03*
D17*
X117924511Y-125684511D03*
X117924511Y-124414511D03*
%TD*%
D14*
%TO.C,R6*%
X111464511Y-113369511D03*
D23*
X103844511Y-113369511D03*
%TD*%
D16*
%TO.C,J26*%
X175074511Y-129409511D03*
%TD*%
D18*
%TO.C,J17*%
X120764511Y-43129511D03*
X131764511Y-43129511D03*
D19*
X123764511Y-48129511D03*
D20*
X128764511Y-48129511D03*
%TD*%
D21*
%TO.C,H8*%
X170629511Y-125599511D03*
%TD*%
D18*
%TO.C,J16*%
X116524511Y-43129511D03*
X105524511Y-43129511D03*
D19*
X108524511Y-48129511D03*
D20*
X113524511Y-48129511D03*
%TD*%
D13*
%TO.C,J9*%
X71464511Y-134319511D03*
D14*
X73964511Y-134319511D03*
X75964511Y-134319511D03*
X78464511Y-134319511D03*
D15*
X68394511Y-137029511D03*
X81534511Y-137029511D03*
%TD*%
D16*
%TO.C,J30*%
X126704511Y-133219511D03*
%TD*%
%TO.C,J29*%
X130004511Y-127747783D03*
D17*
X131274511Y-127747783D03*
X132544511Y-127747783D03*
X133814511Y-127747783D03*
X135084511Y-127747783D03*
X136354511Y-127747783D03*
X137624511Y-127747783D03*
X138894511Y-127747783D03*
X140164511Y-127747783D03*
X141434511Y-127747783D03*
%TD*%
D16*
%TO.C,J5*%
X238207500Y-97877500D03*
D17*
X236937500Y-97877500D03*
X235667500Y-97877500D03*
X234397500Y-97877500D03*
X233127500Y-97877500D03*
X231857500Y-97877500D03*
X230587500Y-97877500D03*
X229317500Y-97877500D03*
X228047500Y-97877500D03*
X226777500Y-97877500D03*
%TD*%
D15*
%TO.C,F1*%
X159324511Y-43309511D03*
X159324511Y-65909511D03*
%TD*%
D21*
%TO.C,H4*%
X62804511Y-45589511D03*
%TD*%
D16*
%TO.C,J4*%
X238842500Y-113350000D03*
D17*
X238842500Y-112080000D03*
X238842500Y-110810000D03*
X238842500Y-109540000D03*
X238842500Y-108270000D03*
X238842500Y-107000000D03*
%TD*%
D22*
%TO.C,J31*%
X171264511Y-117639511D03*
X171264511Y-113239511D03*
%TD*%
D21*
%TO.C,H6*%
X214077500Y-100417500D03*
%TD*%
D24*
%TO.C,J23*%
X62044511Y-121234511D03*
D25*
X62044511Y-126234511D03*
%TD*%
D21*
%TO.C,H2*%
X172024511Y-45589511D03*
%TD*%
D13*
%TO.C,J11*%
X114204511Y-134319511D03*
D14*
X116704511Y-134319511D03*
X118704511Y-134319511D03*
X121204511Y-134319511D03*
D15*
X111134511Y-137029511D03*
X124274511Y-137029511D03*
%TD*%
D21*
%TO.C,H9*%
X170629511Y-98929511D03*
%TD*%
D16*
%TO.C,J19*%
X212172500Y-129225000D03*
D17*
X213442500Y-129225000D03*
X214712500Y-129225000D03*
X215982500Y-129225000D03*
X217252500Y-129225000D03*
X218522500Y-129225000D03*
X219792500Y-129225000D03*
X221062500Y-129225000D03*
X222332500Y-129225000D03*
X223602500Y-129225000D03*
%TD*%
M02*
